<?xml version="1.0" encoding="UTF-8" standalone="no"?>
<!-- Created with Inkscape (http://www.inkscape.org/) -->

<svg
   xmlns:dc="http://purl.org/dc/elements/1.1/"
   xmlns:cc="http://creativecommons.org/ns#"
   xmlns:rdf="http://www.w3.org/1999/02/22-rdf-syntax-ns#"
   xmlns:svg="http://www.w3.org/2000/svg"
   xmlns="http://www.w3.org/2000/svg"
   xmlns:sodipodi="http://sodipodi.sourceforge.net/DTD/sodipodi-0.dtd"
   xmlns:inkscape="http://www.inkscape.org/namespaces/inkscape"
   width="49.184711mm"
   height="52.827106mm"
   viewBox="0 0 174.27653 187.18266"
   id="svg3799"
   version="1.1"
   inkscape:version="0.91 r13725"
   sodipodi:docname="napoleon.svg">
  <defs
     id="defs3801" />
  <sodipodi:namedview
     id="base"
     pagecolor="#ffffff"
     bordercolor="#666666"
     borderopacity="1.0"
     inkscape:pageopacity="0.0"
     inkscape:pageshadow="2"
     inkscape:zoom="5.6568545"
     inkscape:cx="87.144626"
     inkscape:cy="79.570772"
     inkscape:document-units="px"
     inkscape:current-layer="g3342"
     showgrid="false"
     fit-margin-top="0.4"
     fit-margin-left="0.6"
     fit-margin-right="0.5"
     fit-margin-bottom="0.4"
     inkscape:window-width="1920"
     inkscape:window-height="1017"
     inkscape:window-x="-8"
     inkscape:window-y="-8"
     inkscape:window-maximized="1">
    <inkscape:grid
       type="xygrid"
       id="grid3371" />
  </sodipodi:namedview>
  <metadata
     id="metadata3804">
    <rdf:RDF>
      <cc:Work
         rdf:about="">
        <dc:format>image/svg+xml</dc:format>
        <dc:type
           rdf:resource="http://purl.org/dc/dcmitype/StillImage" />
        <dc:title></dc:title>
      </cc:Work>
    </rdf:RDF>
  </metadata>
  <g
     inkscape:label="Layer 1"
     inkscape:groupmode="layer"
     id="layer1"
     transform="translate(-242.50599,-460.37802)">
    <g
       id="g3342"
       transform="translate(-104.47814,255.09627)">
      <path
         inkscape:connector-curvature="0"
         id="AL"
         title="Albania"
         class="land"
         d="m 435.17745,366.02744 -0.35,1.27 0.4,1.59 1.16,0.9 -0.06,0.97 -0.91,0.54 -0.17,1.19 -1.3,1.76 -0.48,-0.25 -0.05,-0.8 -1.56,-1.23 -0.24,-1.75 0.24,-2.53 0.38,-1.16 -0.47,-0.59 -0.19,-1.19 1.22,-1.87 0.17,0.72 0.76,-0.34 0.6,1.02 0.67,0.38 z"
         style="fill:#cccccc;fill-opacity:1;stroke:#ffffff;stroke-width:0.5;stroke-opacity:1"
         country="ottoman" />
      <path
         inkscape:connector-curvature="0"
         id="AT"
         title="Austria"
         class="land"
         d="m 425.05745,341.21744 -0.21,1.71 -1.58,0.01 0.54,0.89 -0.93,2.65 -0.53,0.69 -2.45,0.1 -1.42,0.92 -2.32,-0.31 -4.01,-1.05 -0.62,-1.43 -2.77,0.72 -0.33,0.77 -1.7,-0.58 -1.43,-0.11 -1.27,-0.74 0.43,-1.01 -0.11,-0.74 0.85,-0.22 1.42,1.14 0.4,-1.09 2.47,0.18 2.01,-0.74 1.34,0.12 0.87,0.85 0.27,-0.7 -0.4,-2.72 1.01,-0.54 0.98,-1.95 2.09,1.37 1.57,-1.74 0.99,-0.32 2.18,1.3 1.31,-0.22 1.3,0.8 -0.23,0.54 z"
         style="fill:#cccccc;fill-opacity:1;stroke:#ffffff;stroke-width:0.5;stroke-opacity:1"
         country="central" />
      <path
         inkscape:connector-curvature="0"
         id="BA"
         title="Bosnia and Herzegovina"
         class="land"
         d="m 430.73745,354.47744 1.02,-0.01 -0.7,1.72 1.35,1.5 -0.41,1.82 -0.66,0.17 -0.53,0.36 -0.91,0.89 -0.41,2.1 -2.48,-1.44 -1.06,-1.61 -1.07,-0.85 -1.29,-1.45 -0.6,-1.21 -1.38,-1.83 0.59,-1.64 1.01,0.91 0.6,-0.82 1.31,-0.09 2.41,0.66 1.94,-0.06 z"
         style="fill:#cccccc;fill-opacity:1;stroke:#ffffff;stroke-width:0.5;stroke-opacity:1"
         country="ottoman" />
      <path
         inkscape:connector-curvature="0"
         id="BE"
         title="Belgium"
         class="land"
         d="m 393.35745,335.24744 -2.45,-1.97 -1.44,0.34 -1.96,-2.06 -1.3,-1.77 -1.3,-0.07 -0.41,-1.56 2.25,-0.88 0.093,-0.17593 1.44,-1.24 2.46,-6.74 3.83,-1.95 2.33,0.13 0.53,1.58 -0.7,4.23 -0.71,1.71 -1.69,0 c 0.17967,1.59813 0.37305,3.31248 0.387,4.86593 l -0.32,2.97 0.14592,0.33354 0.41408,0.64646 -0.16,1.89 -0.81,0.1 -0.50492,-0.21323"
         style="fill:#cccccc;fill-opacity:1;stroke:#ffffff;stroke-width:0.5;stroke-opacity:1"
         sodipodi:nodetypes="cccccccccccccccccccccccc"
         country="western" />
      <path
         inkscape:connector-curvature="0"
         id="BG"
         title="Bulgaria"
         class="land"
         d="m 440.97745,356.92744 0.81,1.6 1.08,-0.29 2.16,0.61 4.12,0.2 1.39,-0.99 3.3,-0.9 2.04,1.41 1.65,0.41 -1.46,1.59 -1.02,2.73 0.9,2.16 -2.41,-0.51 -2.86,1.18 -0.03,1.86 -2.55,0.35 -1.97,-1.3 -2.25,1.03 -2.07,-0.11 -0.2,-2.47 -1.41,-1.21 0.47,-0.54 -0.31,-0.45 0.47,-1.21 1.07,-1.19 -1.36,-1.66 -0.25,-1.42 z"
         style="fill:#cccccc;fill-opacity:1;stroke:#ffffff;stroke-width:0.5;stroke-opacity:1"
         country="ottoman" />
      <path
         inkscape:connector-curvature="0"
         id="BY"
         title="Belarus"
         class="land"
         d="m 443.29745,315.43744 2.71,0.04 3.04,-1.8 0.65,-2.72 2.3,-1.57 -0.26,-2.2 1.7,-0.84 3.02,-1.93 2.95,1.26 0.4,1.23 1.47,-0.59 2.74,1.18 0.27,2.31 -0.6,1.32 1.76,3.15 1.14,0.87 -0.17,0.86 1.89,0.83 0.81,1.25 -1.09,1.02 -2.26,-0.16 -0.54,0.44 0.66,1.54 0.69,2.93 -2.41,0.27 -0.86,1 -0.19,2.26 -1.11,-0.43 -2.53,0.22 -0.74,-1.05 -1.05,0.78 -1.05,-0.65 -2.21,-0.09 -3.13,-1.08 -2.83,-0.36 -2.17,0.1 -1.54,1.23 -1.34,0.17 -0.05,-2.01 -0.87,-2.12 1.68,-0.94 0.02,-1.85 -0.78,-1.78 z"
         style="fill:#cccccc;fill-opacity:1;stroke:#ffffff;stroke-width:0.5;stroke-opacity:1"
         country="russia" />
      <path
         inkscape:connector-curvature="0"
         id="CH"
         title="Switzerland"
         class="land"
         d="m 404.34745,343.70744 0.11,0.74 -0.43,1.01 1.27,0.74 1.43,0.11 -0.22,1.67 -1.23,0.69 -2.08,-0.51 -0.61,1.63 -1.33,0.13 -0.49,-0.64 -1.57,1.36 -1.35,0.19 -1.21,-0.86 -0.96,-1.77 -1.34,0.64 0.04,-1.84 2.05,-2.31 -0.09,-1.05 1.28,0.39 0.77,-0.71 2.38,0.03 0.58,-0.9 z"
         style="fill:#cccccc;fill-opacity:1;stroke:#ffffff;stroke-width:0.5;stroke-opacity:1"
         country="western" />
      <path
         inkscape:connector-curvature="0"
         id="CZ"
         title="Czech Republic"
         class="land"
         d="m 425.00745,339.22744 -1.3,-0.8 -1.31,0.22 -2.18,-1.3 -0.99,0.32 -1.57,1.74 -2.09,-1.37 -1.58,-1.83 -1.43,-1.04 -0.3,-1.82 -0.49,-1.3 2.04,-0.95 1.04,-1.1 2.01,-0.86 0.71,-0.84 0.74,0.51 1.25,-0.47 1.33,1.43 2.09,0.39 -0.17,1.21 1.52,0.9 0.42,-1.13 1.92,0.49 0.27,1.37 2.08,0.26 1.29,2.13 -0.83,0.01 -0.44,0.77 -0.64,0.19 -0.18,0.97 -0.54,0.21 -0.08,0.39 -0.95,0.44 -1.25,-0.07 z"
         style="fill:#cccccc;fill-opacity:1;stroke:#ffffff;stroke-width:0.5;stroke-opacity:1"
         country="central" />
      <path
         inkscape:connector-curvature="0"
         id="DE"
         title="Germany"
         class="land"
         d="m 405.26745,310.28744 0.05,1.88 2.84,1.12 -0.03,1.7 2.85,-0.9 1.57,-1.31 3.17,1.89 1.32,1.51 0.66,2.39 -0.78,1.25 1.01,1.65 0.7,2.45 -0.22,1.56 1.15,2.86 -1.25,0.47 -0.74,-0.51 -0.71,0.84 -2.01,0.86 -1.04,1.1 -2.04,0.95 0.49,1.3 0.3,1.82 1.43,1.04 1.58,1.83 -0.98,1.95 -1.01,0.54 0.4,2.72 -0.27,0.7 -0.87,-0.85 -1.34,-0.12 -2.01,0.74 -2.47,-0.18 -0.4,1.09 -1.42,-1.14 -0.85,0.22 -3,-1.26 -0.58,0.9 -2.38,-0.03 0.35,-2.98 1.42,-2.9 -4.04,-0.78 -1.32,-1.13 0.16,-1.89 -0.56,-0.98 0.32,-2.97 -0.48,-4.69 1.69,0 0.71,-1.71 0.7,-4.23 -0.53,-1.58 0.55,-1 2.34,-0.26 0.52,1.04 1.91,-2.33 -0.64,-1.79 -0.13,-2.75 2.12,0.64 z"
         style="fill:#cccccc;fill-opacity:1;stroke:#ffffff;stroke-width:0.5;stroke-opacity:1"
         country="central" />
      <path
         inkscape:connector-curvature="0"
         id="DK"
         title="Denmark"
         class="land"
         d="m 413.02745,307.20744 -1.68,3.97 -2.93,-2.76 -0.39,-2.05 4.11,-1.66 0.89,2.5 z m -4.98,-4.25 -0.69,1.9 -0.83,-0.55 -2.02,3.59 0.76,2.39 -1.79,0.74 -2.12,-0.64 -1.14,-2.72 -0.08,-5.12 0.47,-1.38 0.8,-1.54 2.47,-0.32 0.98,-1.43 2.26,-1.47 -0.1,2.68 -0.83,1.68 0.34,1.43 1.52,0.76 z"
         style="fill:#cccccc;fill-opacity:1;stroke:#ffffff;stroke-width:0.5;stroke-opacity:1"
         country="central" />
      <path
         inkscape:connector-curvature="0"
         id="ES"
         title="Spain"
         class="land"
         d="m 352.11745,365.92744 0.14,-2.68 -1.14,-1.66 3.96,-2.77 3.43,0.7 3.77,-0.03 2.98,0.66 2.33,-0.2 4.53,0.12 1.12,1.49 5.16,1.73 1.02,-0.82 3.16,1.72 3.25,-0.49 0.15,2.19 -2.66,2.49 -3.59,0.78 -0.25,1.24 -1.73,2.03 -1.08,2.96 1.09,2.05 -1.62,1.6 -0.6,2.3 -2.12,0.7 -1.99,2.69 -3.55,0.05 -2.68,-0.06 -1.75,1.22 -1.07,1.31 -1.38,-0.29 -1.03,-1.17 -0.8,-2 -2.62,-0.54 -0.23,-1.16 1.04,-1.32 0.38,-0.96 -0.96,-1.06 0.77,-2.35 -1.12,-2.17 1.21,-0.3 0.11,-1.72 0.46,-0.53 0.03,-2.88 1.3,-1 -0.78,-1.88 -1.64,-0.13 -0.48,0.47 -1.65,0.01 -0.71,-1.84 -1.14,0.55 z"
         style="fill:#cccccc;fill-opacity:1;stroke:#ffffff;stroke-width:0.5;stroke-opacity:1"
         country="western" />
      <path
         inkscape:connector-curvature="0"
         id="EE"
         title="Estonia"
         class="land"
         d="m 445.61745,296.07744 0.33,-3.12 -1.03,0.67 -1.78,-1.9 -0.25,-3.11 3.55,-1.53 3.53,-0.81 3.04,0.92 2.9,-0.17 0.42,0.96 -1.99,3.14 0.83,4.96 -1.2,1.66 -2.32,-0.01 -2.41,-1.94 -1.23,-0.65 z"
         style="fill:#cccccc;fill-opacity:1;stroke:#ffffff;stroke-width:0.5;stroke-opacity:1"
         country="russia" />
      <path
         inkscape:connector-curvature="0"
         id="FI"
         title="Finland"
         class="land"
         d="m 457.61745,224.46744 -0.41,5.4 4.3,4.99 -2.59,5.48 3.26,7.96 -1.89,5.76 2.53,4.86 -1.15,4.14 4.15,4.26 -1.06,3.1 -2.6,3.45 -6,7.41 -5.09,0.45 -4.93,2.07 -4.56,1.18 -1.63,-3.07 -2.71,-1.87 0.62,-5.72 -1.36,-5.41 1.34,-3.58 2.54,-3.94 6.41,-7.02 1.88,-1.39 -0.3,-2.84 -3.9,-3.22 -0.94,-2.7 -0.08,-11.12 -4.37,-5.15 -3.74,-3.81 1.68,-2.08 3.12,4.15 3.66,-0.39 3.01,1.87 2.67,-3.44 1.38,-5.85 4.35,-2.78 3.6,3.26 z"
         style="fill:#cccccc;fill-opacity:1;stroke:#ffffff;stroke-width:0.5;stroke-opacity:1"
         country="russia" />
      <path
         inkscape:connector-curvature="0"
         id="FR"
         title="France"
         class="land"
         d="m 404.25745,364.90744 -0.93,2.89 -1.27,-0.76 -0.65,-2.53 0.57,-1.41 1.81,-1.45 0.47,3.26 z m -16.75,-33.35 1.96,2.06 1.44,-0.34 2.45,1.97 0.63,0.37 0.81,-0.09 1.32,1.12 4.04,0.79 -1.42,2.9 -0.36,2.98 -0.77,0.71 -1.28,-0.38 0.09,1.05 -2.05,2.3 -0.04,1.84 1.34,-0.63 0.96,1.77 -0.12,1.13 0.83,1.5 -0.97,1.21 0.72,3.04 1.52,0.49 -0.32,1.68 -2.54,2.17 -5.53,-1.04 -4.08,1.24 -0.32,2.29 -3.25,0.49 -3.15,-1.72 -1.02,0.82 -5.16,-1.73 -1.12,-1.49 1.45,-2.32 0.53,-7.88 -2.89,-4.26 -2.07,-2.09 -4.29,-1.6 -0.28,-3.07 3.64,-0.92 4.71,1.09 -0.89,-4.84 2.65,1.85 6.53,-3.37 0.84,-3.61 2.45,-0.9 0.41,1.56 1.3,0.07 1.3,1.79 z"
         style="fill:#cccccc;fill-opacity:1;stroke:#ffffff;stroke-width:0.5;stroke-opacity:1"
         country="western" />
      <path
         inkscape:connector-curvature="0"
         id="GB"
         title="United Kingdom"
         class="land"
         d="m 361.57745,312.36744 -1.5,3.29 -2.12,-0.98 -1.73,0.07 0.58,-2.57 -0.58,-2.6 2.35,-0.2 3,2.99 z m 7.45,-20.76 -3,5.73 2.86,-0.72 3.07,0.03 -0.73,4.22 -2.52,4.53 2.9,0.32 0.22,0.52 2.5,5.79 1.92,0.77 1.73,5.41 0.8,1.84 3.4,0.88 -0.34,2.93 -1.43,1.33 1.12,2.33 -2.52,2.33 -3.75,-0.04 -4.77,1.21 -1.31,-0.87 -1.85,2.06 -2.59,-0.5 -1.97,1.67 -1.49,-0.87 4.11,-4.64 2.51,-0.97 -0.02,0 -4.38,-0.75 -0.79,-1.8 2.93,-1.41 -1.54,-2.48 0.53,-3.06 4.17,0.42 0,0 0.41,-2.74 -1.88,-2.95 -0.04,-0.07 -3.4,-0.85 -0.67,-1.32 1.02,-2.2 -0.92,-1.37 -1.51,2.34 -0.16,-4.8 -1.42,-2.59 1.02,-5.36 2.18,-4.31 2.24,0.42 3.36,-0.41 z"
         style="fill:#cccccc;fill-opacity:1;stroke:#ffffff;stroke-width:0.5;stroke-opacity:1" />
      <path
         inkscape:connector-curvature="0"
         id="GR"
         title="Greece"
         class="land"
         d="m 443.89745,388.07744 1.53,1.16 2.18,-0.19 2.09,0.24 -0.07,0.6 1.53,-0.41 -0.35,1.01 -4.04,0.29 0.03,-0.56 -3.42,-0.67 0.52,-1.47 z m 8.15,-20.96 -0.87,2.33 -0.67,0.41 -1.71,-0.1 -1.46,-0.35 -3.4,0.96 1.94,2.06 -1.42,0.59 -1.56,0 -1.48,-1.88 -0.53,0.8 0.63,2.18 1.4,1.7 -1.06,0.79 1.56,1.65 1.39,1.03 0.04,2 -1.36,-1.15 -1.24,0.21 0.83,1.8 -0.92,0.19 -1,-0.69 1.2,3.95 -0.58,0 -0.45,-1.25 -0.57,-0.02 -0.26,1.32 -0.45,-0.3 0.1,-0.74 -0.56,-1.04 -0.64,0 0.12,0.84 -0.25,0.27 -0.62,-0.54 -0.38,-1.01 0.52,-0.57 -0.36,-0.74 -0.41,-0.38 -0.42,-0.09 -0.49,-0.94 0.58,-0.52 0.36,-0.48 0.56,0.1 0.25,-0.41 0.59,-0.16 0.68,0.46 0.55,0.17 0.39,-0.62 -0.94,-0.08 -0.56,-0.19 -1.25,0.28 -1.22,0.05 -1.09,-1.64 -0.18,-0.25 0.17,-0.64 -1.42,-1.15 -0.19,-1.03 1.3,-1.76 0.17,-1.19 0.91,-0.53 0.06,-0.97 1.83,-0.33 1.07,-0.81 1.52,0.07 0.46,-0.65 0.53,-0.12 2.07,0.11 2.25,-1.02 1.98,1.3 2.55,-0.35 0.03,-1.86 1.38,0.93 z"
         style="fill:#cccccc;fill-opacity:1;stroke:#ffffff;stroke-width:0.5;stroke-opacity:1" />
      <path
         inkscape:connector-curvature="0"
         id="HR"
         title="Croatia"
         class="land"
         d="m 430.24745,350.29744 0.68,1.55 0.89,1.14 -1.08,1.49 -1.27,-0.88 -1.94,0.06 -2.41,-0.66 -1.31,0.09 -0.6,0.82 -1.01,-0.91 -0.59,1.64 1.38,1.83 0.6,1.21 1.29,1.45 1.07,0.85 1.06,1.61 2.48,1.44 -0.31,0.64 -2.63,-1.4 -1.63,-1.38 -2.56,-1.14 -2.36,-2.85 0.57,-0.3 -1.28,-1.64 -0.06,-1.34 -1.8,-0.62 -0.86,1.71 -0.83,-1.33 0.07,-1.38 0.1,-0.06 1.95,0.14 0.52,-0.68 0.95,0.65 1.1,0.08 -0.01,-1.12 0.97,-0.41 0.28,-1.62 2.23,-1.08 0.89,0.5 2.1,1.73 2.31,0.77 z"
         style="fill:#cccccc;fill-opacity:1;stroke:#ffffff;stroke-width:0.5;stroke-opacity:1" />
      <path
         inkscape:connector-curvature="0"
         id="HU"
         title="Hungary"
         class="land"
         d="m 422.87745,346.47744 0.93,-2.65 -0.54,-0.89 1.58,-0.01 0.21,-1.71 1.43,1.07 1.03,0.46 2.36,-0.51 0.22,-0.84 1.12,-0.13 1.36,-0.65 0.3,0.27 1.32,-0.52 0.66,-1 0.92,-0.25 3,1.28 0.6,-0.43 1.55,1.14 0.2,1.12 -1.71,0.87 -1.33,2.8 -1.69,2.76 -2.25,0.76 -1.75,-0.17 -2.15,1.05 -1.05,0.6 -2.31,-0.77 -2.1,-1.73 -0.89,-0.5 -0.55,-1.37 z"
         style="fill:#cccccc;fill-opacity:1;stroke:#ffffff;stroke-width:0.5;stroke-opacity:1" />
      <path
         inkscape:connector-curvature="0"
         id="IE"
         title="Ireland"
         class="land"
         d="m 360.07745,315.65744 0.46,3.36 -2.12,4.12 -4.97,2.68 -3.97,-0.68 2.27,-4.78 -1.46,-4.77 3.81,-3.75 2.12,-2.27 0.58,2.6 -0.58,2.57 1.74,-0.06 z"
         style="fill:#cccccc;fill-opacity:1;stroke:#ffffff;stroke-width:0.5;stroke-opacity:1" />
      <path
         inkscape:connector-curvature="0"
         id="IT"
         title="Italy"
         class="land"
         d="m 420.96745,379.24744 -1.01,2.78 0.42,1.09 -0.59,1.79 -2.14,-1.31 -1.43,-0.38 -3.91,-1.79 0.39,-1.82 3.28,0.32 2.86,-0.39 2.13,-0.29 z m -17.69,-10.82 1.68,2.62 -0.39,4.81 -1.27,-0.23 -1.14,1.2 -1.06,-0.95 -0.11,-4.38 -0.64,-2.1 1.54,0.19 1.39,-1.16 z m 8.87,-21.6 4.01,1.05 -0.3,1.99 0.67,1.71 -2.23,-0.58 -2.28,1.42 0.16,1.97 -0.34,1.12 0.92,1.99 2.63,1.95 1.41,3.17 3.12,3.05 2.2,-0.02 0.68,0.83 -0.79,0.74 2.51,1.35 2.06,1.12 2.4,1.92 0.29,0.68 -0.52,1.31 -1.56,-1.7 -2.44,-0.6 -1.18,2.36 2.03,1.34 -0.33,1.88 -1.17,0.21 -1.5,3.06 -1.17,0.27 0.01,-1.08 0.57,-1.91 0.61,-0.77 -1.09,-2.09 -0.86,-1.83 -1.16,-0.46 -0.83,-1.58 -1.8,-0.67 -1.21,-1.49 -2.07,-0.24 -2.19,-1.68 -2.56,-2.45 -1.91,-2.19 -0.87,-3.8 -1.4,-0.45 -2.28,-1.29 -1.29,0.53 -1.62,1.8 -1.17,0.28 0.32,-1.68 -1.52,-0.49 -0.72,-3.04 0.97,-1.21 -0.83,-1.5 0.12,-1.13 1.21,0.86 1.35,-0.19 1.57,-1.36 0.49,0.64 1.34,-0.13 0.61,-1.63 2.07,0.51 1.24,-0.68 0.22,-1.67 1.7,0.58 0.33,-0.78 2.77,-0.71 0.6,1.39 z"
         style="fill:#cccccc;fill-opacity:1;stroke:#ffffff;stroke-width:0.5;stroke-opacity:1" />
      <path
         inkscape:connector-curvature="0"
         id="XK"
         title="Kosovo"
         class="land"
         d="m 435.66745,365.28744 -0.13,0.77 -0.36,-0.03 -0.18,-1.37 -0.67,-0.38 -0.6,-1.02 0.52,-0.85 0.67,-0.28 0.39,-1.26 0.5,-0.22 0.4,0.54 0.53,0.24 0.36,0.61 0.46,0.18 0.55,0.7 0.4,-0.02 -0.32,0.93 -0.33,0.45 0.09,0.28 -0.63,0.14 z"
         style="fill:#cccccc;fill-opacity:1;stroke:#ffffff;stroke-width:0.5;stroke-opacity:1" />
      <path
         inkscape:connector-curvature="0"
         id="LT"
         title="Lithuania"
         class="land"
         d="m 441.18745,313.45744 -0.23,-1.22 0.3,-1.33 -1.24,-0.77 -2.93,-0.86 -0.6,-4.16 3.21,-1.55 4.7,0.33 2.76,-0.5 0.39,1.05 1.49,0.32 2.7,2.42 0.26,2.2 -2.3,1.57 -0.65,2.72 -3.04,1.8 -2.71,-0.04 -0.67,-1.46 z"
         style="fill:#cccccc;fill-opacity:1;stroke:#ffffff;stroke-width:0.5;stroke-opacity:1" />
      <path
         inkscape:connector-curvature="0"
         id="LV"
         title="Latvia"
         class="land"
         d="m 436.48745,305.11744 0.1,-3.81 1.38,-3.24 2.64,-1.78 2.22,3.88 2.25,-0.1 0.54,-3.99 2.39,-0.93 1.23,0.65 2.41,1.94 2.32,0.01 1.35,1.19 0.23,2.49 0.91,2.99 -3.02,1.93 -1.7,0.84 -2.7,-2.42 -1.49,-0.32 -0.39,-1.05 -2.76,0.5 -4.7,-0.33 z"
         style="fill:#cccccc;fill-opacity:1;stroke:#ffffff;stroke-width:0.5;stroke-opacity:1" />
      <path
         inkscape:connector-curvature="0"
         id="MD"
         title="Moldova"
         class="land"
         d="m 452.08745,340.81744 0.67,-0.62 1.86,-0.42 2.07,1.31 1.15,0.16 1.27,1.12 -0.2,1.41 1.02,0.67 0.4,1.72 0.98,1.04 -0.19,0.6 0.52,0.42 -0.74,0.29 -1.66,-0.11 -0.27,-0.57 -0.59,0.33 0.2,0.72 -0.77,1.29 -0.49,1.37 -0.7,0.44 -0.51,-1.83 0.3,-1.72 -0.09,-1.79 -1.62,-2.44 -0.89,-1.75 -0.87,-1.24 z"
         style="fill:#cccccc;fill-opacity:1;stroke:#ffffff;stroke-width:0.5;stroke-opacity:1" />
      <path
         inkscape:connector-curvature="0"
         id="ME"
         title="Montenegro"
         class="land"
         d="m 432.96745,363.59744 -0.17,-0.72 -1.22,1.87 0.19,1.19 -0.59,-0.29 -0.78,-1.23 -1.22,-0.75 0.31,-0.64 0.41,-2.1 0.91,-0.89 0.53,-0.36 0.74,0.66 0.41,0.54 0.92,0.41 1.07,0.79 -0.23,0.33 -0.52,0.85 z"
         style="fill:#cccccc;fill-opacity:1;stroke:#ffffff;stroke-width:0.5;stroke-opacity:1" />
      <path
         inkscape:connector-curvature="0"
         id="MK"
         title="Macedonia"
         class="land"
         d="m 435.17745,366.02744 0.36,0.03 0.13,-0.77 1.65,-0.59 0.63,-0.14 0.96,-0.22 1.29,-0.06 1.41,1.21 0.2,2.47 -0.54,0.12 -0.46,0.65 -1.52,-0.07 -1.07,0.81 -1.83,0.32 -1.16,-0.9 -0.4,-1.59 z"
         style="fill:#cccccc;fill-opacity:1;stroke:#ffffff;stroke-width:0.5;stroke-opacity:1" />
      <path
         inkscape:connector-curvature="0"
         id="NO"
         title="Norway"
         class="land"
         d="m 456.42745,206.97744 8.77,6.24 -3.61,2.23 3.07,5.11 -4.77,3.19 -2.26,0.72 1.19,-5.59 -3.6,-3.25 -4.35,2.78 -1.38,5.85 -2.67,3.44 -3.01,-1.87 -3.66,0.38 -3.12,-4.15 -1.68,2.09 -1.74,0.32 -0.41,5.08 -5.28,-1.22 -0.74,4.22 -2.69,-0.03 -1.85,5.24 -2.8,7.87 -4.35,9.5 1.02,2.23 -0.98,2.55 -2.78,-0.11 -1.82,5.91 0.17,8.04 1.79,2.98 -0.93,6.73 -2.33,3.81 -1.24,3.15 -1.88,-3.35 -5.54,6.27 -3.74,1.24 -3.88,-2.71 -1,-5.86 -0.89,-13.26 2.58,-3.88 7.4,-5.18 5.54,-6.59 5.13,-9.3 6.74,-13.76 4.7,-5.67 7.71,-9.89 6.15,-3.59 4.61,0.44 4.27,-6.99 5.11,0.38 5.03,-1.74 z"
         style="fill:#cccccc;fill-opacity:1;stroke:#ffffff;stroke-width:0.5;stroke-opacity:1" />
      <path
         inkscape:connector-curvature="0"
         id="PL"
         title="Poland"
         class="land"
         d="m 419.55745,328.33744 -1.15,-2.86 0.22,-1.56 -0.7,-2.45 -1.01,-1.65 0.78,-1.25 -0.66,-2.39 1.92,-1.39 4.37,-2.22 3.54,-1.64 2.79,0.82 0.21,1.18 2.71,0.06 3.45,0.55 5.16,-0.08 1.44,0.52 0.67,1.46 0.12,2.09 0.78,1.78 -0.02,1.85 -1.68,0.94 0.87,2.12 0.05,2.01 1.41,3.89 -0.3,1.24 -1.39,0.51 -2.55,3.61 0.72,1.92 -0.61,-0.25 -2.66,-1.64 -2.02,0.6 -1.32,-0.44 -1.66,0.92 -1.41,-1.52 -1.16,0.58 -0.16,-0.26 -1.29,-2.13 -2.08,-0.26 -0.27,-1.37 -1.92,-0.49 -0.42,1.13 -1.52,-0.9 0.17,-1.21 -2.09,-0.39 z"
         style="fill:#cccccc;fill-opacity:1;stroke:#ffffff;stroke-width:0.5;stroke-opacity:1"
         country="central" />
      <path
         inkscape:connector-curvature="0"
         id="PT"
         title="Portugal"
         class="land"
         d="m 352.11745,365.92744 1.02,-0.95 1.14,-0.55 0.71,1.84 1.65,-0.01 0.48,-0.47 1.64,0.13 0.78,1.88 -1.3,1 -0.03,2.88 -0.46,0.53 -0.11,1.72 -1.21,0.3 1.12,2.17 -0.77,2.35 0.96,1.06 -0.38,0.96 -1.04,1.32 0.23,1.16 -1.12,0.91 -1.48,-0.49 -1.45,0.38 0.43,-2.74 -0.26,-2.18 -1.26,-0.33 -0.67,-1.35 0.23,-2.36 1.11,-1.31 0.2,-1.47 0.59,-2.21 -0.07,-1.57 -0.56,-1.34 z"
         style="fill:#cccccc;fill-opacity:1;stroke:#ffffff;stroke-width:0.5;stroke-opacity:1" />
      <path
         inkscape:connector-curvature="0"
         id="RO"
         title="Romania"
         class="land"
         d="m 441.12745,342.22744 1.21,-0.89 1.74,0.46 1.79,0.02 1.3,1.01 0.96,-0.64 2.07,-0.4 0.71,-0.98 1.18,0.01 0.85,0.4 0.87,1.24 0.89,1.75 1.62,2.44 0.09,1.79 -0.3,1.72 0.51,1.83 1.25,0.73 1.31,-0.64 1.28,0.68 0.06,1.03 -1.36,0.84 -0.85,-0.36 -0.78,4.71 -1.65,-0.41 -2.04,-1.41 -3.3,0.9 -1.39,0.99 -4.12,-0.2 -2.16,-0.61 -1.08,0.29 -0.81,-1.6 -0.51,-0.68 0.65,-0.66 -0.7,-0.49 -0.88,0.88 -1.63,-1.14 -0.22,-1.63 -1.71,-0.94 -0.31,-1.27 -1.52,-1.58 2.25,-0.76 1.69,-2.76 1.33,-2.8 z"
         style="fill:#cccccc;fill-opacity:1;stroke:#ffffff;stroke-width:0.5;stroke-opacity:1" />
      <path
         inkscape:connector-curvature="0"
         id="RS"
         title="Serbia"
         class="land"
         d="m 435.97745,352.26744 1.71,0.94 0.22,1.63 1.63,1.14 0.88,-0.88 0.7,0.49 -0.65,0.66 0.51,0.68 -0.69,0.88 0.25,1.42 1.36,1.66 -1.07,1.19 -0.47,1.21 0.31,0.45 -0.47,0.54 -1.29,0.06 -0.96,0.22 -0.09,-0.28 0.33,-0.45 0.32,-0.93 -0.4,0.02 -0.55,-0.7 -0.46,-0.18 -0.36,-0.61 -0.53,-0.24 -0.4,-0.54 -0.5,0.22 -0.39,1.26 -0.67,0.28 0.23,-0.33 -1.07,-0.79 -0.92,-0.41 -0.41,-0.54 -0.74,-0.66 0.66,-0.17 0.41,-1.82 -1.35,-1.5 0.7,-1.72 -1.02,0.01 1.08,-1.49 -0.89,-1.14 -0.68,-1.55 2.15,-1.05 1.75,0.17 1.52,1.58 z"
         style="fill:#cccccc;fill-opacity:1;stroke:#ffffff;stroke-width:0.5;stroke-opacity:1" />
      <path
         inkscape:connector-curvature="0"
         id="SE"
         title="Sweden"
         class="land"
         d="m 439.64745,248.85744 -2.72,4.69 0.44,4.02 -4.46,5.13 -5.41,5.34 -2.05,8.41 2,4.07 2.68,3.14 -2.57,6.23 -2.92,1.26 -1.07,8.84 -1.59,4.76 -3.4,-0.49 -1.59,3.95 -3.25,0.23 -0.89,-4.71 -2.35,-5.81 -2.13,-7.5 1.24,-3.15 2.33,-3.81 0.93,-6.73 -1.79,-2.98 -0.18,-8.04 1.83,-5.91 2.78,0.11 0.97,-2.55 -1.02,-2.23 4.35,-9.5 2.81,-7.87 1.85,-5.24 2.69,0.02 0.75,-4.21 5.28,1.22 0.41,-5.08 1.74,-0.33 3.74,3.81 4.37,5.15 0.08,11.12 0.94,2.7 z"
         style="fill:#cccccc;fill-opacity:1;stroke:#ffffff;stroke-width:0.5;stroke-opacity:1" />
      <path
         inkscape:connector-curvature="0"
         id="SI"
         title="Slovenia"
         class="land"
         d="m 416.15745,347.87744 2.32,0.31 1.42,-0.92 2.45,-0.1 0.53,-0.69 0.47,0.05 0.55,1.37 -2.23,1.08 -0.28,1.62 -0.97,0.41 0.01,1.12 -1.1,-0.08 -0.95,-0.65 -0.52,0.68 -1.95,-0.14 0.62,-0.36 -0.67,-1.71 z"
         style="fill:#cccccc;fill-opacity:1;stroke:#ffffff;stroke-width:0.5;stroke-opacity:1" />
      <path
         inkscape:connector-curvature="0"
         id="SK"
         title="Slovakia"
         class="land"
         d="m 430.30745,335.38744 0.16,0.26 1.16,-0.58 1.41,1.52 1.66,-0.92 1.32,0.44 2.02,-0.6 2.66,1.64 -0.77,1.11 -0.55,1.71 -0.6,0.43 -3,-1.28 -0.92,0.25 -0.66,1 -1.32,0.52 -0.3,-0.27 -1.36,0.65 -1.12,0.13 -0.22,0.84 -2.36,0.51 -1.03,-0.46 -1.43,-1.07 -0.28,-1.45 0.23,-0.54 0.39,-0.93 1.25,0.07 0.95,-0.44 0.08,-0.39 0.54,-0.21 0.18,-0.97 0.64,-0.19 0.44,-0.77 z"
         style="fill:#cccccc;fill-opacity:1;stroke:#ffffff;stroke-width:0.5;stroke-opacity:1" />
      <path
         sodipodi:nodetypes="ccccccccccccccccccccccccccccccccccccccccccccccccccccccccccccccccccccccccccccccccccccccccccccccccccccccccccccccccccccccccccccccccccccccccc"
         style="fill:#cccccc;fill-opacity:1;stroke:#ffffff;stroke-width:0.5;stroke-opacity:1"
         d="m 519.02422,286.35305 0.21373,44.87491 -4.68603,0.52167 -3.88062,-0.52875 -2.24,4.77 0.82,0.87 -1.62,3.21 2.38,2.84 2.08,-0.12 1.79,2.76 -0.28,2.1 1.42,0.66 -1.28,2.39 -2.72,0.66 -2.79,4.09 2.55,3.7 -0.28,2.59 3.06,4.46 -1.67,1.51 -0.48,0.95 -1.24,-0.25 -1.93,-2.27 -0.79,-0.13 -1.76,-0.87 -0.86,-1.55 -2.62,-0.79 -1.7,0.6 -0.49,-0.71 -3.82,-1.83 -4.13,-0.62 -2.37,-0.66 -0.34,0.45 -3.57,-3.27 -3.2,-1.48 -2.42,-2.32 2.04,-0.64 2.33,-3.35 -1.57,-1.6 4.13,-1.67 -0.07,-0.9 -2.52,0.66 0.09,-1.83 1.45,-1.16 2.71,-0.31 0.44,-1.4 -0.62,-2.33 1.14,-2.23 -0.03,-1.26 -4.13,-1.41 -1.64,0.05 -1.73,-2.04 -2.15,0.69 -3.56,-1.54 0.06,-0.87 -1,-1.93 -2.24,-0.22 -0.23,-1.39 0.7,-0.91 -1.79,-2.58 -2.91,0.44 -0.85,-0.23 -0.71,1.04 -1.05,-0.18 -0.69,-2.94 -0.66,-1.54 0.54,-0.44 2.26,0.16 1.09,-1.02 -0.81,-1.25 -1.89,-0.83 0.17,-0.86 -1.14,-0.87 -1.76,-3.15 0.6,-1.31 -0.27,-2.31 -2.74,-1.18 -1.47,0.59 -0.4,-1.24 -2.95,-1.26 -0.9,-2.99 -0.24,-2.49 -1.35,-1.19 1.2,-1.66 -0.83,-4.96 2,-3.13 -0.42,-0.96 3.19,-3.07 -2.94,-2.68 6,-7.41 2.6,-3.45 1.05,-3.1 -4.15,-4.26 1.15,-4.15 -2.52,-4.85 1.89,-5.76 -3.26,-7.96 2.59,-5.48 -4.29,-4.99 0.41,-5.4 2.26,-0.72 4.77,-3.19 2.89,-2.81 4.61,4.86 7.68,1.88 10.59,8.65 2.15,3.51 0.19,4.8 -3.11,3.69 -4.58,1.85 -12.52,-5.31 -2.06,0.9 4.57,5.1 0.18,3.15 0.18,6.75 3.61,1.97 2.19,1.66 0.36,-3.11 -1.69,-2.8 1.78,-2.51 6.78,4.1 2.36,-1.59 -1.89,-4.88 6.53,-6.74 2.59,0.4 2.62,2.43 1.63,-4.81 -2.34,-4.28 1.37,-4.41 -2.06,-4.69 7.84,2.44 1.6,4.18 -3.55,0.91 0.02,4.04 2.21,2.44 4.33,-1.54 0.69,-4.61 6.52708,-0.85167"
         class="land"
         title="Russia"
         id="RU"
         inkscape:connector-curvature="0" />
      <path
         inkscape:connector-curvature="0"
         id="UA"
         title="Ukraine"
         class="land"
         d="m 466.57745,323.85744 1.04,0.19 0.71,-1.04 0.85,0.23 2.91,-0.44 1.79,2.57 -0.7,0.92 0.23,1.39 2.24,0.21 1,1.93 -0.06,0.87 3.56,1.54 2.15,-0.69 1.73,2.04 1.64,-0.04 4.13,1.4 0.03,1.27 -1.13,2.23 0.61,2.33 -0.44,1.39 -2.71,0.31 -1.44,1.16 -0.09,1.83 -2.24,0.33 -1.87,1.32 -2.62,0.21 -2.42,1.52 -1.32,1.03 1.49,1.47 1.37,0.96 2.86,-0.24 -0.55,1.42 -3.07,0.68 -3.81,2.27 -1.55,-0.79 0.61,-1.85 -3.06,-1.16 0.5,-0.77 3.16,-1.63 -0.4,-0.81 -0.45,0.41 -0.44,-0.22 -4.36,-1.02 -0.19,-1.51 -2.6,0.5 -1.04,2.23 -2.17,2.95 -1.28,-0.68 -1.31,0.64 -1.25,-0.73 0.7,-0.44 0.49,-1.37 0.77,-1.29 -0.2,-0.72 0.59,-0.32 0.27,0.56 1.66,0.11 0.74,-0.29 -0.52,-0.42 0.19,-0.6 -0.98,-1.04 -0.4,-1.72 -1.02,-0.67 0.2,-1.41 -1.27,-1.12 -1.15,-0.16 -2.07,-1.31 -1.86,0.42 -0.67,0.62 -1.18,-0.01 -0.71,0.98 -2.07,0.4 -0.95,0.64 -1.31,-1.01 -1.79,-0.02 -1.74,-0.46 -1.21,0.89 -0.2,-1.12 -1.55,-1.14 0.55,-1.71 0.77,-1.1 0.62,0.24 -0.73,-1.92 2.55,-3.61 1.39,-0.51 0.3,-1.24 -1.41,-3.89 1.34,-0.17 1.54,-1.23 2.17,-0.1 2.83,0.36 3.13,1.08 2.21,0.09 1.05,0.65 1.05,-0.78 0.74,1.05 2.53,-0.22 1.11,0.43 0.19,-2.26 0.86,-1 z"
         style="fill:#cccccc;fill-opacity:1;stroke:#ffffff;stroke-width:0.5;stroke-opacity:1" />
    </g>
  </g>
</svg>
