<?xml version="1.0" encoding="UTF-8" standalone="no"?>
<!-- Created with Inkscape (http://www.inkscape.org/) -->

<svg
   xmlns:dc="http://purl.org/dc/elements/1.1/"
   xmlns:cc="http://creativecommons.org/ns#"
   xmlns:rdf="http://www.w3.org/1999/02/22-rdf-syntax-ns#"
   xmlns:svg="http://www.w3.org/2000/svg"
   xmlns="http://www.w3.org/2000/svg"
   xmlns:sodipodi="http://sodipodi.sourceforge.net/DTD/sodipodi-0.dtd"
   xmlns:inkscape="http://www.inkscape.org/namespaces/inkscape"
   width="1000"
   height="1000"
   id="svg2"
   version="1.1"
   inkscape:version="0.48.4 r9939"
   sodipodi:docname="bomber5.svg">
  <defs
     id="defs4" />
  <sodipodi:namedview
     id="base"
     pagecolor="#ffffff"
     bordercolor="#666666"
     borderopacity="1.0"
     inkscape:pageopacity="0.0"
     inkscape:pageshadow="2"
     inkscape:zoom="0.98994949"
     inkscape:cx="563.63372"
     inkscape:cy="520"
     inkscape:document-units="px"
     inkscape:current-layer="layer1"
     showgrid="false"
     inkscape:window-width="1600"
     inkscape:window-height="841"
     inkscape:window-x="-8"
     inkscape:window-y="-8"
     inkscape:window-maximized="1" />
  <metadata
     id="metadata7">
    <rdf:RDF>
      <cc:Work
         rdf:about="">
        <dc:format>image/svg+xml</dc:format>
        <dc:type
           rdf:resource="http://purl.org/dc/dcmitype/StillImage" />
        <dc:title></dc:title>
      </cc:Work>
    </rdf:RDF>
  </metadata>
  <g
     inkscape:label="Layer 1"
     inkscape:groupmode="layer"
     id="layer1"
     transform="translate(0,-52.362183)">
    <path
       style="fill:#000000"
       d="m 129.71841,686.6868 c 0,-0.48585 -0.9,-1.11872 -2,-1.40638 -1.54383,-0.40372 -2,-1.36401 -2,-4.21025 0,-2.84624 0.45617,-3.80653 2,-4.21025 1.95417,-0.51103 2.90708,-4.28975 1.08178,-4.28975 -0.50501,0 -1.63001,-0.27314 -2.5,-0.60699 -1.33236,-0.51128 -1.58178,0.32444 -1.58178,5.3 0,3.26099 -0.53754,6.44452 -1.2,7.10699 -1.66858,1.66858 -18.22161,1.6262 -19.53323,-0.05 -1.04838,-1.33979 -3.26677,-9.61968 -3.26677,-12.19282 0,-1.14469 1.12579,-1.59199 4.25,-1.68861 3.43786,-0.10631 2.98637,-0.27907 -2.36272,-0.90408 -12.631546,-1.47592 -27.06042,-4.9339 -32.156265,-7.70648 -2.787998,-1.5169 -7.19664,-4.67051 -9.796983,-7.00801 -3.714283,-3.33884 -5.500356,-4.25 -8.330965,-4.25 -2.536063,0 -3.603071,-0.44421 -3.603071,-1.5 0,-0.99819 0.998202,-1.5 2.983821,-1.5 l 2.983822,0 -1.669034,-3.5 c -0.917968,-1.925 -2.189388,-3.5 -2.825377,-3.5 -0.784921,0 -1.21953,-3.21205 -1.353061,-10 -0.108194,-5.5 0.186315,-10 0.654465,-10 0.46815,0 2.144564,1.35 3.725364,3 l 2.874182,3 35.812909,0 c 23.208603,0 35.812913,-0.35195 35.812913,-1 0,-0.6 4,-1 10,-1 6.22556,0 10,0.39066 10,1.03502 0,0.67822 5.17087,0.95075 15,0.79057 11.45855,-0.18674 15,-0.54915 15,-1.53502 0,-0.80827 1.30799,-1.29057 3.5,-1.29057 2.44444,0 3.5,0.45238 3.5,1.5 0,1.17949 1.38889,1.5 6.49999,1.5 5.67535,0 6.5,-0.2365 6.5,-1.86408 0,-2.04962 4.89805,-3.13592 14.13958,-3.13592 4.51779,0 4.86043,0.17624 4.86043,2.5 0,2.17407 0.44111,2.5 3.38342,2.5 2.80632,0 3.46418,-0.42242 3.85684,-2.4765 0.26038,-1.36207 0.23783,-2.71207 -0.0501,-3 -0.28792,-0.28792 -7.87349,-0.5235 -16.85683,-0.5235 l -16.33334,0 0,-2.5 0,-2.5 14.75001,-0.004 c 14.55597,-0.004 27.25957,-1.49109 38.25,-4.47766 7.4892,-2.03513 25.10854,-2.03067 29.04966,0.007 1.62269,0.83912 2.95034,2.18912 2.95034,3 0,0.95907 1.01022,1.47432 2.89059,1.47432 2.55904,0 2.93747,-0.40145 3.2992,-3.5 l 0.40861,-3.5 -4.7992,0 c -3.43165,3.4e-4 -4.7992,-0.39594 -4.7992,-1.39036 0,-1.55039 9.63893,-2.37283 20.75,-1.77048 l 6.25,0.33882 0,4.34163 c 0,3.70736 -0.3287,4.40494 -2.25,4.775 -1.2375,0.23835 0.27742,0.49465 3.36648,0.56955 l 5.61648,0.13618 -0.51193,-7.15491 -0.51193,-7.15492 5.64545,0.58266 c 5.10975,0.52738 5.64545,0.39974 5.64545,-1.34508 0,-1.64663 0.72913,-1.92775 5,-1.92775 l 5,0 0,-5.5 c 0,-3.025 -0.45,-5.5 -1,-5.5 -0.55556,0 -1,-2.66667 -1,-6 0,-4.46186 0.35711,-6 1.39301,-6 0.76616,0 1.65203,0.675 1.96862,1.5 0.41504,1.08158 2.1088,1.5 6.072,1.5 l 5.4964,0 0.28499,10.25 0.28498,10.25 5.25,-0.32151 c 4.74721,-0.29071 5.25,-0.12311 5.25,1.75 0,1.40484 0.64365,2.07151 2,2.07151 1.86449,0 2,-0.66667 2,-9.83948 0,-9.57351 -0.0688,-9.87086 -2.54705,-11 -1.40088,-0.63829 -4.14125,-1.16052 -6.08971,-1.16052 -2.45104,0 -4.12103,-0.6933 -5.41968,-2.25 -3.58362,-4.29571 -1.80543,-5.7099 7.21282,-5.73635 4.18623,-0.0123 4.6027,-0.21891 4.12477,-2.04653 -0.29933,-1.14466 0.17945,-2.8186 1.0958,-3.83115 2.04754,-2.26251 1.1998,-3.13597 -3.04362,-3.13597 -3.00551,0 -3.33333,-0.28299 -3.33333,-2.87755 0,-3.83239 2.47021,-5.9344 5.06763,-4.31229 2.58117,1.61197 2.93237,1.51493 2.93237,-0.81016 0,-1.61905 -0.66667,-2 -3.5,-2 -3.17062,0 -3.5,-0.26476 -3.5,-2.81335 0,-2.28702 0.6548,-3.07028 3.5,-4.18665 l 3.5,-1.37329 0,-17.70911 0,-17.70911 -4.83755,-3.10424 c -2.80216,-1.79815 -6.16814,-3.10425 -8,-3.10425 -2.1444,0 -3.16245,-0.48288 -3.16245,-1.5 0,-1.21569 1.61111,-1.5 8.5,-1.5 l 8.5,0 0,-16 c 0,-10.69363 -0.35471,-16 -1.06955,-16 -0.58825,0 -0.92575,-1.0125 -0.75,-2.25 0.25029,-1.76232 0.96979,-2.25 3.31955,-2.25 2.34976,0 3.06926,0.48768 3.31955,2.25 0.17575,1.2375 -0.16175,2.25 -0.75,2.25 -1.58955,0 -1.46854,31.70034 0.12304,32.23086 0.88214,0.29405 1.13536,5.82761 0.97274,21.25747 -0.14509,13.76709 0.13843,21.08137 0.83384,21.51116 0.57953,0.35817 1.33663,3.0402 1.68245,5.96006 0.4733,3.99632 1.08485,5.42813 2.47357,5.79128 1.39356,0.36443 1.84481,1.43233 1.84481,4.3658 0,2.21563 -0.48434,3.88337 -1.12781,3.88337 -0.78404,0 -0.8871,1.29546 -0.33813,4.25 0.43432,2.3375 1.05433,6.95 1.37781,10.25 l 0.58813,6 4.75,0.30479 c 2.85713,0.18333 4.75,-0.11554 4.75,-0.75 0,-0.58013 0.675,-1.05479 1.5,-1.05479 0.825,0 1.5,0.52844 1.5,1.17431 0,0.64588 1.1021,0.13895 2.44912,-1.12651 2.59131,-2.43441 5.55088,-2.21004 5.55088,0.42082 0,1.3133 2.34971,1.53138 16.5,1.53138 l 16.5,0 0,3 0,3 -6.25,0.0703 c -3.66008,0.0412 -5.48989,0.36962 -4.41569,0.79265 1.00886,0.39731 6.6861,0.61675 12.61607,0.48764 10.09377,-0.21975 11.41105,-0.49663 20.64339,-4.33903 11.13044,-4.63237 17.90623,-5.21986 17.90623,-1.55256 0,1.37221 -0.89862,2.14475 -3,2.5791 -1.65,0.34105 -4.34937,1.33068 -5.99859,2.19919 l -2.99859,1.5791 7.06476,0.34181 c 6.78872,0.32845 7.04847,0.25712 6.64783,-1.82545 -0.32042,-1.66557 0.12722,-2.24427 1.93383,-2.5 3.52775,-0.49936 3.64895,-4.39018 0.24736,-7.94067 -2.42457,-2.53071 -3.48689,-2.89208 -8.5019,-2.89208 -7.51695,0 -8.8947,-0.61958 -8.8947,-4 0,-2.82955 1.487,-4 5.08179,-4 1.25154,0 1.91821,-0.69509 1.91821,-2 0,-1.77517 0.66667,-2 5.93045,-2 4.81762,0 6.01111,0.32838 6.36031,1.75 0.23642,0.9625 0.28117,0.4 0.0994,-1.25 l -0.33042,-3 18.33469,-5.90896 c 10.08412,-3.24992 19.07067,-5.62654 19.97015,-5.28138 1.21404,0.46587 1.63542,1.92394 1.63542,5.65895 0,3.87125 0.35632,5.03139 1.54531,5.03139 1.22448,0 1.40899,0.72668 0.88871,3.5 -0.4304,2.29424 -0.27376,3.5 0.45469,3.5 1.53477,0 1.40703,6.72287 -0.13871,7.30024 -1.72738,0.64523 -0.39997,1.09307 13.5,4.55461 l 11.75,2.92613 0,-2.50399 c 0,-2.21339 0.34816,-2.45289 3,-2.06368 2.72966,0.40063 3,0.18557 3,-2.3865 0,-1.84605 0.52042,-2.82681 1.5,-2.82681 0.93333,0 1.5,-0.94444 1.5,-2.5 0,-2.11111 -0.46667,-2.5 -3,-2.5 -2,0 -3,0.5 -3,1.5 0,0.825 -0.675,1.5 -1.5,1.5 -0.825,0 -1.5,-0.675 -1.5,-1.5 0,-0.825 -0.675,-1.5 -1.5,-1.5 -1.04762,0 -1.5,-1.05556 -1.5,-3.5 0,-2.44444 0.45238,-3.5 1.5,-3.5 1.20833,0 1.5,-1.55556 1.5,-8 l 0,-8 -3,0 c -2.7619,0 -3,-0.27778 -3,-3.5 0,-3.22222 0.2381,-3.5 3,-3.5 l 3,0 0,-22.5 c 0,-14.33333 -0.36296,-22.5 -1,-22.5 -1.31213,0 -1.27035,-2.92603 0.0978,-6.85078 1.40227,-4.02257 3.40207,-4.02257 4.80434,0 1.36821,3.92475 1.40999,6.85078 0.0979,6.85078 -0.55,0 -1,1.8 -1,4 0,2.2 0.45,4 1,4 0.55,0 1,0.675 1,1.5 0,0.825 -0.45,1.5 -1,1.5 -0.62222,0 -1,5.66667 -1,15 l 0,15 5.5,0 c 4.22222,0 5.5,-0.34848 5.5,-1.5 0,-0.825 0.7875,-1.49954 1.75,-1.49897 1.57469,9.2e-4 1.75,-1.26893 1.75,-12.67636 l 0,-12.67738 2.94429,-0.78912 c 1.67835,-0.44983 4.79557,-0.32296 7.25,0.29507 l 4.30571,1.08419 0,11.29795 c 0,8.10269 -0.35352,11.4406 -1.25,11.80234 -0.6875,0.27741 0.25463,0.53991 2.09362,0.58333 2.46399,0.0582 3.48121,0.60511 3.86663,2.07895 0.42267,1.61628 1.36402,2 4.90638,2 2.61286,0 4.38337,0.46018 4.38337,1.13929 0,0.78141 1.59128,0.95083 5.06575,0.53933 4.42132,-0.52364 5.02449,-0.38235 4.74137,1.11071 -0.23633,1.24634 -1.52701,1.79665 -4.75512,2.02742 -4.7241,0.33772 -10.052,3.38613 -10.052,5.75134 0,2.17032 1.40204,1.71387 2.51287,-0.81809 0.67713,-1.54341 2.00776,-2.34841 4.23713,-2.56336 2.90292,-0.27989 3.25,-0.0396 3.25,2.25 0,1.40985 0.45,2.56336 1,2.56336 1.41409,0 1.24697,7.35303 -0.2,8.8 -0.66,0.66 -2.235,1.2 -3.5,1.2 -2.08943,0 -2.3,0.45201 -2.3,4.93713 l 0,4.93713 3.5,-0.56797 c 3.25701,-0.52854 3.5,-0.38533 3.5,2.06287 0,1.96417 0.50681,2.63084 2,2.63084 3.71498,0 2.44166,4.47271 -2.64025,9.27425 -5.72506,5.40922 -5.53958,7.11583 0.54821,5.04398 2.42438,-0.82509 5.91188,-1.32459 7.75,-1.11 l 3.34204,0.39017 0,-5.2992 c 0,-5.22133 0.0441,-5.2992 3,-5.2992 2,0 3,-0.5 3,-1.5 0,-0.825 0.675,-1.5 1.5,-1.5 0.825,0 1.5,0.675 1.5,1.5 0,0.83333 0.88889,1.5 2,1.5 1.75758,0 2,0.66667 2,5.5 0,4.22222 0.34848,5.5 1.5,5.5 0.825,0 1.5,-0.45 1.5,-1 0,-0.55 0.9,-1 2,-1 1.1,0 2,0.37126 2,0.82503 0,0.45376 1.4625,0.86824 3.25,0.92105 1.7875,0.0528 8.34396,0.66194 14.56992,1.3536 10.14111,1.12661 11.27032,1.44724 10.84362,3.07894 -0.38975,1.49043 0.12403,1.82138 2.82758,1.82138 l 3.30389,0 -0.22643,12.5 -0.22642,12.5 3.07892,-0.116 c 1.69341,-0.0638 2.29142,-0.3218 1.32892,-0.57333 -0.9625,-0.25152 -1.75,-1.36851 -1.75,-2.48218 0,-1.88554 0.41283,-1.97695 6,-1.32849 4.11371,0.47745 6,0.35112 6,-0.40181 0,-0.65116 -2.03531,-1.09819 -5,-1.09819 l -5,0 0,-6.47432 c 0,-6.15806 0.14412,-6.54885 2.95034,-8 3.94112,-2.03803 21.56046,-2.04249 29.04966,-0.007 11.24946,3.05696 23.66807,4.47368 39.25,4.47766 l 15.75,0.004 0,2.47693 0,2.47692 -17.75,0.27308 c -15.18126,0.23355 -17.69785,0.49015 -17.38965,1.77307 0.19819,0.825 0.33414,5.4375 0.30211,10.25 l -0.0582,8.75 3.94789,0 c 3.28122,0 3.94789,-0.33773 3.94789,-2 0,-1.3214 0.66667,-2 1.96482,-2 1.08065,0 2.44648,0.9 3.03518,2 0.82501,1.54155 2.09382,2 5.53518,2 2.45565,0 4.46482,-0.45 4.46482,-1 0,-0.55 -1.35,-1 -3,-1 l -3,0 0,-6.47432 c 0,-6.15806 0.14412,-6.54885 2.95034,-8 3.94112,-2.03803 21.56046,-2.04249 29.04966,-0.007 11.24946,3.05696 23.66807,4.47368 39.25,4.47766 l 15.74996,0.004 0,2.5 0,2.5 -16.91821,0 c -9.30502,0 -17.56331,0.24755 -18.35175,0.5501 -0.90612,0.34771 -1.26124,1.45146 -0.96521,3 0.44555,2.33077 0.81987,2.4499 7.69811,2.4499 4.87847,0 8.33673,-0.56306 10.63342,-1.7313 2.79057,-1.41946 6.00675,-1.71557 17.85566,-1.64394 9.93426,0.0601 14.57187,0.44691 14.83541,1.23753 0.21087,0.6326 0.78124,0.90429 1.2675,0.60376 0.48625,-0.30052 9.22282,-0.57744 19.41459,-0.61538 10.19176,-0.0379 18.53048,-0.45103 18.53048,-0.91799 0,-0.46695 4.3875,-0.59041 9.75,-0.27435 5.3625,0.31607 17.85,0.0346 27.75,-0.62555 9.9,-0.66012 23.175,-1.38417 29.5,-1.609 10.77006,-0.38283 28.31155,-1.54402 46.25,-3.06161 l 7.75,-0.65564 0,3.17729 c 0,2.36368 -0.87387,3.94455 -3.41266,6.17363 -2.73482,2.40122 -12.58734,19.08198 -12.58734,21.31095 0,0.3029 3.7125,0.70232 8.25,0.88761 l 8.25,0.3369 -9,0.39252 -9,0.39251 9,0.62206 9,0.62206 -9.21482,0.18897 c -7.63494,0.15657 -9.37325,0.48901 -10.13892,1.93897 -0.50826,0.9625 -2.16881,9.28914 -3.69012,18.50365 l -2.76602,16.75365 -404.59506,-0.4332 c -222.52728,-0.23825 -409.43256,-0.71885 -415.34506,-1.06798 -7.33084,-0.43289 -10.75,-0.29627 -10.75,0.42954 0,0.58539 -0.9,1.06434 -2,1.06434 -1.1,0 -2,-0.39752 -2,-0.88337 z m 829.51008,-1.13294 c 0.34546,-0.55897 0.96088,-0.81066 1.36758,-0.5593 0.40671,0.25136 1.75945,-5.7038 3.0061,-13.23369 1.24665,-7.52988 2.48948,-14.4825 2.76186,-15.45025 0.47024,-1.67081 -4.37132,-1.75809 -95.99834,-1.73058 -75.42405,0.0226 -96.60228,0.29767 -96.99147,1.25955 -0.38881,0.96092 -0.51522,0.95667 -0.57686,-0.0194 -0.0469,-0.74284 -1.47676,-1.25 -3.52416,-1.25 -3.39084,0 -3.45112,0.075 -3.81975,4.75 l -0.37454,4.75 -0.18025,-4.75 -0.18025,-4.75002 -287.5,0 -287.50001,0 -0.1571,4.75 -0.15711,4.75 -0.68578,-5 -0.68579,-5 -0.15711,5.25 -0.1571,5.25 146.75,0.24592 146.75,0.24593 -180.11692,0.50407 c -99.0643,0.27725 -182.42681,0.34815 -185.25,0.15757 l -5.13308,-0.34652 -0.16811,-5.65348 -0.16811,-5.65349 -0.66378,6 -0.66379,6 -0.16811,-5.75 -0.1681,-5.75 -20.940987,0 c -13.2195,0 -21.174514,0.37786 -21.57433,1.02478 -0.34834,0.56362 -0.262398,0.96033 0.190983,0.88158 2.197649,-0.38177 3.380161,0.20173 2.723022,1.34364 -0.395639,0.6875 -0.387827,0.95313 0.01736,0.59029 0.405186,-0.36284 3.064833,0.38107 5.910326,1.65313 5.941649,2.65618 23.100422,5.81742 42.764186,7.87865 13.87358,1.45427 20.69123,3.6287 22.71483,7.24468 0.75997,1.35798 1.08988,1.12244 1.97198,-1.40796 0.58262,-1.67132 0.79606,-3.30202 0.47431,-3.62378 -0.32176,-0.32175 1.07911,-0.58501 3.11303,-0.58501 4.49969,0 5.373,1.67275 3.13391,6.00267 -0.90535,1.75076 -1.48579,3.34349 -1.28987,3.53942 0.19593,0.19592 4.44555,0.0913 9.44362,-0.23253 8.22277,-0.53273 9.04109,-0.76575 8.60088,-2.44915 -0.39985,-1.52902 0.0862,-1.86041 2.72891,-1.86041 2.32625,0 4.03999,0.8827 6.19721,3.19202 2.55394,2.734 3.82034,3.25267 8.8258,3.61473 4.73828,0.34274 5.73279,0.71252 5.25624,1.95438 -0.50617,1.31908 -2.68166,1.44919 -15.67458,0.93745 -8.29775,-0.32682 -14.18683,-0.22401 -13.08683,0.22847 1.1,0.45248 2.30641,0.64666 2.6809,0.43151 0.3745,-0.21515 0.96356,0.0662 1.30902,0.62513 0.42376,0.68565 129.75413,1.01631 397.51008,1.01631 267.75595,0 397.08632,-0.33066 397.51008,-1.01631 z m -364.51008,-2.04271 c 0,-0.58246 0.45,-0.7809 1,-0.44098 0.55,0.33992 1,0.0933 1,-0.54797 0,-0.72872 -0.6563,-0.88553 -1.75,-0.41812 -0.9625,0.41133 -40.675,0.96181 -88.25,1.22329 -90.16943,0.49558 -145.86828,-0.62636 -150.90342,-3.03964 -2.96613,-1.42163 -4.10219,-4.71756 -1.62607,-4.71756 0.95366,0 1.49661,0.67544 1.32333,1.64626 -0.16161,0.90544 0.38116,1.8397 1.20616,2.07613 1.33333,0.38211 1.33333,0.30199 0,-0.72108 -1.18662,-0.9105 -0.76879,-1.03172 2,-0.58023 20.75581,3.38453 228.09963,3.38133 249,-0.004 2.76941,-0.44855 3.18689,-0.32663 2,0.58407 -1.33333,1.02307 -1.33333,1.10319 0,0.72108 0.825,-0.23643 1.36777,-1.17069 1.20616,-2.07613 -0.16855,-0.94434 0.36442,-1.64626 1.25,-1.64626 1.9011,0 2.02202,2.35825 0.19853,3.87162 -0.73992,0.61408 -2.65242,1.32534 -4.25,1.58058 -1.59758,0.25524 -4.6047,0.73065 -6.68248,1.05646 -2.07778,0.32582 -3.51373,1.01966 -3.19098,1.54187 0.32274,0.52237 -0.33975,0.94963 -1.47221,0.94963 -1.13246,0 -2.05902,-0.47656 -2.05902,-1.05902 z m -169.70429,-1.68256 c -3.96237,-0.18931 -10.71237,-0.19045 -15,-0.003 -4.28764,0.1879 -1.04571,0.34279 7.20429,0.34419 8.25,0.001 11.75807,-0.15234 7.79571,-0.34164 z m 72.0178,-0.006 c -8.90257,-0.16557 -23.75257,-0.16588 -33,-6.9e-4 -9.24743,0.16519 -1.96351,0.30065 16.18649,0.30103 18.15,3.8e-4 25.71608,-0.13477 16.81351,-0.30034 z m 50.93649,0.0157 c -2.3375,-0.21053 -6.1625,-0.21053 -8.5,0 -2.3375,0.21054 -0.425,0.3828 4.25,0.3828 4.675,0 6.5875,-0.17226 4.25,-0.3828 z m 14.9375,0.0491 c -0.72187,-0.28887 -1.58438,-0.25335 -1.91667,0.0789 -0.33229,0.33229 0.25834,0.56864 1.3125,0.52522 1.16495,-0.048 1.4019,-0.28494 0.60417,-0.60416 z m -167.9375,-1.05973 c -3.9875,-0.18981 -10.5125,-0.18981 -14.5,0 -3.9875,0.18982 -0.725,0.34512 7.25,0.34512 7.975,0 11.2375,-0.1553 7.25,-0.34512 z m -26,-0.98089 c -1.7875,-0.22182 -4.7125,-0.22182 -6.5,0 -1.7875,0.22183 -0.325,0.40333 3.25,0.40333 3.575,0 5.0375,-0.1815 3.25,-0.40333 z M 225.04748,666.82023 c 47.20598,-0.14369 124.15598,-0.14368 171,3e-5 46.84401,0.14371 8.22093,0.26128 -85.82907,0.26126 -94.05,-2e-5 -132.37692,-0.1176 -85.17093,-0.26129 z m 279.92093,0.0337 c 1.5125,-0.22913 3.9875,-0.22913 5.5,0 1.5125,0.22912 0.275,0.41659 -2.75,0.41659 -3.025,0 -4.2625,-0.18747 -2.75,-0.41659 z m 80.07718,-0.0336 c 32.35494,-0.14639 85.00494,-0.14636 117,7e-5 31.99505,0.14643 5.52282,0.26621 -58.82718,0.26617 -64.35,-3e-5 -90.52777,-0.11984 -58.17282,-0.26624 z m 179.42282,0.0876 c 0.6875,-0.27741 1.8125,-0.27741 2.5,0 0.6875,0.27741 0.125,0.50439 -1.25,0.50439 -1.375,0 -1.9375,-0.22698 -1.25,-0.50439 z m 6.01483,-0.0454 c 1.24566,-0.23942 2.00979,-0.84798 1.69806,-1.35236 -0.31172,-0.50438 0.12902,-0.65005 0.97943,-0.32372 2.32584,0.89251 0.81317,2.40266 -2.25134,2.24758 -2.37855,-0.12037 -2.42803,-0.18673 -0.42615,-0.5715 z m -265.51483,-2.00861 c 1.5125,-0.22913 3.9875,-0.22913 5.5,0 1.5125,0.22912 0.275,0.41659 -2.75,0.41659 -3.025,0 -4.2625,-0.18747 -2.75,-0.41659 z m 79.42273,-0.0336 c 32.54499,-0.14629 86.09499,-0.14631 119,-6e-5 32.905,0.14625 6.27727,0.26594 -59.17273,0.26598 -65.45,4e-5 -92.37227,-0.11963 -59.82727,-0.26592 z m -403.48523,18.06674 c -0.72188,-0.28887 -1.58438,-0.25335 -1.91667,0.0789 -0.33229,0.33229 0.25834,0.56864 1.3125,0.52522 1.16495,-0.048 1.4019,-0.28494 0.60417,-0.60416 z m -59.1668,-5.31689 0.52071,-4.5 -8.86821,0.32348 -8.86822,0.32348 0.68829,3.6689 c 0.37856,2.0179 0.91071,4.02878 1.18254,4.46862 0.27184,0.43984 3.71849,0.66826 7.65922,0.50761 l 7.16497,-0.29209 0.5207,-4.5 z m 43.1668,3.31689 c -0.72187,-0.28887 -1.58437,-0.25335 -1.91667,0.0789 -0.33229,0.33229 0.25834,0.56864 1.3125,0.52522 1.16495,-0.048 1.4019,-0.28494 0.60417,-0.60416 z m -28.27084,-4.59986 c -0.22916,-0.15563 -1.21446,-0.89428 -2.18956,-1.64144 -1.54347,-1.18269 -1.69138,-1.14607 -1.14301,0.28297 0.34644,0.90279 1.33174,1.64144 2.18956,1.64144 0.85782,0 1.37218,-0.12734 1.14301,-0.28297 z m 44.92624,-16.96703 -0.15711,-5.25 -0.68579,5 -0.68579,5 -0.15711,-4.75 -0.1571,-4.75 -34,0 -34,0 0,5 0,5 35,0 35,0 -0.1571,-5.25 z m 5.1571,0.25 c 0,-4.33333 -0.26667,-5 -2,-5 -1.73333,0 -2,0.66667 -2,5 0,4.33333 0.26667,5 2,5 1.73333,0 2,-0.66667 2,-5 z m -78,-8 c 0,-0.63837 -8.51968,-1 -23.559021,-1 -15.451367,0 -23.346325,0.34414 -22.940983,1 0.382963,0.61965 9.343718,1 23.559017,1 14.627317,0 22.940987,-0.36239 22.940987,-1 z m 78,-0.0797 c 0,-0.54381 -15.13693,-0.9203 -37,-0.9203 -24.81097,0 -37,0.34063 -37,1.03399 0,0.69542 12.11571,0.99676 37,0.92028 21.78069,-0.0669 37,-0.49226 37,-1.034 z m 580,0.0729 c 0,-0.6553 -98.00227,-0.9932 -288.05902,-0.9932 -192.43131,0 -287.85316,0.33309 -287.4389,1.00338 0.85513,1.38364 575.49792,1.37347 575.49792,-0.0102 z m 6,0.007 c 0,-0.55 -1.125,-1 -2.5,-1 -1.375,0 -2.5,0.45 -2.5,1 0,0.55 1.125,1 2.5,1 1.375,0 2.5,-0.45 2.5,-1 z m 194.49412,0.01 c 0.41823,-0.67739 -31.37403,-1.0102 -96.4351,-1.0102 -62.7562,0 -97.05902,0.34655 -97.05902,0.98056 0,1.37359 192.64527,1.40242 193.49412,0.029 z M 54.468406,648.88084 c -0.9625,-0.25152 -2.5375,-0.25152 -3.5,0 -0.9625,0.25153 -0.175,0.45733 1.75,0.45733 1.925,0 2.7125,-0.2058 1.75,-0.45733 z m 126.250314,-1.06067 c -1.7e-4,0.4125 139.17456,0.75 309.27718,0.75 278.30181,0 309.50009,-0.15591 311.5,-1.5567 1.22238,-0.85619 2.22251,-2.17963 2.22251,-2.94099 0,-0.76135 0.52647,-1.70965 1.16994,-2.10734 1.1349,-0.7014 1.07764,-0.41576 -0.87286,4.35503 -0.40642,0.99406 16.4633,1.25 82.39022,1.25 l 82.90128,0 4.40069,-8.97811 c 2.42038,-4.93796 5.32545,-10.02171 6.45571,-11.29723 1.13026,-1.27551 1.60502,-1.62285 1.05502,-0.77188 -0.86978,1.34574 -0.77355,1.36969 0.73899,0.18391 0.95644,-0.74982 1.5116,-1.73122 1.23369,-2.1809 -0.27792,-0.44968 -0.0676,-1.0881 0.46733,-1.41872 1.37997,-0.85287 0.0606,-3.75128 -1.44465,-3.17366 -0.68561,0.26309 -10.19004,0.98559 -21.12096,1.60556 -24.76689,1.4047 -29.41483,2.29396 -31.56419,6.03901 -0.94358,1.64408 -2.80154,3.05084 -4.53109,3.43071 -3.23822,0.71124 -8.71897,-0.91798 -7.84504,-2.33203 0.63183,-1.02232 -1.57078,-2.05063 -4.76587,-2.22497 -1.65878,-0.0905 -1.46334,-0.29768 0.83179,-0.88169 2.1236,-0.54036 0.66293,-0.76881 -5,-0.78201 -4.46047,-0.0104 -6.93043,0.28042 -5.58257,0.65728 1.32958,0.37175 -4.07042,0.52738 -12,0.34584 -7.92959,-0.18154 -13.89741,0.0319 -13.26182,0.47441 0.63558,0.44246 -2.51442,0.6785 -7,0.52452 -4.48559,-0.15397 -17.83061,0.071 -29.65561,0.5 l -21.5,0.77996 -0.33008,2.89149 c -0.18747,1.64233 0.24454,3.25577 1,3.73469 1.02986,0.65287 0.95354,0.84665 -0.33813,0.85851 -3.02589,0.0278 -4.83179,-1.16916 -4.83179,-3.20246 0,-1.91408 -0.0817,-1.90294 -1.82415,0.24894 -1.00329,1.239 -2.39217,2.06339 -3.08642,1.83197 -0.73673,-0.24557 0.335,-1.59181 2.57416,-3.23351 l 3.83641,-2.81275 -28,0.57494 c -15.4,0.31622 -179.7625,0.58242 -365.25,0.59156 l -337.250004,0.0166 0,2.5 c 0,1.83333 -0.533333,2.5 -2,2.5 -1.111111,0 -2,-0.66667 -2,-1.5 0,-0.825 -0.675,-1.5 -1.5,-1.5 -0.825,0 -1.5,0.675 -1.5,1.5 0,0.83333 -0.888889,1.5 -2,1.5 -2.246323,0 -2.843967,-3.47617 -0.75,-4.36234 0.6875,-0.29095 -4.658307,-0.50731 -11.879571,-0.48081 -12.388768,0.0455 -13.101575,0.15525 -12.633369,1.94567 0.272911,1.04361 1.295574,1.89748 2.272583,1.89748 0.977009,0 2.035401,0.675 2.351983,1.5 0.350624,0.91371 0.0016,1.5 -0.893011,1.5 -2.164831,0 -1.803279,1.44712 1.281385,5.12877 1.5125,1.80521 2.184085,2.93607 1.492412,2.51301 -0.978511,-0.5985 -1.023729,-0.25575 -0.203761,1.54451 l 1.053827,2.31371 60.954066,-0.5 c 33.52474,-0.275 60.95393,-0.1625 60.95377,0.25 z m 633.99969,-5.25 c 0,-1.33333 0.66667,-2 2,-2 1.33333,0 2,0.66667 2,2 0,1.33333 -0.66667,2 -2,2 -1.33333,0 -2,-0.66667 -2,-2 z m 9,0 c 0,-1.33333 0.66667,-2 2,-2 1.33333,0 2,0.66667 2,2 0,1.33333 -0.66667,2 -2,2 -1.33333,0 -2,-0.66667 -2,-2 z m 9,0 c 0,-1.33333 0.66667,-2 2,-2 1.33333,0 2,0.66667 2,2 0,1.33333 -0.66667,2 -2,2 -1.33333,0 -2,-0.66667 -2,-2 z m 9,0 c 0,-1.33333 0.66667,-2 2,-2 1.33333,0 2,0.66667 2,2 0,1.33333 -0.66667,2 -2,2 -1.33333,0 -2,-0.66667 -2,-2 z m -767.000004,-1 c 0,-1.33333 0.666667,-2 2,-2 1.333333,0 2,0.66667 2,2 0,1.33333 -0.666667,2 -2,2 -1.333333,0 -2,-0.66667 -2,-2 z m 8,0 c 0,-1.33333 0.666667,-2 2,-2 1.333333,0 2,0.66667 2,2 0,1.33333 -0.666667,2 -2,2 -1.333333,0 -2,-0.66667 -2,-2 z m 8,0 c 0,-1.33333 0.666667,-2 2,-2 1.333333,0 2,0.66667 2,2 0,1.33333 -0.666667,2 -2,2 -1.333333,0 -2,-0.66667 -2,-2 z m 6,0 c 0,-1.33333 0.666667,-2 2,-2 1.333334,0 2.000004,0.66667 2.000004,2 0,1.33333 -0.66667,2 -2.000004,2 -1.333333,0 -2,-0.66667 -2,-2 z m 6.000004,0 c 0,-1.33333 0.66666,-2 2,-2 1.33333,0 2,0.66667 2,2 0,1.33333 -0.66667,2 -2,2 -1.33334,0 -2,-0.66667 -2,-2 z m 6,0 c 0,-1.33333 0.66666,-2 2,-2 1.33333,0 2,0.66667 2,2 0,1.33333 -0.66667,2 -2,2 -1.33334,0 -2,-0.66667 -2,-2 z m 6,0 c 0,-1.33333 0.66666,-2 2,-2 1.33333,0 2,0.66667 2,2 0,1.33333 -0.66667,2 -2,2 -1.33334,0 -2,-0.66667 -2,-2 z m 7,0 c 0,-1.33333 0.66666,-2 2,-2 1.33333,0 2,0.66667 2,2 0,1.33333 -0.66667,2 -2,2 -1.33334,0 -2,-0.66667 -2,-2 z m 9,0 c 0,-1.33333 0.66666,-2 2,-2 1.33333,0 2,0.66667 2,2 0,1.33333 -0.66667,2 -2,2 -1.33334,0 -2,-0.66667 -2,-2 z m 5,0 c 0,-1.33333 0.66666,-2 2,-2 1.33333,0 2,0.66667 2,2 0,1.33333 -0.66667,2 -2,2 -1.33334,0 -2,-0.66667 -2,-2 z m 7,0 c 0,-1.33333 0.66666,-2 2,-2 1.33333,0 2,0.66667 2,2 0,1.33333 -0.66667,2 -2,2 -1.33334,0 -2,-0.66667 -2,-2 z m 8,0 c 0,-1.33333 0.66667,-2 2,-2 1.33333,0 2,0.66667 2,2 0,1.33333 -0.66667,2 -2,2 -1.33333,0 -2,-0.66667 -2,-2 z m 8,0 c 0,-1.33333 0.66667,-2 2,-2 1.33333,0 2,0.66667 2,2 0,1.33333 -0.66667,2 -2,2 -1.33333,0 -2,-0.66667 -2,-2 z m 9,0 c 0,-1.33333 0.66667,-2 2,-2 1.33333,0 2,0.66667 2,2 0,1.33333 -0.66667,2 -2,2 -1.33333,0 -2,-0.66667 -2,-2 z m 8,0 c 0,-1.33333 0.66667,-2 2,-2 1.33333,0 2,0.66667 2,2 0,1.33333 -0.66667,2 -2,2 -1.33333,0 -2,-0.66667 -2,-2 z m 685,0 c 0,-1.33333 0.66667,-2 2,-2 1.33333,0 2,0.66667 2,2 0,1.33333 -0.66667,2 -2,2 -1.33333,0 -2,-0.66667 -2,-2 z m 10,0 c 0,-1.33333 0.66667,-2 2,-2 1.33333,0 2,0.66667 2,2 0,1.33333 -0.66667,2 -2,2 -1.33333,0 -2,-0.66667 -2,-2 z m -414,-3 c 0,-0.55 0.19844,-1 0.44098,-1 0.24254,0 0.7191,0.45 1.05902,1 0.33992,0.55 0.14148,1 -0.44098,1 -0.58246,0 -1.05902,-0.45 -1.05902,-1 z m 349,-0.39301 c 0,-1.95661 2.33489,-2.62801 5.66539,-1.62909 l 2.83461,0.85019 -2.69098,0.086 c -1.48004,0.0473 -2.9691,0.53595 -3.30902,1.08595 -0.90751,1.46839 -2.5,1.21804 -2.5,-0.39301 z m -692.26904,-0.26293 c 0.67704,-0.27392 2.02704,-0.29059 3,-0.0371 0.97297,0.25354 0.41904,0.47766 -1.23096,0.49804 -1.65,0.0204 -2.44607,-0.18706 -1.76904,-0.46099 z m 8.01904,-0.0498 c 1.2375,-0.23836 3.2625,-0.23836 4.5,0 1.2375,0.23835 0.225,0.43337 -2.25,0.43337 -2.475,0 -3.4875,-0.19502 -2.25,-0.43337 z m 9.98096,0.0498 c 0.67704,-0.27392 2.02704,-0.29059 3,-0.0371 0.97297,0.25354 0.41904,0.47766 -1.23096,0.49804 -1.65,0.0204 -2.44607,-0.18706 -1.76904,-0.46099 z m 12.01904,-0.006 c 0.6875,-0.27741 1.8125,-0.27741 2.5,0 0.6875,0.27741 0.125,0.50439 -1.25,0.50439 -1.375,0 -1.9375,-0.22698 -1.25,-0.50439 z m 22.22081,-0.0847 c 4.10895,-0.19227 7.70895,-0.72805 8,-1.19064 0.29106,-0.46259 1.10943,-0.21587 1.81862,0.54826 1.09469,1.17952 -0.11351,1.35933 -8,1.19064 -9.2881,-0.19867 -9.28836,-0.19874 -1.81862,-0.54826 z m 651.77919,-0.9153 c 0.6875,-0.27741 1.8125,-0.27741 2.5,0 0.6875,0.27741 0.125,0.50439 -1.25,0.50439 -1.375,0 -1.9375,-0.22698 -1.25,-0.50439 z m 4.52083,0.0581 c 0.33229,-0.33229 1.1948,-0.36781 1.91667,-0.0789 0.79773,0.31922 0.56078,0.55618 -0.60417,0.60416 -1.05416,0.0434 -1.64479,-0.19293 -1.3125,-0.52522 z m 37.47917,-0.0581 c 0.6875,-0.27741 1.8125,-0.27741 2.5,0 0.6875,0.27741 0.125,0.50439 -1.25,0.50439 -1.375,0 -1.9375,-0.22698 -1.25,-0.50439 z m 6.52083,0.0581 c 0.33229,-0.33229 1.1948,-0.36781 1.91667,-0.0789 0.79773,0.31922 0.56078,0.55618 -0.60417,0.60416 -1.05416,0.0434 -1.64479,-0.19293 -1.3125,-0.52522 z m -779.270834,-1.3368 c 0,-0.58246 0.45,-1.05902 1,-1.05902 0.55,0 1,0.19844 1,0.44098 0,0.24254 -0.45,0.7191 -1,1.05902 -0.55,0.33992 -1,0.14148 -1,-0.44098 z m 10.386412,0.23645 c -0.602652,-0.20122 -0.883674,-1.47488 -0.624494,-2.8307 0.527169,-2.7577 4.238086,-3.54023 4.238086,-0.89368 0,1.97683 -2.164192,4.20717 -3.613592,3.72404 z m 6.211352,-0.031 c -0.32877,-0.32881 -0.59776,-1.6478 -0.59776,-2.93114 0,-1.66666 0.57142,-2.33333 2,-2.33333 1.44282,0 2,0.66667 2,2.39301 0,2.29603 -2.15709,4.11657 -3.40224,2.87142 z m 20.67307,0.1314 c 0.33229,-0.33229 1.19479,-0.36781 1.91667,-0.0789 0.79773,0.31922 0.56077,0.55618 -0.60417,0.60416 -1.05417,0.0434 -1.64479,-0.19293 -1.3125,-0.52522 z m 753.96751,-0.0829 c 0.95609,-0.25029 2.75609,-0.25937 4,-0.0202 1.24391,0.23919 0.46166,0.44398 -1.73834,0.45508 -2.2,0.0111 -3.21775,-0.18461 -2.26166,-0.4349 z m 8.03249,0.0829 c 0.33229,-0.33229 1.1948,-0.36781 1.91667,-0.0789 0.79773,0.31922 0.56078,0.55618 -0.60417,0.60416 -1.05416,0.0434 -1.64479,-0.19293 -1.3125,-0.52522 z M 91.968406,634.85189 c -2.107457,-0.75597 -1.489874,-4.28172 0.75,-4.28172 1.313063,0 2,0.66667 2,1.94098 0,2.20468 -0.927785,2.99439 -2.75,2.34074 z m 16.750004,-1.78172 c 0,-3.36439 3.93329,-3.60213 4.13618,-0.25 l 0.13618,2.25 0.43337,-2.25 c 0.54324,-2.82042 4.29427,-3.14798 4.29427,-0.375 0,1.3 -0.95834,2.06667 -3.125,2.5 -5.11663,1.02333 -5.875,0.78129 -5.875,-1.875 z m 85.99999,0.0733 c 0,-1.93546 0.51297,-2.5733 2.06955,-2.5733 1.57185,0 1.9927,0.53864 1.75,2.23978 -0.4742,3.32375 -3.81955,3.61588 -3.81955,0.33354 z m 5,-0.29689 c 0,-1.98915 0.50476,-2.27641 4.00001,-2.27641 3.25943,0 4,0.35084 4,1.89496 0,1.48055 -0.87477,1.97839 -4,2.27643 -3.60696,0.34398 -4.00001,0.15778 -4.00001,-1.89496 z m 319.85827,1.93818 c -2.05936,-0.25457 -2.52967,-0.75513 -2.13337,-2.27059 0.59392,-2.27115 4.27511,-2.65349 4.27511,-0.444 0,0.825 0.45,1.5 1,1.5 0.55,0 1,-0.675 1,-1.5 0,-0.85102 0.89704,-1.5 2.07332,-1.5 1.40253,0 1.96872,0.54292 1.75,1.67808 -0.36214,1.87956 -3.97426,3.02987 -7.96506,2.53653 z m 303.39174,0.0367 c -2.11271,-0.7065 -1.48735,-4.25134 0.75,-4.25134 1.33333,0 2,0.66667 2,2 0,1.11111 0.66667,2 1.5,2 0.83333,0 1.5,-0.88889 1.5,-2 0,-1.33333 0.66667,-2 2,-2 1.4076,0 1.99981,0.66645 1.99936,2.25 -5.6e-4,1.96695 -0.53521,2.26065 -4.25,2.33467 -2.33715,0.0466 -4.81186,-0.10343 -5.49936,-0.33333 z m 12.75,-1.95134 c 0,-1.58588 0.58478,-2.3 1.88342,-2.3 1.17121,0 2.04969,0.86975 2.3231,2.3 0.35673,1.86614 10e-4,2.3 -1.88342,2.3 -1.75744,0 -2.3231,-0.56004 -2.3231,-2.3 z m 7.6875,2.05417 c -1.54048,-1.54049 -0.6474,-4.35417 1.38205,-4.35417 1.55552,0 1.99018,0.5394 1.75,2.17167 -0.33186,2.2553 -1.9392,3.37534 -3.13205,2.1825 z m 7.85417,-0.14584 c -1.38849,-1.38848 -0.41131,-4.20833 1.45833,-4.20833 1.30435,0 2,0.66667 2,1.91667 0,1.05416 0.5625,2.11403 1.25,2.35526 0.6875,0.24123 0.0312,0.44748 -1.45833,0.45833 -1.48959,0.0109 -2.95209,-0.22401 -3.25,-0.52193 z m 8.72916,0.1875 c 0.33229,-0.33229 1.1948,-0.36781 1.91667,-0.0789 0.79773,0.31922 0.56078,0.55618 -0.60417,0.60416 -1.05416,0.0434 -1.64479,-0.19293 -1.3125,-0.52522 z M 69.718406,632.57012 c 0,-1.33333 0.666667,-2 2,-2 1.333333,0 2,0.66667 2,2 0,1.33333 -0.666667,2 -2,2 -1.333333,0 -2,-0.66667 -2,-2 z m 53.000004,0 c 0,-1.33333 0.66666,-2 2,-2 1.33333,0 2,0.66667 2,2 0,1.33333 -0.66667,2 -2,2 -1.33334,0 -2,-0.66667 -2,-2 z m 5,0 c 0,-1.33333 0.66666,-2 2,-2 1.33333,0 2,0.66667 2,2 0,1.33333 -0.66667,2 -2,2 -1.33334,0 -2,-0.66667 -2,-2 z m 6,0 c 0,-1.33333 0.66666,-2 2,-2 1.33333,0 2,0.66667 2,2 0,1.33333 -0.66667,2 -2,2 -1.33334,0 -2,-0.66667 -2,-2 z m 5,0 c 0,-1.33333 0.66666,-2 2,-2 1.33333,0 2,0.66667 2,2 0,1.33333 -0.66667,2 -2,2 -1.33334,0 -2,-0.66667 -2,-2 z m 5,0 c 0,-1.33333 0.66666,-2 2,-2 1.33333,0 2,0.66667 2,2 0,1.33333 -0.66667,2 -2,2 -1.33334,0 -2,-0.66667 -2,-2 z m 17,0 c 0,-1.33333 0.66667,-2 2,-2 1.33333,0 2,0.66667 2,2 0,1.33333 -0.66667,2 -2,2 -1.33333,0 -2,-0.66667 -2,-2 z m 5,0 c 0,-1.33333 0.66667,-2 2,-2 1.33333,0 2,0.66667 2,2 0,1.33333 -0.66667,2 -2,2 -1.33333,0 -2,-0.66667 -2,-2 z m 6.66667,1.33333 c -0.36667,-0.36666 -0.66667,-1.13166 -0.66667,-1.7 0,-0.6266 0.46577,-0.56756 1.18333,0.15 0.65084,0.65084 0.95084,1.41584 0.66667,1.7 -0.28417,0.28417 -0.81667,0.21667 -1.18333,-0.15 z m 2.33333,-1.33333 c 0,-1.33333 0.66667,-2 2,-2 1.33333,0 2,0.66667 2,2 0,1.33333 -0.66667,2 -2,2 -1.33333,0 -2,-0.66667 -2,-2 z m 5,0 c 0,-1.33333 0.66667,-2 2,-2 1.33333,0 2,0.66667 2,2 0,1.33333 -0.66667,2 -2,2 -1.33333,0 -2,-0.66667 -2,-2 z m 5,0 c 0,-1.33333 0.66667,-2 2,-2 1.33333,0 2,0.66667 2,2 0,1.33333 -0.66667,2 -2,2 -1.33333,0 -2,-0.66667 -2,-2 z m 4.99999,0 c 0,-1.33333 0.66667,-2 2,-2 1.33333,0 2,0.66667 2,2 0,1.33333 -0.66667,2 -2,2 -1.33333,0 -2,-0.66667 -2,-2 z m 22.00001,0 c 0,-1.33333 0.66667,-2 2,-2 1.33333,0 2,0.66667 2,2 0,1.33333 -0.66667,2 -2,2 -1.33333,0 -2,-0.66667 -2,-2 z m 6,0 c 0,-1.33333 0.66667,-2 2,-2 1.33333,0 2,0.66667 2,2 0,1.33333 -0.66667,2 -2,2 -1.33333,0 -2,-0.66667 -2,-2 z m 5,0 c 0,-1.33333 0.66667,-2 2,-2 1.33333,0 2,0.66667 2,2 0,1.33333 -0.66667,2 -2,2 -1.33333,0 -2,-0.66667 -2,-2 z m 5,0 c 0,-1.33333 0.66667,-2 2,-2 1.33333,0 2,0.66667 2,2 0,1.33333 -0.66667,2 -2,2 -1.33333,0 -2,-0.66667 -2,-2 z m 6,0 c 0,-1.33333 0.66667,-2 2,-2 1.33333,0 2,0.66667 2,2 0,1.33333 -0.66667,2 -2,2 -1.33333,0 -2,-0.66667 -2,-2 z m 5,0 c 0,-1.33333 0.66667,-2 2,-2 1.33333,0 2,0.66667 2,2 0,1.33333 -0.66667,2 -2,2 -1.33333,0 -2,-0.66667 -2,-2 z m 5,0 c 0,-1.33333 0.66667,-2 2,-2 1.33333,0 2,0.66667 2,2 0,1.33333 -0.66667,2 -2,2 -1.33333,0 -2,-0.66667 -2,-2 z m 6,0 c 0,-1.33333 0.66667,-2 2,-2 1.33333,0 2,0.66667 2,2 0,1.33333 -0.66667,2 -2,2 -1.33333,0 -2,-0.66667 -2,-2 z m 5,0 c 0,-1.33333 0.66667,-2 2,-2 1.33333,0 2,0.66667 2,2 0,1.33333 -0.66667,2 -2,2 -1.33333,0 -2,-0.66667 -2,-2 z m 5,0 c 0,-1.33333 0.66667,-2 2,-2 1.33333,0 2,0.66667 2,2 0,1.33333 -0.66667,2 -2,2 -1.33333,0 -2,-0.66667 -2,-2 z m 6,0 c 0,-1.33333 0.66667,-2 2,-2 1.33333,0 2,0.66667 2,2 0,1.33333 -0.66667,2 -2,2 -1.33333,0 -2,-0.66667 -2,-2 z m 5,0 c 0,-1.33333 0.66667,-2 2,-2 1.33333,0 2,0.66667 2,2 0,1.33333 -0.66667,2 -2,2 -1.33333,0 -2,-0.66667 -2,-2 z m 5,0 c 0,-1.33333 0.66667,-2 2,-2 1.33333,0 2,0.66667 2,2 0,1.33333 -0.66667,2 -2,2 -1.33333,0 -2,-0.66667 -2,-2 z m 6,0 c 0,-1.33333 0.66667,-2 2,-2 1.33333,0 2,0.66667 2,2 0,1.33333 -0.66667,2 -2,2 -1.33333,0 -2,-0.66667 -2,-2 z m 5,0 c 0,-1.33333 0.66667,-2 2,-2 1.33333,0 2,0.66667 2,2 0,1.33333 -0.66667,2 -2,2 -1.33333,0 -2,-0.66667 -2,-2 z m 6,0 c 0,-1.33333 0.66667,-2 2,-2 1.33333,0 2,0.66667 2,2 0,1.33333 -0.66667,2 -2,2 -1.33333,0 -2,-0.66667 -2,-2 z m 9,0 c 0,-1.33333 0.66667,-2 2,-2 1.33333,0 2,0.66667 2,2 0,1.33333 -0.66667,2 -2,2 -1.33333,0 -2,-0.66667 -2,-2 z m 5,0 c 0,-1.33333 0.66667,-2 2,-2 1.33333,0 2,0.66667 2,2 0,1.33333 -0.66667,2 -2,2 -1.33333,0 -2,-0.66667 -2,-2 z m 10,0 c 0,-1.33333 0.66667,-2 2,-2 1.33333,0 2,0.66667 2,2 0,1.33333 -0.66667,2 -2,2 -1.33333,0 -2,-0.66667 -2,-2 z m 7,0 c 0,-1.66667 0.66667,-2 4,-2 3.33333,0 4,0.33333 4,2 0,1.66667 -0.66667,2 -4,2 -3.33333,0 -4,-0.33333 -4,-2 z m 9,0 c 0,-1.33333 0.66667,-2 2,-2 1.33333,0 2,0.66667 2,2 0,1.33333 -0.66667,2 -2,2 -1.33333,0 -2,-0.66667 -2,-2 z m 6,0 c 0,-1.33333 0.66667,-2 2,-2 1.33333,0 2,0.66667 2,2 0,1.33333 -0.66667,2 -2,2 -1.33333,0 -2,-0.66667 -2,-2 z m 6,0 c 0,-1.33333 0.66667,-2 2,-2 1.33333,0 2,0.66667 2,2 0,1.33333 -0.66667,2 -2,2 -1.33333,0 -2,-0.66667 -2,-2 z m 5,0 c 0,-1.33333 0.66667,-2 2,-2 1.33333,0 2,0.66667 2,2 0,1.33333 -0.66667,2 -2,2 -1.33333,0 -2,-0.66667 -2,-2 z m 5,0 c 0,-1.66667 0.66667,-2 4,-2 3.33333,0 4,0.33333 4,2 0,1.66667 -0.66667,2 -4,2 -3.33333,0 -4,-0.33333 -4,-2 z m 11,0 c 0,-1.33333 0.66667,-2 2,-2 1.33333,0 2,0.66667 2,2 0,1.33333 -0.66667,2 -2,2 -1.33333,0 -2,-0.66667 -2,-2 z m 7,0 c 0,-1.33333 0.66667,-2 2,-2 1.33333,0 2,0.66667 2,2 0,1.33333 -0.66667,2 -2,2 -1.33333,0 -2,-0.66667 -2,-2 z m 5,0 c 0,-1.33333 0.66667,-2 2,-2 1.33333,0 2,0.66667 2,2 0,1.33333 -0.66667,2 -2,2 -1.33333,0 -2,-0.66667 -2,-2 z m 5,0 c 0,-1.33333 0.66667,-2 2,-2 1.33333,0 2,0.66667 2,2 0,1.33333 -0.66667,2 -2,2 -1.33333,0 -2,-0.66667 -2,-2 z m 9,0 c 0,-1.33333 0.66667,-2 2,-2 1.33333,0 2,0.66667 2,2 0,1.33333 -0.66667,2 -2,2 -1.33333,0 -2,-0.66667 -2,-2 z m 9,0 c 0,-1.33333 0.66667,-2 2,-2 1.33333,0 2,0.66667 2,2 0,1.33333 -0.66667,2 -2,2 -1.33333,0 -2,-0.66667 -2,-2 z m 7,0 c 0,-1.33333 0.66667,-2 2,-2 1.33333,0 2,0.66667 2,2 0,1.33333 -0.66667,2 -2,2 -1.33333,0 -2,-0.66667 -2,-2 z m 7,0 c 0,-1.33333 0.66667,-2 2,-2 1.33333,0 2,0.66667 2,2 0,1.33333 -0.66667,2 -2,2 -1.33333,0 -2,-0.66667 -2,-2 z m 8,0 c 0,-1.33333 0.66667,-2 2,-2 1.33333,0 2,0.66667 2,2 0,1.33333 -0.66667,2 -2,2 -1.33333,0 -2,-0.66667 -2,-2 z m 7,0 c 0,-1.33333 0.66667,-2 2,-2 1.33333,0 2,0.66667 2,2 0,1.33333 -0.66667,2 -2,2 -1.33333,0 -2,-0.66667 -2,-2 z m 9,0 c 0,-1.33333 0.66667,-2 2,-2 1.33333,0 2,0.66667 2,2 0,1.33333 -0.66667,2 -2,2 -1.33333,0 -2,-0.66667 -2,-2 z m 7,0 c 0,-1.33333 0.66667,-2 2,-2 1.33333,0 2,0.66667 2,2 0,1.33333 -0.66667,2 -2,2 -1.33333,0 -2,-0.66667 -2,-2 z m 8,0 c 0,-1.33333 0.66667,-2 2,-2 1.33333,0 2,0.66667 2,2 0,1.33333 -0.66667,2 -2,2 -1.33333,0 -2,-0.66667 -2,-2 z m 7,0 c 0,-1.33333 0.66667,-2 2,-2 1.33333,0 2,0.66667 2,2 0,1.33333 -0.66667,2 -2,2 -1.33333,0 -2,-0.66667 -2,-2 z m 10,0 c 0,-1.33333 0.66667,-2 2,-2 1.33333,0 2,0.66667 2,2 0,1.33333 -0.66667,2 -2,2 -1.33333,0 -2,-0.66667 -2,-2 z m 7,0 c 0,-1.33333 0.66667,-2 2,-2 1.33333,0 2,0.66667 2,2 0,1.33333 -0.66667,2 -2,2 -1.33333,0 -2,-0.66667 -2,-2 z m 8,0 c 0,-1.29205 0.66667,-2 1.88337,-2 1.04236,0 2.11691,0.89308 2.40638,2 0.41601,1.59081 0.0307,2 -1.88337,2 -1.73971,0 -2.40638,-0.55408 -2.40638,-2 z m 5.66667,1.33333 c -1.37657,-1.37656 -0.59386,-3.33333 1.33333,-3.33333 1.33333,0 2,0.66667 2,2 0,1.92719 -1.95677,2.7099 -3.33333,1.33333 z m 11,0 c -1.37657,-1.37656 -0.59386,-3.33333 1.33333,-3.33333 1.33333,0 2,0.66667 2,2 0,1.92719 -1.95677,2.7099 -3.33333,1.33333 z m 6.33333,-1.37548 c 0,-1.62337 0.6959,-1.95785 4.07332,-1.95785 3.34063,0 4.01292,0.31479 3.7375,1.75 -0.23909,1.24593 -1.41236,1.80987 -4.07332,1.95785 -3.11479,0.17322 -3.7375,-0.11835 -3.7375,-1.75 z m 21,0.0421 c 0,-1.33333 0.66667,-2 2,-2 1.33333,0 2,0.66667 2,2 0,1.33333 -0.66667,2 -2,2 -1.33333,0 -2,-0.66667 -2,-2 z m 5,0 c 0,-1.33333 0.66667,-2 2,-2 1.11111,0 2,0.66667 2,1.5 0,0.825 0.45,1.5 1,1.5 0.55,0 1,-0.675 1,-1.5 0,-0.83333 0.88889,-1.5 2,-1.5 1.33333,0 2,0.66667 2,2 0,1.73333 -0.66667,2 -5,2 -4.33333,0 -5,-0.26667 -5,-2 z m 12,0 c 0,-1.33333 0.66667,-2 2,-2 1.33333,0 2,0.66667 2,2 0,1.33333 -0.66667,2 -2,2 -1.33333,0 -2,-0.66667 -2,-2 z m 5.66667,1.33333 c -1.37657,-1.37656 -0.59386,-3.33333 1.33333,-3.33333 1.33333,0 2,0.66667 2,2 0,1.92719 -1.95677,2.7099 -3.33333,1.33333 z m 7.09743,-1.53923 c 0.65629,-2.50968 4.2359,-2.34514 4.2359,0.1947 0,1.47665 -0.60582,1.93866 -2.35254,1.7941 -1.72834,-0.14305 -2.22805,-0.67073 -1.88336,-1.9888 z m 6.97659,0.0895 c 0.58262,-2.22796 4.25931,-2.55907 4.25931,-0.3836 0,0.825 0.675,1.5 1.5,1.5 0.825,0 1.5,-0.675 1.5,-1.5 0,-0.85102 0.89704,-1.5 2.07332,-1.5 1.43601,0 1.96998,0.53793 1.73713,1.75 -0.26872,1.39875 -1.46282,1.77681 -5.94926,1.88358 -5.03714,0.11988 -5.56252,-0.0597 -5.1205,-1.75 z m 41.25931,0.1164 c 0,-1.33333 0.66667,-2 2,-2 1.33333,0 2,0.66667 2,2 0,1.33333 -0.66667,2 -2,2 -1.33333,0 -2,-0.66667 -2,-2 z m 6.66667,1.33333 c -1.37657,-1.37656 -0.59386,-3.33333 1.33333,-3.33333 1.33333,0 2,0.66667 2,2 0,1.92719 -1.95677,2.7099 -3.33333,1.33333 z m 5.33333,-1.45121 c 0,-1.52914 0.75018,-1.88212 4,-1.88212 3.29019,0 4,0.34378 4,1.93732 0,1.60274 -0.69081,1.92779 -4,1.88212 -3.23027,-0.0446 -4,-0.41739 -4,-1.93732 z m 9,0.11788 c 0,-1.33333 0.66667,-2 2,-2 1.33333,0 2,0.66667 2,2 0,1.33333 -0.66667,2 -2,2 -1.33333,0 -2,-0.66667 -2,-2 z m 6,0 c 0,-1.33333 0.66667,-2 2,-2 1.33333,0 2,0.66667 2,2 0,1.33333 -0.66667,2 -2,2 -1.33333,0 -2,-0.66667 -2,-2 z m 6.66667,1.33333 c -0.36667,-0.36666 -0.66667,-1.26666 -0.66667,-2 0,-2.12305 3.71104,-1.54632 4.28975,0.66667 0.375,1.43401 0.0307,2 -1.2167,2 -0.95685,0 -2.03972,-0.3 -2.40638,-0.66667 z m 9.33333,-1.33333 c 0,-1.33333 0.66667,-2 2,-2 1.33333,0 2,0.66667 2,2 0,1.33333 -0.66667,2 -2,2 -1.33333,0 -2,-0.66667 -2,-2 z m 6,0 c 0,-1.33333 0.66667,-2 2,-2 1.33333,0 2,0.66667 2,2 0,1.33333 -0.66667,2 -2,2 -1.33333,0 -2,-0.66667 -2,-2 z m 16,0 c 0,-1.33333 0.66667,-2 2,-2 1.33333,0 2,0.66667 2,2 0,1.33333 -0.66667,2 -2,2 -1.33333,0 -2,-0.66667 -2,-2 z m 10,0 c 0,-1.33333 0.66667,-2 2,-2 1.33333,0 2,0.66667 2,2 0,1.33333 -0.66667,2 -2,2 -1.33333,0 -2,-0.66667 -2,-2 z m 6,0 c 0,-1.29205 0.66667,-2 1.88337,-2 1.04236,0 2.11691,0.89308 2.40638,2 0.41601,1.59081 0.0307,2 -1.88337,2 -1.73971,0 -2.40638,-0.55408 -2.40638,-2 z m 6,0 c 0,-1.33333 0.66667,-2 2,-2 1.33333,0 2,0.66667 2,2 0,1.33333 -0.66667,2 -2,2 -1.33333,0 -2,-0.66667 -2,-2 z m 21,0 c 0,-1.33333 0.66667,-2 2,-2 1.33333,0 2,0.66667 2,2 0,1.33333 -0.66667,2 -2,2 -1.33333,0 -2,-0.66667 -2,-2 z m 8,0 c 0,-1.33333 0.66667,-2 2,-2 1.33333,0 2,0.66667 2,2 0,1.33333 -0.66667,2 -2,2 -1.33333,0 -2,-0.66667 -2,-2 z m 9,0 c 0,-1.33333 0.66667,-2 2,-2 1.33333,0 2,0.66667 2,2 0,1.33333 -0.66667,2 -2,2 -1.33333,0 -2,-0.66667 -2,-2 z m 17,0 c 0,-1.33333 0.66667,-2 2,-2 1.33333,0 2,0.66667 2,2 0,1.33333 -0.66667,2 -2,2 -1.33333,0 -2,-0.66667 -2,-2 z m 9,0 c 0,-1.33333 0.66667,-2 2,-2 1.33333,0 2,0.66667 2,2 0,1.33333 -0.66667,2 -2,2 -1.33333,0 -2,-0.66667 -2,-2 z m 8,0 c 0,-1.33333 0.66667,-2 2,-2 1.33333,0 2,0.66667 2,2 0,1.33333 -0.66667,2 -2,2 -1.33333,0 -2,-0.66667 -2,-2 z m 8,0 c 0,-1.33333 0.66667,-2 2,-2 1.33333,0 2,0.66667 2,2 0,1.33333 -0.66667,2 -2,2 -1.33333,0 -2,-0.66667 -2,-2 z m 8,0.9481 c 2.87409,-1.95683 7,-3.99567 7,-3.45908 0,0.74895 -6.27321,4.50613 -7.5,4.49193 -0.55,-0.006 -0.325,-0.47115 0.5,-1.03285 z m 9,-0.9481 c 0,-1.33333 0.66667,-2 2,-2 1.33333,0 2,0.66667 2,2 0,1.33333 -0.66667,2 -2,2 -1.33333,0 -2,-0.66667 -2,-2 z m 86.80491,-0.75 c 0.57772,-3.03536 3.8256,-2.9632 4.41078,0.098 0.38268,2.00184 0.0591,2.33355 -2.19509,2.25 -2.18251,-0.0809 -2.5692,-0.49066 -2.21569,-2.34799 z m 7.46592,2.14583 c 0.33229,-0.33229 1.1948,-0.36781 1.91667,-0.0789 0.79773,0.31922 0.56078,0.55618 -0.60417,0.60416 -1.05416,0.0434 -1.64479,-0.19293 -1.3125,-0.52522 z m 6,0 c 0.33229,-0.33229 1.1948,-0.36781 1.91667,-0.0789 0.79773,0.31922 0.56078,0.55618 -0.60417,0.60416 -1.05416,0.0434 -1.64479,-0.19293 -1.3125,-0.52522 z m 8,0 c 0.33229,-0.33229 1.1948,-0.36781 1.91667,-0.0789 0.79773,0.31922 0.56078,0.55618 -0.60417,0.60416 -1.05416,0.0434 -1.64479,-0.19293 -1.3125,-0.52522 z m -39.27083,-2.39583 c 0,-1.33333 0.66667,-2 2,-2 1.33333,0 2,0.66667 2,2 0,1.33333 -0.66667,2 -2,2 -1.33333,0 -2,-0.66667 -2,-2 z m 9,0 c 0,-1.33333 0.66667,-2 2,-2 1.33333,0 2,0.66667 2,2 0,1.33333 -0.66667,2 -2,2 -1.33333,0 -2,-0.66667 -2,-2 z m 87.2,0.8 c -2.7348,-2.7348 0.004,-8.8 3.97375,-8.8 1.89061,0 4.82625,3.14702 4.82625,5.17375 0,3.66695 -6.20315,6.2231 -8.8,3.62625 z m -70.2,-1.8 c 0,-1.33333 0.66667,-2 2,-2 1.33333,0 2,0.66667 2,2 0,1.33333 -0.66667,2 -2,2 -1.33333,0 -2,-0.66667 -2,-2 z m 8,0 c 0,-1.33333 0.66667,-2 2,-2 1.33333,0 2,0.66667 2,2 0,1.33333 -0.66667,2 -2,2 -1.33333,0 -2,-0.66667 -2,-2 z m 8,-1 c 0,-1.33333 0.66667,-2 2,-2 1.33333,0 2,0.66667 2,2 0,1.33333 -0.66667,2 -2,2 -1.33333,0 -2,-0.66667 -2,-2 z m -81.72917,-0.60417 c 0.33229,-0.33229 1.1948,-0.36781 1.91667,-0.0789 0.79773,0.31922 0.56078,0.55618 -0.60417,0.60416 -1.05416,0.0434 -1.64479,-0.19293 -1.3125,-0.52522 z m 6.97917,-0.1243 c 2.0625,-0.21574 5.4375,-0.21574 7.5,0 2.0625,0.21575 0.375,0.39226 -3.75,0.39226 -4.125,0 -5.8125,-0.17651 -3.75,-0.39226 z m 14.5,0.0227 c 1.2375,-0.23836 3.2625,-0.23836 4.5,0 1.2375,0.23835 0.225,0.43337 -2.25,0.43337 -2.475,0 -3.4875,-0.19502 -2.25,-0.43337 z m 29,-0.95655 c 0.6875,-0.27741 1.8125,-0.27741 2.5,0 0.6875,0.27741 0.125,0.50439 -1.25,0.50439 -1.375,0 -1.9375,-0.22698 -1.25,-0.50439 z m 20.52083,-0.94189 c 0.33229,-0.33229 1.1948,-0.36781 1.91667,-0.0789 0.79773,0.31922 0.56078,0.55618 -0.60417,0.60416 -1.05416,0.0434 -1.64479,-0.19293 -1.3125,-0.52522 z m 4,0 c 0.33229,-0.33229 1.1948,-0.36781 1.91667,-0.0789 0.79773,0.31922 0.56078,0.55618 -0.60417,0.60416 -1.05416,0.0434 -1.64479,-0.19293 -1.3125,-0.52522 z m -813.539866,2.91118 c -0.972967,-0.25354 -2.322967,-0.23687 -3,0.0371 -0.677032,0.27393 0.119032,0.48137 1.769032,0.46099 1.65,-0.0204 2.203936,-0.2445 1.230968,-0.49804 z M 233.98216,627.8661 c -1.22994,-0.23736 -3.47994,-0.24351 -5,-0.0136 -1.52006,0.22985 -0.51375,0.42406 2.23625,0.43157 2.75,0.007 3.99369,-0.18056 2.76375,-0.41792 z m 6.46722,0.0109 c -0.97297,-0.25354 -2.32297,-0.23687 -3,0.0371 -0.67703,0.27393 0.11903,0.48137 1.76903,0.46099 1.65,-0.0204 2.20394,-0.2445 1.23097,-0.49804 z m 44.51903,-0.0127 c -1.2375,-0.23836 -3.2625,-0.23836 -4.5,0 -1.2375,0.23835 -0.225,0.43337 2.25,0.43337 2.475,0 3.4875,-0.19502 2.25,-0.43337 z m 7.48097,0.0127 c -0.97297,-0.25354 -2.32297,-0.23687 -3,0.0371 -0.67703,0.27393 0.11903,0.48137 1.76903,0.46099 1.65,-0.0204 2.20394,-0.2445 1.23097,-0.49804 z m 4.45653,0.01 c -0.72188,-0.28887 -1.58438,-0.25335 -1.91667,0.0789 -0.33229,0.33229 0.25834,0.56864 1.3125,0.52522 1.16495,-0.048 1.4019,-0.28494 0.60417,-0.60416 z m 12.5625,-0.0331 c -1.5125,-0.22913 -3.9875,-0.22913 -5.5,0 -1.5125,0.22912 -0.275,0.41659 2.75,0.41659 3.025,0 4.2625,-0.18747 2.75,-0.41659 z m 23.46648,-0.0222 c -2.90594,-0.20265 -7.40594,-0.20052 -10,0.005 -2.59406,0.20525 -0.21648,0.37104 5.28352,0.36844 5.5,-0.003 7.62242,-0.17053 4.71648,-0.37317 z m 11.02186,0.0311 c -1.24391,-0.23919 -3.04391,-0.23011 -4,0.0202 -0.95609,0.25029 0.0617,0.446 2.26166,0.4349 2.2,-0.0111 2.98225,-0.21589 1.73834,-0.45508 z m 5.94916,0.0241 c -0.72188,-0.28887 -1.58438,-0.25335 -1.91667,0.0789 -0.33229,0.33229 0.25834,0.56864 1.3125,0.52522 1.16495,-0.048 1.4019,-0.28494 0.60417,-0.60416 z m 14.5625,-0.0331 c -1.5125,-0.22913 -3.9875,-0.22913 -5.5,0 -1.5125,0.22912 -0.275,0.41659 2.75,0.41659 3.025,0 4.2625,-0.18747 2.75,-0.41659 z m 76.4375,0.0331 c -0.72188,-0.28887 -1.58438,-0.25335 -1.91667,0.0789 -0.33229,0.33229 0.25834,0.56864 1.3125,0.52522 1.16495,-0.048 1.4019,-0.28494 0.60417,-0.60416 z m 14.5625,-0.006 c -0.9625,-0.25152 -2.5375,-0.25152 -3.5,0 -0.9625,0.25153 -0.175,0.45733 1.75,0.45733 1.925,0 2.7125,-0.2058 1.75,-0.45733 z m 44,-0.0457 c -2.6125,-0.206 -6.8875,-0.206 -9.5,0 -2.6125,0.206 -0.475,0.37454 4.75,0.37454 5.225,0 7.3625,-0.16854 4.75,-0.37454 z m 41.48834,0.0278 c -1.24391,-0.23919 -3.04391,-0.23011 -4,0.0202 -0.95609,0.25029 0.0617,0.446 2.26166,0.4349 2.2,-0.0111 2.98225,-0.21589 1.73834,-0.45508 z m 8.49263,0.0143 c -0.97297,-0.25354 -2.32297,-0.23687 -3,0.0371 -0.67703,0.27393 0.11903,0.48137 1.76903,0.46099 1.65,-0.0204 2.20394,-0.2445 1.23097,-0.49804 z m 21,0 c -0.97297,-0.25354 -2.32297,-0.23687 -3,0.0371 -0.67703,0.27393 0.11903,0.48137 1.76903,0.46099 1.65,-0.0204 2.20394,-0.2445 1.23097,-0.49804 z m 43.01903,-0.0233 c -1.5125,-0.22913 -3.9875,-0.22913 -5.5,0 -1.5125,0.22912 -0.275,0.41659 2.75,0.41659 3.025,0 4.2625,-0.18747 2.75,-0.41659 z m 25.13683,0.26975 c -0.76837,-0.76837 -8.79679,-0.97688 -9.52626,-0.2474 -0.38165,0.38164 1.7061,0.6939 4.63943,0.6939 2.93333,0 5.13241,-0.20092 4.88683,-0.4465 z m 10.36317,-0.25941 c -1.2375,-0.23836 -3.2625,-0.23836 -4.5,0 -1.2375,0.23835 -0.225,0.43337 2.25,0.43337 2.475,0 3.4875,-0.19502 2.25,-0.43337 z m 28,-0.0265 c -2.3375,-0.21053 -6.1625,-0.21053 -8.5,0 -2.3375,0.21054 -0.425,0.3828 4.25,0.3828 4.675,0 6.5875,-0.17226 4.25,-0.3828 z m 23.52643,0.005 c -2.04796,-0.21488 -5.64796,-0.21785 -8,-0.007 -2.35204,0.21125 -0.67643,0.38706 3.72357,0.39069 4.4,0.004 6.32439,-0.16921 4.27643,-0.38408 z m 65.47357,0.0212 c -1.2375,-0.23836 -3.2625,-0.23836 -4.5,0 -1.2375,0.23835 -0.225,0.43337 2.25,0.43337 2.475,0 3.4875,-0.19502 2.25,-0.43337 z m 155.75,0.32847 c 0,-0.20765 -0.7875,-0.99515 -1.75,-1.75 -1.58606,-1.24387 -1.62143,-1.2085 -0.37756,0.37756 1.30637,1.66575 2.12756,2.19548 2.12756,1.37244 z m -780.75,-1.32807 c -1.2375,-0.23836 -3.2625,-0.23836 -4.5,0 -1.2375,0.23835 -0.225,0.43337 2.25,0.43337 2.475,0 3.4875,-0.19502 2.25,-0.43337 z m 664.01375,0.002 c -1.22994,-0.23736 -3.47994,-0.24351 -5,-0.0136 -1.52006,0.22985 -0.51375,0.42406 2.23625,0.43157 2.75,0.007 3.99369,-0.18056 2.76375,-0.41792 z m -601.01375,-0.95855 c -0.6875,-0.27741 -1.8125,-0.27741 -2.50001,0 -0.6875,0.27741 -0.125,0.50439 1.25001,0.50439 1.375,0 1.9375,-0.22698 1.25,-0.50439 z m 5.75,-0.33772 c 0,-0.55 -0.45,-1 -1,-1 -0.55,0 -1,0.45 -1,1 0,0.55 0.45,1 1,1 0.55,0 1,-0.45 1,-1 z m 45.75,0.2545 c -5.3625,-0.17981 -14.1375,-0.17981 -19.5,0 -5.3625,0.17981 -0.975,0.32692 9.75,0.32692 10.725,0 15.1125,-0.14711 9.75,-0.32692 z m 18.5,0.0398 c -1.2375,-0.23836 -3.2625,-0.23836 -4.5,0 -1.2375,0.23835 -0.225,0.43337 2.25,0.43337 2.475,0 3.4875,-0.19502 2.25,-0.43337 z m 35.75,-3.2943 0,-4 -15.5,0 c -15.44178,0 -15.49956,0.008 -15.384,2.25 0.0873,1.69317 0.22918,1.81691 0.57333,0.5 0.33761,-1.29191 1.48519,-1.75 4.38399,-1.75 3.47587,0 3.92668,0.27496 3.92668,2.39496 0,2.06303 -0.55321,2.44773 -3.99146,2.77562 -2.19531,0.20935 -4.18478,-0.0809 -4.42106,-0.64497 -0.23627,-0.56408 -0.46511,-0.23811 -0.50853,0.72439 -0.0719,1.59479 1.29574,1.75 15.42105,1.75 l 15.5,0 0,-4 z m -16,-0.5 c 0,-2.33333 0.33333,-2.5 5,-2.5 4.66667,0 5,0.16667 5,2.5 0,2.33333 -0.33333,2.5 -5,2.5 -4.66667,0 -5,-0.16667 -5,-2.5 z m 12,0 c 0,-1.55556 0.56667,-2.5 1.5,-2.5 1.80175,0 2.03817,1.96601 0.25,2.07895 -1,0.0632 -1,0.17982 0,0.58333 1.74117,0.70258 1.56631,2.33772 -0.25,2.33772 -0.93333,0 -1.5,-0.94444 -1.5,-2.5 z m 5.68708,-1.26166 c -0.25029,-0.95609 -0.446,0.0617 -0.4349,2.26166 0.0111,2.2 0.21589,2.98225 0.45508,1.73834 0.23919,-1.24391 0.23011,-3.04391 -0.0202,-4 z m 39.81292,4.76166 c 0.39057,-0.63196 -2.08211,-1 -6.71848,-1 -5.02165,0 -8.03777,-0.49118 -9.55901,-1.5567 -2.01155,-1.40894 -2.22251,-1.40894 -2.22251,0 0,1.23597 -1.2362,1.5567 -6,1.5567 -5.73333,0 -6,-0.11111 -6,-2.5 0,-1.375 -0.45,-2.5 -1,-2.5 -0.55,0 -1,1.125 -1,2.5 0,2.11111 -0.46667,2.5 -3,2.5 -1.65,0 -3,0.45 -3,1 0,0.63147 6.98033,1 18.94098,1 11.54864,0 19.18219,-0.39028 19.55902,-1 z m 38.86163,-0.5 c 0.35062,-0.91371 0.002,-1.5 -0.89301,-1.5 -0.80774,0 -1.46862,0.675 -1.46862,1.5 0,0.825 0.40186,1.5 0.89301,1.5 0.49116,0 1.15203,-0.675 1.46862,-1.5 z m 17.88837,0.83772 c -0.6875,-0.27741 -1.8125,-0.27741 -2.5,0 -0.6875,0.27741 -0.125,0.50439 1.25,0.50439 1.375,0 1.9375,-0.22698 1.25,-0.50439 z m 30.73469,-1.58772 c -0.012,-1.75671 -0.21673,-1.9316 -0.93402,-0.79775 -0.50529,0.79874 -0.69684,1.81124 -0.42567,2.25 0.86737,1.40343 1.37543,0.86078 1.35969,-1.45225 z m 9.01531,-1.25 c 0,-3.45726 -0.0525,-3.5 -4.2992,-3.5 l -4.2992,0 0.40861,3.5 c 0.38878,3.33025 0.5973,3.5 4.2992,3.5 3.77972,0 3.89059,-0.0997 3.89059,-3.5 z m -6,-0.5 c 0,-1.1 0.62252,-2 1.38337,-2 0.76085,0 1.61872,0.9 1.90638,2 0.38794,1.48349 0.0307,2 -1.38337,2 -1.23971,0 -1.90638,-0.69941 -1.90638,-2 z m 20,3 c 0,-0.55 -2.475,-1 -5.5,-1 -3.025,0 -5.5,0.45 -5.5,1 0,0.55 2.475,1 5.5,1 3.025,0 5.5,-0.45 5.5,-1 z m 45,-2.5 c 0,-2.83333 -0.38095,-3.5 -2,-3.5 -1.46667,0 -2,0.66667 -2,2.5 0,1.83333 -0.53333,2.5 -2,2.5 -1.46667,0 -2,-0.66667 -2,-2.5 0,-2 -0.5,-2.5 -2.5,-2.5 -2,0 -2.5,0.5 -2.5,2.5 0,1.83333 -0.53333,2.5 -2,2.5 -1.46667,0 -2,-0.66667 -2,-2.5 0,-1.83333 -0.53333,-2.5 -2,-2.5 -1.61905,0 -2,0.66667 -2,3.5 l 0,3.5 10.5,0 10.5,0 0,-3.5 z m 36,2.5 c 0,-0.55 -2.475,-1 -5.5,-1 -3.025,0 -5.5,0.45 -5.5,1 0,0.55 2.475,1 5.5,1 3.025,0 5.5,-0.45 5.5,-1 z m 13,0.54705 c 0,-2.0127 -2.60075,-5.5305 -3.75991,-5.08569 -0.77201,0.29625 -2.49186,0.53864 -3.82188,0.53864 -1.91276,0 -2.41821,0.52255 -2.41821,2.5 0,2.33333 0.33333,2.5 5,2.5 2.75,0 5,-0.20383 5,-0.45295 z m 53.5,-0.742 c -1.1,-0.62377 -2.33061,-1.62258 -2.73469,-2.21959 -0.41796,-0.61751 -0.74129,-0.11547 -0.75,1.16454 -0.0122,1.79887 0.53607,2.2439 2.73469,2.21959 2.56278,-0.0283 2.61384,-0.10762 0.75,-1.16454 z m 10.06972,-2.30505 3.82111,-3.5 -6.75443,0 c -4.09582,0 -6.51914,0.38072 -6.15664,0.96725 0.32878,0.53198 1.97005,0.69279 3.64726,0.35735 2.77736,-0.55548 3.01929,-0.3964 2.71122,1.78275 -0.23072,1.63211 -0.8945,2.29925 -2.08824,2.09881 -0.9625,-0.16161 -1.75,0.17589 -1.75,0.75 0,2.04149 2.80387,0.99323 6.56972,-2.45616 z m 8.43028,2.44098 c 0,-0.58246 -0.45,-0.7809 -1,-0.44098 -0.55,0.33992 -1,0.81648 -1,1.05902 0,0.24254 0.45,0.44098 1,0.44098 0.55,0 1,-0.47656 1,-1.05902 z m 8,0.059 c 0,-0.55 -0.45,-1 -1,-1 -0.55,0 -1,0.45 -1,1 0,0.55 0.45,1 1,1 0.55,0 1,-0.45 1,-1 z m 15.5,0 c 0.36058,-0.58342 -0.65628,-1 -2.44098,-1 -1.68246,0 -3.05902,0.45 -3.05902,1 0,0.55 1.09844,1 2.44098,1 1.34254,0 2.7191,-0.45 3.05902,-1 z m 29.80607,-0.0939 c -0.45059,-0.45059 -3.96628,-0.88516 -7.81266,-0.96572 -9.18616,-0.1924 -9.72594,-0.12561 -8.96287,1.10906 0.38578,0.6242 4.08178,0.97374 9.12168,0.86266 4.66021,-0.10271 8.10444,-0.55541 7.65385,-1.006 z m 23.86519,-0.56106 c 1.00581,-0.91024 1.82874,-2.93524 1.82874,-4.5 l 0,-2.84502 -9.5,0 c -9.18923,0 -9.49955,0.0736 -9.48635,2.25 0.0377,6.21906 0.68858,6.75 8.27424,6.75 5.16108,0 7.54548,-0.44422 8.88337,-1.65499 z m 62.32874,0.65498 c 0.40191,-0.6503 -4.82295,-1 -14.94098,-1 -9.70601,0 -15.55902,0.37618 -15.55902,1 0,0.62205 5.64699,1 14.94098,1 8.88197,0 15.19162,-0.40553 15.55902,-1 z m -293.5,-2.5 c 0,-1.83333 -0.53333,-2.5 -2,-2.5 -1.1,0 -2,0.4132 -2,0.91821 0,0.50502 -0.27314,1.63002 -0.60699,2.5 -0.45784,1.19311 0.0336,1.58179 2,1.58179 2.11412,0 2.60699,-0.47264 2.60699,-2.5 z m 1.65594,-1.76903 c -0.27393,-0.67703 -0.48137,0.11903 -0.46099,1.76903 0.0204,1.65 0.2445,2.20394 0.49804,1.23097 0.25354,-0.97297 0.23687,-2.32297 -0.0371,-3 z m 42,0 c -0.27393,-0.67703 -0.48137,0.11903 -0.46099,1.76903 0.0204,1.65 0.2445,2.20394 0.49804,1.23097 0.25354,-0.97297 0.23687,-2.32297 -0.0371,-3 z m 6.95105,2.68724 c -0.33385,-0.86998 -0.60699,-1.99498 -0.60699,-2.5 0,-0.50501 -1.125,-0.91821 -2.5,-0.91821 -2,0 -2.5,0.5 -2.5,2.5 0,2.13024 0.45953,2.5 3.10699,2.5 2.42232,0 2.97323,-0.34857 2.5,-1.58179 z m 38.39301,0.58179 c 0,-0.55 -0.45,-1 -1,-1 -0.55,0 -1,0.45 -1,1 0,0.55 0.45,1 1,1 0.55,0 1,-0.45 1,-1 z m 33.60417,-1.72917 c -0.33229,-0.33229 -0.56864,0.25834 -0.52522,1.3125 0.048,1.16495 0.28494,1.4019 0.60416,0.60417 0.28887,-0.72188 0.25335,-1.58438 -0.0789,-1.91667 z m 257.58333,2.04606 c -0.72187,-0.28887 -1.58438,-0.25335 -1.91667,0.0789 -0.33229,0.33229 0.25834,0.56864 1.3125,0.52522 1.16495,-0.048 1.4019,-0.28494 0.60417,-0.60416 z m -614.4375,-1.04536 c -2.0625,-0.21574 -5.4375,-0.21574 -7.5,0 -2.0625,0.21575 -0.375,0.39226 3.75,0.39226 4.125,0 5.8125,-0.17651 3.75,-0.39226 z m 167.25,-1.77153 c 0,-1.53944 -0.5681,-2.5 -1.47856,-2.5 -1.21422,0 -1.27491,0.44696 -0.33949,2.5 0.6265,1.375 1.29185,2.5 1.47857,2.5 0.18671,0 0.33948,-1.125 0.33948,-2.5 z m 105.75,-0.10676 c 0,-1.66677 -0.28216,-2.15022 -0.78248,-1.34069 -0.43036,0.69635 -0.55097,1.86939 -0.26801,2.60677 0.7634,1.98938 1.05049,1.64337 1.05049,-1.26608 z m 146.90594,-1.66227 c -0.27393,-0.67703 -0.48137,0.11903 -0.46099,1.76903 0.0204,1.65 0.2445,2.20394 0.49804,1.23097 0.25354,-0.97297 0.23687,-2.32297 -0.0371,-3 z m 2,0 c -0.27393,-0.67703 -0.48137,0.11903 -0.46099,1.76903 0.0204,1.65 0.2445,2.20394 0.49804,1.23097 0.25354,-0.97297 0.23687,-2.32297 -0.0371,-3 z m -237.39219,2.5651 c -1.22994,-0.23736 -3.47994,-0.24351 -5,-0.0136 -1.52006,0.22985 -0.51375,0.42406 2.23625,0.43157 2.75,0.007 3.99369,-0.18056 2.76375,-0.41792 z m 344.98625,-0.0195 c -1.7875,-0.22182 -4.7125,-0.22182 -6.5,0 -1.7875,0.22183 -0.325,0.40333 3.25,0.40333 3.575,0 5.0375,-0.1815 3.25,-0.40333 z m -518.25,-2.7766 c 0,-2.4966 -0.0133,-2.5 -9.8,-2.5 -9.71639,0 -12.2,0.75323 -12.2,3.7 0,0.98788 2.64103,1.3 11,1.3 l 11,0 0,-2.5 z m 1.66228,-0.75 c -0.27741,-0.6875 -0.50439,-0.125 -0.50439,1.25 0,1.375 0.22698,1.9375 0.50439,1.25 0.27741,-0.6875 0.27741,-1.8125 0,-2.5 z m 15.33772,0.63337 c 0,-2.25155 -0.31393,-2.52026 -2.25,-1.92588 -1.2375,0.37991 -4.3875,0.93965 -7,1.24386 -3.09129,0.35996 -4.75,1.03248 -4.75,1.92588 0,1.03295 1.73278,1.37277 7,1.37277 6.8832,0 7,-0.0437 7,-2.61663 z m 5,0.61663 c 0,-1.1 -0.45,-2 -1,-2 -0.55,0 -1,0.9 -1,2 0,1.1 0.45,2 1,2 0.55,0 1,-0.9 1,-2 z m 107,0.69333 c 0,-1.76047 -14.03674,-5.17893 -15.11924,-3.68208 -0.42474,0.58732 -0.90917,0.96815 -1.07651,0.84629 -0.16734,-0.12185 -1.42925,0.13402 -2.80425,0.5686 -1.375,0.43459 -2.8375,0.74149 -3.25,0.68201 -0.4125,-0.0595 -0.75,0.56685 -0.75,1.39185 0,1.24638 1.94444,1.5 11.5,1.5 8.79932,0 11.5,-0.30686 11.5,-1.30667 z m 6.60417,-1.4225 c -0.33229,-0.33229 -0.56864,0.25834 -0.52522,1.3125 0.048,1.16495 0.28494,1.4019 0.60416,0.60417 0.28887,-0.72188 0.25335,-1.58438 -0.0789,-1.91667 z m 175.22968,0.60532 c -1.99392,-1.26394 -2.83806,-1.05071 -2.21971,0.56071 0.30326,0.79027 1.22687,1.17765 2.05246,0.86083 1.22113,-0.46858 1.25232,-0.73371 0.16725,-1.42154 z m 28.16615,1.30937 c 0,-0.44796 -1.80516,-1.77801 -4.01146,-2.95567 l -4.01147,-2.1412 1.11124,2.07635 c 0.79903,1.49301 0.80225,1.8854 0.0115,1.39666 -0.60487,-0.37383 -1.10666,-0.0906 -1.11508,0.62932 -0.0106,0.90388 -0.2427,0.96386 -0.75,0.1938 -1.52297,-2.31178 -8.79112,-3.39953 -10.23469,-1.53172 -0.275,0.35582 -1.1375,0.64694 -1.91667,0.64694 -0.77916,0 -1.60416,0.5625 -1.83333,1.25 -0.31735,0.95204 2.34444,1.25 11.16667,1.25 6.37079,0 11.58329,-0.36651 11.58329,-0.81448 z m 91.60417,-1.91469 c -0.33229,-0.33229 -0.56864,0.25834 -0.52522,1.3125 0.048,1.16495 0.28494,1.4019 0.60416,0.60417 0.28887,-0.72188 0.25335,-1.58438 -0.0789,-1.91667 z m 5.05811,-0.52083 c -0.27741,-0.6875 -0.50439,-0.125 -0.50439,1.25 0,1.375 0.22698,1.9375 0.50439,1.25 0.27741,-0.6875 0.27741,-1.8125 0,-2.5 z m -287.66228,1.85699 c 0,-0.21616 -0.69837,-0.661 -1.55194,-0.98855 -0.88992,-0.34149 -1.29132,-0.17385 -0.94098,0.39301 0.58726,0.95021 2.49292,1.40545 2.49292,0.59554 z m 3.49292,-0.59554 c 0.35034,-0.56686 -0.0511,-0.7345 -0.94098,-0.39301 -1.73242,0.66479 -2.04939,1.38156 -0.61096,1.38156 0.51754,0 1.21592,-0.44485 1.55194,-0.98855 z m 24.50708,-0.0115 c 0,-0.55 -2.475,-1 -5.5,-1 -3.025,0 -5.5,0.45 -5.5,1 0,0.55 2.475,1 5.5,1 3.025,0 5.5,-0.45 5.5,-1 z m 6.5,0 c 0.33992,-0.55 -0.0835,-1 -0.94098,-1 -0.85746,0 -1.55902,0.45 -1.55902,1 0,0.55 0.42344,1 0.94098,1 0.51754,0 1.2191,-0.45 1.55902,-1 z m 299.5,-1.5 c 0,-1.375 -0.45,-2.5 -1,-2.5 -0.55,0 -1,1.125 -1,2.5 0,1.375 0.45,2.5 1,2.5 0.55,0 1,-1.125 1,-2.5 z m 17,1.13929 c 0,-0.8705 -1.71122,-1.58179 -4.75,-1.97439 -2.6125,-0.33752 -5.7625,-0.90269 -7,-1.25592 -1.92371,-0.54911 -2.25,-0.26278 -2.25,1.97439 0,2.57297 0.1168,2.61663 7,2.61663 5.23708,0 7,-0.34269 7,-1.36071 z m 1.66228,-1.88929 c -0.27741,-0.6875 -0.50439,-0.125 -0.50439,1.25 0,1.375 0.22698,1.9375 0.50439,1.25 0.27741,-0.6875 0.27741,-1.8125 0,-2.5 z m 23.33772,1.95 c 0,-2.94677 -2.48361,-3.7 -12.2,-3.7 -9.78667,0 -9.8,0.003 -9.8,2.5 l 0,2.5 11,0 c 8.35897,0 11,-0.31212 11,-1.3 z M 458.9505,619.84536 c -1.79735,-0.22256 -4.49735,-0.21797 -6,0.0102 -1.50265,0.22818 -0.0321,0.41027 3.26791,0.40466 3.3,-0.006 4.52944,-0.1923 2.73209,-0.41486 z m 79.01791,0.019 c -1.2375,-0.23836 -3.2625,-0.23836 -4.5,0 -1.2375,0.23835 -0.225,0.43337 2.25,0.43337 2.475,0 3.4875,-0.19502 2.25,-0.43337 z m 56.75,-1.1276 c 0,-0.45834 -0.675,-0.83334 -1.5,-0.83334 -0.825,0 -1.5,0.375 -1.5,0.83334 0,0.45833 0.675,0.83333 1.5,0.83333 0.825,0 1.5,-0.375 1.5,-0.83333 z m 20.91667,-0.80557 c 0.80667,-0.6991 -7.44722,-0.15173 -9.91667,0.65764 -1.55306,0.50902 -0.22735,0.60804 3.5,0.26142 3.3,-0.30687 6.1875,-0.72045 6.41667,-0.91906 z m -298.72917,-0.0442 c -0.72188,-0.28887 -1.58438,-0.25335 -1.91667,0.0789 -0.33229,0.33229 0.25834,0.56864 1.3125,0.52522 1.16495,-0.048 1.4019,-0.28494 0.60417,-0.60416 z m 92.0625,-0.0226 c -1.2375,-0.23836 -3.2625,-0.23836 -4.5,0 -1.2375,0.23835 -0.225,0.43337 2.25,0.43337 2.475,0 3.4875,-0.19502 2.25,-0.43337 z m 11,0 c -1.2375,-0.23836 -3.2625,-0.23836 -4.5,0 -1.2375,0.23835 -0.225,0.43337 2.25,0.43337 2.475,0 3.4875,-0.19502 2.25,-0.43337 z m 11,0 c -1.2375,-0.23836 -3.2625,-0.23836 -4.5,0 -1.2375,0.23835 -0.225,0.43337 2.25,0.43337 2.475,0 3.4875,-0.19502 2.25,-0.43337 z m 129.48097,0.0127 c -0.97297,-0.25354 -2.32297,-0.23687 -3,0.0371 -0.67703,0.27393 0.11903,0.48137 1.76903,0.46099 1.65,-0.0204 2.20394,-0.2445 1.23097,-0.49804 z m 89.45653,0.01 c -0.72187,-0.28887 -1.58438,-0.25335 -1.91667,0.0789 -0.33229,0.33229 0.25834,0.56864 1.3125,0.52522 1.16495,-0.048 1.4019,-0.28494 0.60417,-0.60416 z m 26.5625,-0.006 c -0.9625,-0.25152 -2.5375,-0.25152 -3.5,0 -0.9625,0.25153 -0.175,0.45733 1.75,0.45733 1.925,0 2.7125,-0.2058 1.75,-0.45733 z m -418.01903,-1.00366 c -0.97297,-0.25354 -2.32297,-0.23687 -3,0.0371 -0.67703,0.27393 0.11903,0.48137 1.76903,0.46099 1.65,-0.0204 2.20394,-0.2445 1.23097,-0.49804 z m 135.46903,-2.50734 c -0.93333,-0.93333 -1.2,-0.66667 -1.2,1.2 0,1.86667 0.26667,2.13333 1.2,1.2 0.93333,-0.93333 0.93333,-1.46667 0,-2.4 z m 408.55,2.45845 c -3.7125,-0.19241 -9.7875,-0.19241 -13.5,0 -3.7125,0.19241 -0.675,0.34983 6.75,0.34983 7.425,0 10.4625,-0.15742 6.75,-0.34983 z m -480.05616,-4.89795 c -0.25728,-0.25727 -1.41864,-0.5394 -2.58081,-0.62694 -1.16217,-0.0875 -2.11303,-0.43841 -2.11303,-0.7797 0,-0.34129 -0.675,-0.62053 -1.5,-0.62053 -0.825,0 -1.5,0.87424 -1.5,1.94274 0,1.62387 0.56296,1.87702 3.42985,1.54233 1.88642,-0.22023 3.20987,-0.0445 2.94099,0.39059 -0.26888,0.43506 -0.12537,1.35351 0.31891,2.04101 0.55635,0.86093 0.91113,0.52295 1.13982,-1.08586 0.18262,-1.28473 0.12154,-2.54636 -0.13573,-2.80364 z m 11.53825,3.91477 c -1.79735,-0.22256 -4.49735,-0.21797 -6,0.0102 -1.50265,0.22818 -0.0321,0.41027 3.26791,0.40466 3.3,-0.006 4.52944,-0.1923 2.73209,-0.41486 z m 17.76791,-0.66828 c 0,-1.56321 -2.69393,-2.91419 -4.09024,-2.05122 -1.51658,0.9373 -1.01717,2.69942 0.59024,2.0826 0.825,-0.31658 1.5,-0.13972 1.5,0.39301 0,0.53274 0.45,0.96862 1,0.96862 0.55,0 1,-0.62686 1,-1.39301 z m 2.98469,0.14301 c -0.008,-0.6875 -0.45153,-1.925 -0.98469,-2.75 -0.75538,-1.16887 -0.97275,-0.89294 -0.98469,1.25 -0.008,1.5125 0.43469,2.75 0.98469,2.75 0.55,0 0.99311,-0.5625 0.98469,-1.25 z m 56.01531,0.28138 c 0,-0.53273 -0.675,-0.70959 -1.5,-0.39301 -0.825,0.31659 -1.5,0.75246 -1.5,0.96862 0,0.21615 0.675,0.39301 1.5,0.39301 0.825,0 1.5,-0.43588 1.5,-0.96862 z m 1.60417,-1.76055 c -0.33229,-0.33229 -0.56864,0.25834 -0.52522,1.3125 0.048,1.16495 0.28494,1.4019 0.60416,0.60417 0.28887,-0.72188 0.25335,-1.58438 -0.0789,-1.91667 z m 9.39583,0.39584 c 0,-3.00202 -0.81105,-3.76284 -2.85781,-2.68081 -0.90321,0.47748 -2.42969,1.11187 -3.39219,1.40976 -0.9625,0.29788 -1.75,1.23073 -1.75,2.073 0,1.11994 1.07468,1.53138 4,1.53138 3.52381,0 4,-0.27778 4,-2.33333 z m 12,-0.52794 0,-2.86127 -4.5,1.02975 c -3.32053,0.75984 -4.5,1.5098 -4.5,2.86127 0,1.50402 0.80465,1.83152 4.5,1.83152 4.28485,0 4.5,-0.1368 4.5,-2.86127 z m 1.60417,0.1321 c -0.33229,-0.33229 -0.56864,0.25834 -0.52522,1.3125 0.048,1.16495 0.28494,1.4019 0.60416,0.60417 0.28887,-0.72188 0.25335,-1.58438 -0.0789,-1.91667 z m 6.6637,0.19312 c 2.05267,-1.39483 3.73213,-2.74483 3.73213,-3 0,-0.25517 -2.025,-0.46395 -4.5,-0.46395 -4.33333,0 -4.5,0.11111 -4.5,3 0,3.65024 0.5124,3.69537 5.26787,0.46395 z m 31.28813,0.82139 c -0.27128,-0.70694 -0.0393,-1.28534 0.51544,-1.28534 0.57175,0 0.88303,-1.9489 0.71862,-4.4992 -0.25226,-3.91293 -0.58324,-4.4993 -2.54006,-4.5 -2.08081,-7.4e-4 -2.25,0.44571 -2.25,5.93705 0,5.34547 0.20198,5.92264 2.02462,5.78534 1.2027,-0.0906 1.82438,-0.6743 1.53138,-1.43785 z m 14.444,-2.28534 c 0,-3.6 -0.25,-4 -2.5,-4 -2.20583,0 -2.5,0.42556 -2.5,3.61663 0,3.1243 0.27226,3.54544 2,3.09362 1.1,-0.28766 2,-0.11514 2,0.38337 0,0.49851 0.225,0.90638 0.5,0.90638 0.275,0 0.5,-1.8 0.5,-4 z m 39.86534,1.44897 c 0.31608,-1.6311 0.14754,-1.70455 -1.25,-0.54469 -1.91126,1.5862 -2.14923,3.44015 -0.36534,2.84619 0.6875,-0.22891 1.4144,-1.26459 1.61534,-2.3015 z m 2.33051,-0.19897 c -0.28974,-1.5125 -0.71979,-2.17265 -0.95566,-1.46701 -0.42534,1.2725 0.33557,4.21701 1.08975,4.21701 0.216,0 0.15565,-1.2375 -0.13409,-2.75 z m 39.61751,-1 c 0.17235,-1.7875 0.73485,-3.25 1.25,-3.25 0.51515,0 0.93664,-0.9 0.93664,-2 0,-1.77214 0.71206,-2.01552 6.25,-2.13618 3.4375,-0.0749 5.19216,-0.33714 3.89924,-0.58276 -1.86955,-0.35516 -2.25617,-0.94138 -1.88867,-2.86381 0.39584,-2.07068 0.0877,-2.40593 -2.14924,-2.3383 -1.43623,0.0434 -2.04883,0.30592 -1.36133,0.58333 2.09802,0.84657 1.49439,4.33772 -0.75,4.33772 -1.11111,0 -2,-0.66667 -2,-1.5 0,-0.825 -0.45,-1.5 -1,-1.5 -0.55,0 -1,0.675 -1,1.5 0,0.94854 -0.95542,1.5 -2.59879,1.5 -1.59812,0 -3.67787,1.15516 -5.40121,3 -2.46298,2.63663 -3.47493,3 -8.3547,3 l -5.55228,0 1.70349,3.02285 c 1.69751,3.01224 1.73155,3.02189 9.70349,2.75 l 8,-0.27285 0.31336,-3.25 z m 27.18664,-0.82143 c 0,-2.62857 -0.60714,-5.17857 -1.42857,-6 -1.65266,-1.65266 -3.57143,-1.88291 -3.57143,-0.42857 0,0.55 -1.8,1 -4,1 -2.88889,0 -4,0.41667 -4,1.5 0,0.83333 0.88889,1.5 2,1.5 1.30491,0 2,0.66667 2,1.91821 0,3.97548 1.1118,5.08179 5.10699,5.08179 l 3.89301,0 0,-4.57143 z m 29,0.0714 c 0,-3.33333 -0.38889,-4.5 -1.5,-4.5 -0.95056,0 -1.52892,-1.00731 -1.57895,-2.75 -0.0434,-1.5125 -0.30592,-2.1875 -0.58333,-1.5 -0.84657,2.09805 -4.33772,1.49442 -4.33772,-0.74997 0,-1.38402 0.69298,-2.02432 2.25,-2.07895 1.2375,-0.0434 1.6875,-0.30592 1,-0.58333 -0.6875,-0.27741 -1.25,-1.03364 -1.25,-1.68051 0,-2.20844 -4.04565,-3.70659 -9.52581,-3.52751 -5.02561,0.16422 -5.47419,0.3711 -5.47419,2.52459 0,1.29014 -0.45,2.34571 -1,2.34571 -0.55,0 -1,1.575 -1,3.5 0,1.925 -0.45,3.5 -1,3.5 -0.55,0 -1,2.25 -1,5 l 0,5 12.5,0 12.5,0 0,-4.5 z m -16,-1.49997 c 0,-1.33333 0.66667,-2 2,-2 1.33333,0 2,0.66667 2,2 0,1.33333 -0.66667,2 -2,2 -1.33333,0 -2,-0.66667 -2,-2 z m 5,0 c 0,-1.33333 0.66667,-2 2,-2 1.33333,0 2,0.66667 2,2 0,1.33333 -0.66667,2 -2,2 -1.33333,0 -2,-0.66667 -2,-2 z m 5,0 c 0,-1.33333 0.66667,-2 2,-2 1.33333,0 2,0.66667 2,2 0,1.33333 -0.66667,2 -2,2 -1.33333,0 -2,-0.66667 -2,-2 z m -16,-8 c 0,-1.33333 0.66667,-2 2,-2 1.33333,0 2,0.66667 2,2 0,1.33333 -0.66667,2 -2,2 -1.33333,0 -2,-0.66667 -2,-2 z m 7,0 c 0,-1.33333 0.66667,-2 2,-2 1.33333,0 2,0.66667 2,2 0,1.33333 -0.66667,2 -2,2 -1.33333,0 -2,-0.66667 -2,-2 z m 18.7806,7.5 c -0.085,-6.68181 -1.20449,-8.6236 -2.16195,-3.75 -0.97696,4.97286 -0.50691,10.25 0.913,10.25 0.98077,0 1.30986,-1.71271 1.24895,-6.5 z m 18.4694,5.7766 c -2.66712,-0.33098 -3.25,-0.84033 -3.25,-2.83996 0,-2.33029 1.21147,-2.97078 4.75,-2.51129 0.70047,0.091 1.2191,-0.84611 1.17971,-2.13151 -0.0566,-1.84727 -0.20265,-1.96028 -0.75023,-0.58046 -0.49128,1.23794 -1.09612,1.4503 -2.17972,0.76531 -1.23375,-0.77991 -1.24849,-0.95078 -0.0831,-0.96338 2.87799,-0.0311 -0.3949,-1.55402 -4.16667,-1.9388 -1.67341,-0.17071 -0.61165,-3.87943 1.25,-4.36626 1.59081,-0.41601 2,-0.0307 2,1.88337 0,1.66679 0.56346,2.40638 1.83333,2.40638 1.55556,0 1.83334,-0.83333 1.83334,-5.5 l 0,-5.5 -8.89908,0 c -10.45088,0 -12.76758,0.90911 -12.76758,5.01018 0,2.73313 0.21092,2.89764 3,2.33982 2.58039,-0.51608 3,-0.30278 3,1.525 0,1.90023 -1.00963,2.59716 -3.25,2.24342 -0.4125,-0.0651 -0.75,2.35658 -0.75,5.38158 l 0,5.5 10.25,-0.16004 c 5.6375,-0.088 8.7875,-0.34153 7,-0.56336 z m -14.25,-2.2766 c 0,-1.73333 0.66667,-2 5,-2 4.33333,0 5,0.26667 5,2 0,1.73333 -0.66667,2 -5,2 -4.33333,0 -5,-0.26667 -5,-2 z m 11.75,-17.66228 c 0.6875,-0.27741 1.8125,-0.27741 2.5,0 0.6875,0.27741 0.125,0.50439 -1.25,0.50439 -1.375,0 -1.9375,-0.22698 -1.25,-0.50439 z m 22.66072,19.80674 c 0.29082,-0.47055 -0.58263,-0.64309 -1.94098,-0.38343 -1.35836,0.25967 -2.46974,0.64466 -2.46974,0.85555 0,0.77375 3.89864,0.35644 4.41072,-0.47212 z m 9.58928,-0.54035 c 0,-1.15463 2.48072,-1.30302 14.35359,-0.8586 14.21687,0.53217 16.4219,0.1273 14.67764,-2.69499 -0.66339,-1.07337 -1.89321,-1.14511 -5.93402,-0.34614 -2.80347,0.55432 -5.09721,0.62259 -5.09721,0.15173 0,-1.12579 -6.67125,-1.09758 -10.65542,0.0451 -1.95577,0.5609 -3.50826,0.53514 -4.11162,-0.0682 -0.53317,-0.53317 -2.7162,-0.8262 -4.85118,-0.65118 -3.39737,0.27851 -3.92127,0.66139 -4.1982,3.06822 -0.28431,2.47092 -0.005,2.75 2.75,2.75 1.95739,0 3.06642,-0.50485 3.06642,-1.39589 z m 23.21648,0.65749 c -2.90594,-0.20265 -7.40594,-0.20052 -10,0.005 -2.59406,0.20525 -0.21648,0.37104 5.28352,0.36844 5.5,-0.003 7.62242,-0.17053 4.71648,-0.37317 z m 45.97102,0.0553 c -0.72187,-0.28887 -1.58438,-0.25335 -1.91667,0.0789 -0.33229,0.33229 0.25834,0.56864 1.3125,0.52522 1.16495,-0.048 1.4019,-0.28494 0.60417,-0.60416 z m -499.1875,-1.33595 c 0,-0.60496 -1.11746,-0.75097 -2.75,-0.35933 -3.92599,0.94185 -4.05794,1.37838 -0.41667,1.37838 1.74167,0 3.16667,-0.45857 3.16667,-1.01905 z m 20.77083,-0.79345 c 0.21771,-0.65313 -0.31666,-1.1875 -1.1875,-1.1875 -0.87083,0 -1.58333,0.7125 -1.58333,1.58333 0,1.76593 2.15276,1.45839 2.77083,-0.39583 z m 48.41667,1.12939 c -0.72188,-0.28887 -1.58438,-0.25335 -1.91667,0.0789 -0.33229,0.33229 0.25834,0.56864 1.3125,0.52522 1.16495,-0.048 1.4019,-0.28494 0.60417,-0.60416 z m 60.8125,-6.2099 c 0,-5.30716 -0.35705,-7.03003 -1.55194,-7.48855 -0.85356,-0.32754 -1.32336,-0.22569 -1.04399,0.22635 0.27938,0.45203 -0.12746,0.82188 -0.90407,0.82188 -0.77661,0 -1.2094,-0.32785 -0.96175,-0.72855 0.24764,-0.4007 -0.22215,-0.98658 -1.04399,-1.30195 -1.98931,-0.76337 -2.00873,3.18432 -0.0296,6.00996 0.80559,1.15013 1.21276,2.34308 0.90484,2.651 -0.30792,0.30792 -0.25627,1.94204 0.11476,3.63136 0.46749,2.12831 1.26441,3.07151 2.5952,3.07151 1.70831,0 1.92054,-0.76172 1.92054,-6.89301 z m 21,6.5 c 0,-0.21616 -0.69837,-0.661 -1.55194,-0.98855 -0.88992,-0.34149 -1.29132,-0.17385 -0.94098,0.39301 0.58726,0.95021 2.49292,1.40545 2.49292,0.59554 z m 57.75,-1.28774 c 1.85063,-0.30639 3.25,-1.13682 3.25,-1.92866 0,-1.75264 -0.20403,-1.7437 -6.66211,0.29203 -5.43708,1.71389 -7.61168,4.11933 -2.58789,2.86261 1.5125,-0.37836 4.2125,-0.93005 6,-1.22598 z m 7.25,-2.81925 0,-4.5 -6.25,0.18908 -6.25,0.18909 5.75,0.36082 5.75,0.36082 0,3.95009 c 0,2.17256 0.225,3.9501 0.5,3.9501 0.275,0 0.5,-2.025 0.5,-4.5 z m 39,3.68262 c 0,-0.70087 -9.43803,-4.18262 -11.33789,-4.18262 -0.36416,0 -0.66211,0.675 -0.66211,1.5 0,0.96598 0.97903,1.50545 2.75,1.51531 1.5125,0.008 3.425,0.45153 4.25,0.98469 1.83488,1.18579 5,1.30139 5,0.18262 z m 4.65594,-3.45165 c -0.27393,-0.67703 -0.48137,0.11903 -0.46099,1.76903 0.0204,1.65 0.2445,2.20394 0.49804,1.23097 0.25354,-0.97297 0.23687,-2.32297 -0.0371,-3 z m 40.34406,3.45165 c 0,-0.70087 -9.43803,-4.18262 -11.33789,-4.18262 -0.36416,0 -0.66211,0.675 -0.66211,1.5 0,0.96598 0.97903,1.50545 2.75,1.51531 1.5125,0.008 3.425,0.45153 4.25,0.98469 1.83488,1.18579 5,1.30139 5,0.18262 z M 362.66025,584.60468 c -0.42549,-1.40066 -0.73778,4.84703 -0.69806,13.96549 l 0.0719,16.5 0.69805,-13.96549 c 0.38393,-7.68102 0.35159,-15.10602 -0.0719,-16.5 z m 370.62959,27.97978 c 0,-1.1744 -0.36714,-1.61858 -0.89858,-1.08714 -0.49422,0.49422 -0.59624,1.38779 -0.2267,1.98572 0.94027,1.52138 1.12528,1.37365 1.12528,-0.89858 z m 4.42857,0.48571 c 0,-0.825 -0.675,-1.5 -1.5,-1.5 -1.56157,0 -1.98397,1.1827 -0.83333,2.33333 1.15063,1.15064 2.33333,0.72824 2.33333,-0.83333 z m 23.91667,1.14068 c -1.19443,-1.03005 -5.91667,-1.55659 -5.91667,-0.65973 0,0.56048 1.425,1.01905 3.16667,1.01905 1.74166,0 2.97916,-0.1617 2.75,-0.35932 z m -500.67833,-1.34794 c -1.24391,-0.23919 -3.04391,-0.23011 -4,0.0202 -0.95609,0.25029 0.0617,0.446 2.26166,0.4349 2.2,-0.0111 2.98225,-0.21589 1.73834,-0.45508 z m 32.51166,-0.97349 c 1.85063,-0.30639 3.25,-1.13682 3.25,-1.92866 0,-1.76029 -0.74872,-1.74335 -6.07975,0.13755 -2.38217,0.84047 -4.89083,1.31339 -5.5748,1.05093 -0.78693,-0.30198 -1.02678,0.0878 -0.65317,1.06141 0.42286,1.10195 1.33079,1.35106 3.19907,0.87773 1.43476,-0.3635 4.07115,-0.90303 5.85865,-1.19896 z m 20.25,0.18075 c 0,-0.825 -0.43588,-1.5 -0.96862,-1.5 -0.53273,0 -0.70959,0.675 -0.39301,1.5 0.31659,0.825 0.75246,1.5 0.96862,1.5 0.21615,0 0.39301,-0.675 0.39301,-1.5 z m 268.25,0.7766 c -1.7875,-0.22182 -4.7125,-0.22182 -6.5,0 -1.7875,0.22183 -0.325,0.40333 3.25,0.40333 3.575,0 5.0375,-0.1815 3.25,-0.40333 z m 163.98834,-0.98386 c -1.24391,-0.23919 -3.04391,-0.23011 -4,0.0202 -0.95609,0.25029 0.0617,0.446 2.26166,0.4349 2.2,-0.0111 2.98225,-0.21589 1.73834,-0.45508 z m -162.50737,-0.98573 c -0.97297,-0.25354 -2.32297,-0.23687 -3,0.0371 -0.67703,0.27393 0.11903,0.48137 1.76903,0.46099 1.65,-0.0204 2.20394,-0.2445 1.23097,-0.49804 z m -181.73097,-1.30701 c 1.82797,-1.18132 0.24909,-1.18132 -2.5,0 -1.31874,0.56668 -1.48906,0.87815 -0.5,0.9144 0.825,0.0302 2.175,-0.38124 3,-0.9144 z m 128.68933,-3.75 c -0.25153,-0.9625 -0.45733,-0.175 -0.45733,1.75 0,1.925 0.2058,2.7125 0.45733,1.75 0.25152,-0.9625 0.25152,-2.5375 0,-3.5 z m -89.43933,3.08772 c -0.6875,-0.27741 -1.8125,-0.27741 -2.5,0 -0.6875,0.27741 -0.125,0.50439 1.25,0.50439 1.375,0 1.9375,-0.22698 1.25,-0.50439 z m 72.75,-0.33772 c 0,-0.55 -0.92656,-1 -2.05902,-1 -1.13246,0 -1.7809,0.45 -1.44098,1 0.33992,0.55 1.26648,1 2.05902,1 0.79254,0 1.44098,-0.45 1.44098,-1 z m 24,0 c 0,-0.55 -0.70156,-1 -1.55902,-1 -0.85746,0 -1.2809,0.45 -0.94098,1 0.33992,0.55 1.04148,1 1.55902,1 0.51754,0 0.94098,-0.45 0.94098,-1 z m 14.1875,0.31689 c -0.72188,-0.28887 -1.58438,-0.25335 -1.91667,0.0789 -0.33229,0.33229 0.25834,0.56864 1.3125,0.52522 1.16495,-0.048 1.4019,-0.28494 0.60417,-0.60416 z m 5.47917,-0.81689 c 0,-0.825 -0.375,-1.5 -0.83334,-1.5 -0.99871,0 -1.0988,1.4012 -0.16666,2.33333 0.92692,0.92692 1,0.86602 1,-0.83333 z m -64.16667,-0.5 c -0.33992,-0.55 -2.05398,-0.95514 -3.80902,-0.90032 -3.04737,0.0952 -3.07847,0.13571 -0.69098,0.90032 3.59081,1.14998 5.21073,1.14998 4.5,0 z m -215.3125,-0.68311 c -0.72188,-0.28887 -1.58438,-0.25335 -1.91667,0.0789 -0.33229,0.33229 0.25834,0.56864 1.3125,0.52522 1.16495,-0.048 1.4019,-0.28494 0.60417,-0.60416 z m 168.0625,-0.0403 c -2.8373,-0.3521 -3.25,-0.77622 -3.25,-3.33996 0,-2.59627 -0.34772,-2.93664 -3,-2.93664 -2.7619,0 -3,0.27778 -3,3.5 l 0,3.5 6.25,-0.16004 c 3.45076,-0.0884 4.79439,-0.34067 3,-0.56336 z m 103.75,-0.15416 c 0,-0.48265 -0.675,-1.43775 -1.5,-2.12244 -1.2532,-1.04007 -1.5,-0.89568 -1.5,0.87756 0,1.21995 0.63782,2.12244 1.5,2.12244 0.825,0 1.5,-0.3949 1.5,-0.87756 z m 114,-1.62244 c 0,-1.375 -0.45,-2.5 -1,-2.5 -0.55,0 -1,1.125 -1,2.5 0,1.375 0.45,2.5 1,2.5 0.55,0 1,-1.125 1,-2.5 z m 17,1.12723 c 0,-0.8934 -1.65871,-1.56592 -4.75,-1.92588 -2.6125,-0.30421 -5.7625,-0.86395 -7,-1.24386 -1.93607,-0.59438 -2.25,-0.32567 -2.25,1.92588 0,2.57297 0.1168,2.61663 7,2.61663 5.26722,0 7,-0.33982 7,-1.37277 z m 25,0.0728 c 0,-2.94677 -2.48361,-3.7 -12.2,-3.7 -9.78667,0 -9.8,0.003 -9.8,2.5 l 0,2.5 11,0 c 8.35897,0 11,-0.31212 11,-1.3 z m -363.5,-0.38193 c -14.56375,-0.71985 -30.27553,-0.75568 -29.84814,-0.0681 0.2564,0.4125 8.42712,0.66329 18.15716,0.55732 9.73004,-0.10597 14.99098,-0.32613 11.69098,-0.48925 z m 9.6875,-10e-4 c -0.72188,-0.28887 -1.58438,-0.25335 -1.91667,0.0789 -0.33229,0.33229 0.25834,0.56864 1.3125,0.52522 1.16495,-0.048 1.4019,-0.28494 0.60417,-0.60416 z m 54.8125,-0.70047 c 0,-0.21085 -0.90062,-0.61888 -2.00138,-0.90674 -1.10076,-0.28785 -1.7492,-0.11534 -1.44098,0.38337 0.53825,0.87091 3.44236,1.31244 3.44236,0.52337 z m 26.75,-2.03728 c 0,-1.61542 -0.44688,-2.24916 -1.34338,-1.90514 -0.73886,0.28352 -1.24511,1.03532 -1.125,1.67065 0.12011,0.63533 -1.02714,1.20066 -2.54945,1.2563 -4.73543,0.17307 -4.31819,1.39884 0.47616,1.39884 4.13808,0 4.54167,-0.21511 4.54167,-2.42065 z m 23.25,0.92065 c 0,-0.825 -0.40186,-1.5 -0.89301,-1.5 -0.49116,0 -1.15203,0.675 -1.46862,1.5 -0.35062,0.91371 -0.002,1.5 0.89301,1.5 0.80774,0 1.46862,-0.675 1.46862,-1.5 z m 6.25,0.83772 c -0.6875,-0.27741 -1.8125,-0.27741 -2.5,0 -0.6875,0.27741 -0.125,0.50439 1.25,0.50439 1.375,0 1.9375,-0.22698 1.25,-0.50439 z m 29.75,-6.33772 0,-7 -3.5,0 c -1.925,0 -3.5,0.30064 -3.5,0.66809 0,0.36744 0.49619,3.51744 1.10265,7 0.99409,5.70844 1.33872,6.33191 3.5,6.33191 2.30148,0 2.39735,-0.27993 2.39735,-7 z m 51,4 c 0,-2.66667 -0.33333,-3 -3,-3 -2.66667,0 -3,0.33333 -3,3 0,2.66667 0.33333,3 3,3 2.66667,0 3,-0.33333 3,-3 z m 12.89423,0.19431 c 0.74567,-1.39605 0.39455,-1.73123 -1.99462,-1.90405 -3.03951,-0.21987 -3.83749,1.37186 -1.73953,3.46982 1.32764,1.32764 2.43719,0.8624 3.73415,-1.56577 z m -226.16326,1.1127 c -0.97297,-0.25354 -2.32297,-0.23687 -3,0.0371 -0.67703,0.27393 0.11903,0.48137 1.76903,0.46099 1.65,-0.0204 2.20394,-0.2445 1.23097,-0.49804 z m 258.26903,-0.86603 c 0,-0.24254 -0.45,-0.44098 -1,-0.44098 -0.55,0 -1,0.47656 -1,1.05902 0,0.58246 0.45,0.7809 1,0.44098 0.55,-0.33992 1,-0.81648 1,-1.05902 z m 11,-1 c 0,-0.79254 -0.45,-1.44098 -1,-1.44098 -0.55,0 -1,0.92656 -1,2.05902 0,1.13246 0.45,1.7809 1,1.44098 0.55,-0.33992 1,-1.26648 1,-2.05902 z m -136,-0.44098 c 0,-1.33333 -0.66667,-2 -2,-2 -1.33333,0 -2,0.66667 -2,2 0,1.33333 0.66667,2 2,2 1.33333,0 2,-0.66667 2,-2 z m 8.1875,1.31689 c -0.72188,-0.28887 -1.58438,-0.25335 -1.91667,0.0789 -0.33229,0.33229 0.25834,0.56864 1.3125,0.52522 1.16495,-0.048 1.4019,-0.28494 0.60417,-0.60416 z m -142.9375,-1.04029 c -1.7875,-0.22182 -4.7125,-0.22182 -6.5,0 -1.7875,0.22183 -0.325,0.40333 3.25,0.40333 3.575,0 5.0375,-0.1815 3.25,-0.40333 z m 179.5,0.007 c -1.5125,-0.22913 -3.9875,-0.22913 -5.5,0 -1.5125,0.22912 -0.275,0.41659 2.75,0.41659 3.025,0 4.2625,-0.18747 2.75,-0.41659 z m 52.25,-0.7836 c 0,-0.825 -0.17686,-1.5 -0.39301,-1.5 -0.21616,0 -0.65203,0.675 -0.96862,1.5 -0.31658,0.825 -0.13972,1.5 0.39301,1.5 0.53274,0 0.96862,-0.675 0.96862,-1.5 z m 117.23834,0.79274 c -1.24391,-0.23919 -3.04391,-0.23011 -4,0.0202 -0.95609,0.25029 0.0617,0.446 2.26166,0.4349 2.2,-0.0111 2.98225,-0.21589 1.73834,-0.45508 z m -221.23834,-2.26136 c 0,-0.53273 -0.675,-0.70959 -1.5,-0.39301 -0.825,0.31659 -1.5,0.75246 -1.5,0.96862 0,0.21615 0.675,0.39301 1.5,0.39301 0.825,0 1.5,-0.43588 1.5,-0.96862 z m 17.23834,0.26136 c -1.24391,-0.23919 -3.04391,-0.23011 -4,0.0202 -0.95609,0.25029 0.0617,0.446 2.26166,0.4349 2.2,-0.0111 2.98225,-0.21589 1.73834,-0.45508 z m 35.49263,0.0143 c -0.97297,-0.25354 -2.32297,-0.23687 -3,0.0371 -0.67703,0.27393 0.11903,0.48137 1.76903,0.46099 1.65,-0.0204 2.20394,-0.2445 1.23097,-0.49804 z m 64.51903,0.0307 c -0.6875,-0.27741 -1.8125,-0.27741 -2.5,0 -0.6875,0.27741 -0.125,0.50439 1.25,0.50439 1.375,0 1.9375,-0.22698 1.25,-0.50439 z m 90.32143,-1.32343 c 0,-1.1744 -0.36714,-1.61858 -0.89858,-1.08714 -0.49422,0.49422 -0.59624,1.38779 -0.2267,1.98572 0.94027,1.52138 1.12528,1.37365 1.12528,-0.89858 z m 4.42857,0.48569 c 0,-0.825 -0.675,-1.5 -1.5,-1.5 -1.56157,0 -1.98397,1.1827 -0.83333,2.33333 1.15063,1.15064 2.33333,0.72824 2.33333,-0.83333 z m 23.91667,1.14068 c -1.19443,-1.03005 -5.91667,-1.55659 -5.91667,-0.65973 0,0.56048 1.425,1.01905 3.16667,1.01905 1.74166,0 2.97916,-0.1617 2.75,-0.35932 z m -263.91667,-3.05032 c 0,-0.0906 -1.0125,-0.21465 -2.25,-0.27564 -1.2375,-0.061 -1.6847,0.10669 -0.99377,0.37261 0.69093,0.26592 0.94205,1.00756 0.55804,1.64808 -0.384,0.64052 0.0632,0.54699 0.99377,-0.20785 0.93058,-0.75485 1.69196,-1.44659 1.69196,-1.5372 z m 106,-1.00768 0,-3.41732 -11.25,-3.72964 c -6.1875,-2.0513 -11.84942,-3.95082 -12.58204,-4.22115 -1.76908,-0.65278 -0.53206,8.58783 1.45437,10.86417 0.75772,0.86831 1.37767,2.10581 1.37767,2.75 0,0.82065 3.14314,1.17126 10.5,1.17126 l 10.5,0 0,-3.41732 z m -53,-0.0131 c 0,-1.75912 -0.62149,-2.51871 -2.25,-2.75 -1.44596,-0.20536 -2.36419,-1.12359 -2.56955,-2.56955 -0.41819,-2.94452 -4.18045,-3.14724 -4.18045,-0.22528 0,1.2396 -0.96944,2.39333 -2.5,2.97525 -1.53056,0.58192 -2.5,1.73565 -2.5,2.97525 0,1.84017 0.63814,2.02475 7,2.02475 6.74658,0 7,-0.088 7,-2.43045 z m 12.68708,-3.33121 c -0.25029,-0.95609 -0.446,0.0617 -0.4349,2.26166 0.0111,2.2 0.21589,2.98225 0.45508,1.73834 0.23919,-1.24391 0.23011,-3.04391 -0.0202,-4 z m 5.76821,3.90254 c 0.85233,-2.68548 -0.37149,-5.14091 -2.56228,-5.14091 -1.49677,0 -1.89301,0.7326 -1.89301,3.5 0,2.79265 0.39058,3.5 1.93261,3.5 1.06294,0 2.19814,-0.83661 2.52268,-1.85912 z m 176.78305,1.15186 c -1.24391,-0.23919 -3.04391,-0.23011 -4,0.0202 -0.95609,0.25029 0.0617,0.446 2.26166,0.4349 2.2,-0.0111 2.98225,-0.21589 1.73834,-0.45508 z M 358.44688,586.82017 c -0.21575,-2.0625 -0.39226,-0.375 -0.39226,3.75 0,4.125 0.17651,5.8125 0.39226,3.75 0.21574,-2.0625 0.21574,-5.4375 0,-7.5 z m 9.27153,9.28138 c 0,-0.92914 -0.5818,-1.24535 -1.58385,-0.86083 -1.27522,0.48935 -1.32393,0.77253 -0.25,1.4533 1.77612,1.12588 1.83385,1.10723 1.83385,-0.59247 z m 233.7632,-0.32098 c 0.28849,-0.86548 -1.47252,-1.2104 -6.17987,-1.2104 -3.62083,0 -6.58333,0.4187 -6.58333,0.93045 0,0.51175 -1.0125,1.10335 -2.25,1.31468 -1.2375,0.21133 1.54344,0.3373 6.17987,0.27995 5.62732,-0.0696 8.564,-0.50669 8.83333,-1.31468 z m -221.7632,0.40623 c 0,-0.90929 -3.89829,-1.29567 -5.1393,-0.50937 -0.92513,0.58614 -0.32034,0.86702 1.8893,0.87743 1.7875,0.008 3.25,-0.15721 3.25,-0.36806 z m 15,-0.61663 c -1.96549,-1.2702 -5,-1.2702 -5,0 0,0.55 1.4625,0.99311 3.25,0.98469 2.46622,-0.0116 2.88826,-0.24909 1.75,-0.98469 z m 14.5,0 c -2.79107,-1.19936 -5.74125,-1.19936 -5,0 0.33992,0.55 2.05398,0.96837 3.80902,0.92971 2.68981,-0.0592 2.87686,-0.20526 1.19098,-0.92971 z m 14,0 c 0.35191,-0.5694 -0.50929,-1 -2,-1 -1.49071,0 -2.35191,0.4306 -2,1 0.33992,0.55 1.23992,1 2,1 0.76008,0 1.66008,-0.45 2,-1 z m 35.25,0.27153 c -2.0625,-0.21574 -5.4375,-0.21574 -7.5,0 -2.0625,0.21575 -0.375,0.39226 3.75,0.39226 4.125,0 5.8125,-0.17651 3.75,-0.39226 z m 108.25,-0.27153 c 0,-1.13956 -12.99966,-1.15968 -23,-0.0356 -5.30356,0.59614 -3.785,0.75869 8.25,0.88311 9.26832,0.0958 14.75,-0.21915 14.75,-0.84751 z m 14,0 c 0,-0.55 -1.575,-1 -3.5,-1 -1.925,0 -3.5,0.45 -3.5,1 0,0.55 1.575,1 3.5,1 1.925,0 3.5,-0.45 3.5,-1 z m -246,-2.78911 c 0,-0.29932 -0.2961,-0.24813 -0.65799,0.11377 -0.3619,0.36189 -1.3744,0.0994 -2.25,-0.58334 -1.3735,-1.07094 -1.42163,-1.02281 -0.35069,0.35069 0.68273,0.8756 0.90773,1.98577 0.5,2.46703 -0.40772,0.48126 0.0462,0.27226 1.00868,-0.46445 0.9625,-0.73671 1.75,-1.58438 1.75,-1.8837 z m 173,0.28911 c 0,-0.825 -0.675,-1.5 -1.5,-1.5 -0.825,0 -1.5,0.675 -1.5,1.5 0,0.825 0.675,1.5 1.5,1.5 0.825,0 1.5,-0.675 1.5,-1.5 z m -115,0.10699 c 0,-0.21616 -0.675,-0.65203 -1.5,-0.96862 -0.825,-0.31658 -1.5,-0.13972 -1.5,0.39301 0,0.53274 0.675,0.96862 1.5,0.96862 0.825,0 1.5,-0.17686 1.5,-0.39301 z m 165.25,-0.31272 c -1.2375,-0.23836 -3.2625,-0.23836 -4.5,0 -1.2375,0.23835 -0.225,0.43337 2.25,0.43337 2.475,0 3.4875,-0.19502 2.25,-0.43337 z m 37,0 c -1.2375,-0.23836 -3.2625,-0.23836 -4.5,0 -1.2375,0.23835 -0.225,0.43337 2.25,0.43337 2.475,0 3.4875,-0.19502 2.25,-0.43337 z m 15,0.0434 c -0.6875,-0.27741 -1.8125,-0.27741 -2.5,0 -0.6875,0.27741 -0.125,0.50439 1.25,0.50439 1.375,0 1.9375,-0.22698 1.25,-0.50439 z m 29.98209,-0.0624 c -1.79735,-0.22256 -4.49735,-0.21797 -6,0.0102 -1.50265,0.22818 -0.0321,0.41027 3.26791,0.40466 3.3,-0.006 4.52944,-0.1923 2.73209,-0.41486 z m -262.31542,-1.91681 c 0.22916,-0.19715 -0.97153,-0.35846 -2.66822,-0.35846 -1.69668,0 -3.80178,-0.2751 -4.678,-0.61134 -1.14262,-0.43846 -1.42647,-0.17704 -1.00379,0.92447 0.44171,1.15105 1.50928,1.39401 4.26135,0.9698 2.01959,-0.31131 3.85949,-0.72732 4.08866,-0.92447 z m 92.40152,0.25472 c 0.37864,-0.98671 -0.0476,-1.23519 -1.47754,-0.86126 -1.53776,0.40214 -1.69632,0.72422 -0.67518,1.3715 1.69109,1.07197 1.53101,1.10991 2.15272,-0.51024 z m 12.68181,-0.1722 c 0,-0.24254 -0.45,-0.44098 -1,-0.44098 -0.55,0 -1,0.47656 -1,1.05902 0,0.58246 0.45,0.7809 1,0.44098 0.55,-0.33992 1,-0.81648 1,-1.05902 z m 60.60417,-1.17015 c -0.33229,-0.33229 -0.56864,0.25834 -0.52522,1.3125 0.048,1.16495 0.28494,1.4019 0.60416,0.60417 0.28887,-0.72188 0.25335,-1.58437 -0.0789,-1.91667 z m 16.39583,0.22917 c 0,-1.08333 -1.11111,-1.5 -4,-1.5 -2.88889,0 -4,0.41667 -4,1.5 0,1.08333 1.11111,1.5 4,1.5 2.88889,0 4,-0.41667 4,-1.5 z m 19.31148,-1.80232 c 1.20369,-0.23393 0.16352,-0.4344 -2.31148,-0.4455 -2.475,-0.0111 -3.7125,0.18562 -2.75,0.43715 0.9625,0.25152 1.8022,1.21182 1.866,2.13399 0.10764,1.55585 0.14811,1.555 0.56148,-0.0118 0.24502,-0.92867 1.43032,-1.87989 2.634,-2.11381 z m 16.46495,2.57543 c -2.04796,-0.21488 -5.64796,-0.21785 -8,-0.007 -2.35204,0.21125 -0.67643,0.38706 3.72357,0.39069 4.4,0.004 6.32439,-0.16921 4.27643,-0.38408 z m 15.22357,-0.0731 c 0,-1.03498 -2.16502,-3.2 -3.2,-3.2 -0.44,0 -0.8,0.9 -0.8,2 0,1.33333 0.66667,2 2,2 1.1,0 2,-0.36 2,-0.8 z m 6.1875,0.11689 c -0.72187,-0.28887 -1.58438,-0.25335 -1.91667,0.0789 -0.33229,0.33229 0.25834,0.56864 1.3125,0.52522 1.16495,-0.048 1.4019,-0.28494 0.60417,-0.60416 z m 20.5625,-0.0559 c -3.1625,-0.19845 -8.3375,-0.19845 -11.5,0 -3.1625,0.19845 -0.575,0.36082 5.75,0.36082 6.325,0 8.9125,-0.16237 5.75,-0.36082 z M 490.95675,589.8629 c -1.24391,-0.23919 -3.04391,-0.23011 -4,0.0202 -0.95609,0.25029 0.0617,0.446 2.26166,0.4349 2.2,-0.0111 2.98225,-0.21589 1.73834,-0.45508 z m 127.16497,-1.1363 c 0.62547,-1.01203 -3.99984,-0.89324 -5.02206,0.12898 -0.39302,0.39302 0.45886,0.71458 1.89307,0.71458 1.4342,0 2.84225,-0.3796 3.12899,-0.84356 z m 6.67717,-0.25031 c -1.60213,-0.64038 -2.76764,-0.61897 -3.45,0.0634 -0.70731,0.70731 0.0515,1.0106 2.41952,0.96709 3.24171,-0.0596 3.30393,-0.12177 1.03048,-1.03048 z m -290.68747,-1.48793 c 0.94612,-2.46553 0.71811,-3.60492 -0.56295,-2.81318 -0.79647,0.49224 -0.9572,0.16867 -0.50351,-1.01363 0.4959,-1.29229 0.21952,-1.65204 -1.08006,-1.40586 -1.14875,0.21761 -1.85374,1.44036 -2.05985,3.57265 -0.25691,2.65783 0.0391,3.24181 1.64301,3.24181 1.07601,0 2.22952,-0.7118 2.56336,-1.58179 z m 72.97525,0.79496 c 0.26746,-0.43276 -3.64349,-0.84026 -8.69099,-0.90555 -5.0475,-0.0653 -9.85227,-0.21482 -10.67727,-0.33228 -0.825,-0.11746 -2.36132,0.14151 -3.41404,0.57549 -1.11637,0.46021 -1.6771,0.40566 -1.3455,-0.13089 0.31271,-0.50597 -0.47521,-0.91994 -1.75091,-0.91994 -1.7422,0 -2.06128,0.3111 -1.28207,1.25 1.16955,1.40923 26.31111,1.83796 27.16078,0.46317 z m 77.61643,-0.62984 c -0.0207,-1.46613 -1.93015,-4.3438 -2.04589,-3.08333 -0.0505,0.55 -0.23157,1.7125 -0.40237,2.58333 -0.17079,0.87084 0.31364,1.58334 1.07652,1.58334 0.76288,0 1.38016,-0.4875 1.37174,-1.08334 z m 13.26531,0.71096 c -1.2375,-0.23836 -2.25,-0.85207 -2.25,-1.36382 0,-0.51175 -2.25,-0.93045 -5,-0.93045 -3.77778,0 -5,0.36667 -5,1.5 0,1.20792 1.4117,1.47348 7.25,1.36382 3.9875,-0.0749 6.2375,-0.3312 5,-0.56955 z m -21.5,-0.9836 c -0.9625,-0.25152 -2.5375,-0.25152 -3.5,0 -0.9625,0.25153 -0.175,0.45733 1.75,0.45733 1.925,0 2.7125,-0.2058 1.75,-0.45733 z m 81.5,-0.0164 c -1.2375,-0.23836 -3.2625,-0.23836 -4.5,0 -1.2375,0.23835 -0.225,0.43337 2.25,0.43337 2.475,0 3.4875,-0.19502 2.25,-0.43337 z m -52.96853,-1.58539 c 0.32298,-0.84166 -0.42306,-1.32499 -2.14301,-1.38841 -1.45115,-0.0535 -1.84545,0.11155 -0.87622,0.3668 0.96924,0.25525 1.50518,0.88004 1.19099,1.38841 -0.3142,0.50838 -0.14285,0.92432 0.38076,0.92432 0.52362,0 1.17499,-0.58101 1.44748,-1.29112 z m 27.24499,-0.51575 c -0.30789,-0.30789 -1.11479,-6.4e-4 -1.79313,0.68278 -0.98026,0.98762 -0.8654,1.10248 0.5598,0.5598 0.98622,-0.37553 1.54122,-0.93469 1.23333,-1.24258 z m 8.47354,0.30687 c 0,-0.825 -0.45,-1.5 -1,-1.5 -0.55,0 -1,0.675 -1,1.5 0,0.825 0.45,1.5 1,1.5 0.55,0 1,-0.675 1,-1.5 z m 29,0.5 c 0,-0.55 -0.45,-1 -1,-1 -0.55,0 -1,0.45 -1,1 0,0.55 0.45,1 1,1 0.55,0 1,-0.45 1,-1 z m -90.75,-1.70573 c -1.2375,-0.23836 -3.2625,-0.23836 -4.5,0 -1.2375,0.23835 -0.225,0.43337 2.25,0.43337 2.475,0 3.4875,-0.19502 2.25,-0.43337 z m 16.98209,-0.019 c -1.79735,-0.22256 -4.49735,-0.21797 -6,0.0102 -1.50265,0.22818 -0.0321,0.41027 3.26791,0.40466 3.3,-0.006 4.52944,-0.1923 2.73209,-0.41486 z m 62.03166,0.0208 c -1.22994,-0.23736 -3.47994,-0.24351 -5,-0.0136 -1.52006,0.22985 -0.51375,0.42406 2.23625,0.43157 2.75,0.008 3.99369,-0.18056 2.76375,-0.41792 z M 365.32258,580.841 c -0.33229,-0.33229 -0.56864,0.25834 -0.52522,1.3125 0.048,1.16495 0.28494,1.4019 0.60416,0.60417 0.28887,-0.72187 0.25335,-1.58437 -0.0789,-1.91667 z m 158.64583,2.06689 c -0.6875,-0.27741 -1.8125,-0.27741 -2.5,0 -0.6875,0.27741 -0.125,0.50439 1.25,0.50439 1.375,0 1.9375,-0.22698 1.25,-0.50439 z m -43.60014,-1.0212 c -1.10173,-1.10172 -7.53246,-1.3155 -8.17748,-0.27184 -0.34338,0.55562 1.38681,0.95532 4.13527,0.95532 2.59913,0 4.41812,-0.30756 4.04221,-0.68348 z m 3.35014,-0.81652 c 0,-0.825 -0.17686,-1.5 -0.39301,-1.5 -0.21616,0 -0.65203,0.675 -0.96862,1.5 -0.31658,0.825 -0.13972,1.5 0.39301,1.5 0.53274,0 0.96862,-0.675 0.96862,-1.5 z m 14,0.375 c 0,-1.11198 -2.09076,-1.10368 -3.85676,0.0153 -0.95751,0.60671 -0.58967,0.85969 1.25,0.85969 1.43372,0 2.60676,-0.39375 2.60676,-0.875 z m 66,-1.30545 c 0,-1.75912 -0.62149,-2.51871 -2.25,-2.75 -1.44596,-0.20536 -2.36419,-1.12359 -2.56955,-2.56955 -0.41819,-2.94449 -4.18045,-3.14721 -4.18045,-0.22525 0,1.2396 -0.96944,2.39333 -2.5,2.97525 -1.53056,0.58192 -2.5,1.73565 -2.5,2.97525 0,1.84017 0.63814,2.02475 7,2.02475 6.74658,0 7,-0.088 7,-2.43045 z m 41.88989,-1.20223 c -0.62413,-0.75203 -1.39468,-1.36732 -1.71233,-1.36732 -0.31766,0 -0.0483,0.52929 0.59865,1.17621 0.9016,0.9016 0.88993,1.54362 -0.05,2.75 -1.08351,1.39064 -1.02112,1.41288 0.53612,0.19111 1.3524,-1.06106 1.49838,-1.70072 0.62756,-2.75 z m -60.22761,-0.61732 c -0.27741,-0.6875 -0.50439,-0.125 -0.50439,1.25 0,1.375 0.22698,1.9375 0.50439,1.25 0.27741,-0.6875 0.27741,-1.8125 0,-2.5 z m 35.33772,1.25 c 0,-1.73333 -0.66667,-2 -5,-2 -3.5,0 -5,0.4 -5,1.33333 0,2.15812 1.08067,2.66667 5.66667,2.66667 3.66666,0 4.33333,-0.30769 4.33333,-2 z m -75,0.61663 c 0,-0.21085 -0.9,-0.61872 -2,-0.90638 -1.1,-0.28766 -2,-0.11514 -2,0.38337 0,0.49851 0.9,0.90638 2,0.90638 1.1,0 2,-0.17252 2,-0.38337 z m 80,-2.17565 c 0,-0.24254 -0.45,-0.44098 -1,-0.44098 -0.55,0 -1,0.47656 -1,1.05902 0,0.58246 0.45,0.7809 1,0.44098 0.55,-0.33992 1,-0.81648 1,-1.05902 z m -221,-1.44098 c 0,-0.6 -4,-1 -10,-1 -6,0 -10,0.4 -10,1 0,0.6 4,1 10,1 6,0 10,-0.4 10,-1 z m 114.73097,0.30701 c -0.97297,-0.25354 -2.32297,-0.23687 -3,0.037 -0.67703,0.27393 0.11903,0.48137 1.76903,0.46099 1.65,-0.0204 2.20394,-0.2445 1.23097,-0.49804 z m 72.65059,-1.85895 c 0.34149,-0.88992 0.17385,-1.29132 -0.39301,-0.94098 -0.5437,0.33602 -0.98855,1.0344 -0.98855,1.55194 0,1.43843 0.71677,1.12146 1.38156,-0.61096 z m 27.36844,0.86261 c -0.9625,-0.25152 -2.5375,-0.25152 -3.5,0 -0.9625,0.25153 -0.175,0.45733 1.75,0.45733 1.925,0 2.7125,-0.2058 1.75,-0.45733 z m -85.75,-3.09978 c 0,-1.10447 -0.32385,-1.18701 -1.34201,-0.34201 -0.7381,0.61257 -1.71025,0.78017 -2.16032,0.37244 -0.45008,-0.40772 -0.54097,-0.25382 -0.20198,0.34201 0.90919,1.59808 3.70431,1.31705 3.70431,-0.37244 z m 11.60417,-0.94006 c -0.33229,-0.33229 -0.56864,0.25834 -0.52522,1.3125 0.048,1.16495 0.28494,1.4019 0.60416,0.60417 0.28887,-0.72187 0.25335,-1.58437 -0.0789,-1.91667 z m 67.39583,1.22917 c 0.68469,-0.825 0.85229,-1.55304 0.37244,-1.61787 -0.47984,-0.0648 -2.22244,-0.24519 -3.87244,-0.4008 -1.65,-0.15561 -4.35,-0.60452 -6,-0.99758 -2.87466,-0.68481 -2.91644,-0.6485 -1,0.86899 1.1,0.87101 2.7875,1.59796 3.75,1.61546 0.9625,0.0175 1.75,0.4818 1.75,1.0318 0,1.54285 3.60367,1.18248 5,-0.5 z m 2.80687,-1.02646 c -0.30789,-0.30789 -0.86705,0.24711 -1.24258,1.23333 -0.54268,1.4252 -0.42782,1.54006 0.5598,0.5598 0.68342,-0.67834 0.99067,-1.48524 0.68278,-1.79313 z M 472.32258,570.841 c -0.33229,-0.33229 -0.56864,0.25834 -0.52522,1.3125 0.048,1.16495 0.28494,1.4019 0.60416,0.60417 0.28887,-0.72187 0.25335,-1.58437 -0.0789,-1.91667 z m -113.05032,-0.35796 c 1.03052,-1.66742 -1.28721,-3.57951 -2.66672,-2.2 -1.15392,1.15392 -0.43172,3.28713 1.11287,3.28713 0.48508,0 1.18431,-0.48921 1.55385,-1.08713 z m 226.44615,0.69412 c 0,-0.21616 -0.69837,-0.661 -1.55194,-0.98855 -0.88992,-0.34149 -1.29132,-0.17385 -0.94098,0.39301 0.58726,0.95021 2.49292,1.40545 2.49292,0.59554 z m -126,-3.10699 c 0,-0.825 -0.17686,-1.5 -0.39301,-1.5 -0.21616,0 -0.65203,0.675 -0.96862,1.5 -0.31658,0.825 -0.13972,1.5 0.39301,1.5 0.53274,0 0.96862,-0.675 0.96862,-1.5 z m 19.75,0.78375 c -1.5125,-0.22913 -3.9875,-0.22913 -5.5,0 -1.5125,0.22912 -0.275,0.41659 2.75,0.41659 3.025,0 4.2625,-0.18747 2.75,-0.41659 z m 9.80385,-0.37088 c 1.03052,-1.66742 -1.28721,-3.57951 -2.66672,-2.2 -1.15392,1.15392 -0.43172,3.28713 1.11287,3.28713 0.48508,0 1.18431,-0.48921 1.55385,-1.08713 z m 12.44615,0.0871 c -2.08416,-0.66747 -2.16733,-0.81977 -0.5,-0.91563 3.39494,-0.1952 -0.32268,-1.88437 -4.14721,-1.88437 -2.6273,0 -3.35279,0.41113 -3.35279,1.9 0,1.63805 0.7238,1.88626 5.25,1.80032 4.13061,-0.0784 4.71696,-0.27039 2.75,-0.90032 z m -22.25,-1.71625 c -1.5125,-0.22913 -3.9875,-0.22913 -5.5,0 -1.5125,0.22912 -0.275,0.41659 2.75,0.41659 3.025,0 4.2625,-0.18747 2.75,-0.41659 z m 72.85417,-3.01292 c -0.33229,-0.33229 -0.56864,0.25834 -0.52522,1.3125 0.048,1.16495 0.28494,1.4019 0.60416,0.60417 0.28887,-0.72187 0.25335,-1.58437 -0.0789,-1.91667 z m 8.39583,1.72917 c 0,-0.55 -1.125,-1 -2.5,-1 -1.375,0 -2.5,0.45 -2.5,1 0,0.55 1.125,1 2.5,1 1.375,0 2.5,-0.45 2.5,-1 z m 18,-0.45228 c 0,-1.08275 -1.58778,-1.52804 -6.23996,-1.75 -5.37251,-0.25633 -6.27492,-0.57575 -6.49151,-2.29772 -0.25155,-2 -0.25155,-2 0.66967,0 0.88381,1.91877 0.92408,1.90861 0.99151,-0.25 0.0387,-1.2375 -0.28971,-2.25 -0.72971,-2.25 -1.66089,0 -3.2,2.50105 -3.2,5.2 l 0,2.8 7.5,0 c 5.89048,0 7.5,-0.31166 7.5,-1.45228 z m -30,-7.84845 c 0,-5.29644 -0.004,-5.30252 -4.52675,-7.5 -2.48971,-1.2096 -4.73971,-2.19927 -5,-2.19927 -0.26029,0 -0.47325,3.375 -0.47325,7.5 l 0,7.5 5,0 5,0 0,-5.30073 z m 8.26463,2.20466 c -0.31383,-1.20008 -1.37898,-1.90393 -2.88126,-1.90393 -1.82829,0 -2.38337,0.54191 -2.38337,2.32681 0,1.99521 0.41061,2.26654 2.88126,1.90393 2.25335,-0.33073 2.77275,-0.8378 2.38337,-2.32681 z m 15.49227,0.4294 c -0.10622,-1.28333 -0.67182,-2.33333 -1.2569,-2.33333 -0.58508,0 -1.15068,1.05 -1.2569,2.33333 -0.12087,1.46044 0.34933,2.33334 1.2569,2.33334 0.90757,0 1.37777,-0.8729 1.2569,-2.33334 z m 4.2431,-0.33333 c 0.46934,0 1.05915,0.7875 1.31067,1.75 0.42184,1.61422 0.46633,1.61695 0.57333,0.0352 0.11799,-1.7443 -3.57611,-4.42641 -4.63631,-3.3662 -0.31956,0.31956 -0.0982,0.58102 0.49202,0.58102 0.59018,0 0.95477,0.7875 0.81019,1.75 -0.14457,0.9625 -0.0694,1.1875 0.16695,0.5 0.23639,-0.6875 0.81381,-1.25 1.28315,-1.25 z m -212,0 c 0,-0.55 -1.575,-1 -3.5,-1 -1.925,0 -3.5,0.45 -3.5,1 0,0.55 1.575,1 3.5,1 1.925,0 3.5,-0.45 3.5,-1 z m 132.4693,-0.66341 c 2.18311,-0.36429 5.10811,-1.75826 6.5,-3.09772 1.83889,-1.76962 1.98396,-2.12771 0.5307,-1.30991 -1.1,0.61901 -5.15,2.24536 -9,3.61412 -3.85,1.36876 -5.875,2.25627 -4.5,1.97225 1.375,-0.28402 4.28618,-0.81445 6.4693,-1.17874 z m 40.25243,-9.60889 c -0.22091,-1.77524 -0.39803,-0.0777 -0.39359,3.7723 0.004,3.85 0.18518,5.30246 0.40166,3.2277 0.21647,-2.07477 0.21284,-5.22477 -0.008,-7 z m 16.46577,6.58919 c -0.72188,-0.28887 -1.58438,-0.25335 -1.91667,0.079 -0.33229,0.33229 0.25834,0.56864 1.3125,0.52522 1.16495,-0.048 1.4019,-0.28494 0.60417,-0.60417 z m 17,0 c -0.72187,-0.28887 -1.58438,-0.25335 -1.91667,0.079 -0.33229,0.33229 0.25834,0.56864 1.3125,0.52522 1.16495,-0.048 1.4019,-0.28494 0.60417,-0.60417 z m 1.8125,-2.04578 c -0.825,-0.31405 -1.80397,-1.03833 -2.17549,-1.60952 -0.37152,-0.57118 -4.75902,-1.23375 -9.75,-1.47237 -8.71846,-0.41684 -9.07451,-0.35059 -9.07451,1.68846 0,2.042 0.42574,2.11933 11.25,2.04337 6.1875,-0.0434 10.575,-0.33589 9.75,-0.64994 z m 12.8292,-1.596 c 0.27966,-1.47376 -0.19808,-1.76238 -2.4829,-1.5 -1.7835,0.20481 -2.95719,0.99938 -3.1755,2.14978 -0.27966,1.47375 0.19808,1.76238 2.4829,1.5 1.7835,-0.20481 2.95719,-0.99939 3.1755,-2.14978 z m -2.70511,-6.94178 c -0.98762,-0.98026 -1.10248,-0.8654 -0.5598,0.5598 0.37553,0.98622 0.93469,1.54122 1.24258,1.23333 0.30789,-0.30789 6.4e-4,-1.11479 -0.68278,-1.79313 z m -24.37409,-6.47232 c -3.1625,-0.19845 -8.3375,-0.19845 -11.5,0 -3.1625,0.19845 -0.575,0.36082 5.75,0.36082 6.325,0 8.9125,-0.16237 5.75,-0.36082 z m 28.48834,0.0317 c -1.24391,-0.23919 -3.04391,-0.23011 -4,0.0202 -0.95609,0.25029 0.0617,0.446 2.26166,0.4349 2.2,-0.0111 2.98225,-0.21589 1.73834,-0.45508 z M 554.90591,536.887 c -0.72188,-0.28888 -1.58438,-0.25335 -1.91667,0.079 -0.33229,0.33229 0.25834,0.56864 1.3125,0.52522 1.16495,-0.048 1.4019,-0.28494 0.60417,-0.60417 z m 13.54347,-0.01 c -0.97297,-0.25355 -2.32297,-0.23687 -3,0.0371 -0.67703,0.27392 0.11903,0.48136 1.76903,0.46098 1.65,-0.0204 2.20394,-0.24449 1.23097,-0.49804 z M 537.4618,515.36376 c -0.1903,-4.01156 -0.34727,-0.99375 -0.34883,6.70625 -0.002,7.7 0.15414,10.98219 0.34599,7.29375 0.19186,-3.68844 0.19314,-9.98844 0.003,-14 z m 32.64478,19.38719 c 0.27841,-0.45048 -0.82003,-0.6244 -2.44098,-0.3865 -1.62096,0.23791 -2.94719,0.60648 -2.94719,0.81906 0,0.76198 4.89266,0.3692 5.38817,-0.43256 z m -11.20067,-0.86405 c -0.72188,-0.28888 -1.58438,-0.25335 -1.91667,0.079 -0.33229,0.33229 0.25834,0.56864 1.3125,0.52522 1.16495,-0.048 1.4019,-0.28494 0.60417,-0.60417 z m 2,-4 c -0.72187,-0.28888 -1.58438,-0.25335 -1.91667,0.079 -0.33229,0.33229 0.25834,0.56864 1.3125,0.52522 1.16495,-0.048 1.4019,-0.28494 0.60417,-0.60417 z m 5.79719,-10.56689 c -0.012,-1.75671 -0.21673,-1.9316 -0.93402,-0.79775 -0.50529,0.79874 -0.69684,1.81124 -0.42567,2.25 0.86737,1.40343 1.37543,0.86078 1.35969,-1.45225 z m -6.42582,-0.2818 c -1.06762,-0.80751 -1.37856,-1.4682 -0.69098,-1.4682 0.68758,0 0.97203,-0.45 0.63211,-1 -0.33992,-0.55 -1.49148,-1 -2.55902,-1 -1.40371,0 -1.94098,0.692 -1.94098,2.5 0,2.16037 0.44152,2.49568 3.25,2.4682 3.0742,-0.0301 3.145,-0.11123 1.30887,-1.5 z m -1.19724,-7.9682 c -0.31659,-0.825 -1.20246,-1.5 -1.96862,-1.5 -0.76615,0 -1.39301,0.675 -1.39301,1.5 0,0.82536 0.8854,1.5 1.96862,1.5 1.33903,0 1.78453,-0.47971 1.39301,-1.5 z m -214.11163,-9.16228 c -0.6875,-0.27741 -1.8125,-0.27741 -2.5,0 -0.6875,0.27741 -0.125,0.50438 1.25,0.50438 1.375,0 1.9375,-0.22697 1.25,-0.50438 z m 192.46453,-8.10563 c -0.22818,-1.50265 -0.41027,-0.0321 -0.40466,3.26791 0.006,3.3 0.1923,4.52944 0.41486,2.73209 0.22256,-1.79735 0.21797,-4.49735 -0.0102,-6 z m -180.11036,3.03874 c -0.33229,-0.33229 -0.56864,0.25834 -0.52522,1.3125 0.048,1.16495 0.28494,1.4019 0.60416,0.60417 0.28887,-0.72188 0.25335,-1.58438 -0.0789,-1.91667 z m 0.13996,-22.97512 c -0.1879,-4.28764 -0.34279,-1.04571 -0.34419,7.20429 -0.001,8.25 0.15234,11.75807 0.34164,7.79571 0.18931,-3.96237 0.19045,-10.71237 0.003,-15 z"
       id="path3112"
       inkscape:connector-curvature="0" />
  </g>
</svg>
