<?xml version="1.0" encoding="UTF-8" standalone="no"?>
<!-- Created with Inkscape (http://www.inkscape.org/) -->

<svg
   xmlns:dc="http://purl.org/dc/elements/1.1/"
   xmlns:cc="http://creativecommons.org/ns#"
   xmlns:rdf="http://www.w3.org/1999/02/22-rdf-syntax-ns#"
   xmlns:svg="http://www.w3.org/2000/svg"
   xmlns="http://www.w3.org/2000/svg"
   xmlns:sodipodi="http://sodipodi.sourceforge.net/DTD/sodipodi-0.dtd"
   xmlns:inkscape="http://www.inkscape.org/namespaces/inkscape"
   width="744.09448819"
   height="1052.3622047"
   id="svg2"
   version="1.1"
   inkscape:version="0.48.4 r9939"
   sodipodi:docname="bomber4 [multipurpose].svg">
  <defs
     id="defs4" />
  <sodipodi:namedview
     id="base"
     pagecolor="#ffffff"
     bordercolor="#666666"
     borderopacity="1.0"
     inkscape:pageopacity="0.0"
     inkscape:pageshadow="2"
     inkscape:zoom="0.7"
     inkscape:cx="259.12969"
     inkscape:cy="520"
     inkscape:document-units="px"
     inkscape:current-layer="layer1"
     showgrid="false"
     inkscape:window-width="1600"
     inkscape:window-height="841"
     inkscape:window-x="-8"
     inkscape:window-y="-8"
     inkscape:window-maximized="1" />
  <metadata
     id="metadata7">
    <rdf:RDF>
      <cc:Work
         rdf:about="">
        <dc:format>image/svg+xml</dc:format>
        <dc:type
           rdf:resource="http://purl.org/dc/dcmitype/StillImage" />
        <dc:title></dc:title>
      </cc:Work>
    </rdf:RDF>
  </metadata>
  <g
     inkscape:label="Layer 1"
     inkscape:groupmode="layer"
     id="layer1">
    <path
       style="fill:#000000"
       d="m 105.02556,567.73829 c -8.588758,-0.79781 -16.623455,-2.68634 -18.837115,-4.4276 -1.577177,-1.24061 -3.367772,-1.42682 -16.254808,-1.6904 -8.443357,-0.17268 -14.836733,-0.0102 -15.332163,0.38961 -0.46738,0.37719 -2.763837,0.58658 -5.103237,0.46532 -3.981424,-0.20637 -4.267635,-0.34274 -4.475169,-2.13238 -0.165192,-1.42451 -0.954612,-2.24241 -3.096593,-3.20831 -3.638776,-1.64086 -9.382228,-7.69819 -11.53169,-12.16189 -0.908558,-1.88675 -1.837435,-5.22796 -2.064179,-7.42491 -0.411656,-3.98856 -0.416504,-3.99517 -3.283554,-4.47956 -1.579203,-0.2668 -3.979773,-0.4851 -5.334595,-0.4851 -1.795698,0 -2.77404,-0.47421 -3.60976,-1.74968 -0.712587,-1.08755 -1.847926,-1.74968 -3.000135,-1.74968 -2.690842,0 -4.6739891,-1.28452 -4.6739891,-3.02744 0,-1.4501 0.247412,-1.49488 5.5263321,-1.00021 3.03948,0.28483 6.564016,0.81547 7.832302,1.1792 3.761763,1.07887 7.054314,0.8397 7.054314,-0.51241 0,-2.35597 4.718802,-9.94131 7.966247,-12.80553 4.25427,-3.75222 8.798768,-6.04853 15.50185,-7.83297 5.409792,-1.44016 17.061708,-3.3239 25.012653,-4.04373 2.405811,-0.21781 11.828661,-1.43465 20.939667,-2.70408 l 16.565462,-2.30807 7.7289,-7.87211 c 5.84729,-5.95563 8.31923,-7.98285 10.15373,-8.32701 4.15598,-0.77966 5.12205,-0.25234 5.12205,2.79587 l 0,2.71741 7.10808,-4.7e-4 7.10808,-4.8e-4 0,-2.96456 c 0,-2.80396 0.1086,-2.95206 2.00484,-2.73388 1.78739,0.20566 1.97911,0.48767 1.76764,2.60005 l -0.2372,2.36936 8.75716,0 8.75715,0 0.22845,-2.26992 0.22845,-2.26991 42.64848,0.11737 c 58.83633,0.16194 122.58085,0.75499 123.21408,1.14634 0.28937,0.17885 0.36785,1.15318 0.1744,2.16516 l -0.35173,1.83999 6.22215,0 c 3.42218,0 6.74108,0.19913 7.37532,0.44252 0.89935,0.34511 1.15318,-0.057 1.15318,-1.82685 l 0,-2.26935 6.37905,0.46999 c 7.61218,0.56083 8.70131,0.99659 2.49086,0.99659 -3.9656,0 -4.49571,0.16701 -4.49571,1.4164 0,1.31468 0.65187,1.43248 9.07698,1.64033 8.14292,0.20088 9.11118,0.0926 9.40919,-1.05189 0.18272,-0.70169 -0.0472,-1.28578 -0.51083,-1.29798 -0.46368,-0.0122 -0.33789,-0.31797 0.27952,-0.6795 0.643,-0.37651 3.91327,-0.41047 7.65486,-0.0795 l 6.53229,0.57785 -4.92098,0.10165 c -4.40108,0.0909 -4.92098,0.2557 -4.92098,1.55972 0,1.36086 0.48603,1.45807 7.29034,1.45807 l 7.29034,0 0,-1.90659 c 0,-1.86997 0.0735,-1.89812 3.82743,-1.46573 8.0158,0.92327 97.36923,3.67822 101.89894,3.14175 5.27448,-0.62468 8.91687,-2.85847 13.6148,-8.3496 2.32654,-2.71934 14.72471,-18.96006 27.55149,-36.09048 19.97101,-26.67167 23.28886,-31.45676 23.09471,-33.30769 -0.24609,-2.34608 -0.13041,-2.40612 6.32346,-3.28234 1.74091,-0.23635 4.44939,-1.08484 6.01885,-1.88552 5.31397,-2.71098 13.26979,-3.90933 26.174,-3.94246 15.7064,-0.0403 17.99274,0.67829 25.19331,7.91851 10.15365,10.20956 17.63583,29.09763 21.39847,54.01848 2.2254,14.73933 3.47884,29.84276 2.96464,35.72266 -0.26121,2.98689 -0.14147,5.60777 0.28871,6.31985 0.82262,1.36165 -0.47976,3.5221 -2.12323,3.5221 -0.51965,0 -1.63487,1.11653 -2.47827,2.48117 -2.32917,3.76868 -6.73805,7.40692 -12.47976,10.2984 -5.68431,2.86258 -30.73762,10.33886 -41.58441,12.40941 -3.76953,0.71957 -7.06381,1.62291 -7.32063,2.00742 -0.26131,0.39123 -1.63401,0.48017 -3.11699,0.20196 -1.45752,-0.27343 -5.40319,-0.27376 -8.76815,-7.2e-4 -5.12076,0.41549 -6.17621,0.71856 -6.47446,1.8591 -0.196,0.74948 -0.98638,1.36269 -1.75641,1.36269 -1.14219,0 -1.3407,0.40447 -1.07775,2.19603 0.41616,2.83551 1.09899,3.19675 5.64466,2.98619 3.13515,-0.14524 4.13688,0.14128 6.01286,1.71982 1.23805,1.04175 2.6264,3.03158 3.08523,4.42185 1.7598,5.33222 -2.52012,11.27615 -8.11939,11.27615 -6.24077,0 -9.81602,-4.00922 -9.20899,-10.32678 0.22743,-2.3669 0.0264,-3.78311 -0.61215,-4.31309 -0.52292,-0.43399 -1.16812,-2.23853 -1.43378,-4.0101 -0.42637,-2.84323 -0.70174,-3.22104 -2.34769,-3.22104 -1.02557,0 -2.38259,-0.44953 -3.01562,-0.99894 -0.98013,-0.85069 -5.58732,-0.52928 -31.04134,2.16551 -16.43972,1.74046 -39.89638,4.16807 -52.12592,5.39468 -12.22954,1.22662 -24.03989,2.52047 -26.24522,2.87523 -3.21645,0.51741 -4.36557,0.41715 -5.80864,-0.50679 -1.04539,-0.66933 -3.22156,-1.11941 -5.19509,-1.07445 -3.7582,0.0856 -12.20093,2.0776 -13.55801,3.1989 -0.88922,0.73472 -22.12741,3.18393 -46.15454,5.32257 -7.41792,0.66026 -24.64135,2.30877 -38.27428,3.66334 -17.6793,1.75661 -29.90898,2.55965 -42.64848,2.80041 l -17.86133,0.33756 -3.77336,2.54146 c -8.59907,5.79172 -21.41056,5.33048 -28.35786,-1.02094 -1.45076,-1.32633 -3.11154,-1.37452 -41.12975,-1.19354 l -39.61795,0.1886 -1.05033,3.15126 -1.05033,3.15127 -7.39422,-0.59965 c -8.74562,-0.70924 -14.7823,-0.72569 -31.45233,-0.0857 -6.81647,0.26171 -15.34617,0.20155 -18.95488,-0.13366 z m 25.23984,-3.11418 c 0.8697,-1.55553 2.42139,-1.70963 1.83528,-0.18226 -0.46663,1.21604 1.50074,1.41538 6.23833,0.63209 2.22712,-0.36822 2.73253,-0.77747 2.91614,-2.36134 0.16685,-1.43932 0.67548,-1.95945 2.04468,-2.09092 1.79601,-0.17244 1.79867,-0.16481 0.18226,0.52329 -0.92664,0.39447 -1.64033,1.33684 -1.64033,2.16594 0,1.84843 1.12236,2.09696 11.49131,2.54458 l 8.21066,0.35444 0.98279,-2.34211 c 1.0406,-2.47987 0.75237,-4.27232 -0.41844,-2.60219 -0.5391,0.76901 -0.77569,0.78632 -1.06317,0.0778 -0.2182,-0.53773 -1.91383,-0.96407 -4.13645,-1.04004 -3.56497,-0.12184 -3.4934,-0.15398 1.33656,-0.60029 l 5.10324,-0.47156 -5.10324,-0.22432 -5.10323,-0.22433 4.3742,-0.55948 c 2.40581,-0.30772 4.62025,-0.40937 4.92098,-0.22591 0.30072,0.18347 0.60193,-1.40812 0.66932,-3.53687 0.10501,-3.31634 0.16437,-3.46443 0.41462,-1.0344 0.16064,1.55982 0.73233,3.27631 1.27042,3.81441 0.5381,0.5381 1.09947,1.34169 1.2475,1.78576 0.19072,0.57215 11.36149,0.88569 38.33937,1.07608 20.93863,0.14777 38.07023,0.11133 38.07023,-0.081 0,-0.19231 -0.87781,-1.67612 -1.95069,-3.29735 -1.82702,-2.76081 -2.14905,-2.93549 -5.07952,-2.75528 -1.72086,0.10582 -3.35821,-0.037 -3.63857,-0.31733 -0.28035,-0.28036 1.18527,-0.50974 3.25694,-0.50974 2.07167,0 3.76667,-0.32342 3.76667,-0.71869 0,-0.39528 1.35404,-1.61475 3.00897,-2.70993 2.72622,-1.80413 3.61678,-1.98751 9.47744,-1.95157 4.99192,0.0306 6.46847,-0.18698 6.46847,-0.95328 0,-0.54613 0.82192,-1.30545 1.82648,-1.68739 1.00457,-0.38193 2.38137,-1.85803 3.05957,-3.28022 0.96733,-2.02851 1.36592,-2.3484 1.8495,-1.48428 0.35563,0.63547 0.29496,1.70218 -0.14343,2.5213 -0.41792,0.78089 -0.75985,2.22135 -0.75985,3.20104 0,2.50281 -1.46019,3.44414 -4.56182,2.94081 -1.45587,-0.23625 -3.80939,-0.21149 -5.23005,0.055 -2.13967,0.40141 -2.54209,0.76075 -2.34461,2.09363 0.591,3.98883 8.76241,6.29494 13.54391,3.82233 3.8857,-2.00937 5.88321,-5.19486 5.88019,-9.37731 -0.003,-3.68873 -2.01984,-8.51023 -3.56042,-8.51023 -0.36763,0 -0.99927,-0.94905 -1.40363,-2.109 -0.69189,-1.98475 -0.60481,-2.13508 1.47788,-2.55162 1.21719,-0.24344 4.65101,-0.44262 7.6307,-0.44262 l 5.41762,0 1.49851,3.38764 c 1.46825,3.31921 3.02452,15.06692 1.90427,14.37456 -0.31275,-0.19329 -0.57457,0.24204 -0.58184,0.9674 -0.007,0.72536 -0.96279,3.04118 -2.12341,5.14626 l -2.11019,3.82743 15.94663,0 c 11.19711,0 19.70066,-0.43146 28.55089,-1.44862 6.93233,-0.79674 23.92249,-2.43948 37.75591,-3.65053 45.59116,-3.9913 59.56474,-5.49013 60.84762,-6.52661 1.31319,-1.06097 11.66671,-3.68395 14.54139,-3.68395 1.51644,0 3.65529,0.53054 4.753,1.17897 1.81487,1.07208 2.65141,1.08079 9.22541,0.0961 l 7.22956,-1.08289 -8.01937,-0.0999 c -4.41066,-0.055 -10.80793,-0.17471 -14.21616,-0.26611 -3.40823,-0.0914 -8.32921,0.24446 -10.93551,0.74637 -2.60629,0.50192 -11.05397,1.10177 -18.77262,1.33302 -11.47926,0.34391 -14.034,0.24192 -14.03442,-0.56029 -4.1e-4,-0.78656 2.20072,-0.94542 11.11777,-0.80238 7.32431,0.1175 13.60601,-0.21003 18.40862,-0.95982 4.51288,-0.70455 10.90104,-1.07143 16.76778,-0.96299 9.2537,0.17105 29.39292,-0.66794 30.39201,-1.26611 0.60506,-0.36226 4.17621,-0.77622 11.60525,-1.34526 3.05006,-0.23362 6.57676,-0.72051 7.83711,-1.08197 1.75921,-0.50454 2.29155,-0.42945 2.29155,0.32325 0,0.69516 -1.64407,1.1217 -5.65002,1.46586 -8.56608,0.73592 -10.55784,1.0151 -12.94035,1.81381 -1.72112,0.57698 -1.17748,0.64248 2.55162,0.30738 12.22135,-1.0982 50.70106,-5.09064 63.06143,-6.54289 16.99086,-1.99631 19.205,-2.09384 20.60254,-0.9075 1.57729,1.33892 8.1943,0.94613 8.1943,-0.48642 0,-1.39661 5.00161,-2.38208 16.75717,-3.30165 10.78315,-0.8435 11.82357,-1.20873 11.37849,-3.9943 -0.2094,-1.31056 -0.68807,-1.43862 -4.52523,-1.21062 -2.36007,0.14024 -4.42572,0.38428 -4.59034,0.54231 -0.1646,0.15803 0.29632,0.94548 1.02429,1.74987 0.72797,0.80439 1.19072,1.48692 1.02833,1.51671 -3.23969,0.59444 -3.16809,0.67256 -6.74148,-7.35521 -1.98123,-4.45092 -3.29126,-8.31695 -2.98575,-8.81127 0.34093,-0.55163 0.23763,-0.6912 -0.27642,-0.3735 -0.51763,0.31992 -1.61939,-1.25404 -2.98307,-4.26156 -1.18925,-2.62285 -2.43264,-4.76882 -2.76306,-4.76882 -0.33044,0 -5.98685,5.3935 -12.56982,11.98555 -6.58297,6.59206 -12.15636,11.92312 -12.3853,11.8468 -0.22893,-0.0763 -0.44283,0.0253 -0.47531,0.22577 -0.22739,1.4033 -2.00034,3.64517 -2.88272,3.64517 -0.58734,0 -1.0679,0.39368 -1.0679,0.87484 0,0.60174 -0.23505,0.63979 -0.75293,0.12191 -0.7811,-0.7811 -0.23321,-3.18385 0.72601,-3.18385 0.30037,0 6.3836,-5.8888 13.5183,-13.08622 7.1347,-7.19742 13.1691,-13.02058 13.40979,-12.94035 0.24068,0.0802 0.4376,-0.13603 0.4376,-0.48057 0,-0.34454 -7.0534,-0.6437 -15.67423,-0.6648 -8.62082,-0.0211 -15.0961,-0.17411 -14.38949,-0.34003 0.7066,-0.16592 1.11639,-0.57405 0.91064,-0.90697 -0.20576,-0.33291 -5.3768,-0.64359 -11.49121,-0.69039 -6.11441,-0.0468 -12.14576,-0.27114 -13.40299,-0.49855 -1.31025,-0.23699 -2.49544,-0.0744 -2.7769,0.38105 -0.32961,0.53333 0.72139,0.79451 3.19716,0.79451 2.02851,0 3.68638,0.24605 3.68415,0.54677 -0.004,0.50467 -10.37205,0.67773 -12.02501,0.20071 -0.40097,-0.11572 0.4192,-0.45209 1.82259,-0.74748 2.04099,-0.42961 1.48528,-0.5563 -2.77691,-0.63307 -3.38932,-0.061 -5.16454,0.16935 -4.87795,0.63307 0.24781,0.40097 0.10314,0.72903 -0.32149,0.72903 -0.42463,0 -0.77206,-0.4921 -0.77206,-1.09355 0,-0.7598 -0.76426,-1.09355 -2.50416,-1.09355 -3.35489,0 -6.6998,-1.29412 -5.76391,-2.23002 0.39477,-0.39477 2.17054,-1.03049 3.94615,-1.41269 l 3.22837,-0.69493 -3.57162,0.34719 c -1.96439,0.19095 -3.99905,0.70193 -4.52147,1.1355 -1.01232,0.84014 -3.93597,0.25977 -3.93597,-0.78132 0,-0.34203 2.21444,-0.85187 4.92098,-1.13297 2.70654,-0.2811 5.24904,-0.77028 5.65001,-1.08707 0.40097,-0.31678 1.71323,-0.71783 2.91614,-0.89121 1.2029,-0.17339 0.38274,-0.32232 -1.82259,-0.33095 -2.20532,-0.009 -5.28118,0.43225 -6.83522,0.97976 -3.23398,1.13938 -4.82932,1.26551 -4.82932,0.38184 0,-0.86835 4.89422,-2.22708 9.93374,-2.75781 2.35533,-0.24806 4.7256,-0.80682 5.26726,-1.2417 1.02478,-0.82277 3.02485,-1.32966 3.02485,-0.76661 0,0.17793 -0.73815,0.59675 -1.64033,0.93073 -1.16169,0.43004 -0.15123,0.62942 3.46291,0.68326 18.14449,0.27034 37.34543,1.12708 38.27428,1.70779 0.74033,0.46285 0.22886,0.54518 -1.58348,0.2549 -1.53057,-0.24514 -2.8759,-0.10697 -3.14142,0.32264 -0.27486,0.44473 -3.19908,0.69518 -7.16493,0.61363 l -6.70053,-0.13776 6.5613,-0.4535 6.5613,-0.45351 -8.14088,-0.13776 c -5.26608,-0.0891 -8.23296,0.1385 -8.40165,0.64456 -0.16647,0.49941 -4.07732,0.8375 -10.814,0.93486 -6.05298,0.0875 -11.14912,0.49473 -11.95062,0.95501 -1.64697,0.94583 -2.54249,0.89207 21.81034,1.3092 9.22228,0.15797 25.21546,0.47921 35.5404,0.71387 16.4595,0.3741 18.77262,0.29077 18.77262,-0.67624 0,-0.61687 -0.64253,-1.10289 -1.45806,-1.10289 -0.80194,0 -1.45807,0.32806 -1.45807,0.72903 0,0.96596 -3.42806,0.9411 -4.02775,-0.0292 -0.30387,-0.49169 0.1936,-0.59205 1.41504,-0.28549 2.01561,0.50589 2.14016,0.3733 1.4177,-1.50938 -0.37171,-0.96866 -0.59067,-1.01759 -1.08238,-0.24189 -0.49444,0.77999 -0.61884,0.75602 -0.62867,-0.12113 -0.0171,-1.52731 18.93208,-57.75166 19.84068,-58.86948 1.06508,-1.31034 2.74929,-1.12221 2.74929,0.30711 0,0.67013 -0.43774,1.73634 -0.97276,2.36936 -0.53503,0.63303 -3.68081,9.31975 -6.99064,19.30384 -3.30984,9.98409 -6.18785,18.5958 -6.39558,19.13714 -0.25005,0.65162 0.20303,0.99209 1.34063,1.00744 1.57632,0.0213 1.61383,0.10254 0.45385,0.98338 -0.69546,0.5281 -1.08368,1.14099 -0.86269,1.36198 0.22098,0.22098 -0.18458,0.35257 -0.90127,0.29243 -1.02361,-0.0859 -1.80497,1.3759 -3.64354,6.81647 -1.28727,3.8092 -2.36309,7.17187 -2.39072,7.47259 -0.0841,0.91574 1.23887,0.6116 2.40283,-0.55236 0.60453,-0.60453 1.27478,-0.81498 1.48944,-0.46766 0.21465,0.34733 2.34571,0.80881 4.73569,1.02553 4.92964,0.447 5.99975,0.89759 5.4617,2.29972 -0.29101,0.75838 -1.05464,0.83049 -3.34502,0.31588 -2.94376,-0.66141 -4.25183,-0.39191 -3.20118,0.65955 0.30049,0.30072 5.19413,0.73529 10.87475,0.9657 l 10.3284,0.41896 -11.30002,0.28159 c -10.56841,0.26336 -10.80441,0.29854 -3.64517,0.54339 4.21017,0.14399 11.04035,0.0417 15.17818,-0.22737 6.69127,-0.43506 7.58474,-0.65521 8.07873,-1.9906 0.48224,-1.3036 0.61663,-1.34193 1.01995,-0.29091 0.36396,0.94847 1.53484,1.23203 5.40839,1.30982 2.71912,0.0546 4.12369,0.26872 3.12127,0.47581 l -1.82258,0.37653 1.82258,0.54507 c 1.5355,0.45922 1.35352,0.55652 -1.1553,0.61774 -2.34604,0.0572 -3.39619,0.54215 -4.94933,2.28528 -1.9546,2.1937 -3.37281,2.31816 -3.37281,0.29598 0,-0.75116 -0.98681,-1.08316 -3.46291,-1.16505 l -3.46291,-0.11454 3.64517,-0.51551 c 2.93354,-0.41487 2.36423,-0.49926 -2.91614,-0.43224 l -6.5613,0.0833 -0.20727,8.32243 c -0.13259,5.32388 0.08,8.60725 0.58997,9.11293 0.57573,0.57086 0.65414,0.38538 0.28223,-0.66758 -0.42306,-1.19775 -0.33966,-1.29537 0.46713,-0.54678 0.54017,0.50121 1.55329,0.9113 2.25137,0.9113 1.70449,0 2.31682,1.16151 1.76707,3.3519 -0.27405,1.09187 -0.78025,1.60966 -1.27483,1.30399 -0.45287,-0.27989 -0.61997,-0.18283 -0.37305,0.2167 0.28847,0.46675 3.36957,0.25722 8.67879,-0.59021 4.52734,-0.72263 10.39147,-1.40767 13.0314,-1.52232 4.15606,-0.18049 4.75581,-0.37956 4.47143,-1.48426 -0.2681,-1.04146 -1.15344,-1.2758 -4.81991,-1.2758 -2.89014,0 -5.07063,-0.40566 -6.11592,-1.13781 -1.86117,-1.30362 -3.81076,-4.73365 -3.78721,-6.6631 0.009,-0.72161 0.61834,0.014 1.35451,1.63467 1.85958,4.09388 4.20424,5.4372 9.49021,5.4372 3.66461,0 4.42147,0.2229 4.79932,1.4134 0.4151,1.30784 0.65546,1.34041 3.21841,0.43615 7.63167,-2.69261 16.17281,-9.13615 14.6086,-11.02091 -0.59367,-0.71533 -0.43145,-1.17831 0.64937,-1.8533 0.79241,-0.49487 1.28437,-1.30728 1.09323,-1.80536 -0.20024,-0.52181 0.34199,-1.00743 1.27947,-1.14587 2.14101,-0.31618 2.47979,-2.02521 2.43218,-12.26933 -0.0571,-12.28982 -3.00665,-33.82165 -6.49135,-47.3872 -5.29203,-20.60132 -14.03841,-35.43478 -23.98932,-40.68482 -3.67001,-1.93627 -3.91002,-1.96271 -17.20904,-1.89564 -7.41792,0.0374 -14.96342,0.41391 -16.76778,0.83666 -2.8653,0.67132 -2.2192,0.75501 5.10323,0.66101 7.24164,-0.093 8.37283,0.0498 8.30271,1.04778 -0.0602,0.85744 0.40974,1.06888 1.82258,0.81992 1.40043,-0.24677 1.69888,-0.11606 1.12884,0.49438 -0.42621,0.45641 -2.8867,0.98268 -5.46776,1.16947 -2.58104,0.18679 -6.30327,0.83867 -8.27159,1.44862 -4.53272,1.40461 -5.40596,1.39741 -3.97578,-0.0328 1.05248,-1.05247 7.50608,-2.53942 11.38198,-2.62248 0.90218,-0.0193 1.64033,-0.34812 1.64033,-0.73065 0,-0.42482 -2.89673,-0.52307 -7.44311,-0.25243 -7.68369,0.45738 -10.28839,1.38159 -13.31305,4.7238 -0.73746,0.81489 -1.86411,1.49146 -2.50366,1.50349 -0.63954,0.012 1.55697,1.38586 4.88116,3.05294 4.30343,2.15817 5.74145,3.20034 4.9935,3.61892 -1.02728,0.57489 -7.51709,-2.08345 -13.86389,-5.6789 -2.48298,-1.4066 -2.6022,-1.58768 -0.98124,-1.49026 1.01484,0.061 1.71449,0.32258 1.55478,0.58129 -0.1597,0.2587 0.19591,0.65698 0.79025,0.88505 0.59434,0.22807 1.01219,0.18043 0.92856,-0.10587 -0.22087,-0.75614 3.95581,-4.96033 5.45504,-5.49096 0.7017,-0.24836 1.27581,-0.7966 1.27581,-1.2183 0,-0.4217 -1.39427,-0.0384 -3.09839,0.85183 -1.70412,0.8902 -3.59049,1.52181 -4.19195,1.40358 -0.60145,-0.11825 -0.82828,0.0542 -0.50407,0.38304 0.32421,0.32892 -0.4038,0.93422 -1.61779,1.34512 -1.62858,0.55122 -4.36345,3.62447 -10.43144,11.72204 -45.67233,60.94862 -48.29785,64.20767 -53.46593,66.36703 -1.35471,0.56604 -3.94995,1.02916 -5.76718,1.02916 -2.65226,0 -3.30845,0.25168 -3.32624,1.2758 -0.0211,1.21506 -0.0575,1.21506 -0.76526,0 -0.63924,-1.0975 -1.9097,-1.2758 -9.09075,-1.2758 -6.18615,0 -8.35056,0.23596 -8.35883,0.91129 -0.009,0.71837 -0.13201,0.72104 -0.58201,0.0126 -0.41688,-0.6563 -7.33065,-1.12198 -25.63398,-1.72659 -23.87744,-0.78874 -25.10877,-0.7655 -26.02773,0.49124 -0.84707,1.15844 -0.96459,1.17298 -0.96459,0.1193 0,-1.74665 -3.95426,-2.26822 -13.59618,-1.79336 -4.7139,0.23216 -8.44078,0.1197 -8.67657,-0.26183 -0.22735,-0.36781 -1.06523,-0.66877 -1.86198,-0.66877 -1.21732,0 -1.44959,0.49476 -1.45462,3.09839 -0.0152,7.82875 -0.74254,14.79754 -1.63803,15.69304 -1.01283,1.01282 -16.52868,1.40085 -18.94459,0.47378 -0.75393,-0.28931 -1.37347,-0.0172 -1.65982,0.72901 -0.40031,1.04317 -0.55905,1.05649 -1.28196,0.10753 -0.67943,-0.89191 -4.04223,-1.13739 -19.05091,-1.39072 -10.02422,-0.1692 -26.59151,-0.73265 -36.81621,-1.25211 -10.2247,-0.51946 -23.4821,-0.87148 -29.46089,-0.78229 -8.0603,0.12026 -11.01624,-0.0736 -11.43418,-0.74982 -0.31001,-0.5016 -0.4019,-1.17371 -0.20421,-1.49358 0.19769,-0.31987 12.64252,-0.58159 27.65518,-0.58159 26.80972,0 27.29574,-0.0259 27.29574,-1.45807 0,-0.80444 0.48603,-1.45806 1.08419,-1.45806 0.8928,0 1.06426,-1.24801 0.97124,-7.06952 -0.0658,-4.11451 -0.34514,-6.47617 -0.66843,-5.65001 -0.30552,0.78072 -0.57854,2.37636 -0.60672,3.54585 -0.0282,1.16949 -0.28393,1.89366 -0.56832,1.60927 -0.28439,-0.28439 -0.42334,-1.81536 -0.30877,-3.40216 l 0.20831,-2.88508 -57.10265,-0.005 c -31.40645,-0.003 -59.23507,-0.1252 -61.84136,-0.27181 -2.6063,-0.14659 -3.50848,-0.1254 -2.00485,0.0471 1.50364,0.1725 2.73388,0.56602 2.73388,0.87449 0,0.30848 0.91201,0.427 2.02667,0.26341 2.51342,-0.36889 24.87526,2.44295 28.91189,3.63546 2.40074,0.70924 20.9059,10.2346 25.19705,12.96995 2.97483,1.89628 6.42967,3.53017 6.83555,3.23272 0.25013,-0.1833 0.30262,-0.12643 0.11664,0.12638 -0.3067,0.41691 16.21328,11.23932 23.30271,15.26586 1.76122,1.00031 4.50414,1.75822 6.92582,1.91372 2.20533,0.1416 4.00969,0.50752 4.00969,0.81314 0,0.30563 0.4921,0.86676 1.09355,1.24696 1.61156,1.01874 -0.877,0.88786 -5.88204,-0.30935 -4.99886,-1.19572 -4.90211,-1.14511 -19.63414,-10.27195 -13.59226,-8.42073 -29.82672,-17.60841 -37.49342,-21.21891 -4.12519,-1.94269 -7.00936,-2.66342 -14.43688,-3.60765 -8.72867,-1.10962 -12.42589,-1.09646 -23.3923,0.0832 -3.82509,0.41148 -4.27904,0.31387 -4.62093,-0.9935 -0.32134,-1.22883 -1.13036,-1.49225 -5.30793,-1.72831 -2.71084,-0.15317 -6.86466,-0.0873 -9.23072,0.14642 -3.80894,0.37623 -4.05128,0.48999 -2.11481,0.99268 1.20291,0.31227 2.51517,0.70547 2.91614,0.87379 0.81777,0.34329 -4.11574,-0.2307 -6.92582,-0.80578 -1.00243,-0.20515 -1.34461,-0.15535 -0.7604,0.11066 1.45293,0.66157 -5.00635,2.55096 -6.8035,1.99008 -0.88384,-0.27584 -1.19259,-0.1443 -0.87342,0.37212 0.30282,0.48999 0.0817,0.64071 -0.57195,0.38987 -0.58608,-0.2249 -2.03782,0.0938 -3.22608,0.70831 -1.18826,0.61447 -2.36609,0.9116 -2.61742,0.66028 -0.25132,-0.25132 -0.45694,-0.0783 -0.45694,0.38442 0,0.46276 -2.21445,1.97546 -4.92098,3.36156 -6.78789,3.47629 -10.95444,6.43839 -10.5811,7.52237 0.17263,0.50121 0.63395,0.91129 1.02518,0.91129 0.39122,0 0.53152,-0.29089 0.31179,-0.64643 -0.52253,-0.84546 1.34609,-2.38006 2.57295,-2.11303 0.52519,0.11431 0.9698,-0.25692 0.98803,-0.82496 0.0182,-0.56804 0.48888,-1.18471 1.04591,-1.37039 0.6927,-0.2309 0.82856,-0.0197 0.42989,0.66829 -0.34414,0.59386 -0.31104,0.75702 0.0808,0.39834 0.36502,-0.33415 0.66367,-0.96294 0.66367,-1.39732 0,-0.43438 0.45574,-0.9417 1.01277,-1.12738 0.62262,-0.20754 0.81355,-0.0152 0.49561,0.49919 -0.28443,0.46022 1.36462,-0.48141 3.66456,-2.09253 2.29994,-1.61111 4.53739,-2.91886 4.97213,-2.90611 0.43474,0.0128 0.23877,0.42284 -0.43548,0.9113 -0.67425,0.48846 -8.62239,6.13715 -17.66252,12.55265 l -16.43661,11.66454 1.80604,1.33662 c 2.25851,1.67148 2.30694,2.67306 0.12925,2.67306 -0.92222,0 -2.04956,0.37279 -2.5052,0.82843 -0.61855,0.61855 -1.49126,0.43735 -3.44472,-0.71522 -2.4842,-1.46571 -2.57817,-1.47242 -1.86131,-0.13296 1.05527,1.97178 8.57539,5.36409 16.81945,7.58722 7.79866,2.10301 22.8453,4.7893 27.29767,4.87347 1.60387,0.0303 3.57226,0.32572 4.3742,0.65646 0.82451,0.34005 -1.58468,0.43237 -5.54444,0.21246 l -7.00251,-0.38888 -0.52485,4.65728 c -0.57885,5.1364 -2.17091,9.14252 -4.33955,10.91967 -0.78657,0.64458 -1.64536,2.58639 -1.93455,4.3742 l -0.52003,3.21505 -0.0912,-3.34992 c -0.0682,-2.50612 0.27715,-3.68331 1.37129,-4.6735 0.80439,-0.72797 1.32383,-1.46228 1.1543,-1.63181 -0.16952,-0.16953 0.26742,-0.88389 0.971,-1.58746 1.77859,-1.77859 3.43196,-10.25891 2.15411,-11.04867 -0.51349,-0.31734 -1.19532,-0.41525 -1.51519,-0.21756 -0.31987,0.19769 -0.58159,0.0543 -0.58159,-0.3187 0,-0.37297 -1.60639,-0.89124 -3.56975,-1.15168 -1.96336,-0.26045 -5.974,-1.10476 -8.91252,-1.87624 -4.0499,-1.06327 -5.47678,-1.19193 -5.89653,-0.53167 -0.48427,0.76173 -0.83767,0.25592 -0.70433,-1.00807 0.0244,-0.23156 -1.61019,-0.95015 -3.63248,-1.59685 l -3.6769,-1.17583 1.34945,1.55243 c 1.29849,1.49378 1.25996,1.49026 -1.0199,-0.0931 -2.11777,-1.47082 -3.46193,-3.03658 -1.64032,-1.91077 0.40097,0.24781 0.72903,0.31621 0.72903,0.15199 0,-0.16421 -1.64033,-1.31825 -3.64517,-2.56453 -2.42908,-1.51 -3.64517,-2.75871 -3.64517,-3.74296 0,-1.37536 -0.31355,-1.44501 -4.55646,-1.01204 -2.50605,0.25573 -4.66582,0.7428 -4.79947,1.08237 -0.34159,0.86786 -2.30861,0.77275 -2.30861,-0.11162 0,-1.2667 -1.79871,-0.78933 -2.74695,0.72903 -0.74598,1.19452 -1.70012,1.45807 -5.2786,1.45807 -3.53001,0 -4.36802,-0.22527 -4.36802,-1.1742 0,-1.80836 -15.218541,-1.20822 -17.10114,0.67438 -2.728074,2.72807 -6.59465,0.44048 -5.080309,-3.00567 0.298051,-0.67828 0.489831,-1.47928 0.426172,-1.78 -0.06365,-0.30073 0.395719,-0.54678 1.020837,-0.54678 0.673474,0 0.924626,0.34294 0.616391,0.84168 -0.32488,0.52566 -0.199705,0.6436 0.333379,0.31414 0.469462,-0.29014 0.634063,-0.8827 0.365786,-1.31679 -0.268285,-0.4341 0.117134,-1.23159 0.856476,-1.77221 1.877685,-1.373 -0.0581,-1.23565 -2.180015,0.15467 -1.453745,0.95253 -1.983366,0.98331 -3.255005,0.18916 -0.83532,-0.52167 -1.51876,-1.68973 -1.51876,-2.5957 0,-0.90598 -0.147884,-1.64722 -0.328634,-1.64722 -0.700958,0 -8.210131,1.55577 -11.153649,2.31083 -2.932013,0.75212 -3.984199,2.1589 -2.363768,3.16038 0.455821,0.28171 0.319601,0.86905 -0.358925,1.54758 -0.601453,0.60145 -1.424131,0.88924 -1.828177,0.63952 -0.404045,-0.24972 -0.734625,-0.1066 -0.734625,0.31803 0,0.42464 -0.675494,0.77207 -1.501095,0.77207 -0.825602,0 -1.300655,0.32431 -1.055685,0.72068 0.24672,0.3992 -0.01735,0.54312 -0.591932,0.32261 -0.570534,-0.21892 -1.227,0.0962 -1.458804,0.70026 -0.251589,0.65564 -0.06911,0.99091 0.452701,0.83183 2.843392,-0.86684 4.883849,-1.05539 4.883849,-0.4513 0,0.38159 -0.738147,0.91874 -1.640326,1.19367 -3.102127,0.94534 -4.11571,2.41938 -3.647524,5.30451 0.237891,1.46592 0.786824,3.0668 1.219856,3.55752 1.591655,1.80368 2.567321,2.7882 3.716519,3.75025 1.811832,1.51676 0.75046,1.81054 -1.791717,0.49594 -1.253275,-0.6481 -2.098575,-1.46979 -1.878436,-1.82597 0.220132,-0.35618 0.06685,-0.85368 -0.340685,-1.10553 -0.407508,-0.25185 -0.740924,-0.008 -0.740924,0.54226 0,1.11422 2.948672,4.05634 6.014529,6.00117 1.650934,1.04726 2.004843,1.08538 2.004843,0.21588 0,-0.58074 -0.169179,-1.22507 -0.375948,-1.43184 -0.206776,-0.20678 -0.484844,-3.54679 -0.617936,-7.42225 -0.133086,-3.87547 -0.170201,-6.9596 -0.08247,-6.85364 0.208489,0.25182 2.593232,14.71558 2.73368,16.58014 0.05949,0.7897 0.449071,1.57862 0.865743,1.75315 0.416672,0.17454 2.002211,0.84964 3.523427,1.50023 l 2.765845,1.18289 -1.209365,-1.84573 c -1.549379,-2.36465 -0.02231,-2.52838 1.91561,-0.20539 1.989343,2.38464 1.870183,4.42081 -0.223405,3.81754 -4.244924,-1.22317 -12.224294,-5.61073 -15.733754,-8.65142 -2.137826,-1.85226 -4.148064,-3.36775 -4.467198,-3.36775 -1.031649,0 -2.253046,1.97321 -1.860684,3.00599 0.209721,0.55203 -1.110343,2.9011 -2.933476,5.22017 -3.109572,3.95544 -4.713018,4.73856 -4.713018,2.3018 0,-0.57779 -0.463069,-1.05052 -1.029042,-1.05052 -0.572337,0 -0.937801,0.56622 -0.823457,1.27581 0.373917,2.32042 -0.52866,2.60493 -1.473805,0.46456 -0.915251,-2.07267 -0.930386,-2.04953 -0.988686,1.51274 l -0.0592,3.61763 2.080818,-2.49249 c 2.070154,-2.4797 2.085232,-2.48423 2.941786,-0.88375 1.197945,2.23838 1.788317,2.04039 4.033836,-1.35281 1.456818,-2.2014 2.370515,-2.90311 3.559789,-2.73388 1.466313,0.20866 1.617624,0.69454 1.81178,5.81802 l 0.21185,5.59035 10.359141,-0.0609 c 5.69753,-0.0335 11.015271,0.1323 11.817208,0.3684 0.801937,0.2361 1.69095,0.45438 1.97558,0.48506 0.284629,0.0307 0.924786,1.45005 1.422571,3.15417 0.87285,2.9881 1.730675,4.15722 3.067592,4.18078 0.348405,0.006 0.453313,-3.18747 0.233116,-7.09692 l -0.400357,-7.10808 0.99694,5.46776 c 0.548321,3.00726 1.017527,6.36368 1.042693,7.45871 0.03346,1.45693 0.485733,2.08363 1.68608,2.3365 6.257808,1.31827 8.82251,1.66578 10.00718,1.35599 0.74593,-0.19507 1.9571,-0.0133 2.69148,0.40398 0.79751,0.45313 5.83355,0.7013 12.50496,0.61626 9.78945,-0.12479 11.25786,-0.30004 11.88302,-1.41819 z m -3.00431,-0.42905 c 0,-0.34301 0.65613,-1.38019 1.45807,-2.30483 1.3358,-1.54019 1.45806,-1.56425 1.45806,-0.28692 0,0.76685 -0.65613,1.80402 -1.45806,2.30484 -0.80194,0.50081 -1.45807,0.62993 -1.45807,0.28691 z m 16.91626,-0.8136 c 0.48943,-0.78371 0.99203,-1.32276 1.11688,-1.1979 0.43215,0.43215 -0.69504,2.62281 -1.34954,2.62281 -0.36147,0 -0.25677,-0.64121 0.23266,-1.42491 z m 16.25478,-0.0332 c -0.24782,-0.40097 -0.10315,-0.72904 0.32148,-0.72904 0.42464,0 0.77207,0.32807 0.77207,0.72904 0,0.40096 -0.14467,0.72903 -0.32149,0.72903 -0.17682,0 -0.52425,-0.32807 -0.77206,-0.72903 z m -56.40883,-2.06729 c -1.02281,-1.85581 -0.54319,-3.05042 0.71826,-1.78898 0.43189,0.43189 0.65811,1.39422 0.50273,2.1385 -0.25354,1.21443 -0.37879,1.17858 -1.22099,-0.34952 z m 42.01041,-0.60264 c 0.50121,-0.20224 1.32137,-0.20224 1.82258,0 0.50121,0.20224 0.0911,0.36772 -0.91129,0.36772 -1.00242,0 -1.4125,-0.16548 -0.91129,-0.36772 z m 149.62391,-6.59164 c -0.19483,-2.48757 -0.0894,-4.25675 0.23425,-3.93153 0.32367,0.32523 0.48307,2.36051 0.35424,4.52285 l -0.23426,3.93153 -0.35423,-4.52285 z m -1.30566,0.87768 c -0.0149,-1.20291 0.13637,-1.78326 0.33608,-1.28969 0.19969,0.49358 0.21185,1.47778 0.027,2.1871 -0.18484,0.70933 -0.34823,0.30549 -0.36308,-0.89741 z m -164.76165,-1.45804 c -0.0149,-1.20291 0.13638,-1.78326 0.33608,-1.28968 0.1997,0.49357 0.21185,1.47777 0.0271,2.1871 -0.18484,0.70933 -0.34823,0.30548 -0.36309,-0.89742 z m 83.33225,1.09355 c 1.99127,-0.85568 2.55162,-0.85568 2.55162,0 0,0.40097 -0.90218,0.70597 -2.00484,0.67779 -1.77654,-0.0454 -1.83881,-0.12259 -0.54678,-0.67779 z m -52.11476,-0.86825 c 0.006,-0.52488 0.32918,-1.44642 0.71788,-2.04787 0.57454,-0.88904 0.70879,-0.79483 0.71787,0.50375 0.006,0.87851 -0.31691,1.80005 -0.71787,2.04787 -0.40097,0.24781 -0.72401,0.0211 -0.71788,-0.50375 z m -29.44312,-3.44751 c -0.27873,-1.74307 -0.33187,-3.34413 -0.11809,-3.55792 0.21379,-0.21378 0.3887,-0.006 0.3887,0.46185 0,0.4678 0.46999,0.85054 1.04442,0.85054 1.35999,0 2.24976,2.82971 1.2151,3.86436 -0.58258,0.58259 -0.81544,0.51277 -0.8527,-0.25564 -0.0314,-0.64817 -0.26775,-0.50331 -0.61094,0.37446 -0.44107,1.12813 -0.66713,0.75981 -1.06649,-1.73765 z m -67.165018,1.39964 c -0.247814,-0.40097 -0.1225,-0.72904 0.278469,-0.72904 0.400968,0 0.931785,0.32807 1.179598,0.72904 0.247813,0.40097 0.1225,0.72903 -0.278469,0.72903 -0.400968,0 -0.931785,-0.32806 -1.179598,-0.72903 z m 283.287758,-1.09355 c -0.0539,-1.37873 0.48241,-1.47045 9.85597,-1.68559 5.45213,-0.12513 10.72228,-0.53521 11.71144,-0.91129 0.98916,-0.37607 3.17139,-0.6856 4.84941,-0.68784 4.04376,-0.005 8.50129,-1.28942 9.00151,-2.59295 0.72517,-1.88978 1.591,-1.09628 1.04388,0.95669 -0.44396,1.66591 -1.14197,2.14811 -4.12889,2.85231 -6.32152,1.49038 -13.56317,2.16459 -22.72783,2.116 -5.30438,-0.0281 -9.05291,0.2485 -9.23762,0.6817 -0.17098,0.40097 -0.33653,0.0729 -0.36787,-0.72903 z m -198.56316,-1.31267 c -0.36856,-0.96045 -1.38704,-1.23895 -4.53088,-1.23895 -4.55707,0 -5.52211,-0.9814 -4.07917,-4.14832 0.82763,-1.81645 1.00751,-1.8592 6.48906,-1.54187 3.1008,0.1795 6.28758,0.70744 7.08172,1.1732 1.24266,0.72881 1.11368,0.78507 -0.92546,0.40368 -1.33167,-0.24907 -2.36936,-0.1375 -2.36936,0.25473 0,0.4002 -1.71033,0.55606 -4.00969,0.36537 -3.70597,-0.30732 -4.00968,-0.21523 -4.00968,1.21583 0,1.85127 0.93913,1.91492 6.92582,0.46938 5.66642,-1.36822 7.65485,-1.37867 7.65485,-0.0403 0,1.40198 -2.27762,2.57727 -4.99456,2.57727 -1.19585,0 -2.30544,0.39349 -2.46575,0.87443 -0.18231,0.54694 -0.46953,0.41042 -0.7669,-0.36452 z m -1.8055,-6.12877 c -0.90686,-0.17438 -2.21912,-0.16776 -2.91614,0.0147 -0.69702,0.18247 0.045,0.32515 1.64883,0.31705 1.60387,-0.008 2.17416,-0.15739 1.26731,-0.33177 z m -58.381358,3.43175 c 0,-1.00242 0.165476,-1.4125 0.367718,-0.91129 0.202241,0.50121 0.202241,1.32137 0,1.82258 -0.202242,0.50121 -0.367718,0.0911 -0.367718,-0.91129 z m 24.378808,-0.53625 c -0.87759,-0.87759 -0.39876,-1.65085 1.02227,-1.65085 0.80194,0 1.45807,0.29297 1.45807,0.65103 0,0.81947 -1.89631,1.58386 -2.48034,0.99982 z m 77.38856,0.0534 c 0.50121,-0.20224 1.32137,-0.20224 1.82259,0 0.50121,0.20225 0.0911,0.36772 -0.9113,0.36772 -1.00242,0 -1.4125,-0.16547 -0.91129,-0.36772 z m -60.99902,-1.27901 c -0.0316,-0.76851 0.14064,-1.1991 0.3829,-0.95685 0.24225,0.24225 0.26815,0.87104 0.0575,1.39731 -0.23272,0.58158 -0.40547,0.40883 -0.44045,-0.44046 z m 1.45806,0 c -0.0316,-0.76851 0.14065,-1.1991 0.38291,-0.95685 0.24225,0.24225 0.26814,0.87104 0.0575,1.39731 -0.23272,0.58158 -0.40548,0.40883 -0.44046,-0.44046 z m 27.64573,-1.51882 c -1.36022,-1.40339 -2.16272,-2.52793 -1.78334,-2.49898 0.65703,0.0502 5.16164,5.0506 4.54978,5.0506 -0.16132,0 -1.40622,-1.14823 -2.76644,-2.55162 z m 191.02308,1.43053 c -0.009,-0.41612 0.98401,-1.89241 2.2065,-3.28065 1.2225,-1.38825 1.88797,-1.86795 1.47881,-1.06602 -1.12705,2.20904 -3.66693,5.20471 -3.68531,4.34667 z M 88.278053,543.51704 c -0.583023,-1.40754 0.123855,-2.99104 1.073276,-2.40427 0.345555,0.21356 0.83435,0.0549 1.086202,-0.35263 0.251852,-0.40751 0.848639,-0.73001 1.326186,-0.71667 0.477546,0.0133 0.180997,0.59884 -0.658989,1.30111 -0.839992,0.70227 -1.70397,1.75757 -1.919969,2.3451 -0.324835,0.88362 -0.481548,0.85378 -0.906706,-0.17264 z m 284.864877,-1.02215 c 0.24225,-0.24225 0.87105,-0.26814 1.39732,-0.0575 0.58157,0.23272 0.40883,0.40548 -0.44046,0.44045 -0.76852,0.0316 -1.19911,-0.14065 -0.95686,-0.3829 z m 48.30447,-0.25433 c -0.58656,-0.94906 1.92381,-6.04706 3.17871,-6.45527 0.6133,-0.19949 0.81199,-0.004 0.50375,0.49418 -0.30409,0.49203 0.022,0.84348 0.80981,0.87295 1.12544,0.0421 1.08758,0.16121 -0.25821,0.8122 -1.44827,0.70058 -2.92312,3.53623 -1.81761,3.49468 1.52751,-0.0575 16.2538,-4.29449 15.02275,-4.32237 -2.06533,-0.0468 -3.2442,-1.41771 -3.2442,-3.77275 0,-2.42198 1.71448,-4.28047 3.94877,-4.28047 3.32933,0 5.37169,4.57394 2.94255,6.58994 -0.82649,0.68592 -0.89819,1.07829 -0.2682,1.46764 0.96103,0.59394 0.39801,0.80006 -5.89409,2.15774 -2.20532,0.47586 -6.09465,1.4887 -8.64294,2.25076 -5.3233,1.59192 -5.69864,1.63319 -6.28109,0.69077 z m 19.88356,-9.0577 c -0.13743,-0.96313 -0.84148,-1.63567 -1.86439,-1.78093 -2.16554,-0.3075 -3.08175,1.91677 -1.32014,3.20488 1.72394,1.26059 3.45699,0.48566 3.18453,-1.42395 z m 16.54697,6.42496 c 8.67702,-2.25779 12.77458,-3.00725 11.95368,-2.18635 -0.6896,0.6896 -17.52537,4.78085 -19.41747,4.71864 -1.1075,-0.0364 2.2512,-1.17595 7.46379,-2.53229 z m -364.881432,0.77591 c 0,-0.62855 0.657946,-1.09355 1.547331,-1.09355 1.292752,0 1.398017,0.17993 0.639771,1.09355 -0.499162,0.60146 -1.195463,1.09355 -1.547331,1.09355 -0.351875,0 -0.639771,-0.49209 -0.639771,-1.09355 z m 400.239572,0.072 c 0,-0.16088 1.23025,-0.98968 2.73388,-1.84176 l 2.73388,-1.54926 -2.0455,1.84176 c -1.82188,1.64041 -3.42226,2.3649 -3.42226,1.54925 z m -386.57019,-0.951 c 0.90218,-0.17377 2.37848,-0.17377 3.28065,0 0.90218,0.17377 0.16404,0.31594 -1.64032,0.31594 -1.80436,0 -2.54251,-0.14217 -1.64033,-0.31594 z m 48.29849,0.22798 c 0,-0.15758 0.50914,-0.48189 1.13142,-0.72068 0.64878,-0.24896 0.94141,-0.12674 0.686,0.28652 -0.42813,0.69272 -1.81742,1.0246 -1.81742,0.43415 z m 187.72621,-1.10157 c -3.73423,-2.18805 -3.13718,-5.33755 1.19208,-6.28842 5.6744,-1.24631 8.72903,3.40004 4.09342,6.22642 -2.77972,1.69483 -2.50433,1.6916 -5.2855,0.062 z m 5.3971,-2.53647 c 0.99951,-1.20434 -0.32455,-1.90772 -3.59111,-1.90772 -2.18852,0 -3.29613,0.9556 -2.53502,2.1871 0.67115,1.08594 5.16302,0.88109 6.12613,-0.27938 z m 25.58684,3.19551 c 0,-0.40097 0.32807,-0.72903 0.72904,-0.72903 0.40097,0 0.72903,0.32806 0.72903,0.72903 0,0.40097 -0.32806,0.72904 -0.72903,0.72904 -0.40097,0 -0.72904,-0.32807 -0.72904,-0.72904 z M 91.537614,538.37889 c 4.45e-4,-0.30073 4.675746,-0.49162 10.389546,-0.42422 11.14746,0.1315 10.11157,0.44377 -2.552432,0.76944 -4.310865,0.11086 -7.837566,-0.0445 -7.837114,-0.34522 z m 57.791926,-0.2582 c 0.24226,-0.24225 0.87105,-0.26815 1.39732,-0.0575 0.58157,0.23272 0.40883,0.40547 -0.44046,0.44045 -0.76852,0.0316 -1.19911,-0.14065 -0.95686,-0.3829 z m 205.3901,-0.65309 c 0.49917,-0.60145 1.0716,-1.09355 1.27209,-1.09355 0.20048,0 -0.0439,0.4921 -0.54305,1.09355 -0.49917,0.60145 -1.0716,1.09355 -1.27209,1.09355 -0.20048,0 0.0439,-0.4921 0.54305,-1.09355 z m 22.33641,0 c 0.23081,-0.60145 0.54857,-1.09355 0.70616,-1.09355 0.15758,0 0.28652,0.4921 0.28652,1.09355 0,0.60145 -0.31778,1.09355 -0.70616,1.09355 -0.38838,0 -0.51732,-0.4921 -0.28652,-1.09355 z m 95.03804,-0.0214 c 0.60145,-0.74363 0.6918,-1.11083 0.20077,-0.816 -0.53096,0.3188 -2.38922,-0.64682 -4.58525,-2.38269 -3.17526,-2.50989 -3.95038,-2.82067 -5.53373,-2.21868 -2.58785,0.98389 -3.1594,0.82552 -1.11379,-0.30864 l 1.72608,-0.957 -2.31152,-1.64596 -2.31152,-1.64594 -4.5178,3.48003 c -5.49429,4.23223 -6.44278,5.10347 -4.51781,4.14985 1.74036,-0.86216 6.92583,-1.86546 6.92583,-1.34003 0,0.81338 -7.51979,2.55694 -8.54744,1.98184 -0.82752,-0.46311 0.16197,-1.57046 4.22265,-4.72561 2.91688,-2.26642 5.92009,-4.12077 6.6738,-4.12077 0.7537,0 3.98785,1.96839 7.187,4.3742 3.19914,2.40581 6.32311,4.3742 6.94216,4.3742 1.42004,0 1.05849,2.29723 -0.43943,2.79203 -0.97204,0.32109 -0.97204,0.21099 0,-0.99083 z m -321.84311,-1.47708 c -1.1056,-1.02464 -1.80587,-2.06727 -1.55618,-2.31697 0.24971,-0.24969 1.47337,0.58864 2.71926,1.86297 2.69367,2.75515 1.72703,3.13246 -1.16308,0.454 z m 220.0684,0.003 c -0.45967,-1.83147 1.15939,-3.94881 2.99063,-3.91099 0.40096,0.008 -0.009,0.52995 -0.9113,1.15928 -2.02643,1.41357 -2.12396,2.43388 -0.19716,2.06281 1.48045,-0.28511 1.72571,1.00171 0.37942,1.99081 -1.25437,0.92157 -1.77939,0.61935 -2.26159,-1.30191 z m 76.65632,-6.12051 c 1.38509,-4.18851 2.51834,-7.84505 2.51834,-8.12544 0,-0.28038 -1.62954,-1.55546 -3.6212,-2.83351 -4.57309,-2.93454 -9.54611,-6.95026 -7.86336,-6.34969 1.55814,0.55612 11.96847,7.53499 12.48388,8.36895 0.52788,0.85412 -3.30659,12.68976 -4.79347,14.79579 -0.80063,1.13401 -0.34688,-0.94866 1.27581,-5.8559 z m -349.503503,5.03997 c -0.946606,-0.7884 -2.361668,-1.43362 -3.144585,-1.43362 -1.166833,0 -1.382307,-0.4272 -1.195047,-2.36936 0.184621,-1.91478 0.578124,-2.40721 2.051035,-2.56663 1.002421,-0.1085 2.894126,0.46403 4.203791,1.2723 1.910909,1.17932 2.348999,1.89226 2.218139,3.60974 -0.0897,1.1771 -0.4231,1.97948 -0.74089,1.78307 -0.31779,-0.1964 -0.5778,-0.01 -0.5778,0.41496 0,1.12952 -0.869668,0.91006 -2.814643,-0.71026 z m 430.210723,0.97997 c 0.7017,-0.18336 1.84992,-0.18336 2.55162,0 0.70169,0.18338 0.12758,0.33341 -1.27581,0.33341 -1.40339,0 -1.9775,-0.15003 -1.27581,-0.33341 z m -149.26968,-0.95557 c 0.24782,-0.40097 1.00533,-0.72401 1.68336,-0.71787 1.0624,0.01 1.08164,0.10884 0.13923,0.71787 -1.42772,0.92267 -2.39282,0.92267 -1.82259,0 z m 122.03828,-0.65415 c 0.82494,-0.82494 1.32335,-1.95992 1.10759,-2.52219 -0.21577,-0.56228 0.3957,-1.64217 1.35882,-2.39975 2.11338,-1.66238 3.67283,-4.3941 3.06754,-5.37349 -0.24236,-0.39213 0.0704,-2.70744 0.69482,-5.14512 1.32103,-5.15645 0.86467,-9.90714 -1.00882,-10.50176 -0.68006,-0.21584 -2.29057,-1.17013 -3.57891,-2.12063 -1.64501,-1.21366 -2.0415,-1.84368 -1.33169,-2.11606 0.55836,-0.21426 1.84468,0.56251 2.87398,1.73552 2.22626,2.53708 3.63048,2.74161 3.31643,0.48305 -0.14925,-1.07341 0.14986,-1.64032 0.86547,-1.64032 0.60974,0 0.97039,0.4838 0.81518,1.09355 -0.49906,1.96054 -0.59104,5.10178 -0.15121,5.16398 0.23627,0.0334 1.10706,0.13816 1.93511,0.23276 2.10808,0.24083 29.86441,19.24741 29.15054,19.96128 -0.16821,0.16822 -6.83058,-4.1274 -14.80526,-9.5458 l -14.49941,-9.85166 -1.32102,3.76328 c -0.72656,2.0698 -1.38322,5.23958 -1.45924,7.04393 -0.15564,3.69431 -1.32378,6.99283 -2.63074,7.42849 -0.48025,0.16008 -1.2396,1.42473 -1.68745,2.81034 -0.57467,1.77799 -1.31407,2.59006 -2.51293,2.75988 l -1.69868,0.24061 1.49988,-1.49989 z m -313.66296,0.10506 c -0.18664,-0.30199 2.3365,-0.45364 5.60698,-0.33698 9.35665,0.33372 10.25853,0.6578 2.16194,0.77684 -4.08626,0.0601 -7.58228,-0.13785 -7.76892,-0.43986 z m 42.90178,0.0886 c 5.22979,-0.54302 11.30258,-0.58941 11.30135,-0.0863 -7.3e-4,0.30073 -3.03593,0.49428 -6.74489,0.43011 -3.70896,-0.0642 -5.75937,-0.21887 -4.55646,-0.34377 z m 12.02906,-0.43895 c 0,-0.30727 4.18283,-0.52062 9.29518,-0.47411 5.11235,0.0465 8.80308,0.19612 8.20163,0.33245 -2.39225,0.54226 -17.49681,0.66455 -17.49681,0.14166 z m 229.0632,-0.37642 c -0.34856,-0.70169 -1.54371,-3.82408 -2.6559,-6.93863 -2.17084,-6.07922 -2.05645,-6.79944 1.38834,-8.74058 0.88459,-0.49847 3.16873,-2.05454 5.07587,-3.45793 l 3.46753,-2.55162 -7.4951,-0.36451 -7.4951,-0.36452 -1.90432,-6.5613 c -1.04738,-3.60872 -2.08854,-7.05341 -2.31368,-7.65486 -0.22515,-0.60145 -1.49385,2.43315 -2.81935,6.74356 l -2.40997,7.83712 -8.07797,-0.1484 c -7.46763,-0.13717 -7.60976,-0.16476 -1.88118,-0.36508 7.24223,-0.25325 9.47744,-0.6709 9.47744,-1.77088 0,-2.04508 4.67061,-15.23516 5.31832,-15.01925 0.40306,0.13435 1.91383,3.83657 3.35726,8.22717 l 2.62445,7.98289 7.16285,0.11552 c 3.93957,0.0636 7.38402,0.3367 7.65435,0.60703 0.27033,0.27032 -0.57449,1.44396 -1.87736,2.60807 -1.30287,1.16412 -2.36885,2.46863 -2.36885,2.89891 0,0.43029 -0.3188,0.58531 -0.70844,0.3445 -1.002,-0.61927 -4.4808,1.80994 -3.91139,2.73127 0.259,0.41907 0.1585,0.56886 -0.22332,0.33288 -1.60129,-0.98965 -2.5558,0.70651 -2.00349,3.56022 0.5173,2.67284 0.58433,2.73286 1.13669,1.01776 0.48745,-1.51354 0.5295,-1.41865 0.248,0.55954 -0.19972,1.40351 0.24921,3.87439 1.09277,6.01453 1.37206,3.48092 1.46449,5.0198 0.14155,2.35659 z m -95.59245,-0.36452 c -0.0651,-1.44272 1.04845,-1.70621 1.83464,-0.43413 0.30746,0.49748 0.20145,0.64469 -0.25922,0.35998 -0.42868,-0.26494 -0.94557,-0.0695 -1.14864,0.43413 -0.22275,0.5525 -0.39206,0.4097 -0.42678,-0.35998 z m 50.2637,0.48603 c 0.0661,-2.46506 5.70097,-15.79616 5.78212,-13.67952 0.0177,0.46222 -1.0562,3.65573 -2.3865,7.09669 -2.26832,5.86727 -3.43721,8.13329 -3.39562,6.58283 z m -46.65498,-1.00433 c -0.58984,-0.37302 -0.89395,-0.8567 -0.67581,-1.07485 0.21814,-0.21815 1.0288,0.0816 1.80147,0.66621 1.53707,1.16287 0.60309,1.50193 -1.12566,0.40864 z m 78.18295,0.2601 c 0.24226,-0.24225 0.87105,-0.26814 1.39732,-0.0575 0.58157,0.23272 0.40883,0.40548 -0.44046,0.44045 -0.76852,0.0316 -1.19911,-0.14065 -0.95686,-0.3829 z m -97.57083,-0.94095 c 0.2712,-0.43882 1.17054,-1.16041 1.99854,-1.60354 1.07864,-0.57727 1.36565,-0.57949 1.01234,-0.008 -0.2712,0.43882 -1.17054,1.16041 -1.99854,1.60354 -1.07864,0.57727 -1.36564,0.57949 -1.01234,0.008 z m -72.99462,-4.08634 c -0.004,-2.40581 0.12866,-3.4779 0.29501,-2.38242 0.16634,1.09548 0.16969,3.06388 0.007,4.3742 -0.16225,1.31033 -0.29835,0.41403 -0.30244,-1.99178 z m -161.52464,2.70469 c -1.95465,-0.39832 -1.76756,-4.52728 0.20513,-4.52728 1.76281,0 2.43516,1.37129 1.64378,3.35252 -0.33866,0.84783 -1.095,1.3284 -1.84891,1.17476 z m 170.97362,0.1355 c 0.24225,-0.24225 0.87104,-0.26815 1.39731,-0.0575 0.58158,0.23272 0.40883,0.40547 -0.44046,0.44045 -0.76852,0.0316 -1.1991,-0.14065 -0.95685,-0.3829 z m 42.08907,-0.47083 c 0.004,-1.53295 8.87872,-5.66705 14.57812,-6.79113 1.40339,-0.27679 3.19873,-0.95343 3.98965,-1.50365 0.7909,-0.55022 2.59526,-1.01084 4.00968,-1.02359 1.41442,-0.0128 3.20848,-0.50485 3.98681,-1.09355 1.27755,-0.96629 0.81678,-1.0603 -4.73872,-0.96691 -4.5784,0.077 -5.4073,0.22133 -3.23773,0.56389 2.65006,0.41842 2.41723,0.50835 -2.55162,0.98567 -3.00727,0.28889 -6.78002,0.68011 -8.38389,0.86939 -2.53377,0.29901 -2.62936,0.2631 -0.72903,-0.27385 2.09391,-0.59164 2.10944,-0.62483 0.36451,-0.77886 -3.62853,-0.32029 3.01758,-1.37348 16.3804,-2.59577 9.37417,-0.85744 13.17579,-0.97008 13.36714,-0.39604 0.14706,0.44119 0.64945,0.5633 1.11641,0.27135 0.46696,-0.29195 1.17709,-0.59871 1.57806,-0.68168 5.8806,-1.21686 7.65485,-1.42305 7.65485,-0.88956 0,0.3492 -0.51146,0.6349 -1.13657,0.6349 -0.62512,0 -0.93977,0.31845 -0.69922,0.70766 0.24054,0.38922 -0.47824,0.92538 -1.5973,1.19147 -1.11907,0.2661 -2.52676,0.87029 -3.12821,1.34265 -0.60145,0.47237 -2.47889,1.4583 -4.17208,2.19096 -1.69319,0.73265 -2.94752,1.54407 -2.7874,1.80314 0.16012,0.25908 -0.31683,0.47105 -1.05989,0.47105 -2.09418,0 -0.90958,-1.12822 3.18773,-3.03601 3.13457,-1.45953 3.42015,-1.74169 1.76882,-1.74766 -2.38519,-0.009 -9.35887,1.75356 -11.52297,2.91175 -0.86179,0.46121 -1.9825,0.67909 -2.49048,0.48416 -0.50797,-0.19492 -2.36871,0.30726 -4.13498,1.11596 -1.76626,0.80871 -5.12943,1.93071 -7.47371,2.49333 -2.34427,0.56263 -4.95978,1.51148 -5.81222,2.10856 -0.85245,0.59707 -2.29707,1.08559 -3.21028,1.08559 -0.9132,0 -1.66037,0.32807 -1.66037,0.72904 0,0.40097 -0.32806,0.72903 -0.72903,0.72903 -0.40097,0 -0.72789,-0.41008 -0.72648,-0.91129 z m 12.19489,-10.52943 c -0.70933,-0.18484 -1.69353,-0.17269 -2.1871,0.0271 -0.49358,0.1997 0.0868,0.35093 1.28968,0.33607 1.2029,-0.0149 1.60675,-0.17824 0.89742,-0.36308 z m 19.68391,-1.45807 c -0.70933,-0.18484 -1.69352,-0.17268 -2.1871,0.027 -0.49358,0.1997 0.0868,0.35093 1.28968,0.33608 1.20291,-0.0149 1.60675,-0.17825 0.89742,-0.36309 z m -81.97618,8.8891 c 0.006,-2.00484 0.14706,-2.73847 0.31463,-1.6303 0.16758,1.10818 0.16309,2.7485 -0.01,3.64517 -0.17305,0.89667 -0.31015,-0.0101 -0.30468,-2.01487 z m 20.403,-1.09355 c 0,-1.80435 0.14217,-2.5425 0.31594,-1.64032 0.17377,0.90218 0.17377,2.37847 0,3.28065 -0.17377,0.90218 -0.31594,0.16403 -0.31594,-1.64033 z m 1.2595,2.3225 c 0,-0.34178 0.41009,-0.62846 0.9113,-0.63707 1.76801,-0.0304 9.66914,-1.85057 10.38873,-2.39327 0.40097,-0.30241 2.36936,-0.77083 4.3742,-1.04095 2.00485,-0.2701 5.12147,-0.79096 6.92582,-1.15743 3.61989,-0.73523 4.25979,-0.76763 -8.01937,0.40607 -2.75868,0.26369 -2.99824,0.19335 -1.50566,-0.44204 0.97624,-0.41559 2.25393,-0.57184 2.83931,-0.34721 0.58537,0.22463 1.59099,-0.0494 2.2347,-0.60907 0.71167,-0.6187 3.59905,-1.16362 7.36716,-1.39037 5.74135,-0.34548 6.00926,-0.30147 3.64517,0.59885 l -2.55162,0.97173 3.28065,-0.34544 c 2.83147,-0.29816 3.03111,-0.23702 1.45807,0.44647 -1.96355,0.85318 -3.24804,1.13244 -18.22585,3.96243 -5.41307,1.02278 -10.5801,2.0259 -11.48228,2.22916 -0.90218,0.20326 -1.64033,0.0899 -1.64033,-0.25186 z m 55.40658,-1.59346 c 0.60145,-0.38869 1.74968,-0.70671 2.55162,-0.70671 1.20738,0 1.27004,0.12151 0.36451,0.70671 -0.60145,0.38869 -1.74968,0.7067 -2.55162,0.7067 -1.20738,0 -1.27005,-0.1215 -0.36451,-0.7067 z m 14.44141,-0.8404 c 0.71113,-0.92219 0.72366,-1.27341 0.0534,-1.49685 -0.48169,-0.16056 0.67278,-0.88334 2.56549,-1.60618 4.06231,-1.5514 5.27748,-1.07566 1.78012,0.69693 -1.34041,0.67937 -3.08759,1.76977 -3.88261,2.42312 -1.33998,1.10118 -1.37767,1.09994 -0.51635,-0.017 z m 57.0039,-0.61767 c -2.33611,-2.33611 -1.504,-5.58484 1.74305,-6.80528 3.85138,-1.44758 6.62265,4.72972 3.19797,7.12846 -2.1414,1.49989 -3.18629,1.43155 -4.94102,-0.32318 z m 4.37421,-1.82258 c 0.72406,-0.87245 0.72406,-1.31466 0,-2.18711 -1.82183,-2.19516 -4.41866,-0.51559 -3.38153,2.18711 0.23079,0.60145 0.88185,1.09355 1.44679,1.09355 0.56495,0 1.43557,-0.4921 1.93474,-1.09355 z m -69.06077,2.11115 c 0.24225,-0.24225 0.87105,-0.26814 1.39731,-0.0575 0.58157,0.23273 0.40883,0.40548 -0.44046,0.44046 -0.76852,0.0316 -1.19911,-0.14066 -0.95685,-0.38291 z M 256.82623,508.86708 c -8.35002,-10.90844 -11.28099,-15.24283 -10.69329,-15.81347 0.97885,-0.95043 1.74703,-0.0772 14.57607,16.57049 8.9606,11.62774 10.62011,14.41195 8.53142,14.31335 -0.50122,-0.0236 -6.0876,-6.80533 -12.4142,-15.07037 z m 11.86742,12.65104 c 0,-0.15139 -0.57411,-0.7255 -1.27581,-1.27581 -1.15629,-0.90683 -1.18208,-0.88104 -0.27525,0.27525 0.95238,1.21439 1.55106,1.60058 1.55106,1.00056 z m -2.1871,-2.91614 c 0,-0.15138 -0.57412,-0.7255 -1.27581,-1.27581 -1.15629,-0.90682 -1.18208,-0.88103 -0.27525,0.27526 0.95238,1.21438 1.55106,1.60058 1.55106,1.00055 z m -2.1871,-2.8924 c 0,-0.13835 -0.73815,-0.87649 -1.64033,-1.64033 l -1.64033,-1.3888 1.38881,1.64032 c 1.30513,1.5415 1.89185,1.97222 1.89185,1.38881 z m -2.91614,-3.6689 c 0,-0.15139 -0.57411,-0.7255 -1.27581,-1.27581 -1.15629,-0.90683 -1.18207,-0.88104 -0.27525,0.27525 0.95239,1.21439 1.55106,1.60058 1.55106,1.00056 z m -2.1871,-2.91614 c 0,-0.15138 -0.57411,-0.7255 -1.27581,-1.27581 -1.15629,-0.90682 -1.18208,-0.88103 -0.27525,0.27526 0.95238,1.21438 1.55106,1.60058 1.55106,1.00055 z m -2.91614,-3.64517 c 0,-0.15138 -0.57411,-0.7255 -1.2758,-1.27581 -1.1563,-0.90682 -1.18208,-0.88103 -0.27526,0.27526 0.95239,1.21439 1.55106,1.60058 1.55106,1.00055 z m -2.1871,-2.91613 c 0,-0.15139 -0.57411,-0.7255 -1.27581,-1.27581 -1.15629,-0.90683 -1.18207,-0.88104 -0.27525,0.27525 0.95239,1.21439 1.55106,1.60058 1.55106,1.00056 z m -4.3742,-5.55702 c -1.27029,-1.60387 -2.47366,-2.91613 -2.67414,-2.91613 -0.20048,0 0.67482,1.31226 1.94511,2.91613 1.27029,1.60387 2.47365,2.91614 2.67414,2.91614 0.20048,0 -0.67482,-1.31227 -1.94511,-2.91614 z m 139.30302,25.21242 c -0.0316,-0.76852 0.14065,-1.19911 0.3829,-0.95686 0.24225,0.24225 0.26815,0.87104 0.0575,1.39732 -0.23272,0.58157 -0.40547,0.40883 -0.44045,-0.44046 z M 69.424407,522.03638 c -0.267315,-0.26731 -0.486025,-0.82502 -0.486025,-1.23936 0,-0.45681 0.339562,-0.41377 0.862687,0.10936 0.474485,0.47448 0.693195,1.03219 0.486025,1.23935 -0.207169,0.20717 -0.59538,0.15796 -0.862687,-0.10935 z m 247.803923,-0.95307 c 0.43909,-0.43909 1.53799,-0.463 2.87968,-0.0626 2.14418,0.6398 2.13585,0.64813 -0.71006,0.71006 -1.86847,0.0407 -2.63034,-0.18668 -2.16962,-0.6474 z m 8.47577,-3.08091 c -0.48117,-0.48117 -0.87484,-1.19348 -0.87484,-1.58293 0,-0.38944 -0.57412,-1.35596 -1.27581,-2.1478 -0.92801,-1.04723 -0.9918,-1.34915 -0.23402,-1.10746 1.17425,0.37451 4.77499,5.71303 3.85335,5.71303 -0.32662,0 -0.98752,-0.39368 -1.46868,-0.87484 z m 304.22582,0.1458 c -0.24782,-0.40097 -0.10315,-0.72903 0.32149,-0.72903 0.42463,0 0.77206,0.32806 0.77206,0.72903 0,0.40097 -0.14467,0.72904 -0.32149,0.72904 -0.17682,0 -0.52425,-0.32807 -0.77206,-0.72904 z M 431.2682,517.82671 c 0,-0.17682 0.32806,-0.52425 0.72903,-0.77206 0.40097,-0.24781 0.72903,-0.10314 0.72903,0.32149 0,0.42463 -0.32806,0.77206 -0.72903,0.77206 -0.40097,0 -0.72903,-0.14467 -0.72903,-0.32149 z m -116.45801,-1.69254 c 0.14685,-1.9494 0.7422,-2.06252 2.09269,-0.39764 0.8346,1.02891 0.83589,1.13433 0.008,0.63563 -0.61012,-0.36741 -1.22996,-0.21413 -1.60806,0.39764 -0.43758,0.70801 -0.57977,0.52445 -0.49238,-0.63563 z m 7.84659,-0.51997 c -0.57503,-0.69286 -0.63034,-1.11117 -0.14692,-1.11117 0.88108,0 1.90832,1.38313 1.40274,1.88871 -0.1835,0.1835 -0.74862,-0.16639 -1.25582,-0.77754 z m 303.99248,-0.44727 c -1.57017,-1.28433 -1.60103,-1.38251 -0.22285,-0.70891 0.87985,0.43004 1.80138,1.10819 2.04786,1.507 0.65801,1.06468 0.21609,0.87142 -1.82501,-0.79809 z m -551.557009,-1.0516 c 1.606492,-1.21509 2.594537,-1.37478 2.594537,-0.41933 0,0.70121 -1.773011,1.55059 -3.158022,1.51288 -0.468411,-0.0128 -0.214846,-0.50485 0.563485,-1.09355 z m 4.052604,0.0582 c 0,-0.70549 0.33973,-1.00461 0.81054,-0.71363 0.445804,0.27552 1.096904,0.0489 1.446906,-0.50375 0.503296,-0.7946 0.6387,-0.73791 0.647528,0.27112 0.0058,0.70169 -0.126043,1.2758 -0.293728,1.2758 -0.167692,0 -0.823822,0.19913 -1.458067,0.44252 -0.76717,0.29439 -1.153179,0.0359 -1.153179,-0.77206 z m 353.581405,0.50808 c 0,-0.40097 0.4921,-1.13744 1.09355,-1.6366 0.61002,-0.50627 1.09356,-0.58521 1.09356,-0.17854 0,0.40097 -0.4921,1.13744 -1.09356,1.6366 -0.61001,0.50627 -1.09355,0.58521 -1.09355,0.17854 z m 211.78433,-3.8237 c 0.72575,-0.80194 1.48357,-1.45807 1.68406,-1.45807 0.20048,0 -0.22928,0.65613 -0.95502,1.45807 -0.72575,0.80193 -1.48357,1.45806 -1.68406,1.45806 -0.20048,0 0.22928,-0.65613 0.95502,-1.45806 z m -442.15902,-0.19495 c 0,-0.88583 -1.1738,-1.2395 -5.28549,-1.59254 -2.90703,-0.2496 -8.07405,-0.72609 -11.48229,-1.05887 l -6.19679,-0.60507 4.73872,-0.2227 4.73872,-0.22271 -4.73872,-0.47737 c -3.53421,-0.35603 -1.82011,-0.50935 6.74357,-0.6032 9.66452,-0.10591 11.48228,-0.29895 11.48228,-1.21938 0,-1.41896 2.26842,-1.40059 10.57099,0.0856 5.10147,0.91319 9.72429,1.09975 20.77747,0.83853 7.81888,-0.18478 12.90389,-0.10478 11.30002,0.17779 l -2.91613,0.51375 2.91613,0.20273 c 2.02839,0.14102 2.3613,0.29013 1.09355,0.48981 -1.00242,0.15789 -2.64275,0.50512 -3.64517,0.77162 -1.55868,0.4144 -1.34755,0.55372 1.45807,0.96222 l 3.28065,0.47766 -3.64517,0.22404 -3.64517,0.22403 3.64517,0.52861 c 2.12249,0.3078 -2.44556,0.48835 -10.9355,0.43224 -8.01938,-0.053 -18.10738,0.198 -22.4178,0.55778 -6.89767,0.57574 -7.83711,0.51765 -7.83711,-0.48458 z m 2.86489,-1.79483 c 0.0469,1.18069 0.62683,1.24292 6.79481,0.72904 3.70896,-0.30902 10.64234,-0.4935 15.40751,-0.40997 7.63925,0.13392 8.50148,0.0289 7.29034,-0.8881 -0.94307,-0.71402 -3.43016,-1.05171 -7.93492,-1.07735 -3.60871,-0.0206 -9.83608,-0.50125 -13.8386,-1.06823 -5.00768,-0.70936 -7.42436,-0.7929 -7.74886,-0.26785 -0.30215,0.48889 -0.61356,0.40598 -0.86678,-0.23077 -0.28118,-0.70705 -0.41181,-0.63528 -0.45276,0.24872 -0.047,1.01551 -0.95655,1.28909 -4.97854,1.49753 l -4.92098,0.25504 4.92098,0.14279 c 4.12387,0.11966 4.92927,0.34945 4.97222,1.4186 0.0438,1.09095 0.14203,1.06455 0.67779,-0.18226 0.54417,-1.26634 0.63329,-1.28833 0.67779,-0.16719 z m 33.03153,-2.17101 c -0.90686,-0.17438 -2.21912,-0.16776 -2.91614,0.0147 -0.69702,0.18247 0.045,0.32515 1.64883,0.31705 1.60387,-0.008 2.17416,-0.15739 1.26731,-0.33177 z m 195.93634,4.29308 c 0,-0.88108 1.38312,-1.90832 1.88871,-1.40274 0.1835,0.1835 -0.1664,0.74862 -0.77754,1.25582 -0.69286,0.57503 -1.11117,0.63034 -1.11117,0.14692 z m 180.80039,-0.86133 c -0.60145,-0.38869 -0.76548,-0.7067 -0.36451,-0.7067 0.40096,0 1.22113,0.31801 1.82258,0.7067 0.60145,0.38869 0.76549,0.70671 0.36452,0.70671 -0.40097,0 -1.22113,-0.31802 -1.82259,-0.70671 z M 318.2936,508.71871 c -0.97967,-1.83053 -0.94277,-2.99878 0.0413,-1.3084 0.41343,0.71013 1.05958,1.10084 1.4359,0.86827 0.37633,-0.23259 0.68423,0.0886 0.68423,0.71369 0,1.5803 -1.25425,1.42155 -2.16145,-0.27356 z m 117.74557,-1.50599 c 0.62966,-2.21982 2.4275,-5.83227 2.9026,-5.83227 1.05612,0 0.0293,3.5917 -1.56311,5.46775 -1.79284,2.11213 -1.83876,2.12463 -1.33949,0.36452 z m 32.18131,0.1889 c -3.51649,-0.2194 -4.19753,-0.47523 -3.9997,-1.50247 0.13113,-0.68093 0.47998,-1.15604 0.77522,-1.05579 0.29523,0.10024 1.93106,0.23153 3.63518,0.29175 l 3.09839,0.1095 -3.28065,0.51004 -3.28065,0.51004 3.82743,0.1095 c 2.10508,0.0602 3.82742,0.43756 3.82742,0.83853 0,0.40096 -0.082,0.667 -0.18225,0.59118 -0.10025,-0.0758 -2.08942,-0.25684 -4.42039,-0.40228 z m 5.33168,-0.14588 c 0,-0.42463 0.32806,-0.77206 0.72903,-0.77206 0.40097,0 0.72904,0.14467 0.72904,0.32149 0,0.17682 -0.32807,0.52425 -0.72904,0.77206 -0.40097,0.24782 -0.72903,0.10315 -0.72903,-0.32149 z m 132.12888,-3.46006 c 0.69702,-0.18247 2.00928,-0.18909 2.91614,-0.0147 0.90685,0.17438 0.33656,0.32368 -1.26731,0.33177 -1.60388,0.008 -2.34585,-0.13459 -1.64883,-0.31706 z m -83.28361,-1.00383 c 0,-0.3753 2.84323,-0.68237 6.31829,-0.68237 3.47506,0 6.1816,0.12387 6.01453,0.27528 -0.7215,0.65381 -12.33282,1.0371 -12.33282,0.40709 z m 72.16628,-5.80068 c -0.43362,-0.81022 -0.64372,-1.7124 -0.46689,-2.00484 0.17683,-0.29244 0.55972,-16.49363 0.85087,-36.00265 l 0.52936,-35.47095 -2.00312,-1.04954 c -1.66521,-0.87249 -1.79667,-1.12876 -0.77929,-1.51917 0.71059,-0.27268 1.04009,-0.17233 0.78569,0.23929 -0.27267,0.4412 1.49499,0.62359 4.68073,0.48296 2.81538,-0.12427 5.4847,1.4e-4 5.93182,0.27647 1.33481,0.82497 0.48776,3.94285 -1.13722,4.1859 -0.80193,0.11995 -2.19621,0.3756 -3.09839,0.56811 l -1.64033,0.35002 0,19.30551 0,19.30551 2.52598,0 c 1.74818,0 2.75753,0.43269 3.27803,1.40525 1.243,2.32257 0.18079,3.69798 -2.85592,3.69798 l -2.72817,0 -0.4707,7.10808 c -0.25889,3.90945 -0.4724,10.14269 -0.47448,13.85165 -0.003,5.43455 -0.21106,6.74356 -1.07167,6.74356 -0.58735,0 -1.42268,-0.66291 -1.8563,-1.47314 z m 2.01114,-61.04151 c -0.12386,-5.51332 -0.22519,-1.00242 -0.22519,10.02421 0,11.02664 0.10133,15.53754 0.22519,10.02422 0.12385,-5.51332 0.12385,-14.53511 0,-20.04843 z m 4.01145,-10.87156 c -0.50121,-0.20224 -1.32137,-0.20224 -1.82258,0 -0.50121,0.20224 -0.0911,0.36772 0.91129,0.36772 1.00242,0 1.41251,-0.16548 0.91129,-0.36772 z m -0.0456,-2.20229 c -0.52627,-0.21059 -1.15507,-0.1847 -1.39732,0.0575 -0.24225,0.24225 0.18834,0.41455 0.95686,0.3829 0.84929,-0.035 1.02203,-0.20773 0.44046,-0.44045 z m -36.16276,73.50028 c -0.24717,-0.39994 -0.13032,-0.92437 0.25967,-1.16541 0.39001,-0.24102 0.50363,-0.97364 0.25253,-1.62803 -0.30266,-0.78871 -0.17248,-1.01422 0.38617,-0.66896 0.46351,0.28647 0.74642,1.15199 0.6287,1.9234 -0.27306,1.78926 -0.95046,2.47196 -1.52707,1.539 z m 81.643,-2.20132 c -0.21903,-0.35441 -0.91043,-4.20917 -1.53645,-8.56615 -0.62601,-4.35697 -1.33674,-8.41387 -1.57941,-9.01533 -0.24266,-0.60145 -0.38462,-1.58564 -0.31548,-2.1871 0.0691,-0.60145 -0.52829,-5.35027 -1.32763,-10.55294 -0.91536,-5.9578 -1.1976,-9.71512 -0.76248,-10.15024 1.06842,-1.06842 4.44196,0.72704 3.9203,2.08646 -0.2346,0.61134 -0.72023,0.93003 -1.07918,0.70818 -0.35895,-0.22184 -0.65264,-0.0559 -0.65264,0.3687 0,0.42464 0.36632,0.77207 0.81406,0.77207 0.45938,0 0.6453,0.64535 0.42672,1.4812 -0.51501,1.96939 1.26647,13.84423 2.16748,14.44788 0.95676,0.64098 1.7958,3.02579 1.06457,3.02579 -0.32156,0 -0.61473,0.57412 -0.65148,1.27581 -0.0738,1.40855 1.05187,10.85648 1.73719,14.58068 0.3391,1.84279 0.1845,2.36936 -0.69566,2.36936 -0.62241,0 -1.31087,-0.28997 -1.52991,-0.64437 z m 0.75266,-3.53239 c -0.24225,-0.24225 -0.41456,0.18834 -0.3829,0.95686 0.035,0.84929 0.20773,1.02203 0.44045,0.44046 0.21059,-0.52628 0.1847,-1.15507 -0.0575,-1.39732 z m -1.45807,-10.20647 c -0.24225,-0.24225 -0.41456,0.18834 -0.3829,0.95686 0.035,0.84928 0.20773,1.02203 0.44045,0.44046 0.2106,-0.52628 0.1847,-1.15507 -0.0575,-1.39732 z m -1.45807,-9.47744 c -0.24225,-0.24225 -0.41455,0.18834 -0.3829,0.95686 0.035,0.84928 0.20773,1.02203 0.44045,0.44046 0.2106,-0.52628 0.1847,-1.15507 -0.0575,-1.39732 z m -0.72903,-5.10324 c -0.24225,-0.24225 -0.41456,0.18834 -0.3829,0.95686 0.035,0.84929 0.20773,1.02203 0.44045,0.44046 0.2106,-0.52628 0.1847,-1.15507 -0.0575,-1.39732 z m -83.73258,27.75203 c 0.50121,-0.20224 1.32138,-0.20224 1.82259,0 0.50121,0.20224 0.0911,0.36772 -0.91129,0.36772 -1.00243,0 -1.41251,-0.16548 -0.9113,-0.36772 z m -133.95992,-1.66125 c 0,-0.42463 0.32806,-0.77206 0.72903,-0.77206 0.40097,0 0.72903,0.14467 0.72903,0.32149 0,0.17682 -0.32806,0.52425 -0.72903,0.77206 -0.40097,0.24781 -0.72903,0.10314 -0.72903,-0.32149 z m 17.17916,-0.25673 c 0.27377,-0.71899 0.68142,-1.1236 0.90588,-0.89914 0.22447,0.22446 4.7e-4,0.81272 -0.49777,1.30726 -0.72001,0.71464 -0.80374,0.6309 -0.40811,-0.40812 z m 45.92518,-1.5857 c 0.77833,-0.58869 2.23531,-1.06795 3.23773,-1.06501 1.65915,0.005 1.60261,0.10086 -0.63047,1.07036 -3.15052,1.36782 -4.41931,1.36522 -2.60726,-0.005 z M 286.0082,487.77499 c 0.50121,-0.20224 1.32138,-0.20224 1.82259,0 0.50121,0.20224 0.0911,0.36772 -0.91129,0.36772 -1.00243,0 -1.41251,-0.16548 -0.9113,-0.36772 z m 5.83227,0 c 0.50122,-0.20224 1.32138,-0.20224 1.82259,0 0.50121,0.20224 0.0911,0.36772 -0.91129,0.36772 -1.00242,0 -1.41251,-0.16548 -0.9113,-0.36772 z m -92.08326,-1.77343 c -0.22902,-0.37056 1.9018,-0.65988 4.85994,-0.65988 2.89728,0 5.13107,0.11963 4.96401,0.26585 -0.73068,0.63947 -9.45597,0.98943 -9.82395,0.39403 z m 419.96623,-9.40829 5.10324,-0.47156 -5.83227,-0.24948 -5.83227,-0.24948 5.46775,-0.47038 c 3.00727,-0.25872 5.95985,-0.69778 6.56131,-0.97569 0.60145,-0.27792 3.55404,-0.2185 6.5613,0.13203 l 5.46775,0.63733 -5.10323,0.20408 c -4.72894,0.18911 -4.86262,0.23697 -1.82259,0.65252 3.10184,0.42399 2.9667,0.47763 -2.47935,0.98405 -3.16801,0.29459 -7.43285,0.47769 -9.47744,0.40688 -3.46759,-0.12009 -3.37446,-0.16043 1.3858,-0.6003 z m -2.35417,-2.62756 c 0.24225,-0.24225 0.87105,-0.26814 1.39732,-0.0575 0.58157,0.23272 0.40882,0.40547 -0.44046,0.44045 -0.76852,0.0316 -1.19911,-0.14065 -0.95686,-0.3829 z m -10.19941,-11.36892 c -0.42085,-0.52179 -0.99522,-2.0243 -1.27638,-3.33891 -0.38556,-1.80271 -0.27186,-2.34027 0.4626,-2.1871 0.77284,0.16118 1.01512,-2.14619 1.17406,-11.18153 l 0.20028,-11.38463 -1.84061,0.35184 c -1.57912,0.30188 -1.84059,0.0876 -1.84059,-1.50825 0,-5.11422 4.20291,-8.76912 9.63339,-8.37728 3.039,0.21928 3.13092,0.3006 3.35131,2.9652 0.16219,1.96075 -0.0969,2.86388 -0.91129,3.17639 -1.67013,0.64089 -1.71231,25.42042 -0.0443,26.06048 1.12123,0.43025 1.55844,4.48443 0.54678,5.07005 -0.30073,0.17409 -2.37901,0.53835 -4.61839,0.80949 -2.95871,0.35823 -4.28077,0.23366 -4.8368,-0.45575 z m 8.5439,-1.99019 c 0,-0.37233 -0.4921,-1.16905 -1.09355,-1.77051 -0.89559,-0.89559 -1.09355,-3.61045 -1.09355,-14.99726 0,-11.87285 0.15973,-13.90372 1.09355,-13.90372 0.68043,0 1.09355,-0.68853 1.09355,-1.82259 0,-1.55613 -0.33381,-1.82258 -2.28332,-1.82258 -3.19734,0 -7.19412,2.60952 -7.19412,4.69708 0,1.37972 0.30958,1.60285 1.82258,1.31362 l 1.82259,-0.34841 0,13.1296 c 0,10.99823 -0.17752,13.19772 -1.09355,13.54924 -0.60146,0.2308 -1.09356,0.92202 -1.09356,1.53606 0,0.86723 0.89502,1.11643 4.00969,1.11643 2.20533,0 4.00969,-0.30463 4.00969,-0.67696 z m 4.07352,0.94496 c -0.26062,-0.67917 -0.26118,-3.11462 -10e-4,-5.41212 0.44934,-3.97159 0.71969,-4.42247 5.4905,-9.15672 l 5.0179,-4.97945 0,-5.30505 c 2e-4,-5.13769 -0.0559,-5.30504 -1.77837,-5.30504 -1.529,0 -1.81033,0.38363 -2.00484,2.73387 -0.22064,2.66579 -0.2989,2.73388 -3.14241,2.73388 -2.86108,0 -2.92051,-0.0534 -3.14799,-2.82766 -0.47075,-5.74108 2.69075,-9.20429 8.39728,-9.19867 3.45697,0.004 7.3242,2.28855 7.92516,4.683 0.25053,0.99815 0.34134,4.93677 0.20183,8.7525 l -0.25367,6.93768 -4.92098,4.95779 c -2.70654,2.72679 -4.92098,5.18124 -4.92098,5.45434 0,0.2731 2.37848,0.59293 5.2855,0.71074 l 5.28549,0.21419 0,2.91614 0,2.91613 -8.47956,0.20465 c -7.41268,0.1789 -8.53917,0.0493 -8.95341,-1.0302 z m 16.33942,-2.1252 c 0,-1.83943 -0.0506,-1.85514 -5.28549,-1.64033 -5.08819,0.20878 -5.29468,0.15192 -5.53152,-1.52315 -0.18926,-1.3385 0.90422,-2.89889 4.73872,-6.76208 l 4.98474,-5.02206 0.2533,-6.92684 c 0.19666,-5.37786 -10e-4,-7.31588 -0.88659,-8.66654 -1.32377,-2.02033 -4.61805,-2.93506 -8.17029,-2.26865 -2.83248,0.53137 -4.68354,3.26925 -4.68354,6.92736 0,1.87083 0.28197,2.22331 1.77857,2.22331 1.529,0 1.81033,-0.38363 2.00484,-2.73388 0.22064,-2.66579 0.2989,-2.73388 3.14241,-2.73388 l 2.91613,0 0.21328,6.10961 0.21328,6.1096 -5.13426,5.29498 c -5.11953,5.27979 -5.13425,5.3067 -5.13425,9.38237 l 0,4.08738 7.29034,0 7.29033,0 0,-1.8572 z m -49.37574,-22.92995 c 0,-1.80436 0.14218,-2.5425 0.31594,-1.64032 0.17378,0.90218 0.17378,2.37847 0,3.28065 -0.17376,0.90218 -0.31594,0.16403 -0.31594,-1.64033 z m -1.91131,-10.54764 c -0.22586,-0.58861 -0.0969,-1.26411 0.28652,-1.50109 0.38346,-0.237 0.6972,0.2446 0.6972,1.0702 0,1.7603 -0.40542,1.93789 -0.98372,0.43089 z m -5.00693,-15.12785 c 1.30391,-1.59116 3.80355,-2.16027 3.80355,-0.86599 0,0.56391 -0.24605,1.02977 -0.54678,1.03525 -0.30072,0.006 -1.36694,0.2264 -2.36936,0.49094 -1.58912,0.41938 -1.70279,0.33481 -0.88741,-0.6602 z m -309.681,149.51909 c 1.56444,-1.27901 1.61607,-1.44135 0.36451,-1.14618 -0.80193,0.18914 -2.11419,0.59825 -2.91613,0.90915 -0.80194,0.31091 0.51032,-1.53824 2.91613,-4.10922 3.94768,-4.21871 4.40975,-4.51653 4.73872,-3.0543 0.6281,2.7918 3.64024,-0.76216 3.64966,-4.30617 0.002,-0.92854 0.47512,-2.59043 1.05032,-3.69309 0.5752,-1.10267 0.79798,-2.00485 0.49505,-2.00485 -0.30292,0 -1.10188,-1.15568 -1.77545,-2.56818 -0.67357,-1.4125 -1.97806,-2.85462 -2.89886,-3.2047 -0.92081,-0.35009 -2.11096,-1.1628 -2.64478,-1.80602 -1.05634,-1.27281 -5.16627,-1.62321 -5.16627,-0.44047 0,0.40097 0.34621,0.72903 0.76936,0.72903 1.50441,0 4.37097,7.66611 4.16489,11.13821 -0.10755,1.81188 -0.40721,3.1655 -0.66592,3.00806 -0.25871,-0.15743 -0.66503,0.221 -0.90294,0.84098 -0.2477,0.64548 -0.12456,0.93687 0.28812,0.68182 0.39638,-0.24497 0.72069,-0.17097 0.72069,0.16444 0,1.1201 -2.24292,3.82932 -3.86481,4.66829 -1.32795,0.68692 -1.22773,0.40647 0.58416,-1.63468 l 2.1871,-2.46385 -2.55162,2.18592 c -1.40339,1.20225 -2.87968,2.51451 -3.28065,2.91613 -1.21723,1.2192 -6.61092,1.24588 -9.4805,0.0469 -1.4869,-0.62127 -2.94834,-0.97823 -3.24764,-0.79326 -0.2993,0.18498 -1.16663,-0.13483 -1.9274,-0.71069 -1.8576,-1.40609 -2.47676,-1.34976 -2.47676,0.22535 0,0.7253 -0.48166,1.95554 -1.07036,2.73387 -1.4878,1.96705 -1.40765,2.21131 1.0611,3.2339 1.19781,0.49615 1.96728,1.24277 1.70994,1.65915 -0.25734,0.41639 -0.17116,0.58744 0.19152,0.38012 0.36268,-0.20732 3.11991,-0.17005 6.12717,0.0828 5.9036,0.49645 10.12459,-0.62145 13.85165,-3.66849 z m -217.075111,-0.0742 c 0.22351,-0.67053 3.397406,-0.85005 12.636585,-0.71475 6.785964,0.0994 13.732388,0.37554 15.436504,0.61369 3.049753,0.42621 3.098394,0.39886 3.098394,-1.74267 0,-2.16096 -0.0347,-2.1791 -5.132405,-2.68141 -3.469902,-0.34192 -8.070726,-0.0971 -14.203424,0.75572 -7.745438,1.07712 -9.499025,1.12021 -11.99989,0.29485 -2.858541,-0.9434 -3.948901,-2.93291 -2.199838,-4.01389 1.07983,-0.66737 0.891666,-1.37029 -0.619433,-2.31398 -1.185944,-0.74064 -1.577568,-0.41794 -3.249352,2.67748 -1.668467,3.08925 -1.766952,3.63077 -0.805459,4.42873 0.602488,0.50002 0.939069,1.31659 0.747967,1.8146 -0.191101,0.49801 -0.151355,1.10158 0.08833,1.34126 0.817254,0.81727 5.902002,0.44043 6.202021,-0.45963 z m 222.907381,-0.19812 c 0.49916,-0.60146 0.74353,-1.09355 0.54305,-1.09355 -0.20049,0 -0.77292,0.49209 -1.27209,1.09355 -0.49916,0.60145 -0.74353,1.09355 -0.54305,1.09355 0.20049,0 0.77293,-0.4921 1.27209,-1.09355 z m -30.00741,-2.22141 c 0.46533,-1.02128 0.84605,-2.53775 0.84605,-3.36992 0,-1.30999 -0.15795,-1.38193 -1.17711,-0.53611 -1.00862,0.83709 -1.37092,0.73755 -2.53125,-0.69539 -1.28423,-1.58595 -2.85294,-1.59527 -2.85294,-0.017 0,0.40097 0.36321,0.50455 0.80714,0.2302 0.54899,-0.3393 0.6503,0.055 0.31676,1.23278 -0.33557,1.18497 -0.27393,1.41937 0.19528,0.7425 0.81089,-1.16978 1.97205,0.15692 1.2127,1.38557 -0.47628,0.77065 0.85345,2.8842 1.81457,2.8842 0.28751,0 0.90347,-0.83559 1.3688,-1.85688 z m -202.766393,-1.5143 c -0.250263,-0.25027 0.130388,-0.98841 0.845883,-1.64033 1.099485,-1.00179 1.235778,-1.97545 0.880294,-6.28854 -0.645851,-7.83594 -0.898607,-8.04244 -7.009573,-5.72686 -4.642903,1.7593 -8.046463,3.63303 -5.531231,3.04505 0.551332,-0.12888 1.168007,0.22142 1.370387,0.77844 0.253179,0.69682 0.05417,0.83094 -0.637905,0.42989 -0.593863,-0.34413 -0.757028,-0.31104 -0.398343,0.0808 0.334145,0.36501 0.962936,0.66366 1.397317,0.66366 0.43438,0 0.9417,0.45575 1.127378,1.01278 0.23009,0.69027 0.01728,0.82952 -0.668284,0.43729 -0.553227,-0.31652 0.124701,0.62201 1.506505,2.08562 2.470251,2.61649 3.478578,3.36842 2.590862,1.93207 -0.674145,-1.09079 0.790258,-0.87937 1.726994,0.24933 0.446584,0.5381 0.578773,1.21158 0.293749,1.4966 -0.28503,0.28503 0.05927,0.29661 0.765165,0.0257 0.705873,-0.27086 1.231142,-0.20619 1.167256,0.14373 -0.190343,1.04265 0.02515,1.72977 0.542547,1.72977 0.267308,0 0.281262,-0.20476 0.03098,-0.45502 z m -6.783077,-5.55951 -1.388802,-1.64033 1.640326,1.3888 c 1.541498,1.30513 1.972212,1.89185 1.388802,1.89185 -0.138341,0 -0.876488,-0.73814 -1.640326,-1.64032 z m 533.88905,5.10323 c -0.66288,-0.50121 -1.46943,-1.64527 -1.79234,-2.54236 l -0.58712,-1.63108 -0.95244,1.5251 c -0.52385,0.83882 -0.64401,1.33449 -0.26702,1.10149 0.37698,-0.23298 1.2722,0.22479 1.98939,1.01727 0.71719,0.79248 1.6439,1.44088 2.05936,1.44088 0.41546,0 0.21303,-0.41009 -0.44983,-0.9113 z M 58.731908,550.4444 c 0,-3.08746 -0.269692,-5.3019 -0.59931,-4.92098 -4.501164,5.20168 -6.135066,8.66039 -4.746938,10.04852 0.267312,0.26731 1.579573,0.48602 2.916135,0.48602 l 2.430113,0 0,-5.61356 z m 193.923002,5.36204 c 0,-0.13834 -0.73815,-0.87649 -1.64033,-1.64033 l -1.64033,-1.3888 1.38881,1.64033 c 1.30513,1.54149 1.89185,1.97221 1.89185,1.3888 z m 320.04585,-1.97705 c -0.81787,-0.55956 -0.48573,-0.66302 1.31755,-0.41037 1.63752,0.22942 2.3198,0.0637 2.12652,-0.51647 -0.22665,-0.68038 -6.36021,-1.42244 -6.36021,-0.76949 0,0.56981 2.43143,2.46501 3.15047,2.45567 0.51216,-0.007 0.41751,-0.31337 -0.23433,-0.75934 z m 1.92523,-2.87467 c 0.19136,0 0.14517,-0.32806 -0.10265,-0.72903 -0.71792,-1.16162 -2.55161,-0.84361 -2.55161,0.44252 0,0.76878 0.39645,1.01941 1.15317,0.72903 0.63425,-0.24339 1.30974,-0.44252 1.50109,-0.44252 z m -322.15334,-2.68964 c -0.7017,-0.18337 -1.84993,-0.18337 -2.55162,0 -0.7017,0.18337 -0.12758,0.33341 1.27581,0.33341 1.40339,0 1.9775,-0.15004 1.27581,-0.33341 z m 324.40187,-0.95552 c -0.1194,-1.585 -2.26842,-1.96036 -4.17376,-0.72904 -0.85532,0.55275 -0.66618,0.70914 0.86827,0.71787 1.07899,0.006 2.16457,0.33923 2.41238,0.7402 0.69692,1.12763 1.0135,0.86922 0.89311,-0.72903 z M 261.9357,546.63103 c -0.0583,-0.77416 -0.37134,-1.24359 -0.69562,-1.04318 -0.32427,0.20042 -0.37912,0.70493 -0.12188,1.12115 0.30184,0.48838 -0.14642,0.58285 -1.26392,0.26639 -1.33526,-0.37814 -1.48131,-0.31513 -0.63807,0.27524 1.696,1.18742 2.83604,0.92767 2.71949,-0.6196 z m 305.95707,-0.12705 c -0.76384,-0.84403 -1.30678,-1.66419 -1.20654,-1.82258 0.10024,-0.15839 0.0182,-0.28798 -0.18226,-0.28798 -1.90225,0 -1.90225,0.28592 0,1.84518 2.68428,2.20028 3.23512,2.30554 1.3888,0.26538 z m -303.57332,-5.28754 c 0,-0.92627 -0.33674,-0.51268 -1.39954,1.71891 -0.81845,1.71853 -0.80327,1.7418 0.26577,0.40744 0.62357,-0.77833 1.13377,-1.73519 1.13377,-2.12635 z m 200.30204,2.67444 c -0.70169,-0.18337 -1.84992,-0.18337 -2.55161,0 -0.7017,0.18337 -0.12759,0.3334 1.2758,0.3334 1.40339,0 1.97751,-0.15003 1.27581,-0.3334 z m -413.908955,-2.4136 c 0.07138,0.76167 0.292636,0.65104 0.729034,-0.36451 0.89024,-2.07171 0.847708,-3.11354 -0.0744,-1.82259 -0.632186,0.88506 -0.715213,0.79092 -0.435478,-0.49373 0.313071,-1.43773 0.181661,-1.51256 -1.394826,-0.79427 -1.979605,0.90197 -2.110197,1.44478 -0.837755,3.48228 0.834661,1.33651 0.940703,1.3495 1.406826,0.17237 0.38963,-0.98396 0.527398,-1.02474 0.606604,-0.17955 z m 513.454975,-0.91129 c -0.21182,-1.10266 -0.66466,-2.00484 -1.0063,-2.00484 -0.34164,0 -0.43595,0.57411 -0.20959,1.27581 0.22637,0.70169 0.55186,1.73285 0.72332,2.29145 0.53005,1.7269 0.89939,0.55537 0.49257,-1.56242 z M 34.691762,539.74557 c -1.344346,-1.34434 -0.78576,-3.30393 1.257838,-4.4126 1.794298,-0.97342 1.842152,-1.09071 0.455646,-1.11683 -0.852058,-0.016 -2.625586,-0.24447 -3.941178,-0.50759 l -2.391975,-0.4784 0.408915,4.30583 c 0.24594,2.58975 0.166417,3.72472 -0.199529,2.84775 -0.444601,-1.06543 -0.622245,-1.14723 -0.659688,-0.30376 -0.07969,1.79534 0.559147,2.02629 3.288146,1.18873 1.726447,-0.52986 2.291813,-1.01314 1.781825,-1.52313 z m 4.631719,-0.82969 c 1.452352,-0.60683 2.640648,-1.45375 2.640648,-1.88204 0,-0.42829 -1.230244,-0.0389 -2.733876,0.86542 -4.272605,2.5695 -4.248649,2.83077 0.09323,1.01662 z m -9.981056,-4.55518 c -0.18247,-0.69702 -0.325149,0.045 -0.317057,1.64883 0.0081,1.60388 0.157391,2.17416 0.331769,1.26731 0.174378,-0.90685 0.167758,-2.21911 -0.01473,-2.91614 z m 9.705569,1.59753 c 0,-0.20049 -0.65613,-0.0133 -1.458068,0.41582 -0.801937,0.42918 -1.458067,0.94437 -1.458067,1.14485 0,0.20048 0.65613,0.0133 1.458067,-0.41582 0.801938,-0.42918 1.458068,-0.94437 1.458068,-1.14485 z m 6.272731,-0.11577 c -0.242258,-0.24225 -0.414558,0.18834 -0.382903,0.95686 0.03499,0.84928 0.207731,1.02203 0.440453,0.44046 0.210596,-0.52628 0.184701,-1.15507 -0.05759,-1.39732 z m 10.773215,0.85824 c 0.238791,-0.62228 0.132526,-0.94499 -0.236143,-0.71714 -0.36867,0.22785 -0.884618,0.0675 -1.146554,-0.35631 -0.261934,-0.42382 -1.132676,-0.56223 -1.934983,-0.3076 -0.934001,0.29644 -2.026482,-0.0472 -3.03704,-0.95543 -2.89009,-2.59734 -3.400888,-2.62172 -3.400888,-0.16237 0,2.12068 0.147695,2.25561 2.019028,1.8446 1.273543,-0.27972 2.552153,-0.0405 3.462911,0.64792 1.882476,1.42289 3.729035,1.42563 4.273669,0.007 z m -12.671743,-3.32778 c 0,-1.48082 -0.08778,-1.5302 -3.098394,-1.74302 -2.302894,-0.16278 -2.426538,0.0524 -0.904592,1.57435 0.605142,0.60513 0.943129,1.35447 0.751094,1.66519 -0.192035,0.31072 0.461085,0.41006 1.451368,0.22076 1.155519,-0.2209 1.800524,-0.83607 1.800524,-1.71728 z m 235.842443,1.54306 c -0.24781,-0.40097 -0.75927,-0.72903 -1.13658,-0.72903 -0.3773,0 -0.686,0.32806 -0.686,0.72903 0,0.40097 0.51146,0.72903 1.13657,0.72903 0.62512,0 0.93382,-0.32806 0.68601,-0.72903 z M 56.985265,532.92632 c -0.242253,-0.24225 -0.414559,0.18834 -0.382904,0.95686 0.03498,0.84929 0.207732,1.02203 0.440459,0.44046 0.210596,-0.52627 0.184696,-1.15507 -0.05756,-1.39732 z m -20.176214,-1.29099 c -0.171972,-0.40097 -1.676406,-0.72904 -3.343189,-0.72904 -1.666782,0 -2.877664,-0.24604 -2.690849,-0.54677 0.186815,-0.30073 -0.0078,-0.54678 -0.432397,-0.54678 -0.424633,0 -0.772062,0.53311 -0.772062,1.18468 0,0.92405 0.474951,1.08969 2.158837,0.75291 1.187356,-0.23747 2.366174,-0.0963 2.619586,0.31376 0.585983,0.94813 2.879188,0.54846 2.460074,-0.42876 z m 13.903484,-0.68983 c -1.804358,-0.94462 -3.582793,-1.5319 -3.95207,-1.30506 -0.369278,0.22683 0.0073,0.66347 0.83669,0.9703 0.829463,0.30685 1.725077,0.90895 1.990255,1.33801 0.265178,0.42908 1.36496,0.76531 2.44396,0.74718 1.774197,-0.0298 1.648068,-0.19719 -1.318835,-1.75043 z m -22.600048,-0.35459 c 0,-0.75387 -1.209817,-1.19161 -5.29439,-1.91565 -2.297659,-0.40729 -2.672171,-0.30221 -2.30772,0.64754 0.239283,0.62355 1.145458,1.27226 2.013737,1.44159 2.997802,0.5846 5.588373,0.50418 5.588373,-0.17348 z M 20.087428,529.995 c -0.0029,-0.30072 -0.799903,-0.91495 -1.770612,-1.36495 -1.621889,-0.75186 -1.695835,-0.70755 -0.912495,0.54678 0.833643,1.33487 2.694385,1.90228 2.683107,0.81817 z m 23.56997,-1.20171 c 0.475228,-1.23842 -10.312257,-6.69192 -11.294411,-5.70976 -0.346925,0.34692 -0.923635,1.6519 -1.281568,2.89995 l -0.650794,2.26917 4.85546,0.47021 c 2.670502,0.25861 5.183525,0.58373 5.584494,0.72249 1.540616,0.53313 2.410091,0.32969 2.786819,-0.65206 z m 13.616442,0.29042 c 0,-0.40097 -0.738147,-0.70598 -1.640326,-0.67779 -1.565163,0.0489 -1.573515,0.0799 -0.182258,0.67779 0.801937,0.34461 1.540084,0.64961 1.640326,0.67779 0.100242,0.0282 0.182258,-0.27682 0.182258,-0.67779 z m 527.34304,-0.39596 c -0.23744,-0.61875 -0.58806,-0.96864 -0.77916,-0.77754 -0.1911,0.1911 -0.13121,0.69735 0.13309,1.125 0.71886,1.16314 1.13902,0.93718 0.64607,-0.34746 z m 26.35816,-2.31983 c 5.21259,-1.41193 9.64147,-2.73074 9.84195,-2.93069 0.37607,-0.37506 -5.35965,0.0722 -12.39357,0.96646 -2.20533,0.28037 -4.94148,0.97971 -6.08033,1.55409 -1.13886,0.57438 -2.496,0.8811 -3.01588,0.6816 -0.65063,-0.24967 -0.83764,0.13152 -0.59999,1.22307 0.27948,1.28371 0.19645,1.37747 -0.43587,0.49223 -0.67345,-0.94283 -0.78265,-0.9158 -0.79228,0.19614 -0.0131,1.50683 -0.34339,1.56035 13.47597,-2.1829 z m -49.93882,-12.56657 c 0,-0.20048 -3.28065,2.90383 -7.29034,6.89847 -4.00969,3.99464 -7.29034,7.42702 -7.29034,7.6275 0,0.20049 3.28065,-2.90383 7.29034,-6.89847 4.00969,-3.99463 7.29034,-7.42701 7.29034,-7.6275 z M 60.190428,526.34983 c 3.86e-4,-1.07869 -0.562807,-1.23677 -3.645168,-1.02319 -5.552794,0.38478 -4.423617,1.89945 1.639872,2.19972 1.461021,0.0723 2.004967,-0.24678 2.005296,-1.17653 z m -28.458609,-4.4579 c -0.05293,-0.94851 -2.109489,3.22502 -2.106893,4.27564 0.0015,0.60146 0.481957,-0.0104 1.067713,-1.35951 0.585757,-1.34918 1.053389,-2.66144 1.03918,-2.91613 z m 550.531311,1.61056 c -0.81321,-1.54147 -1.49306,-2.56775 -1.51077,-2.28063 -0.0518,0.83833 2.38766,5.68497 2.70276,5.36987 0.15761,-0.15761 -0.37878,-1.54776 -1.19199,-3.08924 z m 11.79875,1.42276 c 0.32102,-0.19106 0.52217,-5.09162 0.447,-10.89013 l -0.13666,-10.54274 -9.35988,0.2037 c -8.18355,0.1781 -9.15596,0.326 -7.73733,1.17681 1.44617,0.86734 1.46405,0.93819 0.16447,0.65178 -0.80194,-0.17673 -1.90916,-0.44334 -2.46049,-0.59246 -0.55133,-0.14912 -1.15042,0.22096 -1.33131,0.82242 -0.24338,0.80924 -0.1605,0.85563 0.31879,0.17841 0.91433,-1.2919 3.29116,3.87301 2.721,5.91282 -0.32547,1.16444 -0.25457,1.29907 0.27774,0.52736 0.56332,-0.81667 0.93998,-0.5077 1.77748,1.45807 0.58448,1.37188 2.14252,4.73473 3.4623,7.473 l 2.39961,4.97868 4.43681,-0.50517 c 2.44025,-0.27785 4.69946,-0.66149 5.02047,-0.85255 z m 5.79085,-0.70008 c -0.50371,-0.20308 -0.69907,-0.71996 -0.43413,-1.14864 0.28471,-0.46068 0.1375,-0.56669 -0.35998,-0.25922 -1.27208,0.78619 -1.00859,1.89973 0.43413,1.83464 0.76968,-0.0347 0.91248,-0.20404 0.35998,-0.42678 z M 58.51919,522.78368 c 0.918933,-0.23064 1.670786,-0.70155 1.670786,-1.04646 0,-0.34492 -0.419764,-0.46604 -0.932807,-0.26917 -0.513043,0.19687 -3.219579,0.83934 -6.014528,1.42771 l -5.081724,1.06975 4.343743,-0.38125 c 2.38906,-0.20968 5.095598,-0.56995 6.01453,-0.80058 z m -12.53433,-1.78894 c 2.199253,-1.24118 3.998642,-2.4074 3.998642,-2.59162 0,-0.57586 -5.866135,-9.00332 -6.266979,-9.00332 -0.209204,0 -0.143168,0.38381 0.146761,0.85292 0.353669,0.57226 0.130804,0.70084 -0.677265,0.39076 -0.695323,-0.26683 -1.131059,-0.1266 -1.030883,0.33175 0.09543,0.43666 -0.282238,0.95951 -0.839263,1.16189 -0.62027,0.22536 -0.815498,0.0488 -0.503748,-0.45565 0.78019,-1.26237 -0.0022,-0.97809 -1.128093,0.40989 -0.862702,1.06354 -0.849885,1.14673 0.093,0.60371 0.683448,-0.39359 0.572722,-0.0359 -0.295251,0.95362 -1.649971,1.88114 -3.23285,2.1485 -1.820922,0.30757 0.538172,-0.7017 0.08625,-0.48048 -1.004281,0.49159 -2.062262,1.83825 -2.806131,3.10413 -0.889232,1.51325 0.689586,-0.57231 1.093551,-0.62117 1.093551,-0.13229 0,0.76767 -1.37124,1.92218 -2.30861,1.94371 -0.267307,0.006 -0.759405,0.30981 -1.09355,0.67483 -0.348573,0.38077 -0.245641,0.45652 0.241499,0.17771 0.466961,-0.26727 0.959059,-0.22786 1.093551,0.0876 0.198939,0.4666 6.318602,4.41022 6.999133,4.51037 0.106315,0.0157 1.99269,-0.98707 4.191945,-2.22825 z m 68.88265,-1.75299 c 0,-0.60145 -0.12893,-1.09355 -0.28651,-1.09355 -0.15759,0 -0.47536,0.4921 -0.70616,1.09355 -0.2308,0.60146 -0.10186,1.09355 0.28652,1.09355 0.38838,0 0.70615,-0.49209 0.70615,-1.09355 z m -10.75325,-0.87902 c -0.90218,-0.17377 -2.37847,-0.17377 -3.28065,0 -0.902177,0.17377 -0.16403,0.31595 1.64033,0.31595 1.80436,0 2.5425,-0.14218 1.64032,-0.31595 z m 491.72706,-12.03276 c -0.14276,-2.52177 -0.26075,-0.64825 -0.26219,4.16338 -10e-4,4.81162 0.11536,6.87488 0.25958,4.58503 0.14421,-2.28986 0.14538,-6.22664 0.003,-8.74841 z m -472.42153,11.31302 c -0.70933,-0.18484 -1.69353,-0.17269 -2.1871,0.027 -0.49358,0.1997 0.0868,0.35093 1.28968,0.33607 1.2029,-0.0149 1.60674,-0.17825 0.89742,-0.36308 z m 4.02356,0.0224 c -0.50121,-0.20224 -1.32138,-0.20224 -1.82259,0 -0.50121,0.20224 -0.0911,0.36772 0.91129,0.36772 1.00243,0 1.41251,-0.16548 0.9113,-0.36772 z m -68.893701,-2.15166 3.827428,-1.27696 0,-4.24106 c 0,-3.90918 -0.128368,-4.24185 -1.640326,-4.25102 -0.902179,-0.006 -2.460489,-0.19797 -3.462911,-0.42776 -1.477908,-0.33879 -1.615779,-0.25961 -0.729034,0.4187 0.860136,0.65796 0.568351,0.73262 -1.367015,0.3498 -1.590299,-0.31456 -2.299028,-0.22533 -2.003837,0.2523 0.265813,0.43009 -0.08133,0.59829 -0.830479,0.40239 -0.707965,-0.18514 -2.102695,-0.0113 -3.0994,0.38629 -0.996705,0.3976 -1.320094,0.74873 -0.718641,0.78029 0.788496,0.0413 0.848902,0.21287 0.216541,0.61482 -1.053384,0.66955 4.085228,9.05861 5.251213,8.57288 0.400969,-0.16703 2.451376,-0.87834 4.556461,-1.58067 z m 6.01453,0.81191 c 0,-0.60146 0.574114,-1.11946 1.275809,-1.15111 0.801988,-0.0362 0.928264,-0.19715 0.340007,-0.43344 -0.99917,-0.40133 -3.073884,0.97443 -3.073884,2.03833 0,0.35187 0.328065,0.63977 0.729034,0.63977 0.400968,0 0.729034,-0.4921 0.729034,-1.09355 z m 35.540401,0.591 c -0.701697,-0.18336 -1.849925,-0.18336 -2.55162,0 -0.701695,0.18338 -0.127581,0.33341 1.275809,0.33341 1.403391,0 1.977501,-0.15003 1.275811,-0.33341 z m 33.17104,0.0197 c -0.50121,-0.20224 -1.32138,-0.20224 -1.82259,0 -0.50121,0.20224 -0.0911,0.36771 0.91129,0.36771 1.00243,0 1.41251,-0.16547 0.9113,-0.36771 z m 445.34788,-1.16966 c -0.72001,-0.71464 -0.80375,-0.6309 -0.40812,0.40812 0.27378,0.71898 0.68142,1.1236 0.90589,0.89913 0.22446,-0.22446 4.6e-4,-0.81271 -0.49777,-1.30725 z m -461.75114,0.40131 c -1.10267,-0.16704 -2.90703,-0.16704 -4.00969,0 -1.10266,0.16704 -0.20048,0.30371 2.00484,0.30371 2.20533,0 3.10751,-0.13667 2.00485,-0.30371 z m 20.86317,-0.36308 c -0.19471,-0.31505 -2.057,-0.52626 -4.13842,-0.46936 -3.73137,0.102 -3.74353,0.10967 -0.86827,0.54702 4.03765,0.61416 5.421,0.5927 5.00669,-0.0777 z m -24.82479,-1.00842 c 4.33686,-0.24218 7.77415,-0.55136 7.63843,-0.68708 -1.18674,-1.18674 -21.254454,-2.15701 -24.27202,-1.17354 -1.63905,0.53419 -1.821731,0.74255 -0.729033,0.83149 0.921192,0.075 0.384317,0.47775 -1.458068,1.09383 -2.758803,0.92252 -2.542462,0.95897 4.009686,0.67538 3.809205,-0.16487 10.474155,-0.49791 14.811005,-0.74008 z m 29.21371,-1.02249 c 0.29282,0 0.28603,0.41008 -0.0151,0.91129 -0.37654,0.62676 -0.16485,0.60097 0.67798,-0.0826 1.33163,-1.07999 0.95419,-2.61519 -0.44918,-1.82701 -0.4735,0.26593 0.45135,-0.90415 2.05522,-2.6002 1.60388,-1.69604 4.06436,-3.70375 5.46775,-4.46158 1.73262,-0.93561 2.08362,-1.34713 1.09356,-1.28209 -0.80194,0.0527 -4.59553,0.0438 -8.43019,-0.0197 l -6.97212,-0.11549 0.26699,-7.4726 c 0.14684,-4.10993 0.40343,-7.88268 0.57019,-8.38389 0.17125,-0.51469 1.66159,-0.95894 3.42449,-1.02078 l 3.12126,-0.1095 -3.28065,-0.43728 c -3.17754,-0.42354 -3.28779,-0.52369 -3.50782,-3.18642 -0.25508,-3.0868 -1.59541,-3.0072 -1.59541,0.0947 0,1.09905 -0.39368,2.39195 -0.87484,2.87311 -0.68043,0.68043 -0.68043,0.87484 0,0.87484 0.62971,0 0.87484,2.34911 0.87484,8.38389 0,7.51579 -0.13282,8.38389 -1.2827,8.38389 -0.70549,0 -1.70598,-0.67777 -2.22331,-1.50615 -1.00419,-1.60796 -9.1296,-5.78266 -11.25693,-5.78361 -0.72263,-3.3e-4 -1.28283,-0.55376 -1.29202,-1.27639 -0.0136,-1.0746 -0.21706,-1.01484 -1.28982,0.37894 -0.92173,1.19757 -2.32719,1.77953 -5.08703,2.10639 -2.09737,0.2484 -3.81341,0.72372 -3.81341,1.05625 0,0.33253 -0.49457,0.41482 -1.09904,0.18287 -1.83672,-0.70482 -6.1913,0.42905 -6.1913,1.61212 0,1.35107 -2.926282,2.50055 -6.365754,2.50055 -1.444114,0 -2.434288,0.19137 -2.200392,0.42526 0.768489,0.76849 -2.333105,3.221 -4.009686,3.17056 l -1.640326,-0.0494 1.640326,-0.7911 c 2.46409,-1.18839 2.002765,-2.26651 -0.729034,-1.70376 -3.786755,0.78008 -8.860867,0.44369 -9.687329,-0.64222 -0.53802,-0.70691 -1.802018,-0.88215 -4.374203,-0.60645 -3.998072,0.42853 -5.701752,1.37985 -5.131662,2.86546 0.206142,0.53722 -0.07057,0.97675 -0.614852,0.97675 -0.544319,0 -0.944106,-0.57411 -0.888416,-1.27581 0.0557,-0.70169 -0.390842,-1.27581 -0.992295,-1.27581 -0.82972,0 -1.145356,1.07786 -1.308287,4.46757 l -0.214745,4.46757 4.953465,-1.3883 c 12.135657,-3.40127 24.251565,-5.40793 21.356718,-3.53714 -0.738089,0.47699 1.894817,0.71034 8.099879,0.71787 5.056383,0.006 10.797523,0.25269 12.758093,0.5479 l 3.56466,0.53674 -3.28065,0.46954 c -3.07904,0.44069 -2.98943,0.47398 1.45807,0.54177 7.0397,0.1073 21.05823,0.83422 24.66878,1.27917 3.16218,0.3897 3.16224,0.38977 1.82259,1.9758 -1.33056,1.57524 -1.32936,1.57736 0.17577,0.31026 0.83351,-0.7017 1.75505,-1.27581 2.04787,-1.27581 z m -74.401127,-3.28065 c 0,-0.60146 0.273387,-1.09355 0.607533,-1.09355 0.334138,0 0.607526,0.49209 0.607526,1.09355 0,0.60145 -0.273388,1.09355 -0.607526,1.09355 -0.334146,0 -0.607533,-0.4921 -0.607533,-1.09355 z M 140.381,508.30337 c -1.38747,-1.47689 -1.48441,-1.81971 -0.51455,-1.81971 0.65724,0 1.56117,0.68423 2.00873,1.52051 1.19588,2.23452 0.46201,2.38148 -1.49418,0.2992 z m -47.210744,-0.86255 c 0.697022,-0.18247 2.009283,-0.18909 2.916135,-0.0147 0.906853,0.17437 0.336566,0.32367 -1.267308,0.33177 -1.603875,0.008 -2.345849,-0.13459 -1.648827,-0.31706 z m 5.462381,-0.70633 c 0.493578,-0.1997 1.477773,-0.21185 2.187103,-0.027 0.70933,0.18484 0.30549,0.34823 -0.89742,0.36309 -1.202906,0.0149 -1.783261,-0.13637 -1.289683,-0.33607 z m 9.136823,-0.77397 c 1.10817,-0.16758 2.7485,-0.16309 3.64517,0.01 0.89666,0.17304 -0.01,0.31014 -2.01487,0.30467 -2.00484,-0.006 -2.73848,-0.14706 -1.6303,-0.31463 z m 6.18676,0.0403 c 0.50121,-0.20225 1.32137,-0.20225 1.82259,0 0.50121,0.20224 0.0911,0.36771 -0.9113,0.36771 -1.00242,0 -1.4125,-0.16547 -0.91129,-0.36771 z m 6.01453,-0.90954 c 0.60145,-0.42483 1.74968,-0.81014 2.55162,-0.85625 1.21554,-0.0699 1.1549,-0.18092 -0.36452,-0.66752 -1.74056,-0.55743 -1.71789,-0.58697 0.50375,-0.65637 2.23051,-0.0697 3.78105,0.90403 2.60099,1.63336 -0.31032,0.19178 -1.87398,0.56706 -3.47481,0.83395 -2.14771,0.35807 -2.62395,0.2828 -1.81703,-0.28717 z m 20.23069,0.12952 c 1.70412,-0.15348 4.49267,-0.15348 6.19678,0 1.70412,0.15349 0.30984,0.27907 -3.09839,0.27907 -3.40823,0 -4.80251,-0.12558 -3.09839,-0.27907 z m -8.93067,8.51964 c -5.26643,-0.82028 -9.11292,-0.80613 -9.11292,0.0335 0,0.4379 2.54744,0.69013 6.37905,0.63163 5.85547,-0.0894 6.07986,-0.14401 2.73387,-0.66517 z m 14.54219,-2.21583 c -0.23472,-0.3798 -0.73752,-0.4985 -1.11733,-0.26376 -0.3798,0.23472 -0.4985,0.73752 -0.26376,1.11733 0.23472,0.3798 0.73752,0.4985 1.11733,0.26376 0.3798,-0.23472 0.4985,-0.73752 0.26376,-1.11733 z m -52.269686,-0.44028 c -0.701695,-0.18336 -1.849924,-0.18336 -2.551619,0 -0.701695,0.18338 -0.127581,0.33341 1.275809,0.33341 1.403391,0 1.977505,-0.15003 1.27581,-0.33341 z m 54.583186,-1.40794 c 0.092,-0.62659 -0.0364,-0.93566 -0.28522,-0.68683 -0.24883,0.24883 -0.52766,0.96508 -0.61963,1.59167 -0.092,0.62659 0.0364,0.93566 0.28522,0.68683 0.24883,-0.24883 0.52766,-0.96508 0.61963,-1.59167 z m 2.79709,-0.95527 c 0.23069,-0.37327 0.14069,-0.85093 -0.19998,-1.06148 -0.34069,-0.21055 -0.61943,0.0948 -0.61943,0.67866 0,1.22927 0.2299,1.33667 0.81941,0.38282 z m 418.13204,-3.60382 c 0,-0.20048 -0.98419,0.5784 -2.1871,1.73086 -1.20291,1.15245 -2.1871,2.2594 -2.1871,2.45989 0,0.20048 0.98419,-0.5784 2.1871,-1.73086 1.20291,-1.15246 2.1871,-2.25941 2.1871,-2.45989 z m -415.23582,0.5547 c -0.21973,-0.35554 -0.59887,-0.64643 -0.84251,-0.64643 -0.24365,0 -0.22714,0.21587 0.0367,0.4797 0.26383,0.26384 0.0725,1.00198 -0.42528,1.64033 -0.79941,1.02526 -0.7571,1.0447 0.36282,0.16673 0.69728,-0.54665 1.08801,-1.2848 0.86827,-1.64033 z m 2.83956,-2.31099 c -0.29473,-0.47689 -0.0229,-0.59641 0.71372,-0.31375 1.36743,0.52473 2.10481,-0.26189 1.36603,-1.45726 -0.7179,-1.16158 -3.01426,0.65065 -3.40671,2.68847 -0.25665,1.33266 -0.12955,1.45677 0.74688,0.72939 0.5809,-0.48209 0.84193,-1.22318 0.58008,-1.64685 z m -94.829028,1.18174 c -0.501211,-0.20224 -1.321374,-0.20224 -1.822585,0 -0.501211,0.20224 -0.09113,0.36772 0.911292,0.36772 1.002422,0 1.412503,-0.16548 0.911293,-0.36772 z m 334.977168,-0.75142 c -0.70932,-0.18484 -1.69352,-0.17269 -2.1871,0.027 -0.49358,0.19971 0.0868,0.35094 1.28968,0.33608 1.20291,-0.0149 1.60675,-0.17825 0.89742,-0.36309 z M 82.425508,502.79011 c -1.000009,-0.4629 0.03062,-0.57318 3.280652,-0.35102 3.998109,0.27329 4.282964,0.22244 1.822584,-0.32536 -3.758162,-0.83676 -8.383889,-0.90615 -8.383889,-0.12578 0,1.08202 0.931647,1.58068 2.855385,1.52833 1.727985,-0.047 1.763067,-0.10691 0.425268,-0.72617 z m 71.521252,-1.21224 c -0.24225,-0.24225 -0.41455,0.18834 -0.3829,0.95685 0.035,0.84929 0.20773,1.02204 0.44045,0.44047 0.2106,-0.52628 0.1847,-1.15507 -0.0575,-1.39732 z m 219.5455,1.45091 c -2.30557,-0.14468 -6.07832,-0.14468 -8.38388,0 -2.30557,0.14467 -0.4192,0.26305 4.19194,0.26305 4.61114,0 6.49751,-0.11838 4.19194,-0.26305 z m 240.0344,-0.96235 c 0,-0.3773 -0.27339,-0.68601 -0.60753,-0.68601 -0.33415,0 -0.60753,0.47767 -0.60753,1.06148 0,0.58382 0.27338,0.89252 0.60753,0.68601 0.33414,-0.20651 0.60753,-0.68418 0.60753,-1.06148 z m -461.47842,-6.54468 0,-7.31673 -7.10808,0.20865 -7.10808,0.20866 -0.20866,7.10808 -0.20865,7.10808 7.31673,0 7.31674,0 0,-7.31674 z m 190.44703,6.78839 c -1.31033,-0.16226 -3.27872,-0.15891 -4.3742,0.007 -1.09549,0.16636 -0.0234,0.29911 2.38241,0.29502 2.40581,-0.004 3.30212,-0.1402 1.99179,-0.30245 z m 55.52389,-0.62483 c 0.62016,-1.6161 0.55572,-13.78372 -0.0697,-13.15831 -0.2817,0.2817 -0.69179,3.04292 -0.91129,6.13603 l -0.39908,5.62384 -8.56615,0.2054 -8.56615,0.20539 0,-5.81238 c 0,-3.19681 -0.24605,-5.96554 -0.54677,-6.15273 -0.30073,-0.1872 -0.44197,2.3717 -0.31387,5.68645 l 0.23291,6.02682 -3.14904,0.42662 c -1.73198,0.23464 -6.83978,0.23071 -11.35068,-0.009 -7.66721,-0.40699 -8.20714,-0.53497 -8.2862,-1.96415 -0.0681,-1.23117 -0.14948,-1.28043 -0.41797,-0.253 -0.29402,1.1251 -1.36048,1.27581 -9.02835,1.27581 -5.31061,10e-6 -8.69496,0.28377 -8.69496,0.72904 0,0.43898 3.40816,0.76887 8.56615,0.82916 12.15478,0.14207 50.0291,1.05565 50.58985,1.2203 0.25783,0.0757 0.66792,-0.38129 0.9113,-1.01554 z m -300.739588,-0.0315 c 1.33656,-0.26732 2.278231,-0.90765 2.278231,-1.5492 0,-0.80388 -0.531058,-0.98763 -2.004843,-0.69367 -1.102664,0.21994 -4.137267,0.66167 -6.743563,0.98164 -4.622498,0.56748 -4.667202,0.59313 -1.822585,1.04586 4.291997,0.68308 5.763173,0.72129 8.29276,0.21537 z m -4.100815,-0.77593 c 0.701695,-0.18337 1.849923,-0.18337 2.551618,0 0.701695,0.18337 0.127581,0.3334 -1.275809,0.3334 -1.40339,0 -1.977504,-0.15003 -1.275809,-0.3334 z m 39.290593,-5.51162 c -0.15349,-3.98913 -0.60019,-6.96272 -1.09355,-7.27955 -2.07573,-1.33298 -4.09516,-0.42825 -7.27033,3.25716 l -3.2869,3.81509 4.86159,2.25774 c 2.67387,1.24176 5.31183,2.80561 5.86214,3.47525 0.55031,0.66963 1.0424,1.21767 1.09355,1.21787 0.0512,2e-4 -0.0238,-3.0344 -0.1665,-6.74356 z m 199.8325,6.20572 c -2.10508,-0.14726 -5.54977,-0.14726 -7.65485,0 -2.10509,0.14727 -0.38275,0.26776 3.82742,0.26776 4.21018,0 5.93252,-0.12049 3.82743,-0.26776 z m 67.41994,-7.29964 c -0.15729,-1.50363 -0.28597,-0.27339 -0.28597,2.73388 0,3.00726 0.12868,4.23751 0.28597,2.73387 0.15728,-1.50363 0.15728,-3.96412 0,-5.46775 z m 144.35052,7.3319 c -0.70933,-0.18484 -1.69353,-0.17268 -2.1871,0.0271 -0.49358,0.1997 0.0868,0.35093 1.28968,0.33608 1.20291,-0.0149 1.60675,-0.17825 0.89742,-0.36309 z m 16.41713,-0.0322 c -2.10508,-0.14727 -5.54977,-0.14727 -7.65485,0 -2.10509,0.14726 -0.38274,0.26776 3.82743,0.26776 4.21017,0 5.93251,-0.1205 3.82742,-0.26776 z m 8.74841,0.023 c -0.90218,-0.17377 -2.37847,-0.17377 -3.28065,0 -0.90218,0.17377 -0.16404,0.31594 1.64032,0.31594 1.80436,0 2.54251,-0.14217 1.64033,-0.31594 z m 9.73564,-1.47515 c -0.24225,-0.24225 -0.41456,0.18834 -0.3829,0.95685 0.035,0.84929 0.20773,1.02204 0.44045,0.44046 0.2106,-0.52627 0.1847,-1.15506 -0.0575,-1.39731 z m -241.25982,-2.2252 c -0.2797,-1.04208 -0.42494,-0.97688 -0.86311,0.38742 -0.51893,1.61576 -0.73025,1.64269 -14.11117,1.79818 l -13.58436,0.15787 13.85164,0.38891 c 14.50487,0.40726 15.50007,0.22236 14.707,-2.73238 z m -176.5747,-0.71286 c 1.99264,-1.35867 5.68338,-3.62255 8.20164,-5.03084 7.06288,-3.94979 6.32436,-4.70702 -4.35202,-4.46231 l -8.93067,0.20467 -0.21153,6.44016 c -0.16765,5.10389 -0.0164,6.32381 0.72903,5.87938 0.51731,-0.30843 2.57092,-1.67243 4.56355,-3.03109 z m 140.93655,2.93174 c -2.28986,-0.14421 -6.22664,-0.14538 -8.74841,-0.003 -2.52177,0.14276 -0.64825,0.26075 4.16338,0.26219 4.81162,10e-4 6.87488,-0.11537 4.58503,-0.25958 z m 266.93091,-0.44307 c -0.17344,-0.15134 -16.22652,-0.42118 -35.6735,-0.59966 -19.44697,-0.17849 -32.73362,-0.12627 -29.52587,0.11604 6.4209,0.48502 65.70503,0.92473 65.19937,0.48359 z m -173.46089,-4.85133 0,-4.3742 -7.29034,0 -7.29034,0 0,4.3742 0,4.3742 7.29034,0 7.29034,0 0,-4.3742 z m 100.97118,3.64517 c 0.24782,-0.40097 -0.0416,-0.72904 -0.64298,-0.72904 -0.60145,0 -1.2963,0.32807 -1.54412,0.72904 -0.24781,0.40097 0.0416,0.72903 0.64299,0.72903 0.60145,0 1.2963,-0.32806 1.54411,-0.72903 z m -142.52611,-4.73872 0,-4.73872 -7.29034,0 -7.29034,0 0,4.73872 0,4.73872 7.29034,0 7.29034,0 0,-4.73872 z m 23.32908,0.40618 0,-4.33253 -9.29518,-0.22393 c -5.11235,-0.12316 -9.37643,-0.19735 -9.47574,-0.16487 -0.0993,0.0325 -0.39209,2.08288 -0.65063,4.55646 l -0.47007,4.49741 9.94581,0 9.94581,0 0,-4.33254 z m -21.39281,-0.2378 c -0.19971,-0.49357 -0.35094,0.0868 -0.33608,1.28969 0.0149,1.2029 0.17825,1.60674 0.36309,0.89741 0.18484,-0.70932 0.17269,-1.69352 -0.027,-2.1871 z m 230.07875,2.62945 c -0.50121,-0.20225 -1.32138,-0.20225 -1.82259,0 -0.50121,0.20224 -0.0911,0.36771 0.9113,0.36771 1.00242,0 1.4125,-0.16547 0.91129,-0.36771 z m -429.00311,-9.82711 2.70057,-0.10345 -2.91613,-0.4715 c -2.88308,-0.46615 -5.95219,-0.0906 -4.15509,0.50843 0.54292,0.18098 0.92856,2.1341 1.01722,5.15171 l 0.14279,4.86022 0.25504,-4.92097 0.25504,-4.92098 2.70056,-0.10346 z m 424.58334,9.08289 c -0.52627,-0.2106 -1.15507,-0.1847 -1.39732,0.0575 -0.24225,0.24225 0.18834,0.41455 0.95686,0.3829 0.84929,-0.035 1.02203,-0.20773 0.44046,-0.44045 z m -76.54855,-2.18711 c -0.52627,-0.21059 -1.15507,-0.1847 -1.39732,0.0575 -0.24225,0.24225 0.18834,0.41455 0.95686,0.3829 0.84928,-0.035 1.02203,-0.20773 0.44046,-0.44045 z m 5.83227,0 c -0.52627,-0.21059 -1.15507,-0.1847 -1.39732,0.0575 -0.24225,0.24225 0.18834,0.41455 0.95686,0.3829 0.84929,-0.035 1.02203,-0.20773 0.44046,-0.44045 z m 9.15849,-0.0241 c -1.10267,-0.16704 -2.90703,-0.16704 -4.00969,0 -1.10266,0.16704 -0.20048,0.30371 2.00484,0.30371 2.20533,0 3.10751,-0.13667 2.00485,-0.30371 z m -120.32286,-6.95045 c -0.17377,-0.90218 -0.31594,-0.16403 -0.31594,1.64032 0,1.80436 0.14217,2.54251 0.31594,1.64033 0.17377,-0.90218 0.17377,-2.37847 0,-3.28065 z m -223.71553,-1.82259 c -0.0717,-2.574 -0.23016,-3.27746 -0.41071,-1.82258 -0.27598,2.22389 -0.48143,2.37718 -3.34624,2.49673 l -3.0522,0.12736 3.0984,0.27907 c 2.48602,0.22391 3.09839,0.55896 3.09839,1.69522 0,0.77888 0.16403,1.41615 0.36452,1.41615 0.20048,0 0.31201,-1.88638 0.24784,-4.19195 z m 214.27036,3.6894 c -0.70169,-0.18336 -1.84992,-0.18336 -2.55162,0 -0.70169,0.18338 -0.12758,0.33341 1.27581,0.33341 1.40339,0 1.97751,-0.15003 1.27581,-0.33341 z m -20.78596,-0.7421 c -0.90685,-0.17438 -2.21912,-0.16776 -2.91614,0.0147 -0.69702,0.18247 0.045,0.32515 1.64883,0.31706 1.60387,-0.008 2.17416,-0.15739 1.26731,-0.33177 z M 177.34989,482.9724 c -0.17377,-0.90218 -0.31594,-0.16403 -0.31594,1.64033 0,1.80435 0.14217,2.5425 0.31594,1.64032 0.17377,-0.90218 0.17377,-2.37847 0,-3.28065 z m 170.62619,4.03429 c -1.10266,-0.16704 -2.90702,-0.16704 -4.00969,0 -1.10266,0.16704 -0.20048,0.30371 2.00485,0.30371 2.20532,0 3.1075,-0.13667 2.00484,-0.30371 z m 8.68446,-1.84719 c -0.20225,-0.50121 -0.36772,-0.0911 -0.36772,0.91129 0,1.00242 0.16547,1.41251 0.36772,0.9113 0.20224,-0.50122 0.20224,-1.32138 0,-1.82259 z m -173.22716,0.1678 c 2.05471,-0.8099 7.06231,-1.81389 11.12801,-2.23111 4.06569,-0.41722 7.5364,-0.90281 7.71268,-1.07909 0.17628,-0.17628 -5.14724,-0.32051 -11.83005,-0.32051 l -12.15057,0 0,2.55162 c 0,2.97857 0.20938,3.02253 5.13993,1.07909 z m -51.06906,-0.71457 c 0,-0.40097 -0.32806,-0.72904 -0.72903,-0.72904 -0.40097,0 -0.72903,0.32807 -0.72903,0.72904 0,0.40096 0.32806,0.72903 0.72903,0.72903 0.40097,0 0.72903,-0.32807 0.72903,-0.72903 z m 83.10986,-0.18226 c 0,-0.85377 -1.06202,-0.64136 -1.36694,0.27338 -0.15036,0.45109 0.0957,0.69714 0.54678,0.54678 0.45109,-0.15036 0.82016,-0.51944 0.82016,-0.82016 z m 365.97499,-69.07596 c -1.40339,-0.76832 -2.87969,-1.39695 -3.28066,-1.39695 -0.40096,0 0.4192,0.62863 1.82259,1.39695 1.40339,0.76832 2.87968,1.39695 3.28065,1.39695 0.40097,0 -0.41919,-0.62863 -1.82258,-1.39695 z"
       id="path3084"
       inkscape:connector-curvature="0" />
  </g>
</svg>
