<?xml version="1.0" encoding="UTF-8" standalone="no"?>
<!-- Created with Inkscape (http://www.inkscape.org/) -->

<svg
   xmlns:dc="http://purl.org/dc/elements/1.1/"
   xmlns:cc="http://creativecommons.org/ns#"
   xmlns:rdf="http://www.w3.org/1999/02/22-rdf-syntax-ns#"
   xmlns:svg="http://www.w3.org/2000/svg"
   xmlns="http://www.w3.org/2000/svg"
   xmlns:sodipodi="http://sodipodi.sourceforge.net/DTD/sodipodi-0.dtd"
   xmlns:inkscape="http://www.inkscape.org/namespaces/inkscape"
   width="744.09448819"
   height="1052.3622047"
   id="svg2"
   version="1.1"
   inkscape:version="0.48.4 r9939"
   sodipodi:docname="bomber1.svg">
  <defs
     id="defs4" />
  <sodipodi:namedview
     id="base"
     pagecolor="#ffffff"
     bordercolor="#666666"
     borderopacity="1.0"
     inkscape:pageopacity="0.0"
     inkscape:pageshadow="2"
     inkscape:zoom="0.7"
     inkscape:cx="259.12969"
     inkscape:cy="520"
     inkscape:document-units="px"
     inkscape:current-layer="layer1"
     showgrid="false"
     inkscape:window-width="1600"
     inkscape:window-height="841"
     inkscape:window-x="-8"
     inkscape:window-y="-8"
     inkscape:window-maximized="1" />
  <metadata
     id="metadata7">
    <rdf:RDF>
      <cc:Work
         rdf:about="">
        <dc:format>image/svg+xml</dc:format>
        <dc:type
           rdf:resource="http://purl.org/dc/dcmitype/StillImage" />
        <dc:title></dc:title>
      </cc:Work>
    </rdf:RDF>
  </metadata>
  <g
     inkscape:label="Layer 1"
     inkscape:groupmode="layer"
     id="layer1">
    <path
       style="fill:#000000"
       d="m 264.85215,611.80947 c -1.95745,-0.45928 -5.68086,-1.75365 -8.27424,-2.87637 -4.48973,-1.94368 -16.80738,-4.71769 -24.72742,-5.56878 -25.68314,-2.7599 -36.79078,-4.97422 -46.10596,-9.1913 l -5.33781,-2.41648 -30.08975,-0.19273 c -17.00748,-0.10893 -35.15385,-0.57252 -41.73739,-1.06626 l -11.647648,-0.87355 -11.97119,-5.13548 -11.971191,-5.1355 -0.857435,-2.91191 c -0.471588,-1.60155 -1.563554,-5.12781 -2.426593,-7.83614 -0.863039,-2.70833 -1.569158,-5.63592 -1.569158,-6.50575 0,-2.24059 3.453786,-5.28704 8.267233,-7.2922 7.629247,-3.17815 20.368936,-6.93261 21.087071,-6.21448 0.892954,0.89295 2.548431,0.8631 1.992802,-0.0359 -0.240213,-0.38867 -0.440488,-4.10136 -0.44505,-8.25041 -0.0065,-5.95383 -0.114308,-6.86184 -0.511293,-4.30828 -0.389872,2.50782 -0.474719,1.73337 -0.377267,-3.4436 0.06915,-3.67349 -0.04148,-6.20241 -0.245836,-5.61984 -0.327856,0.93465 -0.513797,0.90205 -1.58098,-0.27717 -0.665185,-0.73505 -1.89227,-1.33643 -2.726863,-1.33643 -0.834593,0 -1.517436,-0.29119 -1.517436,-0.64709 0,-0.3559 -0.582382,-0.64709 -1.294183,-0.64709 -0.718989,0 -1.294182,-0.4314 -1.294182,-0.97064 0,-0.57813 0.588762,-0.96663 1.455955,-0.96073 1.110325,0.008 1.238378,0.14763 0.539422,0.59005 -0.665475,0.42123 0.03138,0.86164 2.54404,1.60782 1.903316,0.56523 3.58972,1.02768 3.747559,1.02768 0.157838,0 0.108303,-0.89339 -0.110077,-1.98531 -0.352199,-1.76098 -0.239799,-1.96206 0.994702,-1.7795 1.367008,0.20215 1.390428,0.40797 1.316094,11.572 -0.04161,6.2514 0.08133,11.96653 0.273204,12.70028 0.33173,1.26857 0.49221,1.29097 3.2666,0.456 5.46411,-1.64445 28.32593,-6.11596 38.71045,-7.57132 l 10.35346,-1.451 3.07528,-4.51462 c 3.51325,-5.15758 6.46896,-8.09078 8.09726,-8.03556 1.00521,0.0341 0.99308,0.11841 -0.11636,0.80886 -0.68121,0.42394 -2.13717,1.60465 -3.23546,2.62377 l -1.99689,1.85296 2.15269,-1.69119 c 3.31135,-2.60144 3.62208,-2.00738 0.58041,1.10965 -2.82533,2.89535 -6.12615,8.19972 -5.10253,8.19972 0.31961,0 1.69387,-1.90271 3.05389,-4.22826 1.60385,-2.74245 2.78257,-4.10937 3.35436,-3.88996 0.48487,0.18607 0.73367,0.099 0.55289,-0.19353 -0.18078,-0.29251 0.0953,-0.53184 0.61348,-0.53184 1.28505,0 1.2873,-0.006 -1.69913,4.39191 -1.51922,2.23714 -2.48118,4.30678 -2.26438,4.87175 0.23522,0.61297 0.0727,0.87587 -0.43238,0.69928 -0.44512,-0.15564 -0.71691,-0.83515 -0.60398,-1.51003 0.1779,-1.0631 0.0651,-1.03281 -0.84395,0.22661 -0.69536,0.96336 -1.63765,1.41452 -2.79369,1.33761 -0.95943,-0.0638 -2.76358,-0.0583 -4.00924,0.0122 -1.79598,0.10171 -2.06389,0.27099 -1.29418,0.81778 0.75072,0.5333 0.57642,0.60381 -0.76934,0.31122 -5.01054,-1.08935 -47.24695,7.27833 -48.5574,9.61997 -0.30998,0.55388 -1.277114,1.00709 -2.149179,1.00709 -1.249663,0 -1.585575,0.33463 -1.585575,1.57953 0,0.86875 -0.291191,1.75951 -0.647091,1.97947 -0.385097,0.238 -0.647092,-0.53252 -0.647092,-1.90308 0,-1.97039 -0.210285,-2.29645 -1.455955,-2.25753 -1.389241,0.0434 -1.396657,0.071 -0.161773,0.60161 1.034207,0.44441 1.077336,0.56526 0.214698,0.6016 -0.593719,0.025 -1.612888,0.21855 -2.26482,0.43007 -1.011313,0.32813 -1.042833,0.27167 -0.214698,-0.38458 0.846065,-0.67046 0.833945,-0.72574 -0.09442,-0.43074 -0.585786,0.18613 -2.270508,0.69959 -3.743832,1.14101 -1.514322,0.4537 -2.360737,0.99914 -1.947142,1.25476 0.438255,0.27085 0.06745,0.61887 -0.924739,0.8679 -1.120232,0.28115 -1.536635,0.72777 -1.286444,1.37976 0.269041,0.70111 1.542362,0.99804 4.668576,1.08872 l 4.298635,0.12468 -4.206094,0.22181 c -2.962805,0.15624 -4.445187,0.53849 -5.014958,1.29318 -0.689463,0.91322 -0.82387,0.64716 -0.910529,-1.80244 l -0.101658,-2.87382 -0.386106,3.23546 c -0.377824,3.16606 -0.396311,3.18936 -0.861965,1.08657 -0.407085,-1.83829 -0.687308,-2.09159 -1.938828,-1.7525 -1.36104,0.36875 -1.350253,0.32846 0.154765,-0.57833 2.5923,-1.5619 0.950092,-1.17123 -3.41144,0.81155 -4.808452,2.18595 -5.909349,3.37544 -6.011848,6.49563 -0.04245,1.2921 0.02918,2.03675 0.15921,1.65479 0.130014,-0.38196 1.099881,-0.56774 2.155261,-0.41284 2.305755,0.33841 1.920011,1.41054 -0.532698,1.48059 -1.507413,0.043 -1.393635,0.16431 0.847055,0.90279 l 2.588366,0.85305 -2.103047,0.0679 c -2.403434,0.0775 -2.452075,0.2842 -1.134798,4.82143 l 0.968249,3.33506 3.819529,-0.21596 3.819528,-0.21595 0.646224,-3.6666 0.646224,-3.66659 -0.0955,4.52964 -0.0955,4.52964 -3.720776,0.19406 c -2.046426,0.10674 -3.720775,0.40843 -3.720775,0.67042 0,0.26199 5.459833,2.70992 12.132963,5.43984 l 12.132963,4.96348 10.584384,0.71895 c 5.82141,0.39543 12.15048,0.64641 14.06459,0.55774 1.91411,-0.0887 3.67867,0.0373 3.92124,0.27984 0.24258,0.24257 3.30443,0.44104 6.80412,0.44104 6.14463,0 6.36569,-0.0499 6.43969,-1.45595 0.0421,-0.80078 0.0421,-1.67435 0,-1.94128 -0.0421,-0.26692 0.21456,-0.48532 0.57046,-0.48532 0.3559,0 0.64709,0.91579 0.64709,2.03509 l 0,2.03509 17.3097,-0.42228 c 19.82613,-0.48366 20.12356,-0.50858 20.91052,-1.75214 0.45751,-0.72295 0.58761,-0.62788 0.59536,0.43504 0.008,1.047 1.02743,1.82917 4.42939,3.39723 2.4307,1.12039 4.77429,2.03707 5.20796,2.03707 0.43367,0 1.21987,-0.94637 1.74712,-2.10305 l 0.95862,-2.10304 -0.37808,2.62244 -0.37807,2.62245 7.63863,1.7876 c 4.20125,0.98318 8.15671,1.88918 8.78992,2.01332 0.97961,0.19206 1.10267,-0.12785 0.82524,-2.14522 l -0.32605,-2.37095 0.68764,2.39548 c 0.6241,2.17415 0.93647,2.42797 3.38085,2.74724 1.48127,0.19346 8.79462,1.10043 16.2519,2.01549 7.45728,0.91505 13.80361,1.8151 14.10296,2.00011 0.29935,0.18501 1.8352,-0.85356 3.41301,-2.30792 3.64437,-3.35927 4.595,-3.4509 1.3526,-0.13038 -2.66722,2.73149 -2.60712,2.91572 1.17425,3.59925 1.39761,0.25264 5.32869,1.56508 8.73573,2.91655 10.99931,4.36306 21.01212,4.82558 40.81401,1.88532 12.58425,-1.86856 20.05844,-3.58848 28.14848,-6.47737 7.2395,-2.58519 15.25649,-4.89893 18.76565,-5.41589 1.0677,-0.15729 4.12521,-0.60509 6.79446,-0.99511 17.84856,-2.608 59.49683,-10.93725 61.14577,-12.22858 0.3583,-0.28059 8.07288,-0.57007 17.14351,-0.64328 9.07063,-0.0732 16.6416,-0.33009 16.82438,-0.57083 0.18278,-0.24075 6.73852,-0.46689 14.56833,-0.50253 16.76756,-0.0763 51.42211,-1.09158 48.33133,-1.41594 -1.89756,-0.19913 -2.11892,-0.42267 -1.94127,-1.96037 0.16203,-1.40248 0.48916,-1.69521 1.7043,-1.52507 1.0874,0.15225 1.60303,-0.16896 1.86222,-1.16009 0.32631,-1.24783 0.74237,-1.35367 4.64358,-1.18119 l 4.28516,0.18946 0,2.6024 c 0,2.59499 0.006,2.60161 2.26482,2.32824 1.24565,-0.15079 1.90083,-0.39976 1.45595,-0.55328 -0.44487,-0.15351 -0.80886,-1.27402 -0.80886,-2.49001 0,-1.9781 0.18738,-2.21194 1.7795,-2.22081 1.38668,-0.008 1.56523,-0.14838 0.80886,-0.63718 -0.69487,-0.44906 -0.005,-0.63009 2.4266,-0.63719 1.86847,-0.005 3.36274,0.20849 3.3206,0.47542 -0.27913,1.76779 0.22416,2.75013 1.409,2.75013 0.73281,0 1.1728,-0.25819 0.97776,-0.57377 -0.83975,-1.35873 2.14686,-2.20195 11.7377,-3.31393 15.02397,-1.74191 22.0366,-2.72332 53.57322,-7.49747 14.59722,-2.2098 32.10102,-6.77656 38.72804,-10.10419 3.42,-1.71729 8.03879,-6.09839 9.54796,-9.05662 1.13672,-2.22815 1.15247,-2.45568 0.16999,-2.45568 -0.91893,0 -0.88104,-0.17498 0.25035,-1.15623 1.37801,-1.19514 1.66098,-2.0261 1.52991,-4.49267 -0.087,-1.63707 -4.14082,-4.05747 -6.7957,-4.05747 -0.87662,0 -2.47983,-0.74549 -3.56268,-1.65666 l -1.96883,-1.65665 -0.41579,1.65665 c -0.40326,1.60674 -0.97285,2.0378 -1.7137,1.29694 -0.43529,-0.43528 0.84334,-4.81701 1.40564,-4.81701 2.1924,0 0.11753,-23.66041 -2.23981,-25.54124 -0.45908,-0.36628 -1.32533,-2.41311 -1.92501,-4.54851 -2.27275,-8.093 -9.58801,-21.19024 -14.30781,-25.6167 l -1.66458,-1.56114 -1.23077,1.51721 c -0.67691,0.83447 -1.54983,2.70214 -1.9398,4.15039 -0.85547,3.17697 -1.11779,12.34468 -0.43032,15.03933 0.36176,1.41799 0.33041,1.59242 -0.11629,0.64709 -0.71111,-1.50487 -0.86531,-0.674 -0.28036,1.51065 0.3079,1.14992 0.54448,1.30444 0.99076,0.64709 0.41067,-0.60491 0.52914,-0.37903 0.39554,0.75417 l -0.19073,1.61773 6.95623,0.18366 c 3.86433,0.10204 6.95623,0.45862 6.95623,0.80226 0,0.34022 -1.59567,1.67805 -3.54593,2.97296 -2.05064,1.36154 -3.37126,2.66048 -3.13171,3.08029 0.22782,0.39926 0.17732,0.51144 -0.11223,0.2493 -0.6422,-0.58143 -3.56749,3.24357 -3.55368,4.64666 0.009,0.88807 0.09,0.89232 0.68948,0.0361 0.52402,-0.74846 0.57994,-0.61883 0.24431,0.56635 -0.27189,0.96011 -0.19215,1.38674 0.21244,1.13669 0.36281,-0.22423 0.62609,0.23822 0.59858,1.05138 -0.027,0.79842 0.43011,2.99763 1.01584,4.88714 l 1.06495,3.43547 -2.20945,-1.36551 c -2.07387,-1.28172 -2.33052,-1.3029 -4.18257,-0.34517 l -1.97313,1.02036 0,12.34944 0,12.34944 2.95105,2.9093 c 1.62308,1.60012 2.77201,3.08834 2.55318,3.30716 -0.21882,0.21883 -0.66877,-0.0305 -0.99986,-0.55402 -0.4889,-0.77306 -0.60573,-0.70875 -0.62182,0.34228 -0.0159,1.03921 -0.13694,1.10905 -0.6143,0.35445 -0.32697,-0.51686 -0.46336,-1.15192 -0.30309,-1.41125 0.16028,-0.25932 -0.0495,-0.68221 -0.46622,-0.93974 -0.47317,-0.29243 -0.58427,-0.18775 -0.29591,0.27883 0.59955,0.9701 -0.30367,0.92373 -1.60456,-0.0824 -3.0909,-2.39047 -3.56742,-6.1158 -3.26039,-25.48935 l 0.0736,-4.64123 2.26482,-0.74745 c 2.27978,-0.7524 2.82291,-1.51998 1.60717,-2.27135 -0.3617,-0.22354 -0.51051,-0.64452 -0.33067,-0.9355 0.17983,-0.29099 -0.17941,-0.92604 -0.79831,-1.41124 -1.02029,-0.79988 -1.04171,-0.77568 -0.22956,0.25942 0.79197,1.00936 0.7545,1.11432 -0.32354,0.90607 -1.12865,-0.21802 -3.20723,-0.95728 -4.24825,-1.51092 -0.24233,-0.12888 -0.65131,0.10661 -0.90884,0.52331 -0.32023,0.51813 -0.18095,0.58447 0.4406,0.20988 0.7637,-0.46026 0.77211,-0.37903 0.0527,0.50865 -0.4709,0.58101 -1.24222,0.90825 -1.71404,0.72719 -0.47184,-0.18106 -1.07792,0.0268 -1.34686,0.46199 -0.33328,0.53927 -0.21927,0.6245 0.35808,0.26768 0.5486,-0.33906 0.69053,-0.27025 0.4028,0.1953 -0.24434,0.39535 -0.87004,0.55542 -1.39045,0.35572 -0.52041,-0.1997 -0.75728,-0.66876 -0.52639,-1.04235 0.2512,-0.40645 0.10714,-0.48603 -0.35868,-0.19814 -0.59611,0.36842 -0.60097,0.69504 -0.0208,1.39417 0.41676,0.50216 0.50369,0.94662 0.19319,0.98767 -0.3105,0.041 -1.00059,0.11385 -1.53351,0.16177 -0.53293,0.048 -0.96972,0.49978 -0.97064,1.00414 -6.5e-4,0.50435 -0.62466,0.9629 -1.38608,1.01899 -1.19913,0.0884 -1.37232,-0.22029 -1.29418,-2.30643 0.0496,-1.32463 0.3581,-2.245 0.6855,-2.04525 0.33072,0.20176 0.40287,-0.13826 0.16235,-0.76504 -0.57873,-1.50817 0.20472,-4.67415 0.88449,-3.57427 0.28501,0.46115 0.47052,-0.24196 0.43107,-1.63376 -0.0612,-2.16039 -0.46547,-2.74245 -3.49109,-5.02681 -1.88201,-1.42094 -3.25005,-2.86148 -3.04008,-3.20121 0.20997,-0.33974 -0.15051,-0.52544 -0.80107,-0.41266 -0.81641,0.14154 -1.18732,-0.19584 -1.19734,-1.08913 -0.0131,-1.16313 0.52612,-1.32935 5.32468,-1.64153 3.47568,-0.22612 5.6462,-0.67782 6.2188,-1.29419 0.48378,-0.52076 1.55713,-2.91418 2.38522,-5.31872 1.03071,-2.99293 1.68803,-4.11551 2.08394,-3.55901 0.37517,0.52731 0.45575,0.24268 0.22938,-0.81021 -0.19192,-0.8927 -0.0508,-2.05747 0.3136,-2.58836 0.51049,-0.74372 0.56885,-0.63204 0.25431,0.48662 -0.30446,1.08277 -0.1771,1.36319 0.50096,1.10299 0.50132,-0.19237 0.94537,-1.31094 0.98982,-2.49334 0.14357,-3.81887 1.44586,-8.41584 3.09439,-10.92298 0.88577,-1.34709 1.43924,-2.72633 1.22996,-3.06497 -0.2333,-0.37748 0.19548,-0.41036 1.10822,-0.085 4.09994,1.46156 14.7273,18.12719 18.01284,28.24742 0.8088,2.4913 1.83576,5.11202 2.28212,5.82382 1.82499,2.91025 3.73766,18.23432 2.8689,22.98523 -0.39928,2.18347 -0.23936,2.71943 1.22765,4.11427 0.9277,0.88207 2.5603,1.81144 3.628,2.06529 3.047,0.72439 6.68633,2.74929 7.4263,4.13192 0.37131,0.6938 0.623,2.63913 0.55931,4.32295 -0.13408,3.54477 -3.31753,8.91264 -7.42395,12.51813 -5.77707,5.07233 -21.82215,10.01315 -43.91679,13.52347 -13.05912,2.07479 -38.7086,5.81447 -46.59058,6.79287 l -7.118,0.88358 5.98559,0.0829 c 5.52656,0.0766 5.9856,0.18219 5.9856,1.37712 0,1.21069 -0.4314,1.29419 -6.68661,1.29419 -3.67764,0 -6.89066,0.20405 -7.14006,0.45344 -0.24939,0.2494 -3.05597,0.37106 -6.23683,0.27037 -5.499,-0.17408 -5.85952,-0.10092 -7.33192,1.48782 -1.08865,1.17467 -2.21189,1.67091 -3.7821,1.67091 -1.22845,0 -3.81578,0.27658 -5.74962,0.61462 -3.47515,0.60747 -23.11627,1.28261 -77.28449,2.65655 l -27.82493,0.70577 -10.67701,2.48952 c -14.05641,3.27749 -23.45528,5.0884 -47.23767,9.10144 -15.81983,2.66944 -21.21299,3.84967 -27.17784,5.94757 -17.25053,6.06719 -33.08771,8.96245 -50.79668,9.28635 -8.50277,0.15552 -13.39241,-0.0327 -15.85374,-0.61019 z m 252.27208,-33.11782 c 0.1394,-0.13939 0.081,-0.70279 -0.12973,-1.25199 -0.55853,-1.45551 -3.4361,-1.27469 -3.83241,0.24081 -0.17825,0.68165 -0.8674,1.37401 -1.53142,1.53857 -0.66404,0.16457 0.24334,0.17026 2.01639,0.0126 1.77305,-0.15762 3.33778,-0.40063 3.47717,-0.54002 z m 10.44703,-0.95635 c 0.73656,-0.476 0.46346,-0.62967 -1.13241,-0.63719 -1.15668,-0.005 -2.10305,0.28129 -2.10305,0.63719 0,0.82193 1.96361,0.82193 3.23546,0 z m 2.93852,-0.69015 c 0.69644,-1.12687 -0.0968,-1.36551 -0.98427,-0.29613 -0.51039,0.61499 -0.55949,0.98628 -0.1304,0.98628 0.37847,0 0.88007,-0.31057 1.11467,-0.69015 z m -3.42384,-1.03259 c -0.44488,-0.17951 -1.17285,-0.17951 -1.61773,0 -0.44487,0.17951 -0.0809,0.32638 0.80886,0.32638 0.88976,0 1.25374,-0.14687 0.80887,-0.32638 z m 13.90015,-0.66697 c -0.6296,-0.16406 -1.50317,-0.15327 -1.94127,0.024 -0.4381,0.17726 0.077,0.31149 1.14472,0.2983 1.0677,-0.0132 1.42615,-0.15821 0.79655,-0.32227 z m 70.52698,-39.84744 c -0.14295,-1.14874 -0.25756,-0.0503 -0.25469,2.44102 0.003,2.49131 0.11983,3.43118 0.25991,2.08862 0.14008,-1.34256 0.13773,-3.3809 -0.005,-4.52964 z m -0.0426,-5.8217 c -0.17725,-0.4381 -0.31149,0.077 -0.2983,1.14472 0.0132,1.0677 0.15822,1.42615 0.32228,0.79655 0.16406,-0.6296 0.15328,-1.50317 -0.024,-1.94127 z m 0.0437,-7.75279 c -0.14354,-1.15667 -0.26099,-0.2103 -0.26099,2.10305 0,2.31335 0.11745,3.25972 0.26099,2.10305 0.14354,-1.15668 0.14354,-3.04942 0,-4.2061 z m -512.573537,0.98412 c -0.215029,-0.21502 -0.367969,0.16717 -0.339866,0.84931 0.03106,0.75383 0.184383,0.90715 0.390947,0.39095 0.186925,-0.46712 0.163941,-1.02524 -0.05112,-1.24026 z m 515.987987,-4.38135 c 0.88975,-0.50862 1.32653,-0.92477 0.97063,-0.92477 -0.3559,0 -1.37507,0.41615 -2.26482,0.92477 -0.88975,0.50863 -1.32653,0.92478 -0.97063,0.92478 0.3559,0 1.37506,-0.41615 2.26482,-0.92478 z m -12.94183,-1.97548 c 0,-0.80516 -2.56839,0.21149 -2.80326,1.10962 -0.27363,1.04635 -0.18121,1.05479 1.25393,0.11445 0.85213,-0.55834 1.54933,-1.10917 1.54933,-1.22407 z m 17.30325,0.43687 c -0.54109,-1.43352 -0.89013,-1.69418 -1.51636,-1.13241 -0.64211,0.57602 -0.51627,0.96526 0.59733,1.84777 0.77594,0.61491 1.45829,1.12449 1.51636,1.13241 0.058,0.008 -0.21074,-0.82358 -0.59733,-1.84777 z m -13.4207,-5.25692 c 1.24565,-0.94885 2.73686,-1.89561 3.3138,-2.10392 0.84818,-0.30623 1.12707,-1.78223 1.45693,-7.71083 0.22437,-4.03265 0.52804,-8.64246 0.67482,-10.24401 0.14678,-1.60155 0.12394,-2.03834 -0.0508,-0.97064 -0.35181,2.15009 -1.48039,3.76231 -1.56277,2.23247 -0.0278,-0.51606 -0.7067,0.95446 -1.50869,3.26781 l -1.45818,4.20609 -4.40095,0.1933 -4.40096,0.1933 3.32129,2.32503 c 1.82671,1.27877 3.32129,2.67496 3.32129,3.10263 0,0.42768 -0.56997,2.43425 -1.26661,4.45905 -1.35009,3.92411 -1.26079,3.96072 2.56079,1.04972 z m 9.08416,-1.87705 c -0.72548,-1.84059 -1.31907,-3.45831 -1.31907,-3.59494 0,-0.13663 1.67435,-1.43621 3.72077,-2.88795 l 3.72075,-2.63954 -4.36785,0 -4.36785,0 0,5.20763 c 0,4.83848 0.12501,5.32348 1.76362,6.8421 2.25913,2.09368 2.50068,1.26143 0.84963,-2.9273 z m -5.50804,1.356 c -0.19923,-0.19923 -0.72137,-4.1e-4 -1.16032,0.44183 -0.63432,0.63908 -0.55999,0.7134 0.36224,0.36224 0.63818,-0.243 0.99731,-0.60483 0.79808,-0.80407 z m 2.07625,-9.02247 c -0.13331,-1.69053 -0.24237,-0.30737 -0.24237,3.07368 0,3.38105 0.10906,4.76421 0.24237,3.07368 0.1333,-1.69052 0.1333,-4.45684 0,-6.14736 z m -8.88783,6.43281 c 0,-0.28787 -0.44152,-1.08865 -0.98115,-1.7795 -0.90981,-1.16475 -0.92579,-1.12669 -0.21968,0.52342 0.76189,1.78046 1.20083,2.23961 1.20083,1.25608 z m 14.62696,-1.8897 c -0.21502,-0.21502 -0.36796,0.16717 -0.33986,0.84931 0.0311,0.75383 0.18438,0.90716 0.39094,0.39095 0.18693,-0.46712 0.16394,-1.02523 -0.0511,-1.24026 z m -17.65255,-1.6312 c -0.28248,-0.44488 -0.51806,-1.003 -0.52351,-1.24026 -0.005,-0.23727 -0.27498,-0.67405 -0.59897,-0.97064 -0.34224,-0.3133 -0.39402,-0.20032 -0.12358,0.26962 0.65539,1.13887 -0.57956,1.01016 -1.55217,-0.16177 -0.44306,-0.53385 -0.56607,-0.97064 -0.27336,-0.97064 0.2927,0 0.18276,-0.34943 -0.24432,-0.77651 -1.40078,-1.40078 -0.82915,-1.74711 3.26781,-1.97984 3.363,-0.19104 3.06321,-0.25034 -1.7795,-0.352 l -5.82382,-0.12226 2.10305,1.28225 c 2.24094,1.36632 2.83943,2.36941 0.99036,1.65985 -1.3674,-0.52473 -1.04481,-0.191 2.15901,2.23355 2.82542,2.13818 3.13143,2.28215 2.399,1.12865 z m 25.95924,-5.35909 c 1.1262,-0.85181 0.52398,-0.93643 -5.82382,-0.81834 -6.59701,0.12273 -6.71579,0.14658 -1.74141,0.34971 2.93618,0.1199 5.3385,0.49742 5.3385,0.83893 0,0.86772 0.75618,0.74197 2.22673,-0.3703 z m -18.32502,-7.85776 c -0.76282,-1.31179 -0.94703,-0.89191 -0.3226,0.73532 0.22192,0.57831 0.5398,0.91516 0.70641,0.74855 0.1666,-0.16661 -0.006,-0.83435 -0.38381,-1.48387 z m 2.69854,-3.43936 c -0.3754,-1.43552 -0.44112,-1.45818 -0.85665,-0.29529 -0.24959,0.6985 -0.13745,1.46003 0.25175,1.70967 0.97087,0.62271 1.07434,0.38077 0.6049,-1.41438 z m 1.54962,-3.73472 c -0.16196,-0.61868 -0.2886,0.0399 -0.28142,1.4635 0.007,1.4236 0.1397,1.92979 0.29448,1.12487 0.15478,-0.80493 0.1489,-1.96969 -0.0131,-2.58837 z M 257.23604,605.2035 c -0.78823,-0.55211 -1.75247,-1.64407 -2.14273,-2.4266 -0.59053,-1.18407 -0.45567,-1.13582 0.80385,0.28761 0.8324,0.9407 2.09582,2.02382 2.80762,2.40692 0.7118,0.38309 0.99499,0.70539 0.62931,0.71621 -0.3657,0.0108 -1.30981,-0.43204 -2.09805,-0.98414 z m -4.21903,-6.76128 c -0.18614,-0.7118 -0.0745,-1.29418 0.24808,-1.29418 0.32258,0 0.58651,0.58238 0.58651,1.29418 0,0.7118 -0.11164,1.29418 -0.24808,1.29418 -0.13644,0 -0.40037,-0.58238 -0.58651,-1.29418 z m 50.15424,-7.82645 c -0.79972,-1.49974 -1.08228,-1.55487 -7.76509,-1.51499 l -6.93517,0.0414 6.63268,-0.22504 c 4.33667,-0.14715 6.63269,-0.47634 6.63269,-0.95095 0,-0.39924 -0.72798,-1.69975 -1.61773,-2.89002 -4.596,-6.14833 -5.11447,-6.91429 -4.3776,-6.4672 0.43951,0.26668 2.17674,2.43593 3.8605,4.82057 1.68376,2.38463 3.36249,4.54962 3.73051,4.8111 0.42688,0.30328 0.43485,0.48258 0.0221,0.49523 -0.3559,0.0109 -0.25445,0.26864 0.22544,0.57276 0.47989,0.30412 0.77109,1.07284 0.64709,1.70825 -0.19243,0.98615 -0.34694,0.92743 -1.05537,-0.40109 z m -36.20257,0.31749 c 0.21502,-0.21502 0.77313,-0.238 1.24026,-0.0511 0.5162,0.20656 0.36287,0.3599 -0.39096,0.39094 -0.68213,0.0281 -1.06433,-0.12484 -0.8493,-0.33986 z m 9.70637,-0.64709 c 0.21502,-0.21502 0.77314,-0.23801 1.24026,-0.0511 0.5162,0.20657 0.36287,0.3599 -0.39096,0.39095 -0.68213,0.0281 -1.06432,-0.12484 -0.8493,-0.33986 z m -12.6064,-0.7359 c 2.23832,-0.12672 5.73261,-0.12568 7.76509,0.003 2.03248,0.128 0.20113,0.23168 -4.06968,0.2304 -4.2708,-10e-4 -5.93374,-0.106 -3.69541,-0.23272 z m -93.69184,-2.1086 -5.50028,-0.40598 5.62386,-0.12056 c 3.1887,-0.0684 5.79703,0.15964 6.02378,0.52654 0.21996,0.3559 0.16435,0.59284 -0.12358,0.52653 -0.28793,-0.0663 -2.99863,-0.30324 -6.02378,-0.52653 z m 4.52964,-5.08247 0,-3.78828 -3.07369,-0.98098 c -2.22879,-0.71133 -3.07368,-1.31533 -3.07368,-2.19732 0,-0.80568 1.0377,-1.73105 3.07368,-2.74093 2.74762,-1.36288 3.07369,-1.75354 3.07369,-3.68259 0,-1.18689 0.30828,-2.3485 0.68506,-2.58137 0.45547,-0.2815 0.61812,0.62738 0.48532,2.71195 -0.19082,2.99513 -0.32886,3.20045 -3.087,4.59129 l -2.88725,1.45596 2.27252,0 c 1.24988,0 2.62194,0.34943 3.04902,0.77651 0.95202,0.95202 1.06939,10.22404 0.12942,10.22404 -0.35771,0 -0.64709,-1.69415 -0.64709,-3.78828 z m 109.49852,2.66644 c 1.6786,-0.13281 4.59051,-0.13419 6.47092,-0.003 1.88041,0.13112 0.50701,0.23979 -3.05199,0.24147 -3.55901,0.002 -5.09752,-0.1056 -3.41893,-0.23841 z m 97.09888,0.0838 c 0.21503,-0.21502 0.77314,-0.23801 1.24026,-0.0511 0.51621,0.20657 0.36288,0.3599 -0.39095,0.39095 -0.68214,0.0281 -1.06433,-0.12484 -0.84931,-0.33986 z m 8.23694,-0.90323 c 2.21252,-0.70857 3.91375,-0.70857 2.26482,0 -0.7118,0.30587 -1.87657,0.54757 -2.58837,0.5371 -1.04038,-0.0153 -0.97693,-0.12061 0.32355,-0.5371 z m 5.50028,-0.64709 c 0.7118,-0.30588 1.73097,-0.55613 2.26482,-0.55613 0.61181,0 0.4922,0.20559 -0.32355,0.55613 -0.7118,0.30587 -1.73097,0.55613 -2.26482,0.55613 -0.61181,0 -0.4922,-0.20559 0.32355,-0.55613 z m 4.52964,-0.64709 c 0.7118,-0.30588 1.87656,-0.54757 2.58836,-0.53711 1.04039,0.0153 0.97694,0.12062 -0.32354,0.53711 -2.21252,0.70857 -3.91375,0.70857 -2.26482,0 z m -13.43303,-3.55901 c -0.23371,-1.7795 -0.59432,-5.41939 -0.80137,-8.08864 -0.74552,-9.61158 -0.91891,-10.34521 -2.46785,-10.44158 -1.30758,-0.0814 -1.29648,-0.11071 0.14454,-0.3823 1.20778,-0.22763 1.35416,-0.42502 0.64709,-0.87261 -0.64537,-0.40853 -0.67618,-0.58134 -0.1049,-0.58834 0.44488,-0.005 0.80887,-0.44669 0.80887,-0.98054 0,-0.67417 0.64236,-0.95504 2.10305,-0.91955 1.15667,0.0281 1.66626,0.19676 1.13241,0.37481 -2.82386,0.94181 -2.91181,1.04646 -1.29419,1.53995 0.88975,0.27143 2.34571,0.51808 3.23546,0.54811 1.27188,0.0429 1.41022,-0.0795 0.64709,-0.57268 -0.83406,-0.53902 -0.81484,-0.62867 0.13656,-0.63719 0.60897,-0.005 1.70094,-0.64719 2.4266,-1.4261 1.40356,-1.50654 1.87976,-0.77497 0.51053,0.78429 -0.44488,0.50661 -0.15369,0.37412 0.64709,-0.29442 0.85004,-0.70968 1.45595,-0.90054 1.45595,-0.45864 0,1.1854 -3.72956,3.15635 -6.86133,3.62599 -3.3379,0.50054 -3.24305,-0.0308 -2.14408,12.01207 0.71263,7.80932 0.55349,12.67836 -0.22152,6.77737 z m 0.28898,-19.53123 c -0.46711,-0.18692 -1.02524,-0.16394 -1.24026,0.0511 -0.21502,0.21502 0.16717,0.36796 0.84931,0.33986 0.75383,-0.0311 0.90716,-0.18438 0.39095,-0.39094 z m 19.77673,22.01459 c 0.44488,-0.17951 1.17286,-0.17951 1.61773,0 0.44488,0.17951 0.0809,0.32639 -0.80886,0.32639 -0.88975,0 -1.25374,-0.14688 -0.80887,-0.32639 z m 4.51733,-0.64299 c 0.4381,-0.17725 1.31167,-0.18804 1.94127,-0.024 0.6296,0.16407 0.27115,0.30909 -0.79655,0.32228 -1.0677,0.0132 -1.58282,-0.12104 -1.14472,-0.2983 z m 5.18904,-0.65119 c 0.44488,-0.17951 1.17286,-0.17951 1.61773,0 0.44488,0.17951 0.0809,0.32638 -0.80886,0.32638 -0.88975,0 -1.25374,-0.14687 -0.80887,-0.32638 z m 18.92743,-0.53277 c 0,-0.17282 1.2941,-0.64009 2.87578,-1.03836 2.11524,-0.53262 2.94759,-1.09126 3.14733,-2.11236 0.22076,-1.12856 0.28804,-1.06106 0.35968,0.36085 0.0754,1.49732 -0.26117,1.84609 -2.33847,2.42299 -2.6369,0.7323 -4.04432,0.85997 -4.04432,0.36688 z m 0,-1.44944 c 0,-0.31754 0.44535,-1.14258 0.98966,-1.83343 0.95838,-1.21639 0.98395,-1.20656 0.80886,0.31096 -0.16683,1.44599 -1.79852,2.82724 -1.79852,1.52247 z M 293.10848,577.3039 c -0.76324,-0.76323 -0.46271,-1.23255 0.78927,-1.23255 0.72876,0 1.092,0.33527 0.9014,0.83197 -0.35002,0.91212 -1.02031,1.07095 -1.69067,0.40058 z m -210.630628,-4.91475 0.105469,-4.68377 0.379849,3.559 0.379843,3.559 5.823822,0 5.823823,0 0.190296,-4.32213 c 0.188899,-4.29038 0.177012,-4.32413 -1.617728,-4.59446 -1.718015,-0.25876 -1.703326,-0.27715 0.295022,-0.36928 l 2.103047,-0.0969 0.118663,5.3385 0.118664,5.33851 0.366655,-5.17673 0.366655,-5.17674 4.672068,-0.18973 c 5.11378,-0.20766 4.81121,-0.44628 5.57389,4.39583 0.14014,0.88975 0.29446,0.21935 0.34293,-1.48977 l 0.0881,-3.1075 3.39723,0.19559 3.39723,0.19558 0.3565,4.85319 c 0.19608,2.66925 0.24643,5.19447 0.1119,5.6116 -0.17785,0.55144 -4.64556,0.77009 -16.372012,0.80121 l -16.127413,0.0428 0.105476,-4.68376 z m 23.057608,-1.93363 0.19134,-4.36787 -3.91212,0 -3.912111,0 0,4.56193 0,4.56194 3.720771,-0.19407 3.72078,-0.19407 0.19134,-4.36786 z m 8.17928,0.72147 c 0.25678,-2.26963 0.18925,-4.22985 -0.15768,-4.57678 -0.33376,-0.33376 -1.59023,-0.51282 -2.79215,-0.39792 -2.15702,0.2062 -2.18791,0.25401 -2.38386,3.69078 -0.26348,4.62121 0.0596,5.25386 2.683,5.25386 l 2.20155,0 0.44914,-3.96994 z m 166.87348,4.96405 c 0.12619,-0.38194 2.42729,-0.69133 5.34633,-0.7188 l 5.1248,-0.0483 -4.84063,0.24138 c -3.2454,0.16183 -4.52758,0.43485 -3.89071,0.82846 0.72969,0.45098 0.61245,0.56167 -0.50569,0.47744 -0.8006,-0.0603 -1.35594,-0.41141 -1.2341,-0.78022 z m 191.33318,0.30007 c 0,-0.3559 0.65518,-0.64263 1.45595,-0.63718 1.17735,0.008 1.27022,0.12995 0.48532,0.63718 -1.25455,0.81076 -1.94127,0.81076 -1.94127,0 z m -186.82842,-7.05304 c -3.62212,-3.16737 -6.96457,-5.89382 -7.42766,-6.05878 -1.80087,-0.64148 -0.0379,-0.91382 3.04057,-0.46969 2.11988,0.30582 2.56943,0.49657 1.30382,0.55323 -1.8584,0.0832 -1.69894,0.30603 4.20609,5.87808 3.37575,3.1854 5.98588,5.80612 5.80028,5.82383 -0.18559,0.0177 -3.30099,-2.55929 -6.9231,-5.72667 z m 146.90927,0.90567 c -0.004,-2.1354 0.11419,-3.08698 0.26185,-2.11463 0.14764,0.97235 0.15061,2.7195 0.007,3.88255 -0.14402,1.16305 -0.26482,0.36749 -0.26845,-1.76792 z m -219.31308,-6.47091 c -10e-4,-4.6267 0.10101,-6.60435 0.22698,-4.39478 0.12597,2.20958 0.12691,5.99506 0.002,8.41219 -0.12485,2.41713 -0.22792,0.60929 -0.22905,-4.01741 z m 220.56993,5.82382 c -0.007,-1.4236 0.11946,-2.08218 0.28142,-1.4635 0.16196,0.61868 0.16783,1.78344 0.0131,2.58837 -0.15478,0.80492 -0.2873,0.29873 -0.29448,-1.12487 z m 6.99968,1.61773 c -0.10363,-0.17795 -0.28705,-2.07069 -0.40759,-4.20609 -0.16017,-2.83724 -0.0443,-3.57619 0.43055,-2.74464 0.35735,0.62585 0.54077,2.51859 0.40759,4.20609 -0.13318,1.6875 -0.32692,2.92259 -0.43055,2.74464 z m 100.25431,-0.27 c 0,-0.19293 1.09196,-0.93983 2.42659,-1.65977 1.33462,-0.71993 3.15457,-1.8144 4.04432,-2.43215 1.29122,-0.89649 1.45673,-0.91813 0.82002,-0.10727 -0.84899,1.08122 -7.29093,4.79142 -7.29093,4.19919 z m -231.99821,-2.99125 c -0.8244,-1.33391 0.75337,-1.99228 4.29141,-1.79073 2.58215,0.1471 3.48963,0.45121 3.48963,1.16943 0,1.21557 -7.06511,1.77971 -7.78104,0.6213 z m -97.13498,-6.12157 c -0.002,-3.55901 0.1056,-5.09752 0.23842,-3.41892 0.13281,1.67859 0.13419,4.5905 0.003,6.47091 -0.13113,1.88041 -0.23979,0.50701 -0.24147,-3.05199 z m 310.93232,5.09619 c -4.37962,-2.81686 -4.98633,-8.70624 -1.24162,-12.05243 2.7646,-2.47038 7.45965,-2.52249 10.32134,-0.11453 2.28989,1.92682 3.60727,5.85942 2.72685,8.14011 -1.64117,4.25133 -8.0559,6.43919 -11.80657,4.02685 z m 8.88275,-2.44312 c 4.46264,-4.46264 1.46855,-10.74172 -5.12204,-10.74172 -6.03257,0 -8.67647,7.85507 -3.90673,11.60694 2.73817,2.15384 6.35644,1.80711 9.02877,-0.86522 z m -403.51454,0.59643 c -0.43665,-0.52614 -0.8363,-1.6665 -0.8881,-2.53417 -0.0518,-0.86766 -0.36809,-1.52916 -0.70286,-1.47 -0.33476,0.0592 -0.7201,-0.40201 -0.8563,-1.02483 -0.22636,-1.03503 0.50764,-1.13241 8.53553,-1.13241 4.9025,0 8.78318,0.26251 8.78318,0.59416 0,1.93682 -0.92404,2.64139 -3.46647,2.64316 -2.25707,0.001 -2.88551,0.30817 -3.97509,1.93941 -1.29455,1.9381 -4.20609,2.74437 -4.20609,1.16476 0,-0.60395 -0.17256,-0.60395 -0.77651,0 -1.01406,1.01406 -1.485,0.97941 -2.44729,-0.18008 z m 2.25969,-0.99524 c 0.22354,-0.3617 0.75031,-0.46458 1.1706,-0.22862 0.58541,0.32869 0.58513,0.23538 -0.001,-0.39891 -0.83053,-0.89843 -2.79364,-0.46431 -2.79364,0.61778 0,0.85863 1.09555,0.86521 1.62425,0.01 z m 4.19957,-0.90616 c 0,-0.50419 0.36399,-1.06358 0.80886,-1.24309 0.55005,-0.22196 0.49634,-0.34274 -0.16789,-0.37747 -0.53721,-0.0281 -1.34046,0.53129 -1.78499,1.24309 -0.6741,1.07942 -0.64624,1.29419 0.1679,1.29419 0.53686,0 0.97612,-0.41252 0.97612,-0.91672 z m -2.86193,-1.75254 c 0.19247,-0.31141 2.44389,-0.58919 5.00316,-0.61729 6.22288,-0.0683 4.82598,-0.42819 -3.04054,-0.78332 -4.40237,-0.19873 -6.0442,-0.09 -5.26086,0.34836 0.83866,0.46934 0.92954,0.76652 0.34489,1.12785 -0.485,0.29976 -0.13301,0.49061 0.9048,0.49061 0.93424,0 1.8561,-0.25479 2.04855,-0.56621 z m 119.95517,2.10325 -0.29324,-2.83082 -5.03601,-1.77378 c -5.45239,-1.92045 -5.95607,-2.20828 -5.41014,-3.09162 0.35006,-0.56641 12.20244,3.01644 12.57177,3.80031 0.10139,0.2152 0.97496,0.29845 1.94127,0.18502 1.16333,-0.13658 1.31967,-0.0753 0.46275,0.18127 -1.29419,0.38752 -1.29419,0.38752 0,0.95636 1.07663,0.47321 0.99504,0.52802 -0.48532,0.32606 -0.97873,-0.13353 -1.7795,0.0252 -1.7795,0.35276 0,0.32756 -0.27325,0.42667 -0.60723,0.22027 -0.33397,-0.20641 -0.71159,0.72278 -0.83916,2.06485 l -0.23194,2.44015 -0.29325,-2.83083 z m -4.49934,-5.58136 c -2.95442,-1.13774 -4.11683,-1.12095 -1.61773,0.0234 1.0677,0.4889 2.37806,0.87987 2.91191,0.86885 0.53385,-0.011 -0.0485,-0.41252 -1.29418,-0.89222 z m 62.12078,7.118 c 0,-0.17795 0.0728,-0.54194 0.16177,-0.80886 0.089,-0.26693 -2.31335,-0.64488 -5.33851,-0.8399 -3.53969,-0.22818 -1.46377,-0.34351 5.82383,-0.32355 6.22825,0.0171 10.23213,0.12141 8.8975,0.23188 -1.58735,0.13137 -2.42659,0.52302 -2.42659,1.13241 0,0.69778 -0.89317,0.93157 -3.559,0.93157 -1.95745,0 -3.559,-0.1456 -3.559,-0.32355 z m 5.3474,-0.77905 c -0.79589,-0.15359 -2.25184,-0.15757 -3.23546,-0.009 -0.98362,0.14873 -0.33244,0.27441 1.44706,0.27927 1.7795,0.005 2.58428,-0.11684 1.7884,-0.27044 z m -221.475932,0.2074 c 0,-0.13647 0.719164,-0.38559 1.598147,-0.55362 0.878977,-0.16802 1.444172,-0.0564 1.255992,0.24812 -0.331363,0.53615 -2.854139,0.80619 -2.854139,0.3055 z m 4.651991,-3.79621 0.122359,-4.04432 0.235664,3.79396 0.235671,3.79396 4.171617,-0.26563 c 2.29438,-0.14609 4.17162,-0.0335 4.17162,0.25036 0,0.28379 -2.03834,0.51599 -4.52964,0.51599 l -4.529643,0 0.122352,-4.04432 z m 10.662511,3.61292 c -0.23727,-0.23726 -0.41295,-1.03804 -0.39039,-1.7795 0.0379,-1.24561 0.0878,-1.2311 0.65696,0.19089 0.55151,1.378 0.91831,1.50492 3.50623,1.21323 1.58966,-0.17918 2.7328,-0.071 2.54032,0.2405 -0.40754,0.65939 -5.67605,0.77196 -6.31312,0.13488 z m 156.63772,-1.93433 c 0.4381,-0.17725 1.31168,-0.18804 1.94128,-0.024 0.6296,0.16407 0.27115,0.30909 -0.79655,0.32228 -1.0677,0.0132 -1.58283,-0.12104 -1.14473,-0.2983 z m 70.86883,-0.039 c 0.97872,-0.14827 2.58027,-0.14827 3.559,0 0.97872,0.14826 0.17795,0.26957 -1.7795,0.26957 -1.95745,0 -2.75823,-0.12131 -1.7795,-0.26957 z m 105.38918,-0.33306 c -0.086,-1.28354 0.6566,-1.07909 -14.63462,-4.02898 -16.58609,-3.19968 -35.37241,-6.2848 -35.78116,-5.87605 -0.19146,0.19146 0.24716,0.34811 0.97469,0.34811 0.72754,0 1.66794,0.41586 2.08977,0.92414 0.62762,0.75622 0.16363,0.7312 -2.55356,-0.13772 -2.37238,-0.75866 -2.99496,-1.17607 -2.18034,-1.46182 1.67075,-0.58607 -6.08411,-1.67849 -8.81643,-1.24197 l -2.26482,0.36184 3.23546,0.73745 c 1.7795,0.4056 3.96343,1.02833 4.85318,1.38384 l 1.61773,0.64639 -1.622,0.041 c -0.8921,0.0226 -2.61996,-0.24519 -3.83969,-0.595 -1.21973,-0.34981 -2.33471,-0.519 -2.47774,-0.37598 -0.45478,0.45478 2.62612,1.8364 5.98593,2.68438 l 3.24768,0.81968 -3.559,0.009 c -3.64534,0.009 -19.68343,1.42398 -30.08975,2.65409 -8.44217,0.99793 -24.98268,1.9435 -36.54962,2.08942 -9.99874,0.1261 -10.01239,0.12828 -3.2465,0.52039 l 6.79446,0.39376 -9.38283,0.0348 c -5.19294,0.0193 -8.22699,-0.15882 -6.79446,-0.39885 2.53579,-0.42487 2.54894,-0.44075 0.6471,-0.78185 -1.06771,-0.19149 2.1354,-0.38403 7.118,-0.42785 11.08065,-0.0975 39.14903,-2.10787 39.14903,-2.80407 0,-0.27775 0.46009,-0.32845 1.02242,-0.11266 0.97087,0.37256 20.74508,-0.79106 25.4709,-1.49885 l 2.22739,-0.33359 -3.03625,-1.88981 c -2.96737,-1.84694 -4.26832,-3.23945 -1.78462,-1.9102 1.62478,0.86955 2.66172,0.83679 1.16134,-0.0367 -0.63031,-0.36696 -1.00181,-0.90052 -0.82556,-1.1857 0.17625,-0.28519 -1.27884,-0.68358 -3.23354,-0.88532 -1.99607,-0.20601 -4.59253,-1.00865 -5.9231,-1.83098 -1.50956,-0.93297 -3.2074,-1.4127 -4.67971,-1.32226 -1.27084,0.078 -6.0527,0.42052 -10.62635,0.76105 l -8.31571,0.61912 -7.36146,-6.94574 c -4.0488,-3.82013 -7.36811,-7.3097 -7.37625,-7.75457 -0.009,-0.49804 0.91769,-0.82634 2.4118,-0.85435 5.38719,-0.10097 5.22761,-0.9677 -0.50242,-2.72886 -12.06328,-3.70773 -29.14777,-4.07123 -35.03113,-0.74535 -1.19771,0.67707 -1.44978,0.90266 -17.42131,15.59202 l -11.36713,10.45459 -3.83346,0.36748 c -2.57614,0.24695 -3.30287,0.18187 -2.21574,-0.19841 0.88975,-0.31123 2.35847,-0.5949 3.26381,-0.63038 1.14207,-0.0448 3.71778,-2.00415 8.41219,-6.39936 13.85404,-12.97105 21.65568,-19.75514 23.88486,-20.76963 1.86624,-0.84932 4.70716,-1.04398 15.23582,-1.04398 13.69892,0 17.51697,0.63818 25.39128,4.24411 1.5087,0.69089 3.19423,1.25616 3.74562,1.25616 1.17283,0 23.8189,12.26158 24.14606,13.07375 0.53854,1.3369 5.77374,3.21494 10.64799,3.81978 18.82582,2.33608 63.33157,10.30327 64.73915,11.58928 0.3003,0.27436 0.40688,1.03935 0.23683,1.69998 -0.27003,1.04912 -0.31866,1.05938 -0.38423,0.0811 z m -96.49168,-15.57735 c 0,-0.10814 -1.09196,-1.2001 -2.42659,-2.42659 l -2.42659,-2.22999 2.22998,2.42659 c 2.07562,2.25862 2.6232,2.72412 2.6232,2.22999 z m 8.25042,-0.26687 c -0.97873,-0.14827 -2.58028,-0.14827 -3.55901,0 -0.97872,0.14826 -0.17795,0.26957 1.77951,0.26957 1.95745,0 2.75822,-0.12131 1.7795,-0.26957 z m 7.88919,-1.61219 2.22714,-0.18915 -3.19778,-1.7128 c -2.59913,-1.39214 -4.34862,-1.77625 -9.34515,-2.05178 -3.74964,-0.20678 -5.1378,-0.14242 -3.559,0.16501 l 2.58837,0.504 -2.91191,0.10174 c -4.31583,0.15078 -5.01298,0.85435 -2.74094,2.76615 1.9948,1.67851 2.06372,1.68021 16.93927,0.41683 z m 0.83495,0.95961 c -1.16305,-0.14402 -2.91019,-0.14105 -3.88255,0.007 -0.97235,0.14765 -0.0208,0.26548 2.11464,0.26185 2.1354,-0.004 2.93096,-0.12444 1.76791,-0.26845 z m -22.79838,-4.95208 c 0,-0.13437 -0.50958,-0.64396 -1.13241,-1.13241 -1.02633,-0.8049 -1.04921,-0.78201 -0.24432,0.24431 0.84534,1.0779 1.37673,1.42068 1.37673,0.8881 z m 11.59256,-1.45578 2.20974,-0.33986 -5.12165,-2.77978 -5.12165,-2.77978 -4.08501,0.66012 -4.08502,0.66011 2.76755,2.81993 2.76755,2.81993 4.22938,-0.3604 c 2.32616,-0.19823 5.22375,-0.51335 6.43911,-0.70027 z m 3.76355,0.60457 c -0.6296,-0.16406 -1.50318,-0.15327 -1.94128,0.024 -0.4381,0.17726 0.077,0.31149 1.14473,0.2983 1.0677,-0.0132 1.42615,-0.15821 0.79655,-0.32227 z m -19.76442,-6.46452 c -0.46712,-0.18692 -1.02524,-0.16394 -1.24026,0.0511 -0.21502,0.21502 0.16717,0.36796 0.84931,0.33986 0.75383,-0.0311 0.90715,-0.18438 0.39095,-0.39094 z m -75.00868,28.52311 c 0.21502,-0.21503 0.77314,-0.23801 1.24026,-0.0511 0.5162,0.20656 0.36288,0.3599 -0.39095,0.39095 -0.68214,0.0281 -1.06433,-0.12485 -0.84931,-0.33987 z m 21.01699,-0.0376 c 0.44488,-0.17951 1.17285,-0.17951 1.61773,0 0.44488,0.17951 0.0809,0.32639 -0.80886,0.32639 -0.88976,0 -1.25374,-0.14688 -0.80887,-0.32639 z m 67.29751,-0.0395 c 1.15667,-0.14354 3.04941,-0.14354 4.20609,0 1.15668,0.14355 0.21031,0.26099 -2.10305,0.26099 -2.31335,0 -3.25972,-0.11744 -2.10304,-0.26099 z M 70.077639,561.07825 c 0,-1.25329 6.143324,-5.24025 6.903359,-4.48021 0.171699,0.17169 -0.311283,0.51005 -1.073292,0.7519 -0.762001,0.24185 -2.385502,1.31777 -3.607767,2.39093 -1.222265,1.07317 -2.2223,1.67499 -2.2223,1.33738 z m 106.770081,-0.93461 c 3.01659,-2.55709 13.31222,-6.95611 20.09835,-8.58742 9.20448,-2.21266 26.07129,-4.56283 42.02242,-5.85529 7.29596,-0.59116 13.76304,-1.33686 14.3713,-1.65709 0.61338,-0.32295 1.75441,-0.34238 2.56197,-0.0436 1.31822,0.48764 1.22884,0.58124 -0.94415,0.98891 -1.40729,0.264 -2.4002,0.82387 -2.4002,1.3534 0,1.0612 -1.1935,1.94296 -1.80381,1.33266 -0.23294,-0.23294 0.005,-0.69443 0.52837,-1.02552 1.38869,-0.87824 -2.43898,-0.78505 -14.5783,0.3549 -30.57126,2.87081 -46.78597,6.43202 -57.174,12.55702 -3.91916,2.31082 -4.99739,2.54483 -2.68195,0.58208 z m 87.83034,0.98992 c 0.4381,-0.17725 1.31168,-0.18803 1.94128,-0.024 0.6296,0.16406 0.27115,0.30909 -0.79655,0.32227 -1.0677,0.0132 -1.58283,-0.12104 -1.14473,-0.2983 z m 7.61564,-1.93466 c -3.40974,-2.40278 -4.79106,-4.16472 -2.17791,-2.77804 2.61941,1.39001 7.26424,5.13922 6.31528,5.09758 -0.49605,-0.0217 -2.35787,-1.06556 -4.13737,-2.31954 z m 62.5945,1.89675 c 0.97236,-0.14765 2.7195,-0.15062 3.88255,-0.007 1.16305,0.14402 0.36749,0.26482 -1.76791,0.26845 -2.1354,0.004 -3.08699,-0.1142 -2.11464,-0.26185 z m 27.53834,-0.0174 c 2.23832,-0.12672 5.73261,-0.12567 7.76509,0.003 2.03248,0.128 0.20113,0.23168 -4.06968,0.23041 -4.2708,-10e-4 -5.93374,-0.10601 -3.69541,-0.23273 z m -103.22296,-0.55829 c 0.21502,-0.21502 0.77314,-0.23801 1.24026,-0.0511 0.5162,0.20657 0.36288,0.3599 -0.39095,0.39095 -0.68214,0.0281 -1.06433,-0.12484 -0.84931,-0.33986 z m 88.30007,-0.0761 c 1.14873,-0.14295 3.18707,-0.1453 4.52964,-0.005 1.34256,0.14008 0.40268,0.25704 -2.08862,0.25991 -2.4913,0.003 -3.58977,-0.11174 -2.44102,-0.25469 z m 13.92689,-0.65571 c 1.69053,-0.1333 4.45684,-0.1333 6.14737,0 1.69053,0.1333 0.30737,0.24237 -3.07368,0.24237 -3.38106,0 -4.76421,-0.10907 -3.07369,-0.24237 z M 96.012382,558.70003 c -0.02808,-0.68214 0.124837,-1.06433 0.339866,-0.84931 0.215022,0.21502 0.238006,0.77314 0.05105,1.24026 -0.206571,0.51621 -0.359905,0.36288 -0.390953,-0.39095 z m 12.437368,-1.22038 c 0.0714,-0.35818 -2.2667,-1.88441 -5.19579,-3.39161 -5.159341,-2.65482 -5.260352,-2.75051 -3.23545,-3.06476 1.62306,-0.25189 3.13854,0.26701 6.78156,2.32202 4.91889,2.7747 5.75163,3.97662 3.10564,4.48244 -0.87219,0.16673 -1.52737,0.0101 -1.45596,-0.34809 z m -1.81145,-3.37275 c -2.4913,-1.5883 -4.82083,-2.88833 -5.17673,-2.88896 -0.3559,-6.2e-4 0.66327,0.77315 2.26482,1.71952 1.60155,0.94636 3.60636,2.25397 4.45513,2.90579 0.84877,0.65182 1.86794,1.17755 2.26482,1.1683 0.39688,-0.009 -1.31674,-1.31636 -3.80804,-2.90465 z m 157.0739,2.47687 c 0.61867,-0.16196 1.78344,-0.16783 2.58836,-0.0131 0.80492,0.15478 0.29874,0.2873 -1.12486,0.29448 -1.4236,0.007 -2.08218,-0.11946 -1.4635,-0.28142 z m 324.68565,-4.49468 c -4.34296,-5.06444 -15.89043,-15.66147 -19.37587,-17.78109 -2.12709,-1.29356 -2.64032,-2.08258 -0.92699,-1.42511 0.96904,0.37185 0.96886,0.27775 -0.003,-1.20437 -0.5794,-0.88426 -0.88818,-1.773 -0.6862,-1.97499 0.20198,-0.20198 -2.9273,-0.53613 -6.95396,-0.74256 -10.74955,-0.55107 -76.63874,-1.10503 -77.81356,-0.6542 -0.5521,0.21186 -0.8149,0.69087 -0.584,1.06446 0.24723,0.40003 0.10836,0.48679 -0.33782,0.21103 -0.41669,-0.25753 -0.5901,-0.73931 -0.38533,-1.07062 0.53193,-0.86069 -5.97956,-0.75251 -7.62228,0.12664 -1.05811,0.56629 -1.51806,0.53018 -2.0605,-0.16177 -0.43148,-0.5504 -1.56376,-0.80085 -2.96314,-0.65541 -1.9197,0.19952 -2.06762,0.32023 -0.97064,0.79218 0.81447,0.35041 -0.50474,0.45879 -3.559,0.29239 -3.12849,-0.17044 -3.93335,-0.10152 -2.26482,0.19395 2.43347,0.43093 2.30196,0.48727 -2.1976,0.94149 -2.63227,0.26572 -4.93753,0.33155 -5.1228,0.14628 -0.18527,-0.18527 0.65805,-0.36188 1.87404,-0.39247 l 2.2109,-0.0557 -1.83425,-0.55015 c -1.00884,-0.30258 -2.22365,-0.40072 -2.69958,-0.21809 -0.47593,0.18262 -1.47045,0.008 -2.21007,-0.38764 -0.73961,-0.39582 -1.34701,-0.49104 -1.34979,-0.2116 -0.003,0.27945 -0.76468,0.86069 -1.69311,1.29164 -1.42419,0.66108 -2.08446,0.58134 -4.22391,-0.51013 -1.51682,-0.77383 -2.35646,-1.58392 -2.08945,-2.01594 0.26622,-0.43075 0.15381,-0.54144 -0.2785,-0.27427 -0.39868,0.2464 -1.88447,-0.14358 -3.30176,-0.86662 l -2.57688,-1.31463 -0.19545,3.3932 c -0.14356,2.49794 -0.45122,3.39323 -1.16576,3.39323 -0.77314,0 -0.99205,-1.05334 -1.07584,-5.17673 -0.0579,-2.84721 -0.13066,-5.68632 -0.16177,-6.30914 -0.0486,-0.9728 -0.74062,-1.13241 -4.90976,-1.13241 l -4.85319,0 -0.0765,2.10304 -0.0766,2.10305 -0.49397,-1.94128 c -0.33946,-1.33407 -0.52407,-1.53647 -0.5902,-0.64709 -0.0888,1.19338 -0.14762,1.20598 -0.75581,0.16178 -0.90824,-1.55935 -9.69184,-1.64976 -11.22605,-0.11555 -0.92441,0.92441 -1.0261,0.79205 -1.11851,-1.45596 -0.0953,-2.31874 -0.12932,-2.27122 -0.54544,0.76264 l -0.44377,3.23546 -0.10166,-3.07368 -0.10166,-3.07369 -5.66205,0.007 c -5.55062,0.007 -79.78419,1.44318 -119.71191,2.31595 l -20.2216,0.44203 -0.14253,9.13265 -0.14253,9.13266 -0.32648,-9.38282 -0.32647,-9.38283 -0.36556,10.02992 -0.36555,10.02991 -0.13608,-9.85604 -0.13608,-9.85605 -9.22105,0.33041 c -21.74698,0.77922 -27.66313,1.09835 -27.66276,1.49217 2.2e-4,0.22992 -1.48907,0.31489 -3.30955,0.18882 -4.12571,-0.28572 -11.57395,0.47573 -11.57395,1.18322 0,0.2901 1.08379,0.28301 2.40843,-0.0157 1.32463,-0.29876 2.53107,-0.42054 2.68098,-0.27064 0.34664,0.34664 -1.06496,0.83098 -3.14814,1.08015 -1.5876,0.18991 -1.61772,0.29897 -1.61772,5.85654 0,7.93076 -0.94196,7.1008 -1.10275,-0.97162 l -0.13212,-6.63268 -0.38286,8.41218 -0.38287,8.41219 -0.13211,-7.27978 c -0.10854,-5.98082 -0.30531,-7.27979 -1.10275,-7.27979 -0.61185,0 -0.99448,0.65778 -1.03514,1.7795 l -0.0645,1.7795 -0.51807,-1.61773 c -0.28495,-0.88975 -0.54712,-1.23655 -0.58259,-0.77067 -0.0355,0.46588 -0.35236,0.66914 -0.70418,0.45171 -0.36747,-0.22711 -0.4749,0.034 -0.25245,0.61377 0.21299,0.55502 0.17483,2.09889 -0.0848,3.43084 -0.40222,2.06364 -0.55181,2.23036 -1.0117,1.12754 -0.38296,-0.91836 -0.50143,-0.44857 -0.40796,1.61772 0.0818,1.80705 -0.13519,2.86386 -0.57175,2.78527 -0.66597,-0.1199 -2.56645,8.07296 -2.0033,8.63611 0.1462,0.14619 0.61686,-1.51854 1.04592,-3.69942 0.42906,-2.18087 0.91152,-3.83381 1.07214,-3.6732 0.36154,0.36155 -0.87891,6.7493 -1.69554,8.7313 -0.53552,1.29971 -1.05274,1.45596 -4.81986,1.45596 -3.31969,0 -4.21997,-0.20708 -4.21997,-0.97064 0,-1.08801 -1.64695,-1.3233 -2.26482,-0.32355 -0.23151,0.37459 -3.04072,0.59225 -6.67088,0.51687 l -6.27095,-0.13022 5.17673,-0.19453 c 7.02472,-0.26395 8.0451,-0.54243 7.64158,-2.08546 -0.21286,-0.81401 0.14746,-1.54816 1.03052,-2.09963 1.21116,-0.75639 1.35782,-1.46022 1.35782,-6.51615 0,-3.34738 -0.26495,-5.66816 -0.64709,-5.66816 -0.3559,0 -0.64709,0.67572 -0.64709,1.50161 0,0.82588 -0.58239,4.22683 -1.29419,7.55767 -0.7118,3.33084 -1.29418,6.1494 -1.29418,6.26349 0,0.11408 -0.84596,0.20742 -1.87991,0.20742 l -1.87991,0 0.33654,-4.04432 c 0.1851,-2.22438 0.71727,-4.65476 1.1826,-5.40086 0.46533,-0.74609 1.29058,-2.42044 1.83389,-3.72077 l 0.98785,-2.36424 -2.84802,0 -2.84802,0 -0.22974,4.04432 -0.22974,4.04432 -0.12468,-4.42741 -0.12468,-4.4274 3.72077,0.13681 c 5.35752,0.19698 5.9856,0.0933 5.9856,-0.98837 0,-0.82357 -1.61773,-0.97064 -10.67701,-0.97064 l -10.67701,0 0,10.40091 c 0,8.95088 -0.13664,10.37174 -0.98016,10.19169 -0.78,-0.16649 -1.03115,-1.5968 -1.2298,-7.00368 -0.13731,-3.73695 -0.0957,-8.42876 0.0924,-10.42624 l 0.34205,-3.63177 11.40254,-0.46601 c 6.27139,-0.25631 11.52407,-0.58755 11.67261,-0.7361 0.93279,-0.93279 -1.85782,-1.01649 -11.95203,-0.35847 -6.34766,0.41379 -11.82566,0.4994 -12.37253,0.19336 -2.06349,-1.15479 5.08096,-2.02783 27.29085,-3.33489 12.45651,-0.73307 27.16166,-1.61378 32.67812,-1.95712 10.28753,-0.64031 40.12287,-1.39212 103.85817,-2.61709 19.93041,-0.38305 46.28321,-0.92325 58.56177,-1.20043 12.27856,-0.27719 22.64011,-0.39036 23.02566,-0.2515 1.07917,0.38867 0.83007,2.12354 -0.32354,2.25338 -2.50089,0.2815 12.10423,0.8342 17.07055,0.646 4.88221,-0.18501 5.52373,-0.34933 5.52373,-1.41496 0,-0.87527 -0.57627,-1.27715 -2.10305,-1.46662 -1.15668,-0.14354 0.51767,-0.30128 3.72077,-0.35052 5.7371,-0.0882 18.77431,1.2931 19.55284,2.07164 0.21953,0.21953 -0.0862,0.39914 -0.67934,0.39914 -0.59316,0 -1.07848,0.45398 -1.07848,1.00883 0,0.55486 -0.29119,0.82886 -0.64709,0.6089 -0.3559,-0.21996 -0.6471,0.0596 -0.6471,0.62123 0,0.72803 -0.41793,0.92384 -1.45595,0.68214 -0.80078,-0.18646 -3.93108,-0.41041 -6.95623,-0.49765 -5.43502,-0.15674 -5.50247,-0.13943 -5.68437,1.4591 -0.16493,1.44938 0.42539,1.91405 5.67254,4.46523 3.22114,1.56613 5.96844,2.73089 6.10513,2.58836 0.13668,-0.14252 0.50378,-1.56949 0.81577,-3.17104 0.5664,-2.90745 0.57184,-2.91221 3.54976,-3.10612 2.35887,-0.15361 3.34352,0.117 4.70914,1.29418 0.94966,0.81861 1.81342,2.07078 1.91946,2.78258 0.1655,1.11088 0.59587,1.26172 3.03856,1.06502 1.56516,-0.12604 3.10994,-0.38991 3.43284,-0.5864 0.3229,-0.19649 -1.27866,-1.3388 -3.55901,-2.53848 -2.28035,-1.19968 -3.41811,-2.03065 -2.52836,-1.84661 1.40983,0.29163 1.36825,0.21447 -0.32354,-0.6004 -1.51693,-0.73065 -1.65838,-0.94004 -0.64709,-0.9579 0.7118,-0.0126 2.80556,0.68083 4.65282,1.54089 2.3431,1.09093 3.25381,1.2906 3.01196,0.66035 -0.19066,-0.49686 -1.47845,-1.40273 -2.86173,-2.01304 -3.20667,-1.41478 -2.85984,-1.88125 0.45468,-0.61154 2.83667,1.08665 10.51964,2.3291 14.40255,2.3291 1.42339,0 2.78329,0.31601 3.022,0.70224 0.28459,0.46048 1.74576,0.55 4.24428,0.26001 3.55694,-0.41282 3.81028,-0.35376 3.81028,0.88827 0,1.20918 -0.45728,1.35061 -5.01496,1.55104 -2.75823,0.1213 3.13839,0.28501 13.1036,0.36381 9.96521,0.0788 30.32645,0.42328 45.24721,0.76551 l 27.12864,0.62224 2.75708,-1.74426 2.75709,-1.74426 0.35995,-4.87662 c 1.12213,-15.20241 6.45772,-31.32825 14.22196,-42.98328 6.32642,-9.49671 13.79048,-12.88714 20.76906,-9.43404 2.32499,1.15043 2.39083,1.24413 0.6471,0.92078 -7.85164,-1.45593 -9.96859,-1.06808 -14.98623,2.74568 -2.31093,1.75648 -7.65918,9.24881 -10.07073,14.10804 -4.96855,10.01157 -8.81029,24.53302 -9.36893,35.41385 l -0.38963,7.58893 -3.56883,2.11744 c -4.45924,2.64574 -4.81516,3.54137 -1.6151,4.06417 1.35748,0.22178 3.05053,0.68242 3.76233,1.02367 1.02896,0.49328 0.8632,0.55418 -0.80887,0.29715 -1.15667,-0.1778 -2.10304,-0.0816 -2.10304,0.21377 0,0.58847 6.80948,7.1957 7.41596,7.1957 0.20649,0 -0.23318,-1.19299 -0.97704,-2.65108 -0.74386,-1.45808 -1.20688,-2.79666 -1.02893,-2.97461 0.17795,-0.17795 0.96043,0.94223 1.73884,2.48929 0.77841,1.54707 3.05546,4.35309 5.0601,6.2356 2.00464,1.88252 3.13522,3.23452 2.5124,3.00446 -1.70571,-0.63007 -1.38619,0.20383 1.34601,3.5129 2.43641,2.95083 3.61627,4.6362 3.22182,4.60222 -0.10998,-0.009 -2.09271,-2.2244 -4.40606,-4.92206 z M 168.27036,531.66076 c -0.12017,-2.95308 -0.21916,-0.71017 -0.21998,4.98423 -6.5e-4,5.69441 0.0975,8.11056 0.21849,5.36923 0.121,-2.74133 0.12167,-7.40038 0.001,-10.35346 z m 30.22728,13.76468 c 0.20477,-0.33131 0.0314,-0.81309 -0.38533,-1.07062 -0.46074,-0.28475 -0.58465,-0.18835 -0.3162,0.24601 0.29709,0.48069 -0.78107,0.79076 -3.29725,0.94826 l -3.73867,0.23402 3.68258,0.12236 c 2.02542,0.0673 3.85012,-0.14873 4.05487,-0.48003 z m -5.88797,-3.1184 c 0.2206,-1.33462 0.4043,-4.97451 0.40821,-8.08864 l 0.007,-5.66205 4.04432,0.12235 4.04432,0.12236 -3.72077,0.23348 -3.72078,0.23349 0,5.79152 0,5.79154 2.23988,0 c 2.09068,0 2.2879,-0.18319 2.96075,-2.75014 0.39648,-1.51258 1.14269,-4.23193 1.65825,-6.04301 0.51555,-1.81108 0.88418,-4.79579 0.81916,-6.63269 l -0.1182,-3.33981 -3.94169,0.10547 -3.9417,0.10547 3.55901,0.43615 c 3.22733,0.3955 3.31779,0.44689 0.97063,0.55153 -3.21629,0.14337 -4.52593,0.91707 -3.9764,2.34914 0.27435,0.71493 0.13979,0.99401 -0.39102,0.811 -0.44512,-0.15345 -0.79783,-1.05136 -0.7838,-1.99534 0.0418,-2.81369 -0.78866,-1.94669 -1.23174,1.28589 -0.61286,4.47137 -0.49746,18.99888 0.15093,18.99888 0.30933,0 0.74291,-1.09196 0.96351,-2.42659 z m -6.32893,-3.52408 c 1.16298,-5.42192 1.13206,-5.70584 -0.37374,-3.43215 -0.84292,1.27277 -1.28712,3.03688 -1.28992,5.12281 -0.005,4.05133 0.55396,3.48287 1.66366,-1.69066 z m 9.81795,4.21043 c -0.62283,-0.16275 -1.642,-0.16275 -2.26482,0 -0.62283,0.16277 -0.11324,0.29594 1.13241,0.29594 1.24565,0 1.75523,-0.13317 1.13241,-0.29594 z m 5.08236,-9.73215 c -0.21502,-0.21502 -0.36796,0.16717 -0.33986,0.84931 0.0311,0.75383 0.18438,0.90716 0.39095,0.39095 0.18692,-0.46712 0.16394,-1.02524 -0.0511,-1.24026 z m -13.58891,-1.94127 c -0.21503,-0.21503 -0.36797,0.16717 -0.33987,0.8493 0.0311,0.75383 0.18438,0.90716 0.39095,0.39096 0.18692,-0.46712 0.16394,-1.02524 -0.0511,-1.24026 z m 389.80515,-5.4708 c 0,-0.29056 -0.18401,-0.52828 -0.40894,-0.52828 -0.68221,0 -4.9971,2.75283 -6.53611,4.16994 -2.66639,2.4552 -1.50146,2.27151 2.73896,-0.43188 2.31335,-1.47484 4.20609,-2.91923 4.20609,-3.20978 z m -141.93155,1.89832 c -0.17951,-0.44488 -0.32638,-0.0809 -0.32638,0.80886 0,0.88975 0.14687,1.25374 0.32638,0.80886 0.17951,-0.44487 0.17951,-1.17285 0,-1.61772 z m 12.45935,1.86179 c -0.66064,-0.59112 -4.47571,-2.34778 -4.47571,-2.06085 0,0.40224 3.3549,2.24137 4.15217,2.27619 0.32624,0.0142 0.47183,-0.0827 0.32354,-0.21534 z m -245.44985,-2.17186 c -0.21503,-0.21502 -0.36796,0.16717 -0.33987,0.84931 0.0311,0.75383 0.18438,0.90715 0.39095,0.39095 0.18692,-0.46712 0.16394,-1.02524 -0.0511,-1.24026 z m 255.53369,0.50699 c -1.22167,-0.4918 -1.20811,-0.53456 0.24218,-0.76338 l 1.53635,-0.24241 -1.80475,-1.79788 c -2.19593,-2.18758 -3.00548,-2.0217 -3.21637,0.65905 -0.1284,1.63227 0.11489,2.09389 1.21752,2.31011 2.37023,0.46478 3.38479,0.38187 2.02507,-0.16549 z m 11.72567,-2.378 c 0.0816,-0.55615 -0.0323,-0.83049 -0.25316,-0.60963 -0.22086,0.22087 -0.46835,0.85661 -0.54998,1.41278 -0.0816,0.55615 0.0323,0.83049 0.25316,0.60963 0.22086,-0.22087 0.46835,-0.85662 0.54998,-1.41278 z m -33.34042,-1.83089 c 0.92531,-0.97354 0.72996,-7.47408 -0.22458,-7.47299 -0.57333,6.5e-4 -0.83881,1.55523 -0.91169,5.33851 -0.0566,2.93567 0.0445,4.7552 0.22458,4.0434 0.18007,-0.7118 0.59034,-1.57082 0.91169,-1.90892 z m 5.11392,2.57263 c 0,-0.16882 -0.87357,-0.75867 -1.94127,-1.3108 -2.43364,-1.25849 -2.58089,-0.71187 -0.16178,0.60052 2.03352,1.1032 2.10305,1.12668 2.10305,0.71028 z m 32.35457,-0.58448 c 0,-0.13437 -0.50958,-0.64395 -1.13241,-1.13241 -1.02632,-0.8049 -1.04921,-0.78201 -0.24431,0.24431 0.84534,1.0779 1.37672,1.42068 1.37672,0.8881 z m 12.44897,-0.86044 c -0.80493,-0.15478 -1.96969,-0.1489 -2.58837,0.0131 -0.61868,0.16196 0.0399,0.2886 1.4635,0.28142 1.4236,-0.007 1.92979,-0.1397 1.12487,-0.29448 z M 169.2444,524.24525 c -0.44488,-0.17951 -1.17286,-0.17951 -1.61773,0 -0.44488,0.17951 -0.0809,0.32638 0.80886,0.32638 0.88975,0 1.25374,-0.14687 0.80887,-0.32638 z m 8.08864,-0.68993 c -1.33463,-0.1396 -3.51856,-0.1396 -4.85319,0 -1.33462,0.13961 -0.24266,0.25383 2.4266,0.25383 2.66925,0 3.76121,-0.11422 2.42659,-0.25383 z m 11.3241,-0.64381 c -1.15668,-0.14354 -3.04942,-0.14354 -4.2061,0 -1.15667,0.14355 -0.2103,0.26099 2.10305,0.26099 2.31335,0 3.25972,-0.11744 2.10305,-0.26099 z m 18.60388,-0.17898 c 0,-0.3559 -0.58239,-0.64709 -1.29419,-0.64709 -0.7118,0 -1.29418,0.29119 -1.29418,0.64709 0,0.3559 0.58238,0.64709 1.29418,0.64709 0.7118,0 1.29419,-0.29119 1.29419,-0.64709 z m 243.72322,-4.17619 c -0.10017,-1.70448 -0.27183,-1.75896 -8.26062,-2.62144 -2.94196,-0.31763 -3.71154,-0.20018 -4.024,0.61408 -0.30876,0.80459 0.16194,1.02723 2.34347,1.10847 l 2.72983,0.10167 -2.91191,0.47182 c -2.08971,0.3386 -1.26751,0.42369 2.91191,0.30136 3.2031,-0.0938 4.95025,-0.006 3.88255,0.19518 -1.91103,0.35996 -1.90095,0.37242 0.64709,0.79934 1.4236,0.23853 2.63036,0.47501 2.68168,0.52551 0.0513,0.0505 0.0513,-0.62269 0,-1.49599 z m 159.51689,37.17785 c 0,-0.88975 0.14687,-1.25374 0.32638,-0.80887 0.17951,0.44488 0.17951,1.17286 0,1.61773 -0.17951,0.44488 -0.32638,0.0809 -0.32638,-0.80886 z M 86.078715,555.26716 c 1.148742,-0.14295 3.18708,-0.14529 4.529639,-0.005 1.342566,0.14008 0.402691,0.25703 -2.08861,0.25991 -2.491302,0.003 -3.589765,-0.11174 -2.441029,-0.25469 z m 159.360695,-6.2582 c 0,-0.13987 0.45191,-0.42773 1.00425,-0.63968 0.57586,-0.22098 0.8356,-0.1125 0.6089,0.25431 -0.38002,0.61487 -1.61315,0.90946 -1.61315,0.38537 z m 17.07961,-0.92935 c 0.22944,-0.37123 2.5954,-1.15958 5.25769,-1.75188 5.3875,-1.1986 6.36157,-1.77782 1.97975,-1.17722 -3.89782,0.53425 -9.88826,-0.27532 -10.31768,-1.39438 -0.21785,-0.56769 -0.0205,-0.77353 0.53654,-0.55976 0.50025,0.19197 1.01295,-0.1719 1.18616,-0.84181 0.2233,-0.86358 0.32787,-0.7462 0.39006,0.4378 0.0679,1.29239 0.21112,1.42253 0.71225,0.64709 0.41818,-0.64709 0.63057,-0.70101 0.63718,-0.16177 0.007,0.58287 1.54664,0.80886 5.51018,0.80886 3.14893,0 5.50028,0.27025 5.50028,0.63218 0,1.01277 -2.69739,2.42335 -5.50028,2.87633 -1.4236,0.23006 -3.42557,0.58508 -4.44882,0.78891 -1.20679,0.2404 -1.71389,0.13346 -1.44331,-0.30435 z m -84.86998,-1.20221 c 0.61868,-0.16196 1.78344,-0.16784 2.58836,-0.0131 0.80493,0.15477 0.29874,0.28729 -1.12486,0.29447 -1.4236,0.007 -2.08218,-0.11946 -1.4635,-0.28142 z m 410.36378,-2.30554 -1.2327,-1.45595 1.45596,1.2327 c 1.36823,1.15843 1.75053,1.67921 1.2327,1.67921 -0.12279,0 -0.77797,-0.65518 -1.45596,-1.45596 z m -115.20493,-6.30914 c 0,-3.73695 0.10695,-5.26571 0.23766,-3.39723 0.13071,1.86848 0.13071,4.92598 0,6.79446 -0.13071,1.86848 -0.23766,0.33972 -0.23766,-3.39723 z m -327.02056,4.38318 c 0,-0.5551 0.47798,-1.19268 1.06216,-1.41685 0.92472,-0.35485 0.94842,-0.25914 0.18311,0.73963 -0.48348,0.63098 -0.96145,1.26856 -1.06216,1.41685 -0.10071,0.14829 -0.18311,-0.18454 -0.18311,-0.73963 z m 328.12643,-0.12316 c -0.0281,-0.68214 0.12484,-1.06433 0.33986,-0.84931 0.21503,0.21502 0.23801,0.77314 0.0511,1.24026 -0.20656,0.5162 -0.3599,0.36288 -0.39095,-0.39095 z m 171.2073,-0.23443 c -0.15073,-0.25662 -0.48504,-1.44939 -0.74291,-2.65059 -0.32866,-1.53102 -0.25467,-2.05164 0.24746,-1.74131 0.39395,0.24348 0.71628,0.87254 0.71628,1.3979 0,0.76329 0.26725,0.81219 1.33006,0.24339 2.30877,-1.23561 2.72172,-0.3455 0.6826,1.47135 -1.07768,0.96023 -2.08275,1.53589 -2.23349,1.27926 z M 164.62488,540.1321 c -0.39865,-1.14358 -0.61158,-2.19249 -0.47318,-2.33089 0.13841,-0.1384 0.57782,0.68401 0.97648,1.82759 0.39865,1.14358 0.61158,2.19248 0.47318,2.33088 -0.13841,0.13841 -0.57782,-0.684 -0.97648,-1.82758 z m 141.13029,0.39185 c -0.69752,-0.80843 -0.64445,-0.96867 0.32354,-0.97695 0.92127,-0.008 0.97334,-0.12679 0.25477,-0.58179 -0.49673,-0.31453 -0.72426,-1.03805 -0.50563,-1.60782 0.4218,-1.09918 1.73233,-1.43929 1.73233,-0.44958 0,0.32251 1.52876,0.82402 3.39723,1.11447 l 3.39723,0.52809 -3.23545,0.40161 -3.23546,0.4016 2.91191,0.17608 2.91191,0.17607 -2.26482,0.51627 c -1.24565,0.28395 -2.8472,0.68563 -3.559,0.89263 -0.75585,0.21981 -1.64125,-0.0259 -2.12856,-0.59068 z m 278.0305,-0.15818 c -0.8049,-1.02633 -0.78201,-1.04922 0.24431,-0.24432 1.07789,0.84534 1.42068,1.37673 0.8881,1.37673 -0.13437,0 -0.64396,-0.50959 -1.13241,-1.13241 z m -259.56288,-1.23742 c 0.44487,-0.17951 1.17285,-0.17951 1.61772,0 0.44488,0.17951 0.0809,0.32638 -0.80886,0.32638 -0.88975,0 -1.25374,-0.14687 -0.80886,-0.32638 z m 149.82496,-3.13045 c 0.005,-1.7795 0.13053,-2.43068 0.27926,-1.44706 0.14874,0.98362 0.14476,2.43958 -0.009,3.23546 -0.15359,0.79588 -0.27528,-0.009 -0.27043,-1.7884 z m -152.25156,1.64729 c 0.53385,-0.36126 1.52876,-0.6613 2.2109,-0.66675 1.65555,-0.0132 1.13905,0.35715 -1.24026,0.88936 -1.41772,0.31712 -1.6795,0.25709 -0.97064,-0.22261 z m -113.1899,-0.94628 c -0.0281,-0.68213 0.12483,-1.06433 0.33986,-0.8493 0.21502,0.21502 0.23801,0.77314 0.0511,1.24026 -0.20657,0.5162 -0.3599,0.36287 -0.39095,-0.39096 z m 436.91085,0.52577 c 0.21503,-0.21503 0.77315,-0.23801 1.24026,-0.0511 0.51621,0.20656 0.36288,0.3599 -0.39095,0.39095 -0.68214,0.0281 -1.06433,-0.12485 -0.84931,-0.33987 z M 169.8929,534.05663 c -0.007,-1.4236 0.11946,-2.08218 0.28142,-1.4635 0.16196,0.61867 0.16783,1.78344 0.0131,2.58836 -0.15478,0.80492 -0.2873,0.29874 -0.29448,-1.12486 z m 9.73709,-0.97064 c 0,-1.95745 0.12131,-2.75823 0.26957,-1.7795 0.14827,0.97872 0.14827,2.58027 0,3.559 -0.14826,0.97873 -0.26957,0.17795 -0.26957,-1.7795 z m 401.17098,0.93958 c -0.50984,-0.55351 -0.56716,-1.01657 -0.1572,-1.26993 0.35487,-0.21932 0.82473,0.069 1.04413,0.64079 0.53463,1.39323 0.10051,1.70117 -0.88693,0.62914 z m -344.9137,-0.09 c 0.61867,-0.16196 1.78344,-0.16784 2.58836,-0.0131 0.80492,0.15478 0.29874,0.28729 -1.12486,0.29448 -1.4236,0.007 -2.08218,-0.11946 -1.4635,-0.28142 z m 341.9028,-1.22605 c -0.62849,-1.63784 -0.4568,-3.29474 0.41609,-4.01551 0.62543,-0.51644 0.81275,-0.0208 0.826,2.18559 0.0173,2.89306 -0.5266,3.69446 -1.24209,1.82992 z M 203.6573,531.71946 c -0.5578,-0.90255 1.12654,-2.01657 1.89184,-1.25127 0.62245,0.62245 0.0228,1.97071 -0.87649,1.97071 -0.31389,0 -0.7708,-0.32375 -1.01535,-0.71944 z m 69.08937,-0.70416 c -0.48497,-0.48497 -0.75733,-2.73229 -0.72543,-5.9856 0.0281,-2.865 0.20894,-4.81215 0.40188,-4.327 0.29616,0.74472 0.43782,0.74472 0.90964,0 0.34209,-0.53995 0.56269,1.05326 0.56876,4.10768 l 0.01,4.98976 5.66205,0.21568 5.66205,0.21567 -6.14737,0.17855 c -4.13636,0.12014 -5.72399,0.36048 -4.85318,0.73468 0.91726,0.39415 1.00207,0.56937 0.29119,0.6016 -0.55164,0.025 -1.35242,-0.30394 -1.7795,-0.73102 z m 0.33868,-6.50327 c -0.14354,-1.15668 -0.26099,-0.21031 -0.26099,2.10305 0,2.31335 0.11745,3.25972 0.26099,2.10304 0.14354,-1.15667 0.14354,-3.04942 0,-4.20609 z m 135.42109,6.64842 c 0,-0.40657 0.26632,-0.57461 0.59182,-0.37344 0.3255,0.20117 0.71376,0.14556 0.86279,-0.12358 0.14903,-0.26915 0.2285,-0.21636 0.1766,0.1173 -0.13942,0.89625 -1.63121,1.24352 -1.63121,0.37972 z m -238.77713,-2.11878 c 2.2e-4,-0.26693 2.25714,-0.44169 5.01536,-0.38837 5.10418,0.0987 4.49999,0.35587 -1.61813,0.6888 -1.86869,0.10169 -3.39745,-0.0335 -3.39723,-0.30043 z m 188.57814,-0.0572 c -0.18279,-0.47634 -0.23225,-3.16986 -0.10992,-5.9856 l 0.22243,-5.11953 0.2525,5.82382 0.2525,5.82382 0.40253,-5.82382 0.40253,-5.82382 0.12229,5.98559 c 0.0768,3.75947 -0.12594,5.9856 -0.54512,5.9856 -0.36708,0 -0.81695,-0.38973 -0.99974,-0.86606 z m 238.92832,-7.83672 c -0.24002,-0.62549 -0.0489,-0.81836 0.57414,-0.57929 0.51368,0.19712 0.77286,0.61908 0.57595,0.93768 -0.49595,0.80246 -0.73297,0.7286 -1.15009,-0.35839 z m -144.72711,-0.42399 c 0,-0.57526 3.28288,-1.39497 3.74321,-0.93464 0.19526,0.19527 -0.20309,0.37551 -0.88523,0.40053 -1.18587,0.0435 -1.1835,0.0704 0.0539,0.61339 1.05506,0.46298 0.90561,0.54871 -0.80887,0.46397 -1.15667,-0.0571 -2.10304,-0.30163 -2.10304,-0.54325 z m -65.23009,-1.55024 c -0.0132,-1.0677 0.12105,-1.58282 0.29831,-1.14472 0.17725,0.4381 0.18804,1.31167 0.024,1.94127 -0.16406,0.6296 -0.30908,0.27116 -0.32227,-0.79655 z m 1.29419,0 c -0.0132,-1.0677 0.12104,-1.58282 0.2983,-1.14472 0.17725,0.4381 0.18804,1.31167 0.024,1.94127 -0.16407,0.6296 -0.30909,0.27116 -0.32228,-0.79655 z m 25.59573,-2.04628 c 0.44488,-0.17951 1.17285,-0.17951 1.61773,0 0.44487,0.17951 0.0809,0.32639 -0.80887,0.32639 -0.88975,0 -1.25374,-0.14688 -0.80886,-0.32639 z m -142.02308,-1.90367 c 0.21502,-0.21502 0.77314,-0.23801 1.24026,-0.0511 0.5162,0.20657 0.36287,0.3599 -0.39095,0.39095 -0.68214,0.0281 -1.06433,-0.12484 -0.84931,-0.33987 z m 45.2964,-7.11801 c 0.21502,-0.21502 0.77313,-0.238 1.24026,-0.0511 0.5162,0.20656 0.36287,0.3599 -0.39096,0.39094 -0.68213,0.0281 -1.06433,-0.12484 -0.8493,-0.33986 z m 272.05211,-9.08213 c -0.48339,-0.48339 0.0467,-1.52747 0.77554,-1.52747 0.27558,0 0.50106,0.43679 0.50106,0.97064 0,1.01426 -0.57038,1.26305 -1.2766,0.55683 z m 24.96284,-1.91842 c 0.21502,-0.21502 0.77314,-0.23801 1.24026,-0.0511 0.5162,0.20657 0.36287,0.3599 -0.39096,0.39095 -0.68213,0.0281 -1.06433,-0.12484 -0.8493,-0.33986 z M 592.37035,485.4272 c -0.76128,-1.56693 -1.38414,-3.13236 -1.38414,-3.47874 0,-0.37722 3.50339,-0.62978 8.73574,-0.62978 4.80465,0 8.73573,0.16473 8.73573,0.36608 0,1.62243 -1.57469,2.86937 -3.62354,2.86937 -1.73676,0 -2.67021,0.45919 -3.89681,1.91692 -1.34839,1.60246 -2.06981,1.90774 -4.39791,1.86101 -2.63156,-0.0528 -2.86118,-0.21281 -4.16907,-2.90486 z m 3.74236,0.39006 c -1.77382,-1.09627 1.09732,-2.49235 5.63618,-2.74055 3.97552,-0.2174 3.88106,-0.2376 -0.89604,-0.19166 -2.93701,0.0283 -5.33934,-0.16704 -5.3385,-0.43396 0.003,-0.95901 -2.45731,-0.46209 -2.85599,0.57684 -0.32213,0.83945 -0.2224,0.90847 0.47563,0.32916 1.00932,-0.83766 1.73934,-0.35385 1.72487,1.14312 -0.009,0.8978 -0.0875,0.90447 -0.63719,0.0539 -0.51533,-0.79742 -0.62904,-0.73005 -0.63718,0.37746 -0.0129,1.7651 0.43064,2.14375 2.02354,1.7272 0.93009,-0.24322 1.07683,-0.48792 0.50468,-0.84154 z m 3.56452,-0.0413 c -0.24454,-0.3957 -0.0434,-0.97361 0.44713,-1.28428 0.73625,-0.46633 0.72142,-0.56656 -0.085,-0.57474 -0.53722,-0.005 -1.34046,0.57247 -1.78499,1.28427 -0.71037,1.13749 -0.64624,1.29419 0.52963,1.29419 0.81681,0 1.16468,-0.2802 0.89321,-0.71944 z m -95.8731,-0.9657 c 0.21502,-0.21502 0.77314,-0.23801 1.24026,-0.0511 0.5162,0.20657 0.36287,0.3599 -0.39095,0.39095 -0.68214,0.0281 -1.06433,-0.12484 -0.84931,-0.33986 z m 93.33081,-10.50352 c 1.06695,-1.18731 2.5223,-2.46051 3.2341,-2.82935 0.7118,-0.36884 1.00299,-0.41577 0.64709,-0.10429 -0.3559,0.31148 -1.81125,1.58468 -3.2341,2.82934 l -2.58701,2.26303 1.93992,-2.15873 z m 32.3266,-5.32587 c -0.54845,-0.88742 -0.32127,-1.07571 1.62839,-1.34963 1.12237,-0.15769 1.66917,0.11388 1.82695,0.90736 0.16662,0.83793 -0.19792,1.13241 -1.40182,1.13241 -0.89484,0 -1.81892,-0.31056 -2.05352,-0.69014 z"
       id="path3015"
       inkscape:connector-curvature="0" />
  </g>
</svg>
