<?xml version="1.0" encoding="UTF-8" standalone="no"?>
<!-- Created with Inkscape (http://www.inkscape.org/) -->

<svg
   xmlns:dc="http://purl.org/dc/elements/1.1/"
   xmlns:cc="http://creativecommons.org/ns#"
   xmlns:rdf="http://www.w3.org/1999/02/22-rdf-syntax-ns#"
   xmlns:svg="http://www.w3.org/2000/svg"
   xmlns="http://www.w3.org/2000/svg"
   xmlns:sodipodi="http://sodipodi.sourceforge.net/DTD/sodipodi-0.dtd"
   xmlns:inkscape="http://www.inkscape.org/namespaces/inkscape"
   width="744.09448819"
   height="1052.3622047"
   id="svg2"
   version="1.1"
   inkscape:version="0.48.4 r9939"
   sodipodi:docname="sub1.svg">
  <defs
     id="defs4" />
  <sodipodi:namedview
     id="base"
     pagecolor="#ffffff"
     bordercolor="#666666"
     borderopacity="1.0"
     inkscape:pageopacity="0.0"
     inkscape:pageshadow="2"
     inkscape:zoom="0.175"
     inkscape:cx="-657.28287"
     inkscape:cy="869.68829"
     inkscape:document-units="px"
     inkscape:current-layer="layer1"
     showgrid="false"
     inkscape:window-width="1600"
     inkscape:window-height="841"
     inkscape:window-x="-8"
     inkscape:window-y="-8"
     inkscape:window-maximized="1" />
  <metadata
     id="metadata7">
    <rdf:RDF>
      <cc:Work
         rdf:about="">
        <dc:format>image/svg+xml</dc:format>
        <dc:type
           rdf:resource="http://purl.org/dc/dcmitype/StillImage" />
        <dc:title></dc:title>
      </cc:Work>
    </rdf:RDF>
  </metadata>
  <g
     inkscape:label="Layer 1"
     inkscape:groupmode="layer"
     id="layer1">
    <path
       style="fill:#000000"
       d="m 147.40116,447.57025 c -9.72486,-6.38445 -16.38311,-14.48799 -19.61728,-23.87557 -0.92435,-2.68304 -1.72611,-8.1375 -1.78168,-12.12101 -0.0995,-7.13604 -0.13999,-7.24287 -2.74405,-7.25 -1.45741,-0.004 -2.90689,0.68039 -3.23125,1.52568 -0.48961,1.27588 -2.4778,1.48548 -11.85699,1.25 l -11.268751,-0.28293 -0.29497,-7.91161 c -0.16224,-4.35138 0.008,-8.62638 0.37859,-9.5 0.37046,-0.87361 0.74541,-2.65458 0.83322,-3.95771 0.0878,-1.30313 1.14668,-3.16858 2.353061,-4.14544 2.13222,-1.72657 2.20089,-2.44152 2.46175,-25.63068 0.25984,-23.09844 0.33174,-23.85456 2.26835,-23.85456 1.89432,0 2.0147,0.7594 2.27819,14.37121 0.20661,10.67297 0.65695,14.91195 1.75,16.47251 1.31938,1.88367 1.47181,0.26252 1.47181,-15.65333 0,-19.8173 0.87918,-23.81568 5.70163,-25.93003 2.05418,-0.90063 16.16175,-1.3135 53.04837,-1.55249 37.88773,-0.24548 50.29769,-0.61862 50.44387,-1.51672 0.10663,-0.65513 0.21914,-9.51615 0.25,-19.69115 0.0309,-10.175 0.43708,-19.27526 0.90267,-20.2228 0.4656,-0.94754 2.26561,-1.91522 4,-2.1504 1.7344,-0.23518 11.25346,-1.38273 21.15345,-2.5501 9.9,-1.16738 21.34214,-2.82233 25.42699,-3.67769 9.06741,-1.89869 11.39238,-1.47998 21.57301,3.88509 l 8,4.2159 0.5,25 c 0.54369,27.18436 1.96426,29.95382 1.98635,3.87244 0.0112,-13.25903 0.28635,-16.35387 1.54683,-17.39998 3.295,-2.7346 17.69737,-2.41999 18.78346,0.41031 0.28036,0.73061 0.83938,9.15587 1.24226,18.72281 0.53146,12.62008 1.13686,18.01361 2.20568,19.65032 1.16715,1.78728 1.23892,2.82594 0.34552,5 -0.81689,1.98786 -0.86263,7.3384 -0.166,19.415 0.57541,9.97503 0.60013,17.93148 0.0615,19.80942 -0.88485,3.0853 -0.84589,3.13328 2.29712,2.8291 3.15671,-0.3055 3.20108,-0.38358 3.50016,-6.16048 0.24367,-4.70656 -0.0487,-6.10814 -1.49446,-7.16534 -1.63183,-1.19322 -1.77284,-2.95691 -1.53097,-19.14894 0.14658,-9.80906 0.39391,-32.23466 0.5497,-49.83466 0.1558,-17.6 0.37091,-38.1875 0.47805,-45.75 l 0.1948,-13.75 2.5,0 c 1.375,0 2.50611,0.3375 2.51358,0.75 0.007,0.4125 0.17881,5.925 0.38075,12.25 0.20195,6.325 0.42084,17.2375 0.48642,24.25 l 0.11925,12.75 27.12781,0 27.12781,0 -0.64398,-4.02719 c -0.35417,-2.21495 -0.34069,-13.46495 0.03,-25 l 0.67393,-20.97281 2.84221,0 2.84222,0 0,25 0,25 26.5,0 26.5,0 0,-25 0,-25 3,0 3,0 0,25 0,25 26.5,0 26.5,0 0,-25 0,-25 3,0 3,0 0,25 0,25 26.5,0 26.5,0 0,-25 0,-25 3.00001,0 c 2.95687,0 2.99948,0.0755 2.96456,5.25 -0.0333,4.9314 -0.11672,5.10327 -1.375,2.83218 -1.2766,-2.30418 -1.38589,-2.32768 -2.32513,-0.5 -1.10924,2.1585 -0.51746,9.14341 0.84605,9.9861 0.48923,0.30237 0.89641,-0.4893 0.90482,-1.75926 0.008,-1.26996 0.40799,-2.92897 0.88792,-3.68668 0.89665,-1.41563 2.59497,28.66932 1.94065,34.37766 l -0.34388,3 26.23249,0.26657 26.2325,0.26657 0.26751,-24.76657 0.26751,-24.76657 2.36533,-0.33466 c 3.37267,-0.4772 4.10032,0.73437 3.42862,5.70889 -0.56994,4.22111 -0.63549,4.29112 -1.87229,2 l -1.28166,-2.37423 -0.9386,2.5 c -0.9527,2.53756 -0.9336,2.94753 0.30283,6.5 0.65725,1.88845 0.75622,1.86056 1.77412,-0.5 0.99138,-2.29906 1.13613,-2.05794 1.80094,3 0.3976,3.025 0.76742,19.68079 0.82181,37.01287 l 0.0989,31.51287 2.25,0.98713 c 2.08632,0.91532 2.30492,1.86004 3.00499,12.98713 0.61658,9.80014 0.4971,12.19036 -0.65178,13.03842 -0.83679,0.61769 -1.21141,2.0604 -0.92458,3.56082 0.29966,1.56751 -0.11609,3.01893 -1.09822,3.83402 -2.22815,1.8492 -2.29698,25.46417 -0.0866,29.70243 2.04722,3.92537 1.90131,5.03396 -0.99384,7.55126 -1.375,1.19555 -2.5,3.21757 -2.5,4.49339 0,3.31858 -3.74815,3.17129 -4.58936,-0.18034 -0.56145,-2.23701 -1.13793,-2.5 -5.48013,-2.5 l -4.85265,0 -0.28894,8.75 c -0.26374,7.98702 -0.46332,8.75 -2.28893,8.75 -1.82578,0 -2.02518,-0.76302 -2.28907,-8.75925 l -0.28907,-8.75924 -2.47391,0.62091 c -1.41365,0.3548 -3.12158,0.0834 -3.9851,-0.63325 -2.31013,-1.91724 -2.52581,-0.82056 -0.80038,4.06988 2.15005,6.09395 2.81315,16.51599 1.45403,22.85334 -2.50429,11.67708 -8.82759,20.72141 -19.06228,27.26513 l -4.44575,2.84248 -18.56757,0 -18.56757,0 -5.13584,-3.45868 c -9.29057,-6.25663 -16.76533,-17.82215 -17.93158,-27.74504 l -0.62705,-5.33518 -5.63941,0.0635 c -5.49671,0.0619 -5.64697,0.13827 -5.93812,3.01944 -1.1575,11.45465 -8.43717,23.06672 -18.56388,29.61193 l -5.94749,3.84403 -17.89463,0 c -20.20903,0 -20.85891,-0.1732 -28.91139,-7.70536 -8.37584,-7.83461 -13.17225,-17.60919 -14.12963,-28.79464 -0.28029,-3.27484 -0.75557,-4.05967 -2.62162,-4.32916 -1.2536,-0.18103 -3.77679,0.38147 -5.60709,1.25 -3.71866,1.76462 -9.52557,2.11769 -9.52557,0.57916 0,-0.65622 -19.33779,-0.95933 -56.25,-0.88169 -32.6274,0.0686 -54.99013,0.47389 -53.25,0.965 1.90382,0.53731 -0.58348,0.66793 -6.8072,0.35748 -5.39395,-0.26906 -24.48166,-0.59081 -42.4171,-0.71499 -25.0363,-0.17336 -32.70657,-0.51611 -33.02613,-1.4758 -0.22893,-0.6875 -1.27874,-1.25 -2.33289,-1.25 -1.55174,0 -1.91668,0.72159 -1.91668,3.7899 0,13.08847 -8.12229,27.46816 -19.70195,34.88032 l -5.20197,3.32978 -18.79804,-0.0525 c -15.68517,-0.0438 -19.21202,-0.32424 -21.29803,-1.69372 z m 318.71921,-3.21952 c -0.42923,-1.64137 0.005,-1.97253 2.63337,-2.00713 5.23981,-0.069 6.64741,-0.32179 6.64741,-1.19385 0,-0.45833 0.47656,-0.83333 1.05902,-0.83333 0.58246,0 0.73793,0.51953 0.34549,1.15451 -0.46456,0.75168 -0.27169,0.88143 0.55278,0.37188 0.73768,-0.45591 1.63071,-0.20731 2.1392,0.59549 0.67937,1.0726 0.87628,0.96643 0.8882,-0.47887 0.0102,-1.23693 0.51617,-1.66479 1.51531,-1.28138 0.825,0.31658 1.5,0.13972 1.5,-0.39301 0,-0.53274 0.6375,-0.96862 1.41667,-0.96862 0.77916,0 1.60598,-0.5625 1.83738,-1.25 0.32799,-0.97451 0.78714,-0.94752 2.08333,0.12244 1.08084,0.89221 1.66262,0.97969 1.66262,0.25 0,-0.61734 -0.38856,-1.12244 -0.86346,-1.12244 -0.47491,0 -0.81241,-1.0125 -0.75,-2.25 0.0624,-1.2375 0.45096,-2.1375 0.86346,-2 0.4125,0.1375 1.45156,0.25 2.30902,0.25 0.85746,0 1.30012,0.41891 0.98369,0.9309 -1.13124,1.83039 1.22213,1.98643 2.84887,0.1889 1.48162,-1.63717 1.4959,-1.9683 0.13365,-3.09886 -1.22923,-1.02017 -1.82078,-1.02055 -3.04812,-0.002 -1.26437,1.04933 -1.42185,1.00056 -0.92764,-0.28731 0.67429,-1.75719 4.56124,-3.01017 6.74202,-2.17333 0.80708,0.30971 1.72436,-0.15729 2.06801,-1.05283 0.33968,-0.88517 0.2199,-1.36362 -0.26616,-1.06321 -0.48607,0.30041 -1.15592,-0.16303 -1.48855,-1.02985 -1.01709,-2.65043 -0.69237,-3.41241 1.45423,-3.41241 1.13246,0 1.80465,-0.41157 1.49377,-0.91459 -0.31089,-0.50302 5e-5,-1.18009 0.69098,-1.5046 0.69093,-0.3245 0.0536,-0.43201 -1.41625,-0.2389 -2.64897,0.34802 -2.65777,0.32861 -1,-2.20672 0.93914,-1.43629 1.12438,-2.22006 0.42248,-1.7875 -0.6875,0.42369 -1.25,0.32034 -1.25,-0.22966 0,-1.72244 1.76263,-2.179 2.36383,-0.61229 0.31537,0.82184 1.03752,1.49426 1.60479,1.49426 1.60031,0 1.2149,-2.99234 -0.46862,-3.63837 -1.81892,-0.69799 -1.98039,-3.05068 -0.25,-3.64251 0.6875,-0.23513 0.125,-0.23629 -1.25,-0.003 -1.92688,0.32754 -2.23135,0.15156 -1.32814,-0.76765 0.64452,-0.65594 0.93387,-1.81279 0.64301,-2.57077 -0.29087,-0.75753 -0.004,-1.3777 0.63716,-1.3777 0.6413,0 0.88789,-0.45 0.54797,-1 -0.33992,-0.55 -0.14148,-1 0.44098,-1 0.58247,0 1.05902,-0.4202 1.05902,-0.93378 0,-0.51358 -1.11345,-0.73187 -2.47433,-0.4851 -2.53332,0.45938 -2.59639,0.18624 -0.94232,-4.08112 1.13447,-2.92683 1.2738,-5.52975 0.26255,-4.90476 -0.48319,0.29863 -0.57236,1.03833 -0.19817,1.6438 0.44637,0.72223 0.0698,0.86653 -1.09503,0.41956 -1.29969,-0.49874 -1.62523,-0.28998 -1.21497,0.77913 0.37105,0.96694 0.0835,1.2774 -0.85106,0.91878 -1.21402,-0.46586 -1.21284,-0.8448 0.008,-2.70875 0.92364,-1.40965 1.10294,-2.68004 0.51299,-3.6346 -0.57684,-0.93336 -0.4704,-2.04193 0.29246,-3.04577 0.65968,-0.86806 -0.0198,-0.32921 -1.50994,1.19744 -3.03186,3.10615 -3.59332,2.78723 -3.32787,-1.8903 0.13361,-2.35445 -0.13154,-2.9644 -0.98188,-2.25868 -0.64071,0.53174 -1.46101,0.6707 -1.82291,0.30881 -0.36189,-0.3619 -0.67167,-0.0205 -0.6884,0.75867 -0.0212,0.98684 -0.34998,0.86727 -1.08368,-0.39407 -0.5793,-0.9959 -0.81736,-2.4255 -0.52903,-3.17689 0.28833,-0.75138 -0.13431,-1.91269 -0.93921,-2.5807 -1.17717,-0.97696 -1.35675,-0.93648 -0.91799,0.20691 0.37478,0.97665 -0.26326,1.4884 -2.03893,1.63536 -1.96518,0.16264 -2.51362,-0.20395 -2.28895,-1.53002 0.16248,-0.95916 -0.10184,-1.74392 -0.58741,-1.74392 -0.48554,0 -1.2726,-0.9 -1.74898,-2 -0.71751,-1.6568 -0.78238,-1.55972 -0.37797,0.56571 0.45589,2.39614 0.25659,2.54746 -3.01581,2.28975 -1.92718,-0.15177 -3.9015,-0.52164 -4.38738,-0.82194 -0.48589,-0.30029 -1.11134,0.0193 -1.38988,0.71025 -0.30426,0.75467 -0.53799,0.55415 -0.58542,-0.50224 -0.0657,-1.46311 -0.39263,-1.56258 -1.94648,-0.59218 -2.61302,1.63185 -4.93293,0.47326 -4.64651,-2.32053 0.13131,-1.28085 0.0435,-1.53465 -0.1951,-0.56399 -0.23862,0.97066 -0.85168,1.5066 -1.36235,1.19098 -0.51021,-0.31561 -0.92804,0.30023 -0.92804,1.36854 0,1.07622 -0.85849,2.16689 -1.92518,2.44583 -1.30582,0.34148 -1.7635,0.0821 -1.42261,-0.80624 0.32172,-0.83838 -0.15503,-1.19968 -1.32482,-1.00398 -1.00506,0.16814 -1.69114,0.8797 -1.5246,1.58124 0.51264,2.15955 -2.02369,2.89085 -3.71564,1.07134 -0.87293,-0.93874 -1.19455,-1.12309 -0.71471,-0.40967 0.55694,0.82803 0.43639,1.29713 -0.33333,1.29713 -0.66318,0 -1.00408,0.5625 -0.75757,1.25 0.24651,0.6875 0.041,2.04162 -0.45675,3.00916 -0.83741,1.62785 -1.06992,1.58796 -3.11488,-0.53441 -1.21545,-1.26146 -1.87855,-1.85672 -1.47356,-1.32281 0.40499,0.53391 -0.0198,1.80626 -0.94394,2.82744 -1.38268,1.52785 -1.40929,1.7527 -0.15021,1.26955 1.12535,-0.43184 1.48018,0.0197 1.34148,1.70696 -0.14847,1.80619 -0.71622,2.23845 -2.66946,2.03239 -1.6332,-0.1723 -2.48089,0.23978 -2.48089,1.20601 0,0.80725 0.41285,1.21258 0.91743,0.90073 0.50459,-0.31185 0.7564,0.49544 0.55959,1.79399 -0.19681,1.29854 -0.91647,2.24622 -1.59924,2.10594 -0.85834,-0.17635 -1.07805,0.67226 -0.712,2.75 0.44408,2.5207 0.20476,3.00505 -1.48485,3.00505 -2.12089,0 -2.70997,1.45199 -1.01426,2.5 1.43552,0.8872 1.23565,4.49711 -0.25,4.51531 -0.84022,0.0103 -0.89827,0.25616 -0.17706,0.75 1.54767,1.05976 2.54982,4.23469 1.33666,4.23469 -0.5652,0 -0.74952,0.45 -0.4096,1 0.33992,0.55 0.14148,1 -0.44098,1 -0.58246,0 -1.05902,0.45 -1.05902,1 0,0.55 0.68912,1 1.53138,1 2.41827,0 3.04651,3.10427 0.93997,4.64461 -1.72209,1.25922 -1.65508,1.35539 0.94451,1.35539 2.0204,0 2.64502,0.39896 2.24731,1.43539 -0.30295,0.78947 -0.22234,1.57697 0.17913,1.75 0.40147,0.17304 1.70343,1.70211 2.89324,3.39794 1.60601,2.28904 1.80124,3.08334 0.75787,3.08334 -0.77299,0 -1.17367,-0.375 -0.8904,-0.83334 0.80825,-1.30779 -0.24112,-0.9743 -1.42576,0.4531 -0.81567,0.98282 -0.50225,1.33322 1.328,1.48469 1.3176,0.10905 2.67881,-0.25992 3.02492,-0.81993 0.36035,-0.58306 1.4745,0.0563 2.60706,1.49614 1.08778,1.38288 2.5144,2.41046 3.17027,2.2835 0.65588,-0.12696 1.15698,0.77969 1.11357,2.01476 -0.0434,1.23508 0.14019,2.02649 0.40799,1.75868 0.26781,-0.2678 1.05542,-0.0151 1.75026,0.56156 0.97236,0.80699 1.14631,0.51709 0.75526,-1.25868 -0.29906,-1.35802 -0.16385,-1.85119 0.32867,-1.19879 0.46021,0.6096 1.62246,0.98718 2.58278,0.83907 0.96032,-0.14811 2.00391,0.14796 2.3191,0.65795 0.31519,0.50998 0.97878,0.6765 1.47465,0.37003 0.49587,-0.30646 1.18856,0.5862 1.53931,1.98369 0.35075,1.3975 1.09143,2.5409 1.64595,2.5409 0.55452,0 0.7769,-0.88456 0.49418,-1.96569 z m 1.28078,-3.90512 c -0.825,-0.4455 -4.00944,-1.34662 -7.07654,-2.00249 -3.97502,-0.85002 -6.63151,-2.18758 -9.25,-4.65741 -2.0204,-1.9057 -3.67346,-3.15489 -3.67346,-2.77597 0,1.34891 -3.03422,-3.26574 -5.0585,-7.69332 -2.69443,-5.89337 -3.53792,-15.34536 -1.95737,-21.93386 1.74908,-7.29097 9.77652,-15.93162 17.57268,-18.91505 6.09964,-2.3342 13.71704,-2.75816 19.70054,-1.09648 3.75022,1.04148 16.16664,9.81446 16.32762,11.53649 0.0467,0.4999 1.04934,2.9339 2.22803,5.4089 2.58341,5.42461 2.86066,15.47797 0.59292,21.5 -0.82846,2.2 -1.62048,4.54804 -1.76003,5.21787 -0.13955,0.66983 -2.70447,3.48312 -5.69981,6.25176 -2.99534,2.76864 -6.41646,5.95829 -7.60247,7.08811 -1.18601,1.12981 -2.41277,1.63937 -2.72613,1.13234 -0.69145,-1.11878 -5.56544,-0.34886 -7.55944,1.19412 -1.10017,0.85132 -1.26395,0.81951 -0.69098,-0.1342 0.47725,-0.79439 0.16122,-1.25 -0.86706,-1.25 -0.88992,0 -1.33992,0.45 -1,1 0.73329,1.18649 0.49585,1.20694 -1.5,0.12919 z m -18.37344,-24.62919 c 0.0378,-3.025 -0.3127,-5.5 -0.77891,-5.5 -0.46621,0 -0.85454,1.0125 -0.86296,2.25 -0.0127,1.85861 -0.198,1.98907 -1.06551,0.75 -0.80054,-1.14342 -0.88434,-0.90569 -0.3525,1 0.38373,1.375 1.09101,2.65093 1.57174,2.83541 0.48072,0.18448 0.61968,0.74698 0.30879,1.25 -0.47524,0.76895 0.18048,2.91459 0.89072,2.91459 0.12094,0 0.25083,-2.475 0.28863,-5.5 z m 22.8158,0.59326 c 0.30822,-0.49871 -0.34022,-0.67122 -1.44098,-0.38337 -2.33499,0.61061 -2.63015,1.29011 -0.5604,1.29011 0.79254,0 1.69316,-0.40803 2.00138,-0.90674 z m -5.44236,-0.43827 c 0,-0.18976 -1.0125,-1.20226 -2.25,-2.25 l -2.25,-1.90499 1.90499,2.25 c 1.79022,2.11444 2.59501,2.70524 2.59501,1.90499 z m 9.57859,-9.1979 c -0.33918,-1.3514 -1.2433,-2.45709 -2.00916,-2.45709 -1.47607,0 -1.54393,2.4113 -0.10472,3.72106 0.47078,0.42842 0.53224,0.21644 0.1366,-0.47106 -0.39564,-0.6875 -0.23746,-1.25 0.35149,-1.25 0.67456,0 0.87876,1.57275 0.55176,4.25 -0.47431,3.88351 -0.42379,4.00916 0.58583,1.45709 0.60768,-1.5361 0.82738,-3.8986 0.4882,-5.25 z m -11.57859,2.92488 c 0,-0.275 -0.45,-0.22189 -1,0.11803 -0.55,0.33992 -1,0.0665 -1,-0.60765 0,-0.67413 -0.27006,-0.95562 -0.60014,-0.62555 -0.89821,0.89821 0.59329,2.85547 1.66924,2.19049 0.51199,-0.31643 0.9309,-0.80032 0.9309,-1.07532 z m -0.0201,-2.90614 c -0.69572,-0.83829 -1.52528,-1.26382 -1.84348,-0.94562 -0.3182,0.31819 0.0834,0.99718 0.8925,1.50885 2.11697,1.33881 2.39358,1.17499 0.95098,-0.56323 z m 26.0201,-3.03485 c 0,-0.24254 -0.45,-0.44098 -1,-0.44098 -0.55,0 -1,0.47656 -1,1.05902 0,0.58246 0.45,0.7809 1,0.44098 0.55,-0.33992 1,-0.81648 1,-1.05902 z m -35,-9.18587 c 0,-0.275 -0.6039,10e-4 -1.34201,0.61377 -0.7381,0.61257 -1.71025,0.78017 -2.16032,0.37244 -0.45008,-0.40772 -0.48111,-0.15697 -0.069,0.55724 0.57734,1.00047 1.07324,1.02976 2.16033,0.12755 0.77603,-0.64405 1.41097,-1.396 1.41097,-1.671 z m -3.5,-3.25511 c 0.99549,-1.1 1.58498,-2 1.30998,-2 -0.275,0 -1.31449,0.9 -2.30998,2 -0.99549,1.1 -1.58498,2 -1.30998,2 0.275,0 1.31449,-0.9 2.30998,-2 z m 41.5,40.83333 c 0,-0.45833 0.42344,-0.83333 0.94098,-0.83333 0.51754,0 1.17275,0.375 1.45601,0.83333 0.28327,0.45834 -0.14017,0.83334 -0.94098,0.83334 -0.8008,0 -1.45601,-0.375 -1.45601,-0.83334 z m 69.28975,12.16667 c 0.64452,-2.46461 3.39747,-2.63577 4.02092,-0.25 0.43555,1.66667 0.46285,1.66667 0.57333,0 0.0677,-1.02099 0.91861,-1.75 2.04269,-1.75 1.05967,0 2.13247,0.7875 2.38398,1.75 0.43556,1.66667 0.46285,1.66667 0.57334,0 0.0638,-0.9625 0.6785,-1.75277 1.366,-1.75616 0.6875,-0.003 2.5023,-0.65939 4.03292,-1.45778 1.53061,-0.79839 2.59033,-1.13311 2.35496,-0.74384 -0.23539,0.38928 0.15936,1.25023 0.87718,1.91323 1.02808,0.94956 1.43403,0.86958 1.91229,-0.37675 0.33393,-0.87021 0.15653,-2.12516 -0.39423,-2.78878 -0.71632,-0.86311 -0.50772,-1.20776 0.73275,-1.2107 0.95376,-0.002 2.31992,0.71025 3.03591,1.58334 1.12887,1.37659 1.21425,1.27196 0.64285,-0.78779 -0.44364,-1.59925 -0.30094,-2.154 0.43677,-1.69806 0.67024,0.41422 0.87951,0.11383 0.53896,-0.77362 -0.76969,-2.00582 1.34887,-3.08949 3.13765,-1.60494 1.23602,1.0258 1.40029,0.84026 1.03051,-1.16391 -0.24194,-1.31133 -0.47334,-2.68192 -0.51422,-3.04576 -0.14377,-1.27983 -3.30998,-0.16873 -4.23638,1.48665 -0.51551,0.92118 -1.37459,1.67487 -1.90905,1.67487 -0.53446,0 -2.74249,1.17182 -4.90672,2.60404 -2.16423,1.43222 -5.64208,2.83214 -7.72856,3.11093 -2.08647,0.27878 -4.11736,1.01947 -4.51308,1.64596 -0.53209,0.84239 -1.24482,0.8135 -2.73643,-0.11093 -1.10932,-0.6875 -3.13522,-1.25 -4.502,-1.25 -3.836,0 -12.70583,-4.3176 -16.34413,-7.95589 -7.604,-7.604 -9.8311,-16.86032 -7.15648,-29.74393 1.3775,-6.63532 7.85508,-14.14677 15.25592,-17.69086 12.4947,-5.98344 24.50058,-3.82438 34.19452,6.14932 3.39302,3.49093 5.07706,6.34366 6.53902,11.07693 2.47578,8.01565 2.467,10.74944 -0.0586,18.24665 -1.11523,3.31052 -1.76367,6.44633 -1.44099,6.96846 0.32267,0.52212 -0.11487,0.94932 -0.97233,0.94932 -0.85746,0 -1.55901,0.37083 -1.55901,0.82406 0,0.93398 5.63574,0.87353 6.57985,-0.0706 0.33862,-0.33862 1.35918,-0.37923 2.26791,-0.0902 1.37581,0.43753 1.40927,0.35339 0.19998,-0.50291 -0.79874,-0.5656 -1.76409,-0.83563 -2.14522,-0.60008 -0.38113,0.23555 -0.96194,-0.27266 -1.29068,-1.12937 -0.32875,-0.8567 -1.10928,-1.24147 -1.73452,-0.85506 -0.63592,0.39303 -0.96948,0.20065 -0.75706,-0.43661 0.20885,-0.62656 0.82973,-1.17747 1.37973,-1.22424 0.55,-0.0468 1.5625,-0.55187 2.25,-1.12244 0.73784,-0.61235 1.25,-0.6458 1.25,-0.0816 0,0.52568 0.73454,0.95578 1.63231,0.95578 1.50099,0 1.50224,-0.0951 0.0155,-1.18221 -0.88923,-0.65022 -1.32377,-1.47522 -0.96565,-1.83334 0.35812,-0.35811 0.14848,-0.65112 -0.46585,-0.65112 -0.61434,0 -1.57566,0.7875 -2.13626,1.75 -0.56061,0.9625 -1.03297,1.21964 -1.04969,0.57143 -0.0167,-0.64822 0.56825,-1.77723 1.29995,-2.50893 0.7317,-0.7317 1.16934,-1.8134 0.97256,-2.40378 -0.19681,-0.59038 0.62149,-1.03636 1.81842,-0.99107 1.19694,0.0453 2.37179,-0.48015 2.61078,-1.16765 0.239,-0.6875 -0.2514,-1.25 -1.08977,-1.25 -3.21122,0 -3.00241,-4.93267 0.21464,-5.07029 1.28294,-0.0549 1.2047,-0.25863 -0.35699,-0.92971 -1.1,-0.47269 -1.69391,-0.89106 -1.31981,-0.92971 0.37411,-0.0387 0.3001,-1.39562 -0.16447,-3.01547 -0.57829,-2.0164 -0.47744,-3.07282 0.31981,-3.34995 0.64046,-0.22263 -0.20517,-0.71266 -1.87918,-1.08896 -2.12025,-0.47661 -3.37642,-1.5658 -4.14053,-3.59015 -1.00625,-2.66588 -0.94892,-2.81358 0.69387,-1.78763 0.98491,0.61508 1.54242,1.76548 1.2389,2.55644 -0.46722,1.21756 -0.18396,1.24121 1.84712,0.15421 l 2.39896,-1.28389 -2.74733,-0.91578 c -1.51098,-0.50374 -2.74728,-1.60148 -2.74728,-2.43949 0,-1.02105 0.55877,-1.30923 1.69393,-0.87363 1.58728,0.60909 1.58813,0.53312 0.0137,-1.20667 -1.34753,-1.48899 -1.43545,-2.13159 -0.44394,-3.24481 1.04634,-1.17477 0.96908,-1.186 -0.50265,-0.073 -0.95643,0.7233 -1.51159,1.683 -1.23369,2.13268 0.27792,0.44968 0.048,1.10025 -0.511,1.44571 -0.55898,0.34546 -1.0232,0.0391 -1.03162,-0.6809 -0.0124,-1.05918 -0.17678,-1.05431 -0.86127,0.0255 -0.64783,1.022 -0.96844,0.8661 -1.36901,-0.66567 -0.28769,-1.10011 -0.0164,-2.50689 0.6029,-3.12617 1.50315,-1.50316 -1.27071,-3.35946 -2.94439,-1.97042 -0.77184,0.64056 -1.94234,0.28971 -3.53354,-1.05917 -1.61934,-1.37274 -1.82038,-1.82251 -0.62938,-1.40808 0.97948,0.34084 1.75,0.12156 1.75,-0.49803 0,-1.45067 -2.28714,-1.41986 -3.75762,0.0506 -0.87683,0.87682 -1.56737,0.81755 -2.84688,-0.24434 -1.47255,-1.22212 -6.08154,-2.0037 -12.89551,-2.1868 -1.1,-0.0296 -2.73009,0.271 -3.62242,0.66792 -1.32197,0.58803 -1.55261,0.20167 -1.2454,-2.08637 0.20736,-1.54442 0.11151,-2.24273 -0.21299,-1.5518 -0.3245,0.69093 -1.00157,1.00187 -1.50459,0.69098 -0.50302,-0.31088 -0.91459,-0.0565 -0.91459,0.5652 0,0.62175 -0.675,1.80545 -1.5,2.63045 -1.24294,1.24293 -1.5,1.25926 -1.5,0.0952 0,-0.77262 -0.6321,-1.40477 -1.40466,-1.40477 -0.77256,0 -1.195,0.54637 -0.93874,1.21416 0.26352,0.68673 -0.90753,1.69294 -2.69581,2.31633 -2.64893,0.92343 -3.07142,0.86686 -2.60493,-0.34879 0.30624,-0.79804 0.0139,-1.76254 -0.64953,-2.14333 -0.66348,-0.38079 -0.86785,-0.31922 -0.45416,0.13682 0.4137,0.45605 -0.0363,1.73055 -1,2.83222 -0.9637,1.10168 -1.22077,1.69336 -0.57128,1.31484 0.6495,-0.37851 1.4681,-0.22352 1.8191,0.34442 0.35101,0.56794 1.1696,0.72814 1.8191,0.35599 0.64949,-0.37215 0.8809,-0.34199 0.51423,0.067 -0.36666,0.40901 -1.04166,0.76007 -1.5,0.78012 -0.45833,0.0201 -1.78869,0.3997 -2.95636,0.84364 -1.2819,0.48738 -2.55513,0.37507 -3.21369,-0.28349 -0.78756,-0.78756 -0.91885,-0.0319 -0.47242,2.71915 0.59979,3.69607 0.539,3.79466 -2.03631,3.30236 -1.46,-0.27909 -2.65455,-0.11985 -2.65455,0.35388 0,0.47373 0.38051,0.86133 0.84557,0.86133 1.21984,0 0.78695,4.76749 -0.55471,6.10915 -0.62401,0.62401 -0.92735,1.67457 -0.67407,2.33459 0.25327,0.66001 -0.7106,1.73361 -2.14194,2.38577 -2.36047,1.0755 -2.45704,1.33115 -1.03864,2.74955 2.13556,2.13556 1.96206,3.50403 -0.52679,4.15488 -2.02938,0.5307 -2.0133,0.61312 0.54933,2.81512 l 2.63993,2.26842 -2.15313,1.50811 -2.15312,1.50811 2.27546,0.33315 c 2.86487,0.41945 3.47899,2.14343 1.47676,4.14565 -1.90579,1.90579 -1.99996,3.0762 -0.19169,2.3823 0.74412,-0.28554 2.09412,0.34646 3,1.40444 1.93095,2.2552 2.07691,2.99628 0.52205,2.65076 -0.61875,-0.1375 -1.29375,0.425 -1.5,1.25 -0.20625,0.825 -0.1343,1.0029 0.15989,0.39534 0.29418,-0.60756 1.66317,-0.88897 3.04218,-0.62536 2.25921,0.43188 2.35971,0.64239 1.01571,2.1275 -0.99068,1.09469 -1.18675,2.14146 -0.58383,3.117 0.77338,1.25136 1.09898,1.26327 2.19941,0.0805 0.7104,-0.76359 0.80414,-1.11713 0.20831,-0.78563 -0.59584,0.33149 -1.08334,-0.0544 -1.08334,-0.85745 0,-1.26258 0.22491,-1.25663 1.66208,0.044 0.91414,0.82729 2.25888,1.50416 2.98832,1.50416 0.93334,0 0.76504,0.66657 -0.56809,2.25 -1.04188,1.2375 -1.49053,1.9164 -0.99699,1.50868 0.49353,-0.40773 1.50124,-0.24013 2.23934,0.37244 0.98712,0.81924 1.34201,0.81694 1.34201,-0.009 0,-0.61734 0.72378,-1.12244 1.60841,-1.12244 1.20551,0 1.45508,0.61088 0.99633,2.43871 -0.33665,1.3413 -0.16043,2.71786 0.39159,3.05902 0.55197,0.34149 1.00362,0.11751 1.00362,-0.49741 0,-0.61492 0.45,-0.83992 1,-0.5 0.55,0.33992 1.02852,-0.19602 1.06339,-1.19098 0.051,-1.45683 0.23945,-1.37098 0.96777,0.44098 0.49742,1.2375 1.12977,2.25 1.40523,2.25 0.27546,0 0.25442,-0.64217 -0.0468,-1.42704 -0.39426,-1.02742 0.009,-1.28156 1.43893,-0.90754 1.09259,0.28572 2.21101,1.37788 2.48537,2.42703 0.65216,2.49389 2.31297,2.44229 2.97582,-0.0925 z m 33.3338,-39.53866 c -0.34295,-0.8937 -0.58297,-2.60061 -0.53335,-3.79313 0.0639,-1.53633 0.37194,-1.18911 1.05701,1.19145 0.99603,3.46117 0.58665,5.4951 -0.52366,2.60168 z m -427.62354,37.53866 c 1.87659,0 3.0099,0.59906 3.31067,1.75 0.42334,1.61997 0.46594,1.6223 0.57332,0.0314 0.074,-1.09621 0.65923,-1.51016 1.61601,-1.14301 0.82499,0.31659 1.5,0.0775 1.5,-0.53138 0,-0.60887 0.67499,-1.10701 1.5,-1.10701 0.82499,0 1.50689,0.5625 1.51531,1.25 0.0111,0.90518 0.2561,0.86984 0.88819,-0.12812 0.48009,-0.75796 1.32605,-1.09804 1.87991,-0.75574 0.55386,0.34231 1.27599,-0.0786 1.60474,-0.93527 0.32874,-0.8567 1.08158,-1.25859 1.67296,-0.8931 0.59138,0.36549 0.82471,1.31739 0.51851,2.11532 -0.82308,2.14492 1.21859,0.59407 2.57872,-1.95878 1.09852,-2.06185 1.05358,-2.1048 -0.74462,-0.71154 -1.8803,1.45687 -1.88071,1.44405 -0.0234,-0.73383 1.30494,-1.53015 2.57911,-2.04372 4.11446,-1.65838 1.50114,0.37677 2.42697,0.0296 2.84819,-1.06811 0.39414,-1.02711 0.22443,-1.37933 -0.4606,-0.95596 -0.67054,0.41442 -0.93686,-0.043 -0.69755,-1.19806 0.24619,-1.18824 1.13453,-1.79177 2.44023,-1.65784 1.75108,0.17961 2.01925,-0.29469 1.82296,-3.2242 -0.20376,-3.041 -0.0215,-3.3231 1.59016,-2.46059 2.55294,1.36629 3.25864,1.21622 2.58128,-0.54894 -0.48319,-1.25919 -0.22695,-1.33179 1.47866,-0.41898 1.13473,0.60729 2.26403,0.90327 2.50956,0.65774 0.24553,-0.24553 -0.91801,-1.01158 -2.58565,-1.70234 -3.20968,-1.32949 -3.32379,-1.66547 -3.23109,-9.51328 l 0.0591,-5 -0.7473,4 c -0.41101,2.2 -1.08484,5.0125 -1.4974,6.25 -0.49775,1.49304 -0.34977,2.25 0.43987,2.25 0.65449,0 -2.14864,3.27425 -6.22917,7.27611 -7.03759,6.90189 -7.77677,7.34963 -14.37259,8.70576 -8.62657,1.77366 -13.47239,1.51504 -19.02725,-1.01549 -2.37405,-1.08151 -4.67864,-1.9716 -5.12132,-1.97797 -0.44267,-0.006 -2.86672,-2.14388 -5.38676,-4.75 -4.74746,-4.90958 -7.91814,-10.54791 -7.91814,-14.08052 0,-1.12192 -0.37798,-2.27346 -0.83995,-2.55897 -1.16891,-0.72243 0.44016,-11.55927 2.46936,-16.63075 0.9241,-2.30955 2.71941,-5.32053 3.98959,-6.69107 1.27017,-1.37054 2.27222,-2.78106 2.22678,-3.1345 -0.23989,-1.86579 0.2788,-3.1426 1.27666,-3.1426 0.77551,0 0.73766,0.46364 -0.12244,1.5 -2.11192,2.54471 0.31279,1.57975 4,-1.59187 2.28945,-1.96932 2.80826,-2.7917 1.5,-2.37773 -1.87172,0.59228 -1.88776,0.54039 -0.25,-0.80901 2.33361,-1.92273 2.20868,-3.36818 -0.34892,-4.03701 -1.68897,-0.44167 -2.00142,-0.17607 -1.59975,1.3599 0.35986,1.37612 -0.31487,2.31486 -2.41793,3.364 -1.60439,0.80038 -2.67716,1.06704 -2.38393,0.59257 0.29323,-0.47446 0.12081,-1.11749 -0.38316,-1.42897 -0.50397,-0.31147 -0.91631,0.9776 -0.91631,2.86459 0,5.11995 -1.13217,6.296 -3.32086,3.44956 -1.00907,-1.31232 -1.84468,-1.91353 -1.85691,-1.33603 -0.0122,0.5775 0.44149,1.51372 1.00825,2.08048 0.6369,0.6369 0.70128,1.92041 0.16857,3.36047 -0.71541,1.93393 -0.96913,2.0506 -1.49263,0.68638 -0.38276,-0.99746 -1.25226,-1.4051 -2.21174,-1.03692 -1.41658,0.5436 -1.40036,0.80633 0.15599,2.52608 1.65685,1.8308 1.64308,1.94393 -0.29839,2.45164 -2.0131,0.52644 -2.69661,4.37087 -1.06687,6.00062 1.49583,1.49583 0.59922,2.38608 -2.53541,2.51743 -2.16593,0.0908 -2.53349,0.27628 -1.10194,0.55619 2.6822,0.52446 3.80953,4.02361 1.49455,4.63899 -1.45732,0.38738 -1.44858,0.44972 0.0775,0.55264 1.34327,0.0906 1.67188,0.93753 1.5,3.866 -0.12105,2.0625 -0.8951,4.29819 -1.7201,4.9682 -1.29094,1.04842 -1.20965,1.22263 0.58334,1.25 2.57148,0.0393 3.58323,0.95758 2.6676,2.42128 -1.01937,1.62954 -1.20233,3.69851 -0.27646,3.12629 0.4394,-0.27156 1.3808,0.20738 2.092,1.06432 1.08876,1.31188 0.90168,1.90269 -1.18392,3.73899 -1.36235,1.19951 -1.89325,1.78832 -1.17978,1.30848 0.77723,-0.52272 1.83518,-0.42599 2.63923,0.24132 1.50564,1.24956 2.658,0.53075 2.658,-1.65799 0,-1.24092 -0.2451,-1.25322 -1.66066,-0.0833 -1.52166,1.25757 -1.54259,1.1813 -0.25,-0.91134 l 1.41066,-2.28381 1.29228,3.13037 c 1.01446,2.4574 1.03182,3.44421 0.0807,4.59021 -0.66636,0.8029 -0.79788,1.38115 -0.29228,1.28498 0.5056,-0.0962 1.14427,-0.0871 1.41927,0.0201 1.89679,0.73949 3.91453,0.71263 3.44575,-0.0459 -0.31008,-0.5017 -0.32378,-0.9122 -0.0304,-0.9122 0.29333,0 1.26533,1.41553 2.16,3.14562 0.89466,1.73009 1.91872,2.74259 2.27568,2.25 0.85989,-1.18663 3.14901,-1.61316 3.14901,-0.58675 0,0.44488 0.71174,1.68238 1.58164,2.75 1.24421,1.52701 1.47102,1.58544 1.06314,0.27389 -0.2959,-0.95149 0.13808,-1.91919 1.01091,-2.25413 0.99778,-0.38288 1.71671,0.12941 2.06828,1.4738 0.31992,1.22338 1.09496,1.8473 1.90746,1.53551 0.75272,-0.28884 1.42078,0.0232 1.48458,0.69344 0.0638,0.67024 0.32179,0.43112 0.57332,-0.53138 0.30077,-1.15094 1.43408,-1.75 3.31068,-1.75 z m -23.5,-7 c -0.33992,-0.55 -0.14148,-1 0.44098,-1 0.58246,0 1.05902,0.45 1.05902,1 0,0.55 -0.19844,1 -0.44098,1 -0.24255,0 -0.7191,-0.45 -1.05902,-1 z m 45.49999,-2.28023 c 0,-0.34587 1.09588,-1.72474 2.43529,-3.06415 2.08586,-2.08586 2.52389,-2.20437 3.05285,-0.82593 0.33966,0.88514 0.28967,1.28145 -0.1111,0.88068 -0.40077,-0.40076 -1.77455,0.25389 -3.05285,1.4548 -1.2783,1.2009 -2.32419,1.90047 -2.32419,1.5546 z m 298.34508,10.7371 c -0.32569,-0.84872 -0.80663,-1.32866 -1.06875,-1.06653 -0.26213,0.26213 -0.17998,0.95654 0.18255,1.54313 0.98605,1.59546 1.56238,1.28551 0.8862,-0.4766 z m -298.34508,-1.45687 c -0.5887,-1.1 -1.29536,-2 -1.57036,-2 -0.275,0 -0.0183,0.9 0.57036,2 0.58871,1.1 1.29537,2 1.57037,2 0.275,0 0.0183,-0.9 -0.57037,-2 z m 295.34508,-0.54313 c -0.32569,-0.84872 -0.80663,-1.32866 -1.06875,-1.06653 -0.26213,0.26213 -0.17998,0.95654 0.18255,1.54313 0.98605,1.59546 1.56238,1.28551 0.8862,-0.4766 z m -336.3757,-2.95687 c 0,-0.55 -0.43622,-0.325 -0.96937,0.5 -0.53316,0.825 -0.96938,1.95 -0.96938,2.5 0,0.55 0.43622,0.325 0.96938,-0.5 0.53315,-0.825 0.96937,-1.95 0.96937,-2.5 z m 346.03062,2.15499 c 0,-0.18976 -1.0125,-1.20226 -2.25,-2.25 l -2.25,-1.90499 1.90499,2.25 c 1.79022,2.11444 2.59501,2.70524 2.59501,1.90499 z m 97.00001,-4.048 c 0,-0.21616 -0.69838,-0.661 -1.55195,-0.98855 -0.88991,-0.34149 -1.29131,-0.17385 -0.94098,0.39301 0.58727,0.95021 2.49293,1.40545 2.49293,0.59554 z m 5,-0.98455 c 0,-0.20765 -0.78751,-0.99515 -1.75,-1.75 -1.58606,-1.24387 -1.62144,-1.2085 -0.37756,0.37756 1.30637,1.66575 2.12756,2.19548 2.12756,1.37244 z m -418,-4.62244 c 0,-0.55 -0.47656,-1 -1.05902,-1 -0.58246,0 -0.7809,0.45 -0.44098,1 0.33991,0.55 0.81647,1 1.05901,1 0.24254,0 0.44099,-0.45 0.44099,-1 z m 261.48802,-0.75 c -0.18426,-0.9625 -0.36944,-1.88906 -0.41152,-2.05902 -0.0421,-0.16996 -0.54836,-0.0174 -1.12507,0.33903 -0.7168,0.44301 -0.67806,1.09446 0.12245,2.05902 1.53398,1.84833 1.81975,1.77982 1.41414,-0.33903 z m 92.51197,-0.75 c 0.68469,-0.825 1.01989,-1.5 0.74489,-1.5 -0.275,0 -1.0602,0.675 -1.74489,1.5 -0.68469,0.825 -1.01989,1.5 -0.74489,1.5 0.275,0 1.0602,-0.675 1.74489,-1.5 z m -349.49999,-1.5 c -0.33992,-0.55 -0.81648,-1 -1.05902,-1 -0.24254,0 -0.44098,0.45 -0.44098,1 0,0.55 0.47655,1 1.05901,1 0.58246,0 0.7809,-0.45 0.44099,-1 z m 320.04111,-4.06653 c 1.02606,-1.66021 0.10511,-1.89043 -1.33055,-0.33261 -0.70918,0.76953 -0.84824,1.39914 -0.30901,1.39914 0.53922,0 1.27702,-0.47994 1.63956,-1.06653 z M 204.1262,419.31642 c -0.17397,-2.30945 -3.23002,-2.73242 -4.06277,-0.56231 -0.35517,0.92556 0.23012,1.5895 1.64301,1.86382 1.20709,0.23437 2.27924,0.48741 2.38256,0.56231 0.10332,0.0749 0.12006,-0.76382 0.0372,-1.86382 z m 341.73143,-5.19815 c -0.34057,-1.55062 -0.99417,-2.58757 -1.45244,-2.30435 -0.45827,0.28323 -1.06113,-0.0503 -1.33968,-0.74127 -0.27856,-0.69093 -0.54199,0.20627 -0.58541,1.99377 -0.0434,1.7875 0.39761,3.25 0.98007,3.25 0.58246,0 0.806,0.40939 0.49675,0.90976 -0.30924,0.50036 -0.25994,1.69758 0.10955,2.66047 0.58659,1.52861 0.78209,1.4526 1.5411,-0.59919 0.4781,-1.29244 0.59063,-3.61858 0.25006,-5.16919 z m -375.95555,2.19965 c -0.35439,-0.57342 0.33927,-0.89271 1.62938,-0.75 1.53047,0.1693 2.64864,-0.53764 3.50824,-2.21801 1.68261,-3.28918 0.64906,-4.10057 -1.63492,-1.28349 -1.00331,1.2375 -2.53958,2.25 -3.41392,2.25 -1.6384,0 -2.09702,1.15935 -0.92304,2.33333 1.00767,1.00767 1.53298,0.79872 0.83426,-0.33183 z m 31.10324,-2.73067 c -0.3323,-0.33229 -0.56864,0.25834 -0.52522,1.3125 0.048,1.16495 0.28494,1.4019 0.60416,0.60417 0.28887,-0.72188 0.25335,-1.58438 -0.0789,-1.91667 z m -36.08025,-1.19547 c -0.88378,-2.78455 -3.51987,-2.77589 -2.79156,0.009 0.41445,1.58486 0.7479,1.76464 1.39107,0.75 0.63213,-0.99722 0.84982,-0.85008 0.86126,0.58214 0.008,1.05416 0.2814,1.65058 0.60662,1.32536 0.32522,-0.32522 0.29489,-1.52522 -0.0674,-2.66667 z m 439.66359,1.24153 c -0.72189,-0.28887 -1.58438,-0.25335 -1.91668,0.0789 -0.33228,0.33229 0.25834,0.56864 1.3125,0.52522 1.16496,-0.048 1.40191,-0.28494 0.60418,-0.60416 z m -469.1875,-1.31689 c 0,-0.55 -0.45,-1 -1,-1 -0.55,0 -1,0.45 -1,1 0,0.55 0.45,1 1,1 0.55,0 1,-0.45 1,-1 z m 10.70573,-5.25 c -0.23835,-1.2375 -0.43337,-0.225 -0.43337,2.25 0,2.475 0.19502,3.4875 0.43337,2.25 0.23835,-1.2375 0.23835,-3.2625 0,-4.5 z m 415.29426,3.75 c 0,-0.15731 -0.675,-0.54504 -1.5,-0.86163 -0.90455,-0.3471 -1.5,-0.005 -1.5,0.86163 0,0.8667 0.59545,1.20873 1.5,0.86163 0.825,-0.31659 1.5,-0.70432 1.5,-0.86163 z m 10.42689,0.60458 c 1.66147,-0.65087 1.70597,-0.83962 0.32312,-1.37027 -0.88208,-0.33849 -2.14178,0.0328 -2.79934,0.82513 -1.29634,1.56199 -0.54288,1.72786 2.47622,0.54514 z m -400.67659,-1.85405 c 0.59085,-1.77454 -2.77104,-2.835 -3.78524,-1.19399 -0.4582,0.74138 -0.59583,1.73187 -0.30583,2.20108 0.74012,1.19755 3.59065,0.49583 4.09107,-1.00709 z m -6.75029,-1.14354 c 0,-0.49116 -0.6,-1.12325 -1.33334,-1.40466 -0.73333,-0.28141 -1.33333,0.12045 -1.33333,0.89301 0,0.77256 0.6,1.40466 1.33333,1.40466 0.73334,0 1.33334,-0.40186 1.33334,-0.89301 z m 12,-1.10699 c 0,-1.17029 -0.66667,-2 -1.60699,-2 -1.07071,0 -1.39947,-0.5408 -0.98514,-1.62052 0.49466,-1.28907 0.15862,-1.49639 -1.64301,-1.01365 -1.24568,0.33377 -2.71487,0.6137 -3.26486,0.62207 -0.55001,0.008 0.57499,0.81696 2.5,1.79688 1.92499,0.97992 3.38749,2.32922 3.25,2.99845 -0.13751,0.66922 0.19999,1.21677 0.75,1.21677 0.54999,0 1,-0.9 1,-2 z m 25.98468,-2.19098 c 0.0305,-3.3666 -1.4879,-2.52362 -1.60852,0.89302 -0.0813,2.30237 0.17118,3.04213 0.73469,2.15282 0.47218,-0.74517 0.86541,-2.1158 0.87383,-3.04584 z m 327.26531,3.5287 c -0.6875,-0.27741 -1.8125,-0.27741 -2.5,0 -0.6875,0.27741 -0.125,0.50439 1.25,0.50439 1.375,0 1.9375,-0.22698 1.25,-0.50439 z m 31.13438,-1.77844 c -0.5144,-1.34049 -0.84354,-1.43437 -1.47075,-0.41952 -0.46754,0.75651 -0.31577,1.61171 0.3602,2.02947 1.56665,0.96824 1.90929,0.47152 1.11055,-1.60995 z m 12.61563,1.44072 c 0,-0.55 -0.47657,-1 -1.05903,-1 -0.58245,0 -0.81241,-0.39901 -0.511,-0.88669 0.3014,-0.48768 -0.082,-1.40954 -0.85195,-2.04856 -0.88239,-0.73232 -1.62377,-0.79976 -2.0053,-0.18241 -0.33294,0.53871 -0.14067,1.26665 0.42728,1.61766 0.56794,0.35101 0.73075,1.12663 0.3618,1.72361 -0.40038,0.64782 -0.20538,0.79775 0.48369,0.37188 0.63498,-0.39244 1.15451,-0.23697 1.15451,0.34549 0,0.58246 0.45,1.05902 1,1.05902 0.55,0 1,-0.45 1,-1 z m -417.56502,-1.10521 c -0.26238,-0.42453 0.31992,-1.23584 1.29398,-1.80292 1.07978,-0.62862 1.26011,-1.04292 0.46202,-1.06146 -0.76114,-0.0177 -1.00794,-0.55359 -0.58968,-1.28041 0.39564,-0.6875 0.3847,-0.95 -0.0243,-0.58333 -0.40901,0.36666 -0.59365,0.88192 -0.41032,1.14501 0.18333,0.26309 -0.45604,1.35059 -1.42082,2.41667 -1.41651,1.56522 -1.4731,1.93832 -0.29399,1.93832 0.80309,0 1.2455,-0.34735 0.98312,-0.77188 z m 28.56502,0.13659 c 0,-0.53273 -0.67501,-0.70959 -1.5,-0.39301 -0.82501,0.31659 -1.5,0.75246 -1.5,0.96862 0,0.21615 0.67499,0.39301 1.5,0.39301 0.82499,0 1.5,-0.43588 1.5,-0.96862 z m 83.80734,-0.77765 c -6.43096,-0.17392 -17.23096,-0.17445 -24,-0.001 -6.76904,0.17326 -1.50735,0.31555 11.69265,0.31621 13.2,6.5e-4 18.73832,-0.14111 12.30735,-0.31502 z m -88.80734,-0.63129 c 0,-0.20765 -0.7875,-0.99515 -1.75,-1.75 -1.58606,-1.24387 -1.62143,-1.2085 -0.37756,0.37756 1.30637,1.66575 2.12756,2.19548 2.12756,1.37244 z m 3,0.0325 c 0,-0.18976 -1.01251,-1.20226 -2.25,-2.25 l -2.25,-1.90494 1.90498,2.25 c 1.79022,2.11444 2.59502,2.70524 2.59502,1.90499 z m 422.25,-0.31727 c -0.6875,-0.27741 -1.8125,-0.27741 -2.5,0 -0.6875,0.27741 -0.125,0.50439 1.25,0.50439 1.375,0 1.9375,-0.22698 1.25,-0.50439 z m -487.25,-6.77125 c 0,-6.19948 0.0956,-6.44509 2.62858,-6.75 2.01618,-0.2427 3.28521,-1.54868 5.44699,-5.60558 5.96009,-11.18499 12.5491,-17.16676 24.06285,-21.84522 7.19657,-2.92422 19.83372,-4.32356 28.25889,-3.12916 3.35648,0.47584 6.89018,0.93806 7.85268,1.02715 0.9625,0.0891 1.75,0.51624 1.75,0.94919 0,0.43296 0.45895,0.7872 1.01988,0.7872 0.56093,0 2.80507,1.12695 4.98699,2.50433 2.18191,1.37739 4.53547,2.38989 5.23013,2.25 0.69465,-0.13988 1.16091,0.27693 1.03615,0.92625 -0.12478,0.64932 1.01355,2.22432 2.52961,3.5 1.51606,1.27568 2.91148,2.76942 3.10094,3.31942 0.75959,2.20523 3.87956,5.3881 4.62287,4.71609 0.43565,-0.39385 0.51831,0.0485 0.18369,0.98298 -0.43236,1.20743 -0.18909,1.53817 0.84067,1.14301 2.70978,-1.03983 1.61483,-6.28787 -2.55093,-12.22658 -2.19999,-3.13631 -4,-6.24534 -4,-6.90894 0,-0.66361 -0.52002,-1.20656 -1.15561,-1.20656 -1.55848,0 -8.11619,-5.06154 -7.43729,-5.74044 0.29616,-0.29615 2.12571,0.6722 4.06568,2.15188 l 3.52722,2.69034 0,-14.07144 0,-14.07144 -39.93985,0.0636 -39.93985,0.0636 -0.40011,3.20692 c -0.22006,1.76381 -0.47212,-0.31046 -0.56014,-4.60949 l -0.16004,-7.81638 -2.75,0.31643 -2.75,0.31642 -0.24599,20 c -0.1353,11 -0.43067,20.7875 -0.65638,21.75 -0.22572,0.9625 -0.002,1.75 0.49599,1.75 0.49851,0 0.90638,1.53518 0.90638,3.41152 0,3.44635 1.70182,4.28666 4.00897,1.97951 1.39045,-1.39046 -1.08108,-11.39103 -2.81517,-11.39103 -0.81029,0 -1.20761,-0.8822 -1.01335,-2.25 0.26159,-1.84188 1.1358,-2.3588 4.81955,-2.84981 2.475,-0.32989 3.8625,-0.66739 3.08333,-0.75 -0.77916,-0.0826 -1.18107,-0.38578 -0.89313,-0.67373 0.80185,-0.80184 3.86659,0.62263 3.30268,1.53507 -0.2726,0.44107 0.32392,0.58763 1.3256,0.32569 1.00168,-0.26195 2.40885,0.23177 3.12705,1.09715 1.17836,1.41984 1.63515,1.36987 4.68014,-0.51204 1.85588,-1.147 3.37433,-1.62419 3.37433,-1.06043 0,0.56377 -1.2375,1.763 -2.75,2.66496 -1.5125,0.90196 -4.31634,3.7399 -6.23076,6.30653 -1.91441,2.56664 -5.66589,6.82801 -8.33661,9.46972 -2.7999,2.7695 -4.63126,5.38837 -4.32542,6.1854 0.29174,0.76025 -0.007,1.60209 -0.66339,1.87075 -0.88444,0.36189 -0.84439,0.73362 0.15457,1.43444 0.74162,0.52027 1.18733,1.78228 0.99048,2.80444 -0.3132,1.62633 -1.28611,1.843 -7.78833,1.73445 -4.08673,-0.0682 -8.01994,0.10217 -8.74048,0.37867 -0.90476,0.34719 -1.31006,2.63526 -1.31006,7.39573 l 0,6.89301 8,0 8,0 0,-6.43358 z m 88.49999,-21.56642 c -0.33992,-0.55 -0.16803,-1 0.38197,-1 0.55,0 1.27811,0.45 1.61803,1 0.33992,0.55 0.16803,1 -0.38197,1 -0.55,0 -1.27811,-0.45 -1.61803,-1 z m -83.72672,-23.75 c 0.5754,-5.80545 1.06088,-6.22843 1.14778,-1 0.0434,2.6125 -0.28069,4.75 -0.72025,4.75 -0.43956,0 -0.63195,-1.6875 -0.42753,-3.75 z m 28.79816,1.17857 c -1.98165,-1.98164 -2.08178,-6.42857 -0.14476,-6.42857 0.78468,0 1.63248,0.7875 1.884,1.75 0.34415,1.31691 0.48603,1.19317 0.57333,-0.5 0.14119,-2.73864 0.20539,-2.74194 4.85481,-0.25 2.05236,1.1 3.17573,2 2.49638,2 -0.67936,0 -1.23519,0.63098 -1.23519,1.40217 0,0.7712 -1.41716,1.8962 -3.14922,2.5 -3.88222,1.35335 -3.41004,1.39571 -5.27935,-0.4736 z m 38.53338,0.48656 c -1.31735,-0.52695 -2.14463,-1.20864 -1.83841,-1.51487 0.30623,-0.30623 1.83406,0.13542 3.39519,0.98144 3.14117,1.7023 2.18466,2.03005 -1.55678,0.53343 z m -64.90986,-2.41513 c -0.0204,-1.65 0.18706,-2.44606 0.46099,-1.76903 0.27392,0.67703 0.29059,2.02703 0.037,3 -0.25354,0.97297 -0.47766,0.41903 -0.49804,-1.23097 z m 46.30505,-1.5 -6,-0.66378 6,-0.0684 c 3.29999,-0.0376 7.125,0.29186 8.5,0.73221 l 2.5,0.80064 -2.5,-0.0684 c -1.375,-0.0377 -5.20001,-0.36719 -8.5,-0.73227 z m -2.5,52 c 2,-2 2,-2 -0.89302,-2 -4.00466,0 -4.96711,2.78101 -1.35698,3.92105 0.13749,0.0434 1.15,-0.82105 2.25,-1.92105 z m 30.60416,-0.72917 c -0.3323,-0.33229 -0.56864,0.25834 -0.52522,1.3125 0.048,1.16495 0.28494,1.4019 0.60416,0.60417 0.28887,-0.72188 0.25335,-1.58438 -0.0789,-1.91667 z m 69.14583,1.98196 c -7.01249,-0.1719 -18.4875,-0.1719 -25.5,0 -7.01249,0.1719 -1.275,0.31255 12.75,0.31255 14.025,0 19.7625,-0.14065 12.75,-0.31255 z m 147.04818,-3.88097 c -0.32972,-2.64362 -0.39943,-2.5739 -0.87727,0.87727 -0.29765,2.14974 -0.14485,3.37485 0.35817,2.87183 0.4825,-0.4825 0.71609,-2.1696 0.5191,-3.7491 z m -280.54817,1.9659 c -0.6875,-0.27741 -1.8125,-0.27741 -2.5,0 -0.6875,0.27741 -0.125,0.50439 1.25,0.50439 1.375,0 1.9375,-0.22698 1.25,-0.50439 z m 26.27646,-1.14459 c -0.30789,-0.30789 -1.1148,-6.4e-4 -1.79313,0.68278 -0.98027,0.98762 -0.8654,1.10248 0.55979,0.5598 0.98622,-0.37553 1.54122,-0.93469 1.23334,-1.24258 z m 124.88435,-3.44313 c 0.46315,-4.38308 0.31528,-14.15927 -0.25734,-17.01557 -0.0844,-0.42107 -12.86598,-0.64607 -28.40348,-0.5 l -28.25,0.26557 0.0887,6.5 c 0.0488,3.575 0.16128,8.6375 0.25,11.25 l 0.1613,4.75 27.92805,0 27.92804,0 0.55473,-5.25 z m 21.58918,-3.75 0,-9 -5.25,-0.0137 c -2.88749,-0.008 -6.20468,-0.26988 -7.37151,-0.58304 -1.94054,-0.5208 -2.1286,-0.15711 -2.20465,4.26366 -0.0457,2.65817 -0.37078,6.97053 -0.72233,9.58303 l -0.63919,4.75 8.09384,0 8.09384,0 0,-9 z m 23,0 0,-9 -8.5,0 -8.5,0 0,9 0,9 8.5,0 8.5,0 0,-9 z m 35,8.13867 c 0,-0.47373 1.125,-0.64627 2.5,-0.38342 2.194,0.41941 2.50187,0.12703 2.51531,-2.38867 0.0107,-1.99453 0.27758,-2.45264 0.87743,-1.50588 0.47417,0.74838 0.6398,2.21088 0.36806,3.25 -0.45773,1.75037 0.17632,1.8893 8.62257,1.8893 l 9.11663,0 0,-8.93261 c 0,-10.5408 -0.0437,-10.57834 -11.03888,-9.4949 -5.2903,0.52129 -6.94286,1.03271 -6.56011,2.03015 0.2814,0.73332 0.0813,1.59928 -0.44468,1.92435 -0.52598,0.32508 -0.95633,-0.11051 -0.95633,-0.96797 0,-2.12275 -1.7437,-1.97863 -2.31067,0.19098 -0.32448,1.24165 -0.51998,1.02379 -0.67301,-0.75 l -0.21568,-2.5 -0.80064,2.5 c -0.74833,2.33665 -0.80715,2.35635 -0.90032,0.30138 -0.0972,-2.14458 -0.45616,-2.20603 -14.60124,-2.5 l -14.50155,-0.30138 0.002,9.25 0.002,9.25 14.5,0 c 7.97501,0 14.5,-0.3876 14.5,-0.86133 z m 2.07895,-5.55534 c -0.0434,-1.05416 0.19293,-1.64479 0.52522,-1.3125 0.33229,0.33229 0.36781,1.19479 0.0789,1.91667 -0.31922,0.79773 -0.55618,0.56078 -0.60416,-0.60417 z m 45.5629,2.66667 c -0.34091,-2.0625 -0.62479,-6.3375 -0.63083,-9.5 l -0.011,-5.75 -6.91821,0 c -9.62898,0 -10.05163,0.26226 -10.24479,6.35699 l -0.16299,5.14301 -0.67401,-5.5 -0.67401,-5.5 -0.2373,5.5 c -0.13052,3.025 -0.4426,6.62099 -0.69352,7.9911 -0.71969,3.9298 1.84977,5.0089 11.9268,5.0089 l 8.93971,0 -0.61983,-3.75 z M 309.13188,389.03625 c -0.20972,-2.32091 -0.37882,-0.16983 -0.37577,4.78017 0.003,4.95 0.17465,6.84892 0.38132,4.21983 0.20668,-2.6291 0.20418,-6.6791 -0.006,-9 z m 3,0 c -0.20972,-2.32091 -0.37882,-0.16983 -0.37577,4.78017 0.003,4.95 0.17465,6.84892 0.38132,4.21983 0.20668,-2.6291 0.20418,-6.6791 -0.006,-9 z m 20.36888,4.63044 c -0.20827,-10.75756 -1.09961,-10.63619 -1.09961,0.14973 0,4.85833 0.28111,8.55223 0.62468,8.20867 0.34355,-0.34357 0.55728,-4.10485 0.47494,-8.3584 z m 2.63112,-4.63044 c -0.20972,-2.32091 -0.37882,-0.16983 -0.37577,4.78017 0.003,4.95 0.17464,6.84892 0.38132,4.21983 0.20668,-2.6291 0.20418,-6.6791 -0.006,-9 z m 56,0 c -0.20972,-2.32091 -0.37882,-0.16983 -0.37577,4.78017 0.003,4.95 0.17464,6.84892 0.38131,4.21983 0.20668,-2.6291 0.20418,-6.6791 -0.006,-9 z m -193.73073,8.28017 c -2.62951,-5.15426 -3.33885,-5.1604 -1.17574,-0.0102 0.92166,2.19441 2.02239,3.99441 2.44606,4 0.42368,0.006 -0.14796,-1.7898 -1.27032,-3.9898 z m 237.1875,3.31689 c -0.72188,-0.28887 -1.58438,-0.25335 -1.91667,0.0789 -0.33229,0.33229 0.25834,0.56864 1.3125,0.52522 1.16495,-0.048 1.4019,-0.28494 0.60417,-0.60416 z m -262.68749,-1.31689 c -0.33992,-0.55 -1.82898,-0.95514 -3.30902,-0.90032 l -2.69098,0.0997 2.5,0.80064 c 3.54947,1.13674 4.20254,1.13674 3.5,0 z m 31.49999,0 c 1.21296,-0.78387 1.06944,-0.9723 -0.75,-0.98469 -1.2375,-0.008 -2.25,0.43469 -2.25,0.98469 0,1.25292 1.06124,1.25292 3,0 z m 20.60474,-10.25 c -0.17184,-5.6375 -0.64225,-11.375 -1.04534,-12.75 -0.51229,-1.74749 -0.4385,-2.08367 0.24516,-1.11686 0.74943,1.05984 1.13889,0.6508 1.6662,-1.75 0.37848,-1.72323 1.12895,-3.13314 1.66771,-3.13314 0.53876,0 0.70145,0.45 0.36153,1 -0.39536,0.63971 2.91608,1.01483 9.19098,1.04117 22.17075,0.0931 51.57732,0.90921 53.38059,1.48154 1.58908,0.50436 1.93403,0.11628 1.96023,-2.20532 0.0175,-1.54957 0.58,-3.53538 1.25,-4.41293 0.9063,-1.18703 1.09018,-6.94775 0.7182,-22.5 l -0.5,-20.90446 -4.71814,-0.30349 c -3.58969,-0.2309 -5.41422,0.21114 -7.62849,1.84822 -1.60068,1.18344 -4.08971,2.22001 -5.53115,2.30349 -2.96371,0.17164 -2.8771,-0.19564 -2.86563,12.15178 0.008,8.96756 0.006,8.97657 -0.70152,2.5 -0.39043,-3.575 -0.84078,-5.825 -1.00079,-5 -0.15999,0.825 -0.57748,0.15 -0.92772,-1.5 -0.56617,-2.66722 -1.13543,-3.06654 -5.13168,-3.59981 -2.47218,-0.32989 -3.87727,-0.66739 -3.12243,-0.75 1.08421,-0.11865 1.11972,-0.45471 0.16906,-1.60019 -1.55245,-1.87058 -18.08145,-2.08526 -19.24808,-0.25 -0.58376,0.91834 -0.7664,0.9066 -0.77812,-0.05 -0.0203,-1.65489 -7.1791,-1.65489 -8.96201,0 -1.07737,1 -1.20555,1 -0.64098,0 0.38815,-0.6875 0.26597,-1.25 -0.27151,-1.25 -0.53748,0 -1.68903,-0.27315 -2.55901,-0.60699 -1.41161,-0.54168 -1.5818,1.66403 -1.5818,20.5 0,11.60885 -0.1882,21.10699 -0.4182,21.10699 -0.23002,0 -1.13002,-0.27314 -2,-0.60699 -1.81042,-0.69472 -2.18915,-6.02389 -0.46885,-6.59732 0.79164,-0.26388 0.90005,-4.06185 0.37557,-13.1554 -0.85532,-14.82916 -0.69983,-14.64029 -12.05362,-14.64029 l -6.4349,0 0,15.34501 c 0,14.19261 0.15373,15.48414 2.04706,17.19758 1.12588,1.01891 2.99846,3.54535 4.16129,5.61432 1.16282,2.06897 2.56117,3.48553 3.10745,3.14792 0.55345,-0.34206 0.68113,-0.10887 0.28835,0.52666 -0.38768,0.62727 0.4101,3.0593 1.77285,5.4045 1.36275,2.34521 3.27952,7.30151 4.2595,11.01401 0.97997,3.7125 1.89402,6.75 2.03122,6.75 0.13722,0 0.10887,-4.6125 -0.063,-10.25 z m 44.56938,-25.75 c -0.12535,-5.10661 0.18814,-8 0.86678,-8 0.67834,0 0.99336,2.89562 0.87034,8 -0.10606,4.4 -0.49611,8 -0.86678,8 -0.37068,0 -0.76233,-3.6 -0.87034,-8 z m 1.1621,-17 c 0,-4.125 0.17651,-5.8125 0.39226,-3.75 0.21574,2.0625 0.21574,5.4375 0,7.5 -0.21576,2.0625 -0.39226,0.375 -0.39226,-3.75 z m -16.60288,4.87591 c 0.67834,-0.68342 1.48524,-0.99067 1.79313,-0.68278 0.30788,0.30789 -0.24711,0.86705 -1.23333,1.24258 -1.4252,0.54268 -1.54007,0.42782 -0.5598,-0.5598 z m -7.98334,-2.53819 c 0.6875,-0.27741 1.8125,-0.27741 2.5,0 0.6875,0.27741 0.125,0.50439 -1.25,0.50439 -1.375,0 -1.9375,-0.22698 -1.25,-0.50439 z m 29.9375,0.0164 c -0.93587,-0.93588 -0.87767,-13.35805 0.0625,-13.33886 2.54571,0.052 3.34165,2.00589 3.0546,7.49844 -0.28129,5.38228 -1.42754,7.52998 -3.1171,5.84042 z m -25.6875,-1.85412 c 0,-0.825 0.17686,-1.5 0.39301,-1.5 0.21616,0 0.65203,0.675 0.96862,1.5 0.31658,0.825 0.13972,1.5 -0.39301,1.5 -0.53274,0 -0.96862,-0.675 -0.96862,-1.5 z m -19.34395,-3.25 c -0.69747,-1.1323 -1.16954,-8.06984 -0.58864,-8.65074 0.27941,-0.27941 2.29104,-0.62168 4.4703,-0.7606 2.17926,-0.13892 4.55693,-0.83445 5.28372,-1.54562 2.06145,-2.01717 3.16361,-1.53738 3.34693,1.45696 0.52183,8.52337 0.46549,8.7346 -2.41836,9.06642 -1.5125,0.17403 -2.80625,-0.16347 -2.875,-0.75 -0.0687,-0.58653 -0.2375,-1.51642 -0.375,-2.06642 -0.1375,-0.55 -0.3165,-1.3375 -0.39777,-1.75 -0.0813,-0.4125 -0.86873,0.7125 -1.7499,2.5 -1.50441,3.05175 -3.65215,4.19507 -4.69628,2.5 z m 11.00623,-5.5 c -0.27741,-0.6875 -0.50439,-0.125 -0.50439,1.25 0,1.375 0.22698,1.9375 0.50439,1.25 0.27741,-0.6875 0.27741,-1.8125 0,-2.5 z m 6.56225,5.45423 c -2.93833,-0.30029 -3.22985,-0.61109 -2.83223,-3.01949 0.24378,-1.47661 0.48024,-3.24724 0.52547,-3.93474 0.0994,-1.51149 7.66783,-1.72953 8.5839,-0.2473 0.4108,0.66469 1.28773,0.64519 2.60135,-0.0578 1.08991,-0.5833 3.6501,-0.92201 5.68932,-0.7527 3.51202,0.2916 3.70766,0.49252 3.70766,3.80784 0,3.45178 -0.0636,3.50413 -4.62042,3.7995 -4.08371,0.26471 -4.69949,0.0324 -5.30107,-2 -0.67781,-2.28998 -0.68422,-2.29076 -1.54588,-0.1886 -1.02915,2.51074 -2.42258,3.04152 -6.80809,2.59333 z m 16.56323,-4.34094 c -0.24965,-0.74895 -0.70294,-0.29565 -1.05655,1.05655 -0.43496,1.66335 -0.30483,2.05378 0.43724,1.31171 0.5811,-0.5811 0.8598,-1.64682 0.61932,-2.36826 z m -14.2613,-1.67016 c -0.30789,-0.30789 -1.11479,-6.4e-4 -1.79313,0.68278 -0.98026,0.98762 -0.8654,1.10248 0.5598,0.5598 0.98622,-0.37553 1.54122,-0.93469 1.23333,-1.24258 z m 278.44829,58.27644 c -0.72065,-0.86832 -2.13087,-2.01794 -3.13383,-2.55471 -1.55794,-0.83378 -1.79307,-0.60733 -1.61414,1.5546 0.23181,2.80091 0.79866,3.1051 2.54044,1.36332 0.88962,-0.88962 1.3233,-0.76045 1.82354,0.54313 0.36097,0.94069 0.88985,1.47681 1.17528,1.19138 0.28543,-0.28543 -0.0707,-1.2294 -0.79129,-2.09772 z m 6.52525,1.53043 c -0.33992,-0.55 -1.04148,-1 -1.55902,-1 -0.51754,0 -0.94098,0.45 -0.94098,1 0,0.55 0.70156,1 1.55902,1 0.85746,0 1.2809,-0.45 0.94098,-1 z m -23.5,-2 c 0,-1.1 -0.45,-2 -1,-2 -0.55,0 -1,0.9 -1,2 0,1.1 0.45,2 1,2 0.55,0 1,-0.9 1,-2 z m 8.41026,0.37325 c 0.84929,-2.2132 -1.28392,-4.723 -2.88495,-3.39426 -0.66513,0.55201 -1.44467,0.76832 -1.7323,0.48069 -0.42726,-0.42727 -0.35576,3.43796 0.0794,4.29032 0.51054,1.0001 4.03627,-0.0696 4.53788,-1.37675 z m 31.93175,-0.69791 c 0.36189,0.3619 0.65799,0.38455 0.65799,0.0503 0,-1.55061 -1.91024,-1.52909 -3.13669,0.0353 -1.2043,1.53617 -1.17763,1.59421 0.2287,0.49767 0.8756,-0.68273 1.8881,-0.94523 2.25,-0.58334 z m 35.0449,0.14168 c -0.28881,-0.4673 -0.944,-0.59075 -1.45601,-0.27431 -1.30837,0.80862 -1.16106,1.12396 0.52512,1.12396 0.8008,0 1.2197,-0.38234 0.93089,-0.84965 z m -405.3869,-2.38739 c 0,-0.275 -0.9,-0.0183 -2,0.57037 -1.1,0.5887 -2,1.29537 -2,1.57037 0,0.275 0.9,0.0183 2,-0.57037 1.1,-0.5887 2,-1.29537 2,-1.57037 z m 19.20825,1.8712 c -1.05565,-0.40479 -1.05565,-0.78339 0,-2.07149 1.12874,-1.37728 0.97627,-1.49747 -1.20826,-0.95249 -2.37719,0.59304 -2.40465,0.55244 -0.55887,-0.82659 1.06762,-0.79764 1.43168,-1.45026 0.80902,-1.45026 -0.62267,0 -1.41477,0.45734 -1.76022,1.01631 -0.92898,1.50311 -2.48993,0.16507 -2.48993,-2.13434 0,-1.1 0.45001,-1.72189 1,-1.38197 0.55001,0.33992 1,0.11115 1,-0.50837 0,-0.69345 -0.81685,-0.86714 -2.12522,-0.45188 -1.41878,0.4503 -1.90014,0.3103 -1.44806,-0.42116 0.41422,-0.67023 0.11382,-0.87951 -0.77362,-0.53896 -1.80595,0.693 -3.11416,-1.17664 -1.5149,-2.16504 0.78055,-0.4824 0.90115,-0.28727 0.3618,0.58541 -0.53532,0.86617 -0.41844,1.06763 0.3455,0.59549 1.50113,-0.92775 1.48702,-0.98459 -0.74622,-3.00565 -1.42834,-1.29263 -2.08806,-1.41701 -2.65451,-0.50047 -0.50799,0.82194 -0.2958,0.99407 0.65073,0.52787 0.77248,-0.38048 0.64801,-0.13437 -0.2766,0.54692 -1.50763,1.11087 -1.17226,1.73959 3.25,6.09264 2.7121,2.66967 4.9311,5.40826 4.9311,6.08577 0,0.6775 1.01251,1.28172 2.25,1.34271 1.23751,0.061 1.66872,-0.11202 0.95826,-0.38445 z m 312.39591,-2.03 c -0.33229,-0.33229 -0.56864,0.25834 -0.52522,1.3125 0.048,1.16495 0.28494,1.4019 0.60416,0.60417 0.28887,-0.72188 0.25335,-1.58438 -0.0789,-1.91667 z m -297.71933,-4.17136 c -0.59906,-1.71847 -0.85985,-3.72217 -0.57954,-4.45267 0.28032,-0.73049 0.16082,-1.89262 -0.26555,-2.5825 -0.52495,-0.84937 -0.99327,-0.38563 -1.45055,1.43633 -0.40036,1.59513 -0.18905,3.27658 0.51895,4.12967 0.65683,0.79144 1.15517,2.8859 1.10739,4.65434 -0.0663,2.45572 0.13114,2.82837 0.83583,1.57735 0.58059,-1.03071 0.51883,-2.79646 -0.16653,-4.76252 z m 227.11516,1.52297 c 0,-0.20765 -0.7875,-0.99515 -1.75,-1.75 -1.58606,-1.24387 -1.62143,-1.2085 -0.37756,0.37756 1.30637,1.66575 2.12756,2.19548 2.12756,1.37244 z m -21.22917,-2.43494 c 0.21771,-0.65313 -0.31666,-1.1875 -1.1875,-1.1875 -0.87083,0 -1.58333,0.7125 -1.58333,1.58333 0,1.76593 2.15276,1.45839 2.77083,-0.39583 z m 7.26694,0.26699 c 0.70546,-0.85003 1.90893,-1.30518 2.67438,-1.01145 0.87482,0.3357 1.1258,0.10377 0.67574,-0.62443 -0.48941,-0.79189 -0.14464,-0.93924 1.08951,-0.46566 1.49723,0.57455 1.59812,0.44298 0.59093,-0.77062 -1.25215,-1.50875 -4.06833,-1.10472 -4.06833,0.58368 0,0.52361 -0.47445,0.6588 -1.05434,0.30041 -0.69575,-0.43 -0.48154,-1.55542 0.62982,-3.30902 0.92629,-1.46157 1.09644,-2.10561 0.37813,-1.43119 -0.98495,0.92475 -1.64493,0.94493 -2.68458,0.0821 -1.14256,-0.94824 -1.3372,-0.34499 -1.13694,3.52379 0.25704,4.96559 0.84849,5.60115 2.90568,3.12239 z m 203.89806,-3.20449 c -0.19466,-5.91442 -0.82563,-8.43613 -1.93872,-7.74821 -0.4724,0.29196 -1.14156,0.0735 -1.48702,-0.48548 -1.36479,-2.20827 -10.88688,-0.77206 -10.44445,1.57533 0.43239,2.29409 -0.1603,4.46788 -1.06563,3.90836 -0.60393,-0.37325 -1,0.98962 -1,3.44098 l 0,4.05902 8.04607,0 8.04607,0 -0.15633,-4.75 z m -2.93582,-2.30902 c 0,-0.58246 -0.45001,-0.7809 -1,-0.44098 -0.55,0.33992 -1,0.18962 -1,-0.33399 0,-0.52362 0.77378,-1.24896 1.71952,-1.61187 0.94573,-0.36292 1.39963,-0.33997 1.00868,0.051 -0.39098,0.39096 -0.20965,1.31475 0.40292,2.05285 0.81924,0.98712 0.81694,1.34201 -0.009,1.34201 -0.61703,0 -1.12212,-0.47656 -1.12212,-1.05902 z m -519,-1.74985 c 0,-5.31796 -0.46833,-8.42806 -1.4682,-9.75 -1.32623,-1.75343 -1.47127,-1.06281 -1.5,7.1422 -0.0175,4.99584 0.2682,9.38334 0.63487,9.75 1.76719,1.76719 2.33333,0.0343 2.33333,-7.1422 z m 33.60417,5.0797 c -0.3323,-0.33229 -0.56865,0.25834 -0.52522,1.3125 0.048,1.16495 0.28494,1.4019 0.60416,0.60417 0.28887,-0.72188 0.25335,-1.58438 -0.0789,-1.91667 z m 357.89582,1.72917 c -0.33992,-0.55 -0.81648,-1 -1.05902,-1 -0.24254,0 -0.44098,0.45 -0.44098,1 0,0.55 0.47656,1 1.05902,1 0.58246,0 0.7809,-0.45 0.44098,-1 z m 100.10417,-1.72917 c -0.33228,-0.33229 -0.56863,0.25834 -0.52522,1.3125 0.048,1.16495 0.28494,1.4019 0.60416,0.60417 0.28887,-0.72188 0.25336,-1.58438 -0.0789,-1.91667 z m 5.39584,1.79132 c 0,-0.51582 -0.9,-0.87006 -2,-0.7872 -1.10001,0.0829 -2,0.5049 -2,0.93785 0,0.43296 0.89999,0.7872 2,0.7872 1.1,0 2,-0.42203 2,-0.93785 z m 6.98635,-0.81215 c -0.0224,-2.8753 -1.15795,-6.25 -2.10298,-6.25 -0.48585,0 -0.88337,1.8 -0.88337,4 0,2.88889 0.41666,4 1.5,4 0.825,0 1.49386,-0.7875 1.48635,-1.75 z m -443.73635,0.0877 c -0.6875,-0.27741 -1.8125,-0.27741 -2.5,0 -0.6875,0.27741 -0.125,0.50439 1.25,0.50439 1.375,0 1.9375,-0.22698 1.25,-0.50439 z m 397.9375,-2.02083 c -0.72189,-0.28887 -1.58439,-0.25335 -1.91668,0.0789 -0.33229,0.33229 0.25834,0.56864 1.3125,0.52522 1.16495,-0.048 1.40191,-0.28494 0.60418,-0.60416 z m 36.8125,-1.87591 c 0,-1.40746 -0.43035,-2.29305 -0.95633,-1.96797 -0.52598,0.32507 -0.69561,1.36413 -0.37696,2.30902 0.37399,1.10896 -0.0161,0.92036 -1.10038,-0.53203 -0.92386,-1.2375 -2.10126,-2.25 -2.61642,-2.25 -0.51518,0 0.0415,1.125 1.23704,2.5 2.76398,3.17887 3.81305,3.16263 3.81305,-0.059 z m -185.00001,0.11804 c 0,-0.79254 -0.42277,-1.70227 -0.93948,-2.02162 -0.51671,-0.31934 -0.87095,0.3291 -0.78719,1.44099 0.17201,2.28353 1.72667,2.80632 1.72667,0.58063 z m 186.60418,-2.28819 c -0.33229,-0.33229 -0.56864,0.25834 -0.52522,1.3125 0.048,1.16495 0.28494,1.4019 0.60416,0.60417 0.28887,-0.72188 0.25335,-1.58438 -0.0789,-1.91667 z m -425.60417,0.72917 c -0.82501,-0.53316 -2.17501,-0.94464 -3,-0.9144 -0.98906,0.0362 -0.81875,0.34772 0.5,0.9144 2.74908,1.18132 4.32796,1.18132 2.5,0 z m 6.03296,-1.5 c 1.38428,-1.88718 1.36018,-1.91583 -0.42721,-0.50784 -1.75058,1.37899 -1.84313,1.33109 -1.2202,-0.63158 0.46486,-1.46463 0.18316,-2.3121 -0.90769,-2.7307 -0.86996,-0.33383 -1.33056,-0.20056 -1.02357,0.29616 0.30699,0.49673 0.0244,1.08106 -0.62798,1.29852 -0.68415,0.22805 -0.90138,1.13745 -0.51329,2.14879 0.37007,0.96438 1.12603,1.47333 1.67991,1.13102 0.55389,-0.34232 1.00706,-0.0709 1.00706,0.60328 0,0.67413 0.12734,1.03818 0.28297,0.80902 0.15563,-0.22917 0.94313,-1.31667 1.75,-2.41667 z m -29.28296,0.375 c -0.13751,-0.61875 0.37513,-1.35213 1.13919,-1.62973 0.85081,-0.30912 1.1186,-0.0669 0.69098,0.625 -0.83344,1.34854 4.21036,1.54876 6.26178,0.24857 0.98197,-0.62238 0.65602,-0.98165 -1.21512,-1.33934 -1.40638,-0.26885 -2.76223,0.008 -3.013,0.61584 -0.25077,0.60756 -0.49147,0.1403 -0.53489,-1.03835 -0.0434,-1.17866 -0.79075,-2.41616 -1.66073,-2.75 -2.39142,-0.91767 -2.69021,-0.75817 -1.99133,1.06306 0.35247,0.91853 0.11796,1.99322 -0.52113,2.3882 -0.63909,0.39498 -0.85277,1.21845 -0.47485,1.82995 0.88832,1.43733 1.63976,1.42982 1.31909,-0.0132 z m 278.64698,-0.0417 c -0.28326,-0.4583 -0.93847,-0.8333 -1.45601,-0.8333 -0.51754,0 -0.94098,0.375 -0.94098,0.83333 0,0.45834 0.65521,0.83334 1.45601,0.83334 0.80081,0 1.22425,-0.375 0.94098,-0.83334 z m 96.21014,-0.30439 c -0.11875,-0.80908 -0.49517,-1.75031 -0.83648,-2.09163 -0.48071,-0.4807 -0.38708,1.54849 0.15284,3.31269 0.29536,0.9651 0.85721,-0.0384 0.68365,-1.22106 z M 172.1262,378.3164 c -0.0829,-1.1 -0.72989,-2 -1.43785,-2 -0.70796,0 -1.34848,-1.0125 -1.42338,-2.25 l -0.13618,-2.25 -0.43337,2.25 c -0.51296,2.66326 -2.95124,3.00144 -3.60494,0.5 -0.34414,-1.31691 -0.48603,-1.19317 -0.57332,0.5 -0.0949,1.84157 0.40914,2.25 2.77701,2.25 1.64907,0 3.14051,0.64497 3.46861,1.5 0.81551,2.12517 1.54113,1.85906 1.36342,-0.5 z m 3.27496,0.44098 c 0,-0.85746 -0.45001,-1.2809 -1,-0.94098 -0.55001,0.33992 -1,1.04148 -1,1.55902 0,0.51754 0.44999,0.94098 1,0.94098 0.54999,0 1,-0.70156 1,-1.55902 z m 116.9297,-2.69098 c 0.0387,-0.4125 -0.3797,-0.75 -0.92971,-0.75 -0.55,0 -0.96837,1.2375 -0.92971,2.75 0.0623,2.43684 0.16815,2.52225 0.92971,0.75 0.47269,-1.1 0.89107,-2.3375 0.92971,-2.75 z m 24.82029,3.56067 c -0.9625,-0.25152 -2.5375,-0.25152 -3.5,0 -0.9625,0.25153 -0.175,0.45733 1.75,0.45733 1.925,0 2.7125,-0.2058 1.75,-0.45733 z m 10.48209,-0.0354 c -1.79735,-0.22256 -4.49735,-0.21797 -6,0.0102 -1.50265,0.22818 -0.0321,0.41027 3.26791,0.40466 3.3,-0.006 4.52944,-0.1923 2.73209,-0.41486 z m 32.5571,-0.0131 c -3.14094,-0.19781 -8.54095,-0.19942 -12,-0.004 -3.45905,0.19583 -0.88919,0.35767 5.71081,0.35965 6.6,0.002 9.43013,-0.15825 6.28919,-0.35606 z m 23.98724,0.0109 c -2.04796,-0.21488 -5.64796,-0.21785 -8,-0.007 -2.35204,0.21125 -0.67643,0.38706 3.72357,0.39069 4.4,0.004 6.32439,-0.16921 4.27643,-0.38408 z m 123.22357,-1.52307 c 0,-1.27778 -0.80952,-1.75 -3,-1.75 -1.65,0 -3.24141,0.1125 -3.53647,0.25 -0.29507,0.1375 -1.01251,-0.425 -1.59434,-1.25 -0.8887,-1.26014 -0.96784,-1.22017 -0.49491,0.25 0.31191,0.9696 0.0567,1.75 -0.57233,1.75 -0.62441,0 -0.84616,0.28913 -0.49278,0.6425 0.35337,0.35338 1.32837,0.0733 2.16666,-0.62244 1.27327,-1.05672 1.52417,-0.95671 1.52417,0.6075 0,1.41382 0.73479,1.87244 3,1.87244 2.19048,0 3,-0.47222 3,-1.75 z m -327.92963,-0.61852 c -0.55,-1.02768 -0.67833,-2.22483 -0.28518,-2.66032 0.39315,-0.4355 0.19075,-0.49186 -0.44977,-0.12525 -0.64053,0.3666 -1.3925,0.10125 -1.67106,-0.58968 -0.27855,-0.69093 -0.54199,-0.0517 -0.58541,1.42045 -0.0517,1.7524 0.52534,2.83459 1.67106,3.13399 0.9625,0.25153 1.87833,0.50953 2.03518,0.57333 0.15685,0.0638 -0.16482,-0.72483 -0.71482,-1.75252 z m 347.92963,-0.2048 c 0,-2.26896 -3.00684,-2.41005 -3.75069,-0.176 -0.26434,0.79389 0.16194,1.02874 1.16713,0.64301 0.87096,-0.33422 1.58356,-0.10952 1.58356,0.49932 0,0.60885 0.225,1.10699 0.5,1.10699 0.275,0 0.5,-0.933 0.5,-2.07332 z m 50.1241,-0.19335 c -0.98762,-0.98026 -1.10248,-0.8654 -0.5598,0.5598 0.37553,0.98622 0.93468,1.54122 1.24258,1.23333 0.30788,-0.30789 6.3e-4,-1.11479 -0.68278,-1.79313 z m -305.8741,0.51895 c -7.8375,-0.16896 -20.6625,-0.16896 -28.5,0 -7.8375,0.16896 -1.425,0.3072 14.25,0.3072 15.67501,0 22.0875,-0.13824 14.25,-0.3072 z m 131.75,-0.25228 c 0,-0.55 -1.575,-1 -3.5,-1 -1.925,0 -3.5,0.45 -3.5,1 0,0.55 1.575,1 3.5,1 1.925,0 3.5,-0.45 3.5,-1 z m 18.38156,-0.55194 c 0.34149,-0.88992 0.17385,-1.29132 -0.39301,-0.94098 -0.5437,0.33602 -0.98855,1.0344 -0.98855,1.55194 0,1.43843 0.71677,1.12146 1.38156,-0.61096 z m 11.61844,-0.66967 c 0,-0.55635 -1.125,-0.79649 -2.5,-0.53364 -1.375,0.26285 -2.5,0.10443 -2.5,-0.35204 0,-0.45647 -0.675,-0.57092 -1.5,-0.25434 -3.17875,1.2198 -1.50563,2.91502 2.5,2.53302 2.2,-0.2098 4,-0.83665 4,-1.393 z m 77,0.16259 c 0,-0.51754 -0.45,-0.94098 -1,-0.94098 -0.55,0 -1,0.70156 -1,1.55902 0,0.85746 0.45,1.2809 1,0.94098 0.55,-0.33992 1,-1.04148 1,-1.55902 z m 25,0.059 c 0,-1.1 -0.40787,-2 -0.90638,-2 -0.49851,0 -0.67103,0.9 -0.38337,2 0.28766,1.1 0.69553,2 0.90638,2 0.21085,0 0.38337,-0.9 0.38337,-2 z m 39.60417,-0.72917 c -0.33228,-0.33229 -0.56863,0.25834 -0.52522,1.3125 0.048,1.16495 0.28494,1.4019 0.60416,0.60417 0.28887,-0.72188 0.25336,-1.58438 -0.0789,-1.91667 z m 32.39584,1.83616 c 0,-2.00933 -10.3753,-2.92681 -11.55277,-1.0216 -0.48379,0.78279 -0.34032,0.96657 0.39825,0.5101 0.63498,-0.39244 1.15452,-0.23697 1.15452,0.34549 0,0.60416 2.14756,1.05902 5,1.05902 2.75,0 5,-0.40186 5,-0.89301 z m -288.26904,-0.79998 c -0.97296,-0.25354 -2.32297,-0.23687 -3,0.0371 -0.67703,0.27393 0.11903,0.48137 1.76903,0.46099 1.65,-0.0204 2.20394,-0.2445 1.23097,-0.49804 z m 92.26903,-0.30701 c 0,-0.55 -1.06875,-1 -2.375,-1 -1.30625,0 -3.89375,-0.22981 -5.75,-0.51068 -3.23412,-0.48937 -3.20803,-0.452 0.625,0.89514 4.90562,1.72412 7.5,1.93704 7.5,0.61554 z m 128.44236,0.0933 c 0.30822,-0.49871 -0.34022,-0.67122 -1.44098,-0.38337 -2.33499,0.61061 -2.63015,1.29011 -0.5604,1.29011 0.79254,0 1.69316,-0.40803 2.00138,-0.90674 z m -180.19236,-0.82547 c -2.3375,-0.21053 -6.1625,-0.21053 -8.5,0 -2.3375,0.21054 -0.425,0.3828 4.25,0.3828 4.675,0 6.5875,-0.17226 4.25,-0.3828 z m 25,0 c -2.3375,-0.21053 -6.1625,-0.21053 -8.5,0 -2.3375,0.21054 -0.425,0.3828 4.25,0.3828 4.675,0 6.5875,-0.17226 4.25,-0.3828 z m -124.5,-1.014 c -5.9125,-0.1768 -15.5875,-0.1768 -21.5,0 -5.9125,0.17679 -1.07499,0.32145 10.75,0.32145 11.825,0 16.6625,-0.14466 10.75,-0.32145 z m 21.5,0.0405 c -1.2375,-0.23836 -3.26249,-0.23836 -4.5,0 -1.2375,0.23835 -0.225,0.43337 2.25,0.43337 2.475,0 3.48751,-0.19502 2.25,-0.43337 z m 39.74963,-21.54427 -3.7e-4,-21.25 -5.24963,-0.22955 c -8.77777,-0.38382 -8.73974,-0.42714 -8.81992,10.04694 -0.0464,6.06081 -0.36246,8.50267 -0.92971,7.18261 -0.70061,-1.63041 -0.87242,-1.68751 -0.92971,-0.30902 -0.0387,0.93004 0.37971,1.9691 0.92971,2.30902 0.57239,0.35375 1,5.51038 1,12.05902 l 0,11.44096 7,0 7,0 -3.7e-4,-21.25 z m 310.00038,20.85697 c 0,-0.21616 -0.69837,-0.661 -1.55194,-0.98855 -0.88992,-0.34149 -1.29132,-0.17385 -0.94098,0.39301 0.58726,0.95021 2.49292,1.40545 2.49292,0.59554 z m -58,-2.66601 c 0,-0.58246 -0.45001,-0.7809 -1,-0.44098 -0.55001,0.33992 -1,0.81648 -1,1.05902 0,0.24254 0.44999,0.44098 1,0.44098 0.54999,0 1,-0.47656 1,-1.05902 z m 54,0.059 c 0,-0.55 -1.60156,-1 -3.55903,-1 -2.11802,0 -3.30877,0.40488 -2.94097,1 0.33992,0.55 1.94147,1 3.55902,1 1.61754,0 2.94098,-0.45 2.94098,-1 z M 325.7505,368.78437 c -0.79324,-2.06711 -1.34935,-1.82352 -1.34935,0.59105 0,1.13246 0.43035,1.79305 0.95633,1.46797 0.52599,-0.32507 0.70284,-1.25163 0.39302,-2.05902 z m 12.65065,-0.46797 c 0,-1.65 -0.45,-3 -1,-3 -0.55,0 -1,1.35 -1,3 0,1.65 0.45,3 1,3 0.55,0 1,-1.35 1,-3 z m -32.39582,-2.72917 c -0.33231,-0.33229 -0.56864,0.25834 -0.52522,1.3125 0.048,1.16495 0.28494,1.4019 0.60416,0.60417 0.28887,-0.72188 0.25335,-1.58438 -0.0789,-1.91667 z m -5,-1 c -0.33231,-0.33229 -0.56864,0.25834 -0.52522,1.3125 0.048,1.16495 0.28494,1.4019 0.60416,0.60417 0.28887,-0.72188 0.25335,-1.58438 -0.0789,-1.91667 z m 25.32553,-2.57985 c -0.0386,-1.75504 -0.45702,-4.09098 -0.92971,-5.19098 -0.61696,-1.43575 -0.87926,-0.36113 -0.92971,3.80902 -0.044,3.63415 0.30411,5.57762 0.92971,5.19098 0.55,-0.33992 0.96837,-2.05398 0.92971,-3.80902 z m 26.84672,2.58213 c -2.04796,-0.21488 -5.64796,-0.21785 -8,-0.007 -2.35204,0.21125 -0.67643,0.38706 3.72357,0.39069 4.4,0.004 6.32439,-0.16921 4.27643,-0.38408 z m 23.47357,-0.005 c -2.3375,-0.21053 -6.1625,-0.21053 -8.5,0 -2.3375,0.21054 -0.425,0.3828 4.25,0.3828 4.675,0 6.5875,-0.17226 4.25,-0.3828 z m 30.5,-0.003 c -2.6125,-0.206 -6.8875,-0.206 -9.5,0 -2.6125,0.206 -0.475,0.37454 4.75,0.37454 5.225,0 7.3625,-0.16854 4.75,-0.37454 z m 27.4375,0.0519 c -0.72188,-0.28887 -1.58438,-0.25335 -1.91667,0.0789 -0.33229,0.33229 0.25834,0.56864 1.3125,0.52522 1.16495,-0.048 1.4019,-0.28494 0.60417,-0.60416 z m 64.05084,-0.0241 c -1.24391,-0.23919 -3.04391,-0.23011 -4,0.0202 -0.95609,0.25029 0.0617,0.446 2.26166,0.4349 2.2,-0.0111 2.98225,-0.21589 1.73834,-0.45508 z m 23,0 c -1.24391,-0.23919 -3.04391,-0.23011 -4,0.0202 -0.95609,0.25029 0.0617,0.446 2.26166,0.4349 2.2,-0.0111 2.98225,-0.21589 1.73834,-0.45508 z m 24.51166,0.0179 c -0.9625,-0.25152 -2.5375,-0.25152 -3.5,0 -0.9625,0.25153 -0.175,0.45733 1.75,0.45733 1.925,0 2.7125,-0.2058 1.75,-0.45733 z m 48.48835,-0.0179 c -1.24392,-0.23919 -3.04391,-0.23011 -4,0.0202 -0.9561,0.25029 0.0617,0.446 2.26166,0.4349 2.19999,-0.0111 2.98225,-0.21589 1.73834,-0.45508 z m 7.76166,0.31408 c 0,-0.21616 -0.69838,-0.661 -1.55195,-0.98855 -0.88991,-0.34149 -1.29131,-0.17385 -0.94098,0.39301 0.58727,0.95021 2.49293,1.40545 2.49293,0.59554 z M 391.40115,361.3164 c 0,-1.65 -0.45,-3 -1,-3 -0.55,0 -1,1.35 -1,3 0,1.65 0.45,3 1,3 0.55,0 1,-1.35 1,-3 z m -266.39582,-0.72915 c -0.3323,-0.33229 -0.56865,0.25834 -0.52522,1.3125 0.048,1.16495 0.28494,1.4019 0.60416,0.60417 0.28887,-0.72188 0.25335,-1.58438 -0.0789,-1.91667 z m 80.13833,-19.52083 c -0.18982,-3.9875 -0.34512,-0.725 -0.34512,7.25 0,7.975 0.1553,11.2375 0.34512,7.25 0.18981,-3.9875 0.18981,-10.5125 0,-14.5 z m 97.94682,13.5 c -0.25153,-0.9625 -0.45733,-0.175 -0.45733,1.75 0,1.925 0.2058,2.7125 0.45733,1.75 0.25152,-0.9625 0.25152,-2.5375 0,-3.5 z m 2.91484,-0.97917 c -0.3323,-0.33229 -0.56864,0.25834 -0.52522,1.3125 0.048,1.16495 0.28494,1.4019 0.60416,0.60417 0.28887,-0.72187 0.25336,-1.58437 -0.0789,-1.91667 z m 326.39584,-2.26378 c 0,-0.55388 -0.89143,-1.00705 -1.98095,-1.00705 -1.3483,0 -2.1734,-0.87827 -2.58353,-2.75 -1.16815,-5.3312 -1.3356,-5.57782 -2.90355,-4.27653 -0.7944,0.65929 -1.88643,0.9255 -2.4267,0.59159 -0.54029,-0.33392 -1.44632,0.18984 -2.01341,1.16391 -0.8411,1.44477 -1.03665,1.48548 -1.06146,0.22103 -0.0167,-0.8525 0.5321,-2.19056 1.2196,-2.97347 0.6875,-0.7829 0.29042,-0.62605 -0.88242,0.34857 -4.60177,3.82409 -10.55024,-1.08429 -8.3446,-6.88557 0.84113,-2.21231 1.48364,-2.51825 4.72525,-2.25 3.2832,0.2717 3.90237,0.74759 4.95771,3.81047 1.10937,3.2197 1.25886,3.31981 1.86663,1.25 0.36338,-1.2375 1.04408,-2.25 1.51267,-2.25 0.46859,0 0.60631,0.64021 0.30605,1.42268 -0.75169,1.95886 2.58277,5.05045 5.61202,5.20326 2.36862,0.11949 2.49042,-0.13697 2.37469,-5 -0.19464,-8.17878 -0.29505,-8.62594 -1.93703,-8.62594 -0.85745,0 -1.34873,-0.34024 -1.09172,-0.75609 0.25702,-0.41585 -10.47734,-0.90915 -23.85411,-1.09622 -20.09006,-0.28095 -25.28086,-0.0612 -29.8363,1.26311 -3.49623,1.01638 -5.6818,2.24122 -5.97087,3.34621 -0.38299,1.46402 -0.47699,1.42289 -0.58728,-0.25701 -0.11121,-1.69359 -0.29385,-1.77019 -1.19214,-0.5 -0.94295,1.33333 -1.01624,1.33333 -0.65958,0 0.22068,-0.825 1.87347,-1.98678 3.67287,-2.58174 2.38922,-0.78998 -20.15207,-1.03721 -83.57511,-0.91663 -94.32874,0.17933 -91.68505,0.14195 -90.97785,1.28623 0.26781,0.43332 -0.60563,0.87828 -1.94098,0.9888 -1.33535,0.11051 -2.42791,-0.27058 -2.42791,-0.84688 0,-0.5763 0.41891,-0.78892 0.9309,-0.47249 0.512,0.31644 1.15468,0.21326 1.42818,-0.22928 0.27351,-0.44254 -13.5329,-0.80764 -30.6809,-0.81134 l -31.17818,-0.007 0.1028,5.04502 c 0.1965,9.64298 0.35878,10.54501 1.8972,10.54501 0.825,0 1.5,0.81 1.5,1.8 0,0.99 0.5625,2.36666 1.25,3.05925 1.00225,1.00966 0.90316,1.12719 -0.5,0.59301 -1.01399,-0.38603 -1.75,-0.20066 -1.75,0.44075 0,2.05241 -1.857,1.12725 -2.29427,-1.14301 -0.31511,-1.63602 -0.47053,-1.36773 -0.56955,0.98317 l -0.13618,3.23318 150,0.0239 c 100.04959,0.0159 150.00001,-0.31147 150.00001,-0.98318 z m -148.42637,-1.32954 c -1.37323,-1.00413 -1.85007,-2.78134 -1.94625,-7.25375 l -0.12739,-5.92376 3.37427,-0.32263 3.37428,-0.32262 -0.7117,6.82262 c -0.81298,7.79346 -1.41765,8.86148 -3.9632,7.00014 z m 2.42636,-6.49909 c 0,-0.53044 -0.675,-1.22346 -1.5,-1.54005 -1.13062,-0.43386 -1.5,0.17302 -1.5,2.46444 0,2.70226 0.16667,2.87338 1.5,1.54005 0.825,-0.825 1.5,-1.934 1.5,-2.46444 z m -102,5.85296 c 0,-0.53273 0.675,-0.70959 1.5,-0.39301 0.825,0.31659 1.5,0.75246 1.5,0.96862 0,0.21615 -0.675,0.39301 -1.5,0.39301 -0.825,0 -1.5,-0.43588 -1.5,-0.96862 z m 6.65396,0.28925 c -1.43808,-1.43809 -0.53288,-2.3262 1.34604,-1.32063 1.21831,0.65202 2,0.69211 2,0.10257 0,-0.53229 -0.9,-1.25344 -2,-1.60257 -3.66603,-1.16355 -1.55196,-3.48203 3.75,-4.11258 1.97548,-0.23495 2.24976,0.18263 2.248,3.42249 -0.002,3.47003 -0.20143,3.70424 -3.34604,3.92738 -1.83922,0.13052 -3.63832,-0.057 -3.998,-0.41666 z m 60.61535,-3.22444 c -0.14942,-3.747 -0.0426,-3.88598 2.66041,-3.45998 2.23296,0.35191 2.93127,0.003 3.37231,-1.68317 0.36303,-1.38823 1.18866,-2.00519 2.37709,-1.77632 2.58678,0.49817 2.26135,3.26072 -0.42912,3.64283 -1.43129,0.20328 -2.25,1.01056 -2.25,2.21862 0,1.27721 -0.49118,1.71058 -1.5,1.32346 -0.825,-0.31659 -1.5,-0.0775 -1.5,0.53138 0,0.60885 0.70156,1.10699 1.55902,1.10699 0.85746,0 1.2809,0.45 0.94098,1 -0.33992,0.55 -1.62085,1 -2.84652,1 -1.89751,0 -2.25162,-0.57982 -2.38417,-3.90381 z m 56.73069,0.46283 c 0,-1.89254 0.4787,-3.73684 1.06378,-4.09844 0.72059,-0.44535 0.84599,0.50345 0.38871,2.94099 -0.47727,2.54408 -0.31529,3.59843 0.55285,3.59843 0.7043,0 1.02074,-0.79229 0.74205,-1.85797 -0.64862,-2.48033 0.96272,-5.1905 2.69159,-4.52707 0.8007,0.30726 1.58521,-0.2382 1.85755,-1.29153 0.25932,-1.00289 0.52367,0.53907 0.58747,3.42657 l 0.116,5.25 -4,0 c -3.89169,0 -4,-0.0932 -4,-3.44098 z m 7,-0.11804 c 0,-1.45136 -0.43284,-2.2915 -1,-1.94098 -0.55,0.33992 -1,1.49148 -1,2.55902 0,1.06754 0.45,1.94098 1,1.94098 0.55,0 1,-1.15156 1,-2.55902 z m 53.9235,1.80902 c -0.0421,-0.9625 -0.23114,-2.56392 -0.42015,-3.55872 -0.27257,-1.43477 0.20842,-1.74489 2.32653,-1.5 2.27396,0.26292 2.67516,0.79093 2.70403,3.55872 0.0284,2.72789 -0.33302,3.25 -2.25,3.25 -1.47933,0 -2.31086,-0.61649 -2.36041,-1.75 z m 32.6835,0.16821 c -0.33385,-0.86998 -0.60699,-4.01998 -0.60699,-7 0,-5.30486 0.0603,-5.41821 2.88337,-5.41821 3.1282,0 4.13298,1.86553 4.03959,7.5 l -0.0497,3 -1.05069,-2.5 c -0.7018,-1.66987 -1.21903,-2.04736 -1.55766,-1.13685 -0.42803,1.15087 -0.64148,1.15087 -1.37062,0 -0.60701,-0.9581 -0.86818,-0.54602 -0.87895,1.38685 -0.0136,2.43862 0.86356,3.22848 3.1987,2.88042 0.39271,-0.0585 0.45706,0.56317 0.14301,1.38158 -0.75621,1.97066 -3.98227,1.90696 -4.75003,-0.0938 z m -152.35482,-2.91821 c -0.0111,-2.2 0.18461,-3.21775 0.43491,-2.26166 0.25029,0.95609 0.25936,2.75609 0.0202,4 -0.23919,1.24391 -0.44398,0.46166 -0.45508,-1.73834 z m 70.74782,0.44098 c 0,-0.58246 0.45,-0.7809 1,-0.44098 0.55,0.33992 1,0.089 1,-0.55756 0,-0.69453 -0.96106,-0.99188 -2.34861,-0.72663 -1.99693,0.38174 -2.32924,0.0623 -2.21927,-2.13342 0.0711,-1.42032 -0.26568,-3.42196 -0.74849,-4.44809 -0.64963,-1.38067 -0.52763,-1.74897 0.46926,-1.41667 0.74091,0.24697 1.12211,0.69831 0.84711,1.00297 -0.275,0.30467 0.49331,1.39217 1.70736,2.41667 2.89696,2.44467 4.1668,7.36273 1.90105,7.36273 -0.88463,0 -1.60841,-0.47656 -1.60841,-1.05902 z m -132,-3.14098 c 0,-1.62597 -0.29271,-1.90729 -1.12186,-1.07814 -0.61702,0.61702 -1.78743,0.86644 -2.60092,0.55428 -0.81349,-0.31217 -1.91096,0.0605 -2.43882,0.82814 -0.64699,0.94089 -0.73897,0.25515 -0.28226,-2.10428 0.85593,-4.42186 0.72522,-4.31675 4.37235,-3.51571 2.69856,0.59271 3.07151,1.08996 3.07151,4.09517 0,1.88129 -0.225,3.42054 -0.5,3.42054 -0.275,0 -0.5,-0.99 -0.5,-2.2 z m 11.69048,0.55714 c -0.37977,-0.37976 -0.69048,-1.51547 -0.69048,-2.52381 0,-1.99469 2.46644,-2.50566 3.55931,-0.73737 0.7915,1.28069 -1.84839,4.28162 -2.86883,3.26118 z m 176.47831,-1.51818 c 0.18218,-1.28643 1.00621,-2.33896 1.83122,-2.33896 2.16873,0 1.86997,3.90136 -0.33122,4.32527 -1.42005,0.27348 -1.75684,-0.17249 -1.5,-1.98631 z m -238.16879,-0.83896 c 0,-1.50615 0.52215,-2.04609 1.75,-1.80963 0.9625,0.18536 1.75,0.99969 1.75,1.80963 0,0.80994 -0.7875,1.62427 -1.75,1.80963 -1.22785,0.23646 -1.75,-0.30348 -1.75,-1.80963 z m 111.15789,-2 c 0,-1.375 0.22698,-1.9375 0.50439,-1.25 0.27741,0.6875 0.27741,1.8125 0,2.5 -0.27741,0.6875 -0.50439,0.125 -0.50439,-1.25 z m 123.97343,-1 c -0.0554,-0.825 0.26306,-2.07314 0.70762,-2.77363 0.61274,-0.96548 1.27441,-0.74881 2.73469,0.8955 1.91793,2.15964 1.91684,2.16414 -0.251,1.02732 -1.81595,-0.95229 -2.25318,-0.85195 -2.634,0.60449 -0.32462,1.24149 -0.48572,1.31269 -0.55731,0.24632 z m -235.67244,-1.06653 c -0.36253,-0.58659 -0.44468,-1.281 -0.18255,-1.54313 0.26212,-0.26213 0.74307,0.21781 1.06875,1.06653 0.67618,1.76211 0.0999,2.07206 -0.8862,0.4766 z m 120.04112,0.0665 c -0.33992,-0.55 -0.14148,-1 0.44098,-1 0.58247,0 1.05902,0.45 1.05902,1 0,0.55 -0.19844,1 -0.44098,1 -0.24254,0 -0.7191,-0.45 -1.05902,-1 z m -8.42105,-5.41667 c -0.0434,-1.05416 0.19293,-1.64479 0.52522,-1.3125 0.33229,0.3323 0.36781,1.1948 0.0789,1.91667 -0.31922,0.79773 -0.55618,0.56078 -0.60416,-0.60417 z m 2,-1 c -0.0434,-1.05416 0.19293,-1.64479 0.52522,-1.3125 0.33229,0.3323 0.36781,1.1948 0.0789,1.91667 -0.31922,0.79773 -0.55618,0.56078 -0.60416,-0.60417 z m 2.58772,-0.25 c -0.93214,-0.93213 -0.83205,-2.33333 0.16666,-2.33333 0.45834,0 0.83334,0.675 0.83334,1.5 0,1.69935 -0.0731,1.76025 -1,0.83333 z m 56.33333,-1.36471 c 0,-0.53274 0.675,-0.96862 1.5,-0.96862 0.825,0 1.5,0.17686 1.5,0.39301 0,0.21616 -0.675,0.65203 -1.5,0.96862 -0.825,0.31658 -1.5,0.13972 -1.5,-0.39301 z m -284.28242,12.29513 c -0.22985,-1.52006 -0.42406,-0.51375 -0.43157,2.23625 -0.007,2.75 0.18057,3.99369 0.41793,2.76375 0.23736,-1.22994 0.2435,-3.47994 0.0136,-5 z m 403.73972,4.66715 c -0.85723,-1.38704 -1.45729,-1.12841 -1.45729,0.62812 0,0.85746 0.45734,1.27636 1.0163,0.9309 0.55898,-0.34546 0.75743,-1.04702 0.44098,-1.55902 z m -327.80136,-10.1999 c -0.27393,-0.67703 -0.48137,0.11903 -0.46099,1.76903 0.0204,1.65 0.2445,2.20394 0.49804,1.23097 0.25354,-0.97297 0.23687,-2.32297 -0.0371,-3 z m -31.53185,-2.99764 c -0.98762,-0.98026 -1.10247,-0.8654 -0.5598,0.5598 0.37553,0.98622 0.93469,1.54122 1.24258,1.23333 0.30789,-0.30789 6.4e-4,-1.11479 -0.68278,-1.79313 z m -86.30748,-0.48186 c -10.82587,-0.16132 -28.82587,-0.16154 -40,-4.9e-4 -11.17413,0.16105 -2.3166,0.29304 19.6834,0.29331 21.99999,2.7e-4 31.14246,-0.1315 20.3166,-0.29282 z m 32.93339,0.0201 c -2.0625,-0.21574 -5.4375,-0.21574 -7.5,0 -2.0625,0.21575 -0.375,0.39226 3.75,0.39226 4.125,0 5.8125,-0.17651 3.75,-0.39226 z m 8.91228,-3.52153 c -0.27741,-0.6875 -0.50439,-0.125 -0.50439,1.25 0,1.375 0.22698,1.9375 0.50439,1.25 0.27741,-0.6875 0.27741,-1.8125 0,-2.5 z m -22.84405,-1.12065 0.227,-3.37065 -13.77261,-0.68706 c -14.00495,-0.69868 -61.33122,0.0565 -64.52261,1.02953 -0.9625,0.29346 -1.75,1.2048 -1.75,2.02519 0,0.8204 0.36803,1.26418 0.81784,0.98618 0.44982,-0.278 1.44916,0.37044 2.22076,1.44098 1.34722,1.86916 2.89474,1.94644 38.97777,1.94644 l 37.57485,0 0.227,-3.37065 z m 21.1836,2.62061 c 10e-4,-0.4125 -2.8115,-0.62469 -6.25,-0.47153 -11.28631,0.50271 -12.40638,0.89878 -3.00183,1.06149 5.0875,0.088 9.25082,-0.17746 9.25183,-0.58996 z m 45.98286,-1 c -0.01,-1.12413 -0.27807,-1.33901 -0.75,-0.60082 -0.40408,0.63206 -1.85969,1.35827 -3.23469,1.61382 -2.11671,0.3934 -2.00174,0.48551 0.75,0.60082 2.48561,0.10415 3.2464,-0.27542 3.23469,-1.61382 z m -65.32875,-4.51903 c -0.27393,-0.67703 -0.48137,0.11903 -0.46099,1.76903 0.0204,1.65 0.2445,2.20394 0.49805,1.23097 0.25353,-0.97297 0.23686,-2.32297 -0.037,-3 z m 16.12599,1.63327 c 0.18974,-2.2926 -0.0312,-2.36424 -7.29313,-2.36424 -7.17902,0 -7.4888,0.0965 -7.4888,2.33364 0,2.22873 0.32785,2.33501 7.29313,2.36423 6.95541,0.0292 7.3022,-0.0789 7.48881,-2.33363 z m 100.21807,0.63576 c 0,-1.31306 -0.66667,-2 -1.94098,-2 -1.06754,0 -2.2191,-0.45 -2.55902,-1 -0.33992,-0.55 0.0835,-1 0.94098,-1 2.55189,0 1.7686,-1.72678 -1.02558,-2.26092 -2.1167,-0.40464 -2.49898,-0.16669 -2.11167,1.31439 0.37805,1.44567 -0.30711,1.94025 -3.4154,2.4654 -2.93304,0.49553 -3.88833,1.12669 -3.88833,2.56903 0,1.7007 0.77393,1.9121 7,1.9121 6.33333,0 7,-0.19048 7,-2 z m -204.99999,-2.5 c 0.68469,-0.825 1.01989,-1.5 0.74489,-1.5 -0.275,0 -1.0602,0.675 -1.74489,1.5 -0.68469,0.825 -1.01989,1.5 -0.74489,1.5 0.275,0 1.0602,-0.675 1.74489,-1.5 z m 397.9297,-3.25 c 0.0387,-0.6875 -0.82971,-1.25 -1.92971,-1.25 -1.14476,0 -2,0.66667 -2,1.55902 0,0.92379 0.4704,1.26829 1.15451,0.84549 0.7153,-0.44208 0.88306,-0.27432 0.44099,0.44098 -0.39245,0.63498 -0.38435,1.68714 0.018,2.33813 0.73933,1.19627 2.16381,-1.2229 2.31622,-3.93362 z m 58.69795,-0.77794 c -0.80737,-2.10399 -3.03637,-1.38242 -3.43141,1.11081 -0.25307,1.59726 -0.1305,1.66686 0.73469,0.41713 1.07493,-1.55272 1.37304,-0.92975 1.19632,2.5 -0.096,1.86386 -0.0271,1.8506 1.01302,-0.19479 0.61384,-1.20713 0.83317,-2.93205 0.48737,-3.83315 z m -340.92667,0.13088 c -0.57001,-1.71002 -2.67716,-1.82858 -3.30745,-0.1861 -0.33413,0.87074 -0.30223,2.37066 0.0709,3.33316 0.63105,1.62781 0.7791,1.61318 2.12047,-0.20956 0.79313,-1.07776 1.29537,-2.39964 1.11609,-2.9375 z m 6.48652,3.71395 c -0.72188,-0.28888 -1.58438,-0.25335 -1.91667,0.0789 -0.33229,0.33229 0.25834,0.56864 1.3125,0.52522 1.16495,-0.048 1.4019,-0.28494 0.60417,-0.60417 z m 41.13959,-2.15158 c 1.36515,-1.28408 2.79092,-3.98407 3.16836,-6 0.37745,-2.01592 1.83166,-6.98402 3.23158,-11.04023 2.16851,-6.28311 2.45488,-8.4449 1.93437,-14.60248 -0.80145,-9.48111 -1.37052,-10.87984 -4.04931,-9.95283 -1.16165,0.402 -14.37033,0.9258 -29.35262,1.164 -26.12956,0.41542 -27.20014,0.50857 -26.25,2.28392 1.3607,2.54251 1.25607,2.98231 -0.70947,2.98231 -1.32222,0 -1.43334,0.26667 -0.5,1.2 0.76018,0.76019 1.19999,4.58688 1.19999,10.44098 0,5.08254 0.39233,9.48346 0.87185,9.77982 0.94168,0.58199 3.81233,-6.34596 4.31795,-10.4208 0.21465,-1.72993 0.92625,-2.5 2.3102,-2.5 1.73359,0 2.03998,0.76669 2.30007,5.75571 0.27603,5.29446 0.10665,5.82926 -2.1136,6.6734 -2.36352,0.89861 -3.68647,2.89932 -3.68647,5.57512 0,0.73737 1.57153,1.85932 3.49229,2.49322 1.92075,0.63391 3.83325,1.71683 4.25,2.4065 0.41674,0.68966 2.55772,2.47674 4.75771,3.97129 3.94995,2.68336 4.17734,2.71365 18.1725,2.42106 13.26448,-0.27732 14.33151,-0.44588 16.65459,-2.63099 z m 56.25536,-0.52613 c 0.33643,-2.29222 -1.97616,-1.5218 -2.42795,0.80885 -0.21078,1.08732 0.14508,1.61878 0.91262,1.36293 0.69198,-0.23066 1.37387,-1.20796 1.51533,-2.17178 z m 59.75111,0.93393 c 0.70259,-1.83091 -1.85584,-4.15511 -2.83316,-2.57378 -0.82404,1.33333 0.0835,4.00067 1.36122,4.00067 0.50841,0 1.17079,-0.6421 1.47194,-1.42689 z m 56.84976,-0.78978 c -0.71756,-0.71756 -1.18333,-0.7766 -1.18333,-0.15 0,1.33478 1.18261,2.51739 1.85,1.85 0.28418,-0.28416 -0.0158,-1.04916 -0.66667,-1.7 z m 178.81668,0.27569 c 0,-1.06754 -0.45001,-2.2191 -1,-2.55902 -0.56716,-0.35052 -1,0.48962 -1,1.94098 0,1.40746 0.45,2.55902 1,2.55902 0.54999,0 1,-0.87344 1,-1.94098 z m -320.81251,0.25787 c -0.72188,-0.28888 -1.58438,-0.25335 -1.91667,0.0789 -0.33229,0.33229 0.25834,0.56864 1.3125,0.52522 1.16495,-0.048 1.4019,-0.28495 0.60417,-0.60417 z m -19,-1 c -0.72188,-0.28888 -1.58438,-0.25335 -1.91667,0.0789 -0.33229,0.33229 0.25834,0.56864 1.3125,0.52522 1.16495,-0.048 1.4019,-0.28495 0.60417,-0.60417 z m 99.3125,-0.31689 c 0.40608,-0.65706 -8.46994,-1 -25.88197,-1 -16.58797,0 -26.73116,0.37404 -27.11803,1 -0.40608,0.65706 8.46994,1 25.88197,1 16.58797,0 26.73116,-0.37404 27.11803,-1 z m 59.5,0.10722 c 0,-0.49734 -11.7376,-0.96151 -26.5,-1.04795 -17.90702,-0.10485 -26.5,0.18465 -26.5,0.89278 0,0.70424 8.69169,1.04795 26.5,1.04795 14.87827,0 26.5,-0.39153 26.5,-0.89278 z m 58.5,-0.10722 c -0.38632,-0.62508 -10.34372,-1 -26.55902,-1 -16.62732,0 -25.94098,0.35903 -25.94098,1 0,0.64156 9.51967,1 26.55902,1 17.45136,0 26.34708,-0.34292 25.94098,-1 z m 59.5,0.061 c 0,-0.55952 -10.71023,-0.9751 -26.5,-1.02825 -17.54325,-0.0591 -26.5,0.25832 -26.5,0.93904 0,0.67847 9.01459,1.02825 26.5,1.02825 15.85311,0 26.5,-0.37728 26.5,-0.93904 z m 59.00001,-0.061 c 0,-0.64046 -9.14699,-1 -25.44099,-1 -15.88197,0 -25.6732,0.37573 -26.05901,1 -0.40598,0.65689 8.32295,1 25.44097,1 16.70601,0 26.05903,-0.35892 26.05903,-1 z m -172.50001,-1 c -0.33992,-0.55 -0.81648,-1 -1.05902,-1 -0.24254,0 -0.44098,0.45 -0.44098,1 0,0.55 0.47656,1 1.05902,1 0.58246,0 0.7809,-0.45 0.44098,-1 z m -161.11302,-1.75 c -0.46983,-1.49423 -0.31909,-1.4663 1.03138,0.19113 1.45599,1.78692 1.59043,0.4761 1.69233,-16.5 0.14554,-24.24571 -0.0699,-26.38189 -2.42356,-24.02826 -0.59792,0.59792 -1.78463,1.08024 -2.63713,1.07182 -1.3658,-0.0135 -1.37174,-0.13052 -0.05,-0.98469 1.2819,-0.82843 1.24556,-0.9716 -0.25,-0.98469 -0.9625,-0.008 -1.75,0.65969 -1.75,1.48469 0,0.825 0.67501,1.5 1.5,1.5 0.825,0 1.5,0.45 1.5,1 0,0.55 -0.46431,1 -1.03183,1 -0.65494,0 -0.98197,4.02564 -0.89534,11.02143 0.0756,6.10445 -0.31081,11.56952 -0.86614,12.25 -0.92849,1.13772 -4.20669,11.14412 -4.20669,12.84052 0,0.77316 2.84052,1.51382 6.71862,1.75187 1.68319,0.10331 2.08582,-0.28615 1.66836,-1.61382 z m 0.23496,-36.07536 c -0.44251,-1.27895 -0.53845,-2.59145 -0.21325,-2.91667 1.03661,-1.03661 1.76526,0.49191 1.38536,2.90617 l -0.36756,2.33586 -0.80455,-2.32536 z m 20.37806,35.96403 c 0,-0.47373 -1.125,-0.64627 -2.5,-0.38342 -1.375,0.26285 -2.5,0.65044 -2.5,0.86133 0,0.21088 1.125,0.38342 2.5,0.38342 1.375,0 2.5,-0.3876 2.5,-0.86133 z m 21.53331,-3.58791 c -0.12717,-0.57792 -0.60516,-1.92377 -1.06218,-2.99079 -0.5399,-1.26052 -0.41768,-2.07779 0.34896,-2.33333 1.43175,-0.47725 1.58505,-3.22664 0.17991,-3.22664 -1.07471,0 -1.24482,0.97529 -1.41577,8.11721 -0.0885,3.69782 0.11756,4.30529 1.0349,3.05075 0.62998,-0.86154 1.04136,-2.03929 0.91418,-2.6172 z m 177.70367,2.65102 c 0.32547,-1.24456 -0.12374,-1.84297 -1.45896,-1.94355 -1.46454,-0.11032 -1.67223,0.16431 -0.86228,1.14023 0.58681,0.70706 0.77082,1.58165 0.40893,1.94355 -0.36191,0.36189 -0.18549,0.65799 0.39203,0.65799 0.57752,0 1.26165,-0.8092 1.52028,-1.79822 z m 87.07875,-2.26214 c 18.49562,0.10821 26.68428,-0.17446 26.68428,-0.92116 0,-0.74549 -8.36253,-1.04917 -27.15274,-0.986 -21.39372,0.0719 -27.3292,-0.18698 -27.98469,-1.22061 -0.52477,-0.82749 -0.83761,0.14331 -0.84726,2.62926 -0.0136,3.50141 0.13149,3.74037 1.30041,2.14176 1.21509,-1.66173 3.35701,-1.78743 28,-1.64325 z m -204.91947,0.47012 c 0.65801,-1.71475 -0.007,-3.40976 -1.33865,-3.40976 -1.00399,0 -2.06129,3.66298 -1.28218,4.44209 0.99141,0.99142 1.99611,0.59568 2.62084,-1.03233 z m 56.94882,0.0471 c -0.32569,-0.84872 -0.80663,-1.32866 -1.06875,-1.06653 -0.26213,0.26213 -0.17998,0.95653 0.18255,1.54312 0.98605,1.59547 1.56238,1.28551 0.8862,-0.47659 z m 179.64128,-0.31386 c -0.008,-0.35366 -0.28774,-1.666 -0.62274,-2.91631 -0.55602,-2.07531 -0.71696,-2.12573 -1.84799,-0.57896 -1.56233,2.13662 -0.80633,5.40104 1.08291,4.67607 0.7708,-0.29579 1.39532,-0.82715 1.38781,-1.1808 z M 317.59,315.60266 c -1.27113,-0.24276 -2.55678,-1.08148 -2.85699,-1.86382 -0.30021,-0.78233 -0.95151,-1.42243 -1.44732,-1.42243 -0.49582,0 -0.33943,0.9 0.34753,2 0.76315,1.222 2.2252,1.94702 3.75848,1.86382 2.43337,-0.13206 2.43938,-0.14957 0.1983,-0.57757 z m -6.00135,-0.96937 c -0.72188,-0.28887 -1.58438,-0.25334 -1.91667,0.0789 -0.33229,0.33229 0.25834,0.56864 1.3125,0.52522 1.16495,-0.048 1.4019,-0.28494 0.60417,-0.60417 z m 79.8125,-0.31688 c 0,-0.64198 -9.66667,-1 -27,-1 -17.33333,0 -27,0.35802 -27,1 0,0.64197 9.66667,1 27,1 17.33333,0 27,-0.35803 27,-1 z m 58.53642,0.0589 c -0.82501,-1.33489 -52.53642,-1.41778 -52.53642,-0.0842 0,0.67465 9.08297,1.02529 26.55902,1.02529 16.34269,0 26.33529,-0.362 25.9774,-0.94107 z m 59.46358,-0.0589 c 0,-0.64151 -9.5,-1 -26.5,-1 -17,0 -26.5,0.35849 -26.5,1 0,0.64151 9.5,1 26.5,1 17,0 26.5,-0.35849 26.5,-1 z m 59,-0.061 c 0,-0.56176 -10.64689,-0.93904 -26.5,-0.93904 -17.48541,0 -26.5,0.34978 -26.5,1.02825 0,0.68072 8.95675,0.9981 26.5,0.93904 15.78977,-0.0532 26.5,-0.46873 26.5,-1.02825 z m -250.427,-1.46051 c -1.05985,-0.80183 -2.17182,-1.21305 -2.47104,-0.91382 -0.62768,0.62769 1.9121,2.41268 3.39805,2.38817 0.55,-0.009 0.13284,-0.67253 -0.92701,-1.47435 z m 195.70638,-0.51819 c -0.29336,-1.12182 -0.75683,-1.81623 -1.02992,-1.54313 -0.541,0.54099 0.41459,3.58279 1.12554,3.58279 0.24077,0 0.19774,-0.91785 -0.0956,-2.03966 z m -201.6127,-2.46034 c 0,-0.825 -0.0949,-1.5 -0.2109,-1.5 -0.11599,0 -0.77108,0.675 -1.45578,1.5 -1.00961,1.21651 -0.96975,1.5 0.21089,1.5 0.80068,0 1.45579,-0.675 1.45579,-1.5 z m 4.25575,-0.54794 c -0.84431,-0.52181 -0.46817,-0.92273 1.16546,-1.24225 1.90186,-0.37198 1.76994,-0.45542 -0.6236,-0.39442 -2.12616,0.0542 -3.03572,0.57293 -3.03572,1.73133 0,1.12339 0.59997,1.49707 1.87025,1.16489 1.34869,-0.35269 1.52259,-0.70395 0.62361,-1.25955 z m 79.57757,-0.94006 c 0,-0.72674 -0.7875,-1.43692 -1.75,-1.57819 -1.72783,-0.25359 -2.39705,1.58581 -1.0625,2.92036 1.02384,1.02383 2.8125,0.17026 2.8125,-1.34217 z m 58,1.22269 c -0.55,-0.40408 -1.13789,-1.37336 -1.30642,-2.15396 -0.25337,-1.17351 -0.0369,-1.1956 1.25,-0.12756 0.95638,0.79373 1.55642,0.88174 1.55642,0.22829 0,-1.6535 -2.05781,-2.52365 -3.21991,-1.36155 -1.29618,1.29617 -0.29818,4.18553 1.43853,4.16478 0.78759,-0.009 0.89603,-0.29843 0.28138,-0.75 z m 118.75388,-3.03688 c -0.13538,-1.69651 0.20335,-3.36235 0.75271,-3.70188 0.66067,-0.40832 0.6454,-1.27768 -0.0451,-2.56793 -0.57417,-1.07285 -0.97206,-2.50804 -0.88423,-3.18931 0.33814,-2.62235 -0.13281,-3.73869 -1.57724,-3.73869 -1.60613,0 -1.97592,1.1912 -0.75,2.41595 1.14414,1.14304 1.14427,10.99671 1.4e-4,11.72225 -1.3166,0.83492 0.0877,3.09012 1.5915,2.55577 0.6371,-0.22637 1.04759,-1.79965 0.91223,-3.49616 z m -186.50388,2.15421 c 12.01184,-1.44279 3.60388,-2.35202 -21.75,-2.35202 -24.64826,0 -28.33959,0.32708 -26.33333,2.33333 0.84559,0.84558 41.06894,0.86121 48.08333,0.0187 z m 57.75167,-0.35472 c 0.41425,-0.67028 1.24086,-0.67028 2.49328,0 2.55264,1.36613 3.04226,1.26325 2.36668,-0.4973 -0.49074,-1.27884 -4.31954,-1.5 -25.96862,-1.5 -21.9049,0 -25.39301,0.20605 -25.39301,1.5 0,1.28974 3.21566,1.5 22.94098,1.5 14.25655,0 23.17559,-0.37958 23.5607,-1.0027 z m 64.64718,-0.7473 c 1.00095,-1.00003 -4.08824,-1.25 -25.44885,-1.25 -22.15823,0 -26.7,0.23701 -26.7,1.39334 0,1.93201 50.20974,1.794 52.14885,-0.14334 z m 4.85115,-0.30902 c 0,-0.51754 -0.45,-0.94098 -1,-0.94098 -0.55,0 -1,0.70156 -1,1.55902 0,0.85746 0.45,1.2809 1,0.94098 0.55,-0.33992 1,-1.04148 1,-1.55902 z m 51.25405,0.80902 c 0.32799,-0.97451 0.78714,-0.94752 2.08333,0.12244 1.43093,1.18119 1.66262,1.14635 1.66262,-0.25 0,-1.45577 -2.72225,-1.62244 -26.5,-1.62244 -16.02584,0 -26.5,0.3746 -26.5,0.94774 0,1.24035 6.39139,1.64264 29.66667,1.86728 14.5766,0.14068 19.26742,-0.11437 19.58738,-1.06502 z m 15.08368,0 c 0.4035,-1 0.52017,-1 0.58332,0 0.0608,0.9623 5.48773,1.25 23.57896,1.25 20.22222,0 23.5,-0.20922 23.5,-1.5 0,-1.29487 -3.55556,-1.5 -26,-1.5 -22.44444,0 -26,0.20513 -26,1.5 0,1.80872 3.62446,2.01761 4.33772,0.25 z m 51.86847,-10.91592 c -0.0374,-15.05853 -0.14135,-17.23227 -0.79287,-16.58074 -0.32267,0.32268 -0.70704,6.94703 -0.85412,14.72079 -0.17279,9.13178 0.0759,13.7908 0.7026,13.16407 0.53351,-0.53352 0.95849,-5.62038 0.94439,-11.30412 z m -315.2062,8.95921 c 2.26445,0.0685 2.31156,-0.006 0.5,-0.78854 -1.72898,-0.74707 -1.59347,-0.87783 1,-0.96487 2.51298,-0.0844 2.71909,-0.26439 1.26961,-1.10901 -0.95172,-0.55457 -3.04538,-1.10338 -4.65257,-1.21959 -1.6072,-0.1162 -2.71446,-0.54878 -2.46059,-0.96128 0.25388,-0.4125 -0.27746,-0.75 -1.18076,-0.75 -2.38515,0 -1.21365,2.44193 1.35265,2.81955 3.07142,0.45195 2.7038,1.7672 -0.48071,1.71987 -1.45881,-0.0217 -2.86748,0.58659 -3.13038,1.35171 -0.3732,1.08616 0.15346,1.21963 2.40238,0.60882 1.58421,-0.43026 4.00538,-0.74826 5.38038,-0.70666 z m 34.75,-1.52833 c -2.6125,-0.206 -6.8875,-0.206 -9.5,0 -2.6125,0.206 -0.475,0.37454 4.75,0.37454 5.225,0 7.3625,-0.16854 4.75,-0.37454 z m 11,0.0457 c -0.9625,-0.25153 -2.5375,-0.25153 -3.5,0 -0.9625,0.25153 -0.175,0.45732 1.75,0.45732 1.925,0 2.7125,-0.20579 1.75,-0.45732 z m 16,0 c -0.9625,-0.25153 -2.5375,-0.25153 -3.5,0 -0.9625,0.25153 -0.175,0.45732 1.75,0.45732 1.925,0 2.7125,-0.20579 1.75,-0.45732 z m 12.4375,0.006 c -0.72188,-0.28887 -1.58438,-0.25334 -1.91667,0.0789 -0.33229,0.33229 0.25834,0.56864 1.3125,0.52522 1.16495,-0.048 1.4019,-0.28494 0.60417,-0.60417 z m 165.5625,-0.0631 c -5.9125,-0.1768 -15.5875,-0.1768 -21.5,0 -5.9125,0.1768 -1.075,0.32145 10.75,0.32145 11.825,0 16.6625,-0.14465 10.75,-0.32145 z m -220.25108,-2.25202 c 0.33932,-0.54903 -0.0841,-1.99916 -0.94099,-3.2225 -0.85686,-1.22335 -1.55793,-1.76414 -1.55793,-1.20176 0,0.56238 0.55874,1.58125 1.24164,2.26415 0.98886,0.98885 0.93796,1.43364 -0.25,2.18469 -0.89635,0.56669 -1.01634,0.94916 -0.30066,0.95836 0.65504,0.008 1.46862,-0.4339 1.80794,-0.98294 z m 55.50108,-1.03363 c 0,-1.05822 -49.70373,-1.40278 -52.41247,-0.36334 -0.86681,0.33264 -1.39702,0.89514 -1.17822,1.25 0.6594,1.06945 53.59069,0.1937 53.59069,-0.88666 z m 4,0.0319 c 0,-1.1 -0.42344,-2 -0.94098,-2 -1.34235,0 -2.28822,1.82013 -1.55902,3 1.04512,1.69104 2.5,1.10908 2.5,-1 z m 118.04998,0.0309 c -0.61475,-0.37993 -0.82211,-1.55481 -0.46081,-2.61084 0.53628,-1.56746 0.34823,-1.50654 -1.02406,0.33171 -1.88495,2.52498 -1.31121,4.47178 1.05076,3.56541 1.04478,-0.40092 1.18662,-0.8212 0.43411,-1.28628 z m -63.04998,0.0258 c 0,-0.56534 -10.61816,-0.97538 -26.5,-1.02334 -17.45512,-0.0527 -26.5,0.26926 -26.5,0.94332 0,0.67204 9.09701,1.02334 26.5,1.02334 15.9384,0 26.5,-0.37596 26.5,-0.94332 z m 5,0.002 c 0,-0.51755 -0.45734,-1.22364 -1.01631,-1.5691 -0.55897,-0.34544 -0.77663,-1.0159 -0.48369,-1.48989 0.29294,-0.47399 0.004,-1.18827 -0.64121,-1.58727 -0.83126,-0.51375 -0.98593,-0.0232 -0.52997,1.6809 0.35413,1.3235 0.65002,2.74387 0.65753,3.15637 0.0201,1.10433 2.01365,0.91525 2.01365,-0.19098 z m 54,-0.0824 c 0,-0.67406 -9.04488,-0.99603 -26.5,-0.94332 -15.88184,0.048 -26.5,0.458 -26.5,1.02334 0,0.56739 10.5616,0.94335 26.5,0.94335 17.40299,0 26.5,-0.3513 26.5,-1.02334 z m 59,0.0234 c 0,-0.64151 -9.5,-1 -26.5,-1 -17,0 -26.5,0.35849 -26.5,1 0,0.64151 9.5,1 26.5,1 17,0 26.5,-0.35849 26.5,-1 z m 9.00001,0 c 0,-0.55 -0.45001,-1 -1,-1 -0.55001,0 -1,0.45 -1,1 0,0.55 0.44999,1 1,1 0.54999,0 1,-0.45 1,-1 z m 50,0 c 0,-1.2449 -44.60298,-1.2449 -47.5,0 -1.19209,0.51226 7.99795,0.88782 22.75,0.92971 15.88018,0.0451 24.75,-0.28809 24.75,-0.92971 z m -309.00001,-2.27057 c 0.9203,-0.35033 0.51451,-0.60151 -1.05,-0.64994 -1.4025,-0.0434 -3.09,-0.61895 -3.75,-1.27895 -0.84895,-0.84895 -1.2,-0.86984 -1.2,-0.0714 0,1.68922 3.19882,4.55951 3.89532,3.49526 0.33257,-0.50817 1.27968,-1.18089 2.10468,-1.49494 z m -7.8125,-1.412 c -0.72188,-0.28888 -1.58438,-0.25335 -1.91667,0.0789 -0.33229,0.33229 0.25834,0.56864 1.3125,0.52522 1.16495,-0.048 1.4019,-0.28494 0.60417,-0.60417 z m 25.8125,-2.25787 c 0,-0.51754 -0.45,-1.2191 -1,-1.55902 -0.55,-0.33992 -1,0.0835 -1,0.94098 0,0.85746 0.45,1.55902 1,1.55902 0.55,0 1,-0.42344 1,-0.94098 z m 38.63957,-0.059 c 10.24029,0 16.36043,-0.37408 16.36043,-1 0,-0.64198 -9.66667,-1 -27,-1 -16.43138,0 -27,0.37275 -27,0.95228 0,1.08203 10.29921,1.93796 16.88957,1.40362 2.41427,-0.19575 11.75177,-0.3559 20.75,-0.3559 z m 19.34037,-0.52417 c -0.69572,-0.83829 -1.52528,-1.26382 -1.84348,-0.94562 -0.3182,0.31819 0.0834,0.99718 0.8925,1.50885 2.11697,1.33881 2.39358,1.17499 0.95098,-0.56323 z m -170.37576,-2.205 c -0.33231,-0.33229 -0.56864,0.25834 -0.52522,1.3125 0.048,1.16495 0.28494,1.4019 0.60416,0.60417 0.28887,-0.72188 0.25335,-1.58438 -0.0789,-1.91667 z m 226.39582,1.66821 c 0,-0.56176 -10.64689,-0.93904 -26.5,-0.93904 -17.48541,0 -26.5,0.34978 -26.5,1.02825 0,0.68072 8.95675,0.9981 26.5,0.93904 15.78977,-0.0532 26.5,-0.46873 26.5,-1.02825 z m 59,0.061 c 0,-0.64151 -9.5,-1 -26.5,-1 -17,0 -26.5,0.35849 -26.5,1 0,0.64151 9.5,1 26.5,1 17,0 26.5,-0.35849 26.5,-1 z m 59,0 c 0,-0.64151 -9.5,-1 -26.5,-1 -17,0 -26.5,0.35849 -26.5,1 0,0.64151 9.5,1 26.5,1 17,0 26.5,-0.35849 26.5,-1 z m 59.50001,0 c -0.38681,-0.62587 -10.51039,-1 -27.05903,-1 -16.96064,0 -26.44097,0.35855 -26.44097,1 0,0.64203 9.68633,1 27.05901,1 17.7847,0 26.8472,-0.34274 26.44099,-1 z M 312.4808,292.99613 c -0.51587,-0.51587 -1.65933,-0.43572 -2.73327,0.19157 -1.62014,0.94632 -1.51147,1.055 0.8869,0.8869 1.58981,-0.11143 2.36224,-0.5626 1.84637,-1.07847 z m 22.28198,-2.17965 c 0.31658,-0.825 0.13972,-1.5 -0.39301,-1.5 -0.53274,0 -0.96862,0.675 -0.96862,1.5 0,0.825 0.17686,1.5 0.39301,1.5 0.21616,0 0.65203,-0.675 0.96862,-1.5 z m 119.44155,-1.5 c 0.16112,-2.1145 -0.21885,-3 -1.2873,-3 -1.68827,0 -2.04071,1.55761 -0.55955,2.47301 0.52598,0.32507 0.70283,1.25163 0.39301,2.05901 -0.30983,0.80739 -0.16089,1.46798 0.33096,1.46798 0.49186,0 0.99715,-1.35 1.12288,-3 z m 146.1646,-1 c 18.3161,0 27.03223,-0.3406 27.03223,-1.05635 0,-0.72064 -8.65986,-0.99536 -27.25,-0.86444 l -27.25,0.1919 -0.61837,-3.38555 c -0.45582,-2.49566 -0.6363,-1.67702 -0.68661,3.11444 -0.0506,4.81687 0.16593,5.91738 0.83614,4.25 l 0.90439,-2.25 27.03223,0 z m -210.46778,-1.02237 c -1.1,-0.48498 -13.925,-0.8599 -28.5,-0.83315 l -26.5,0.0486 -0.63169,-2.84656 c -0.48974,-2.20695 -0.65826,-2.35937 -0.75,-0.67835 -0.30042,5.50546 -1.24951,5.33754 29.73868,5.2615 17.44332,-0.0428 27.86099,-0.41507 26.64301,-0.95208 z m 60.5,0.0224 c 0,-0.64151 -9.5,-1 -26.5,-1 -17,0 -26.5,0.35849 -26.5,1 0,0.64151 9.5,1 26.5,1 17,0 26.5,-0.35849 26.5,-1 z m 58,0 c -2.05372,-1.32722 -52,-1.32722 -52,0 0,0.64213 9.57312,0.99452 26.75,0.98469 17.64029,-0.0101 26.23917,-0.34544 25.25,-0.98469 z m 4.68574,-4.76861 c -0.34442,-1.31426 -0.48168,-1.20353 -0.56974,0.45959 -0.0638,1.20504 -0.566,2.4691 -1.116,2.80902 -0.55,0.33992 -1,1.1416 -1,1.78152 0,0.63992 0.70638,0.15499 1.56974,-1.07763 0.86336,-1.23261 1.36557,-3.02024 1.116,-3.9725 z m 55.31426,4.80309 c 0,-0.5964 -10.13095,-0.96551 -26.5,-0.96551 -16.36905,0 -26.5,0.36911 -26.5,0.96551 0,0.5964 10.13095,0.96552 26.5,0.96552 16.36905,0 26.5,-0.36912 26.5,-0.96552 z m -289.84438,-8.3596 7.65562,-1.17488 -3.90562,-3.73387 c -3.71064,-3.54746 -4.64286,-3.43537 -4.02403,0.48387 0.0651,0.4125 -0.33158,0.75 -0.88159,0.75 -0.55,0 -1,-0.35964 -1,-0.7992 0,-1.05812 -6.86185,-0.23334 -7.56828,0.90969 -0.30236,0.48923 -1.08569,0.88262 -1.74074,0.8742 -0.72597,-0.009 -0.60531,-0.41427 0.30902,-1.0371 1.82216,-1.24124 -5.54852,-0.17491 -8.18426,1.18403 -2.83297,1.46064 -4.34025,0.98428 -2.25686,-0.71326 1.91311,-1.55881 1.91227,-1.57063 -0.0589,-0.81905 -1.1,0.41941 -3.22372,0.74643 -4.71936,0.7267 -1.49565,-0.0197 -2.51073,0.30169 -2.25574,0.71427 0.59719,0.96628 -2.07089,1.98811 -4.8567,1.86004 -1.99377,-0.0917 -1.96708,-0.16408 0.33182,-0.90032 l 2.5,-0.80064 -2.59636,-0.0997 c -2.36857,-0.0909 -8.90364,2.45858 -8.90364,3.47356 0,0.94377 35.01428,0.1976 42.15562,-0.89836 z m -43.90562,-1.33716 c -0.6875,-0.27741 -1.8125,-0.27741 -2.5,0 -0.6875,0.27741 -0.125,0.50438 1.25,0.50438 1.375,0 1.9375,-0.22697 1.25,-0.50438 z m 99.4835,-11.56129 c -0.21124,-2.35204 -0.38706,-0.67643 -0.39069,3.72357 -0.004,4.4 0.16921,6.32439 0.38408,4.27643 0.21488,-2.04796 0.21785,-5.64796 0.007,-8 z m 61.15309,3.64501 c -0.23831,-8.66237 -1.53218,-8.17684 -1.79056,0.67191 -0.14303,4.89816 0.12933,6.88541 0.88005,6.42143 0.63251,-0.39091 1.01329,-3.35743 0.91051,-7.09334 z m 58.39957,-7.87459 c -1.03422,-1.84804 -1.52611,11.23784 -0.52446,13.95234 0.4638,1.25691 0.84761,-0.69851 1.03231,-5.25933 0.16172,-3.99308 -0.0668,-7.90493 -0.50785,-8.69301 z m 58.43009,7.70315 c -0.22912,-1.5125 -0.41659,-0.275 -0.41659,2.75 0,3.025 0.18747,4.2625 0.41659,2.75 0.22913,-1.5125 0.22913,-3.9875 0,-5.5 z m 119.01726,-3.47357 c -0.21125,-2.35204 -0.38706,-0.67643 -0.39069,3.72357 -0.004,4.4 0.16921,6.32439 0.38408,4.27643 0.21488,-2.04796 0.21785,-5.64796 0.007,-8 z m -342.23351,9.22357 c -0.33992,-0.55 -0.81648,-1 -1.05902,-1 -0.24254,0 -0.44098,0.45 -0.44098,1 0,0.55 0.47656,1 1.05902,1 0.58246,0 0.7809,-0.45 0.44098,-1 z m 283.22173,-9.2723 c -0.22091,-1.77524 -0.39803,-0.0777 -0.39359,3.7723 0.004,3.85 0.18519,5.30246 0.40166,3.2277 0.21648,-2.07477 0.21285,-5.22477 -0.008,-7 z m 58.93422,-8.99673 c -0.27393,-0.67703 -0.48137,0.11903 -0.461,1.76903 0.0204,1.65 0.2445,2.20394 0.49804,1.23097 0.25354,-0.97297 0.23687,-2.32297 -0.0371,-3 z M 334.89717,241.54782 c -0.67793,-2.60264 -0.74983,-2.63122 -1.52533,-0.60625 -0.44763,1.16883 -0.53937,4.09383 -0.20387,6.5 l 0.61,4.37485 0.91534,-3.7686 c 0.50342,-2.07274 0.59517,-4.99774 0.20387,-6.5 z m 119.37338,6.27941 c 0.54687,-1.98058 0.60436,-4.68287 0.13296,-6.25 -0.73205,-2.43366 -0.84064,-2.49419 -0.91641,-0.51081 -0.0473,1.2375 -0.53595,2.25 -1.08595,2.25 -0.55,0 -1,0.47656 -1,1.05902 0,0.58246 0.4787,0.76316 1.06378,0.40156 0.72059,-0.44535 0.84599,0.50345 0.38871,2.94098 -0.86437,4.60749 0.15323,4.68594 1.41691,0.10925 z m 59.51442,-1.54652 c 0.54573,-3.08033 0.36815,-3.53572 -1.37871,-3.53572 -1.10281,0 -2.00511,0.60513 -2.00511,1.34473 0,0.7396 0.4787,1.04888 1.06378,0.68728 0.72355,-0.44718 0.84467,0.5734 0.37871,3.19098 -0.45672,2.56563 -0.35174,3.51511 0.31493,2.84844 0.55,-0.55 1.28188,-2.59107 1.6264,-4.53571 z m -118.20387,-1.131 c 0.0728,-1.93548 -0.22523,-4.09754 -0.66221,-4.80459 -1.41926,-2.2964 -2.73295,1.73803 -1.99268,6.11964 0.80311,4.75358 2.45756,3.93408 2.65489,-1.31505 z m 116.94414,-7.09996 c -0.98762,-0.98026 -1.10248,-0.8654 -0.5598,0.5598 0.37554,0.98622 0.93469,1.54122 1.24258,1.23333 0.30789,-0.30789 6.4e-4,-1.11479 -0.68278,-1.79313 z M 333.63949,410.62934 c 0.95609,-0.25029 2.75609,-0.25937 4,-0.0202 1.24391,0.23919 0.46166,0.44398 -1.73834,0.45508 -2.2,0.0111 -3.21775,-0.18461 -2.26166,-0.4349 z m 33.03249,0.0829 c 0.33229,-0.33229 1.19479,-0.36781 1.91667,-0.0789 0.79773,0.31922 0.56078,0.55618 -0.60417,0.60416 -1.05416,0.0434 -1.64479,-0.19293 -1.3125,-0.52522 z m 10.449,-0.12656 c 2.3209,-0.20972 6.3709,-0.21222 9,-0.006 2.62909,0.20667 0.73017,0.37827 -4.21983,0.38131 -4.95,0.003 -7.10108,-0.16605 -4.78017,-0.37577 z m 20.03017,0.007 c 1.7875,-0.22182 4.7125,-0.22182 6.5,0 1.7875,0.22183 0.325,0.40333 -3.25,0.40333 -3.575,0 -5.0375,-0.1815 -3.25,-0.40333 z"
       id="path3084"
       inkscape:connector-curvature="0" />
  </g>
</svg>
