<?xml version="1.0" encoding="UTF-8" standalone="no"?>
<!-- Created with Inkscape (http://www.inkscape.org/) -->

<svg
   xmlns:dc="http://purl.org/dc/elements/1.1/"
   xmlns:cc="http://creativecommons.org/ns#"
   xmlns:rdf="http://www.w3.org/1999/02/22-rdf-syntax-ns#"
   xmlns:svg="http://www.w3.org/2000/svg"
   xmlns="http://www.w3.org/2000/svg"
   xmlns:sodipodi="http://sodipodi.sourceforge.net/DTD/sodipodi-0.dtd"
   xmlns:inkscape="http://www.inkscape.org/namespaces/inkscape"
   width="744.09448819"
   height="1052.3622047"
   id="svg2"
   version="1.1"
   inkscape:version="0.48.4 r9939"
   sodipodi:docname="transport1.svg">
  <defs
     id="defs4" />
  <sodipodi:namedview
     id="base"
     pagecolor="#ffffff"
     bordercolor="#666666"
     borderopacity="1.0"
     inkscape:pageopacity="0.0"
     inkscape:pageshadow="2"
     inkscape:zoom="0.98994949"
     inkscape:cx="561.3106"
     inkscape:cy="586.37055"
     inkscape:document-units="px"
     inkscape:current-layer="layer1"
     showgrid="false"
     inkscape:window-width="1600"
     inkscape:window-height="841"
     inkscape:window-x="-8"
     inkscape:window-y="-8"
     inkscape:window-maximized="1" />
  <metadata
     id="metadata7">
    <rdf:RDF>
      <cc:Work
         rdf:about="">
        <dc:format>image/svg+xml</dc:format>
        <dc:type
           rdf:resource="http://purl.org/dc/dcmitype/StillImage" />
        <dc:title></dc:title>
      </cc:Work>
    </rdf:RDF>
  </metadata>
  <g
     inkscape:label="Layer 1"
     inkscape:groupmode="layer"
     id="layer1">
    <path
       style="fill:#000000"
       d="m 93.532661,613.07955 c -4.61878,-0.24739 -11.54543,-0.48255 -15.39256,-0.52257 -6.05521,-0.063 -7.48213,-0.2708 -10.62268,-1.54692 -5.611797,-2.28027 -8.154917,-4.08046 -8.154917,-5.77257 0,-1.58712 -1.194553,-1.9239 -2.261982,-0.63774 -0.888313,1.07035 -4.401298,0.59459 -6.906396,-0.93533 -3.871858,-2.36461 -6.822193,-7.22866 -9.225437,-15.20951 -0.45593,-1.51407 -0.879783,-1.79117 -3.370895,-2.20376 -1.567175,-0.25957 -3.129147,-0.78335 -3.471061,-1.16395 -0.341931,-0.38062 -1.592157,-4.34071 -2.778298,-8.80019 -1.186158,-4.45951 -2.39419,-8.89005 -2.684517,-9.84566 -0.290345,-0.9556 -2.233419,-8.25295 -4.317957,-16.21634 -8.679172,-33.15632 -9.140727,-34.66246 -10.736735,-35.03612 -1.256274,-0.29411 -1.471249,-0.69992 -1.624403,-3.06665 -0.09712,-1.50021 0.03328,-2.74705 0.289568,-2.77071 0.256359,-0.0237 0.996654,-0.14374 1.645094,-0.267 0.86122,-0.16368 1.178996,0.0821 1.178996,0.91176 0,0.62466 -0.307202,1.13574 -0.682662,1.13574 -0.654656,0 -1.385745,1.24718 -1.385745,2.36398 0,0.29249 0.781864,0.53179 1.737473,0.53179 0.955608,0 1.737456,-0.24565 1.737456,-0.54589 0,-0.30024 0.586398,-0.37153 1.303113,-0.15844 0.716698,0.21315 154.665574,0.4638 342.108614,0.55701 263.80925,0.13124 340.90235,0.3261 341.23396,0.8627 0.45104,0.72977 1.15391,-0.69171 2.55374,-5.16482 l 0.75805,-2.42234 -2.13234,0.0856 c -1.17283,0.0471 -4.82107,0.0296 -8.10718,-0.039 l -5.9748,-0.12483 0.18324,-1.548 c 0.22482,-1.89914 1.37087,-2.40563 1.79278,-0.79229 0.36642,1.4013 1.16752,1.50755 2.36179,0.31325 1.09727,-1.09724 1.77837,-1.09724 2.68896,0 0.95856,1.15501 3.8325,1.12322 4.28169,-0.0473 0.65276,-1.70109 0.35769,-2.01038 -1.0427,-1.09281 -1.12479,0.737 -1.48537,0.76755 -1.86553,0.1581 -1.38932,-2.22717 -0.0243,-4.25546 2.00336,-2.9765 0.65834,0.41525 1.2643,0.25513 2.23791,-0.59142 0.73432,-0.63849 1.33514,-1.40299 1.33514,-1.69887 0,-0.2959 1.79016,-4.61428 3.97809,-9.59641 2.18795,-4.98214 4.57237,-10.62214 5.29875,-12.53336 0.72639,-1.91121 1.67273,-3.88636 2.10303,-4.38927 0.43031,-0.50287 0.78239,-1.18715 0.78239,-1.5206 0,-0.33346 0.63596,-2.04427 1.41325,-3.80183 0.77723,-1.75756 1.25502,-3.3537 1.06177,-3.54701 -0.19332,-0.19328 0.21325,-0.35144 0.90336,-0.35144 0.69018,0 1.25486,0.0993 1.25486,0.22064 0,0.58469 -3.06478,8.31939 -3.69901,9.33543 -0.39771,0.63707 -1.32835,2.85233 -2.06816,4.92282 -0.73975,2.07048 -1.92876,4.80699 -2.64222,6.08114 -0.7134,1.27412 -2.52749,5.43633 -4.03128,9.24934 -1.50378,3.81297 -3.22907,7.56196 -3.83407,8.33105 -1.31287,1.66905 -1.4235,2.97961 -0.25158,2.97961 0.97304,0 1.86715,-1.44741 2.27144,-3.67696 0.15355,-0.84675 0.76236,-2.25531 1.35286,-3.13016 2.68791,-3.98214 6.1211,-12.3491 5.61178,-13.67642 -0.1603,-0.4178 0.11132,-1.09391 0.6036,-1.50248 0.49229,-0.40858 0.89508,-1.19705 0.89508,-1.75215 0,-0.55511 0.50509,-1.65141 1.12241,-2.4362 0.61733,-0.78482 1.30589,-2.18821 1.53007,-3.11867 0.22419,-0.93048 0.88078,-2.63682 1.45902,-3.79188 0.57815,-1.15508 0.88767,-2.26374 0.68768,-2.4637 -0.19993,-0.19997 0.21249,-0.97672 0.9165,-1.72612 0.70849,-0.75418 1.39102,-2.36936 1.52851,-3.61744 0.13665,-1.24019 0.10456,-1.78495 -0.0713,-1.21062 -0.25361,0.82812 -0.48961,0.90335 -1.14018,0.36346 -1.16231,-0.96465 -1.01642,-1.69729 0.33799,-1.69729 1.26783,0 1.6126,-1.61228 0.43436,-2.03127 -1.72309,-0.61278 -11.39765,-1.22161 -14.0445,-0.88383 l -2.89578,0.36953 4.34367,0.47814 c 2.38902,0.263 5.77059,0.46569 7.5146,0.45044 1.74399,-0.0152 3.40067,0.11435 3.68151,0.28788 1.14835,0.70969 -1.00617,1.08714 -4.96436,0.86971 -2.31262,-0.12702 -5.37751,-0.27112 -6.81091,-0.32015 l -2.60621,-0.0892 0.18846,1.88227 c 0.10743,1.07349 -0.0792,1.88224 -0.43436,1.88224 -0.34257,0 -0.62282,-0.63293 -0.62282,-1.40652 0,-1.54706 -1.14702,-2.96125 -2.83665,-3.49754 -0.60081,-0.19069 -1.22643,-0.8593 -1.39026,-1.48583 -0.36933,-1.4122 -1.96103,-1.49682 -2.36243,-0.12567 -0.51434,1.75706 -0.60603,5.64968 -0.1505,6.38683 0.2499,0.40435 0.1456,0.70782 -0.24342,0.70782 -0.39151,0 -0.55455,0.48324 -0.38357,1.137 0.45475,1.73891 -1.22347,2.64386 -2.91321,1.57093 -1.07486,-0.6825 -0.91037,-5.33456 0.22894,-6.47386 0.76969,-0.76969 1.04635,-0.80548 1.43902,-0.18616 0.34582,0.54545 0.4887,0.39064 0.495,-0.53637 0.0191,-2.77171 -3.20434,-0.10185 -3.8165,3.16126 -0.47537,2.53396 0.57376,4.56477 2.75011,5.32344 0.90991,0.3172 1.65441,0.95083 1.65441,1.40806 0,0.45722 0.52124,0.96762 1.15832,1.13422 1.52762,0.39948 1.50487,2.50174 -0.036,3.32639 -0.65687,0.35154 -2.4108,0.68649 -3.89765,0.74431 -2.21233,0.086 -2.74133,-0.0885 -2.91235,-0.96096 -0.11503,-0.58637 -0.70663,-1.5637 -1.31474,-2.17183 -0.60817,-0.60816 -1.10573,-1.46877 -1.10573,-1.91249 0,-0.44373 -0.35305,-0.94226 -0.78457,-1.10785 -0.81511,-0.31277 -0.51279,-3.98079 0.53415,-6.48156 0.47189,-1.12723 0.44485,-1.13091 -1.06015,-0.14476 -0.84944,0.55657 -1.8065,1.01196 -2.12683,1.01196 -0.32026,0 -1.95834,0.60592 -3.64009,1.3465 -1.68177,0.74057 -4.23051,1.82207 -5.66393,2.40332 -1.43341,0.58124 -3.66581,1.53903 -4.96085,2.12842 -1.29513,0.58939 -2.60824,1.07162 -2.91814,1.07162 -0.30986,0 -1.58578,0.52123 -2.83536,1.1583 -2.94044,1.49912 -4.58234,1.5387 -2.66452,0.0642 1.0251,-0.78813 1.17695,-1.13988 0.57915,-1.34107 -0.84181,-0.28329 2.17141,-1.77651 8.74564,-4.33399 2.07049,-0.80544 4.54638,-1.80615 5.50197,-2.22379 0.95561,-0.41764 3.82244,-1.5807 6.37071,-2.58459 5.92118,-2.33263 7.19432,-3.1783 7.92036,-5.26084 0.65346,-1.87457 1.93264,-2.38414 1.34612,-0.53627 -0.25232,0.79497 -0.10405,1.15831 0.4726,1.15831 0.46212,0 0.96122,-0.46283 1.10914,-1.02852 0.20729,-0.79257 0.92027,-1.04818 3.10816,-1.11426 1.92771,-0.0583 2.46732,0.0627 1.68081,0.37689 -0.63706,0.25445 -1.33575,0.36068 -1.55265,0.23609 -0.2169,-0.12466 -0.55807,0.0383 -0.75812,0.36205 -0.21213,0.34321 0.37477,0.63086 1.40788,0.68994 0.97437,0.0557 2.48834,0.16385 3.3643,0.24028 0.87597,0.0765 4.98074,0.30382 9.12171,0.50535 9.95116,0.48431 11.28871,0.7125 11.31401,1.93026 0.0118,0.543 0.39303,1.63883 0.84825,2.43517 0.82141,1.43685 0.82778,1.43025 0.83936,-0.86874 0.008,-1.79666 -0.12719,-2.12163 -0.6066,-1.44789 -0.46409,0.65207 -0.5392,0.30266 -0.30122,-1.40103 0.34153,-2.44539 1.23626,-3.38286 2.77271,-2.9052 1.04265,0.32412 1.11204,0.17067 2.24201,-4.96025 0.38583,-1.75195 0.83948,-3.5763 1.00808,-4.05408 0.65521,-1.85686 0.69637,-5.97398 0.0674,-6.73191 -0.52831,-0.63658 -0.39894,-0.79712 0.64245,-0.79712 1.24662,0 1.28688,0.14662 0.91402,3.33014 -0.74126,6.32951 -2.51069,13.98262 -3.45008,14.92196 -1.07613,1.07616 -1.27854,2.29422 -0.27852,1.67617 0.47647,-0.29446 0.58246,0.31555 0.37483,2.15736 -0.24423,2.1671 -2.09231,7.0761 -5.96651,15.84904 -3.81154,8.63105 -6.74808,15.80993 -7.49265,18.31714 -0.49239,1.65804 -1.24519,3.42737 -1.67294,3.93184 -0.42778,0.50448 -2.13523,4.09499 -3.79445,7.97891 -1.65918,3.88394 -4.5371,10.13882 -6.39538,13.89973 -3.20366,6.4838 -6.14033,12.59005 -12.06232,25.08144 -1.43456,3.02608 -5.20926,10.84467 -8.38811,17.37464 -5.6956,11.69973 -8.07008,16.77205 -8.70233,18.58977 -0.23642,0.67966 -1.43962,1.02941 -4.52912,1.31655 -2.31396,0.21506 -7.22392,0.89689 -10.9111,1.51521 -3.68714,0.61831 -9.3101,1.51051 -12.49546,1.98269 -3.18535,0.47218 -8.52806,1.26286 -11.87268,1.7571 -3.34463,0.49422 -7.88977,1.17031 -10.1003,1.50243 -2.48491,0.37331 -5.91172,1.49986 -8.9769,2.95111 -7.48072,3.5418 -21.76633,8.33988 -32.46761,10.90477 -31.88726,7.64279 -74.33812,10.83778 -124.80796,9.39349 -13.37848,-0.38284 -28.10351,-0.98654 -32.72226,-1.34153 -8.53084,-0.65565 -17.99757,-0.59729 -105.40626,0.6498 -127.58379,1.82027 -210.81165,2.474 -224.133069,1.76048 z m 52.239329,-2.70389 c 8.97727,-0.6288 11.49282,-0.7204 29.71112,-1.08197 11.49526,-0.22814 20.69494,-0.12196 25.5737,0.29514 7.59718,0.64952 13.79082,0.28408 10.6235,-0.62686 -1.35761,-0.39044 -1.33264,-0.42 0.40019,-0.47413 1.01645,-0.0318 2.03653,-0.36264 2.26684,-0.7353 0.29383,-0.47542 0.088,-0.5464 -0.68975,-0.2379 -1.70707,0.67707 -15.877,0.95404 -15.877,0.31033 0,-0.30425 -0.65155,-0.55317 -1.44789,-0.55317 -0.79634,0 -1.44789,-0.28962 -1.44789,-0.64361 0,-0.58936 2.75989,-0.37065 4.81916,0.38191 0.98741,0.36085 2.64943,-0.89181 1.69634,-1.27854 -1.36367,-0.55332 -0.72376,-1.11881 1.43022,-1.26387 1.18477,-0.0797 2.32533,-0.42205 2.53456,-0.76058 0.20923,-0.33855 1.52027,-0.68385 2.91344,-0.76732 1.39318,-0.0834 1.81634,-0.0387 0.94038,0.0998 -0.87599,0.13834 -1.59268,0.60426 -1.59268,1.03534 0,0.43107 -0.32577,0.91522 -0.72395,1.07589 -0.39816,0.16064 0.3837,0.31269 1.73747,0.33783 1.35377,0.0252 2.4614,0.30636 2.4614,0.62489 0,1.04263 0.96766,0.60746 1.60978,-0.72394 l 0.62846,-1.3031 0.0392,1.3031 c 0.0294,0.9774 0.38558,1.30309 1.42512,1.30309 1.32975,0 2.38413,-1.24929 1.663,-1.97042 -0.61383,-0.61383 -1.39311,-0.3677 -0.97544,0.3081 0.24516,0.39668 0.0885,0.54902 -0.39774,0.38691 -0.44115,-0.14712 -0.80321,-0.76725 -0.80454,-1.37823 -8.5e-4,-0.61097 -0.32825,-1.0457 -0.72642,-0.96608 -0.39816,0.0796 -0.72394,-0.11587 -0.72394,-0.43436 0,-0.31853 0.79725,-0.57917 1.77164,-0.57917 0.97441,0 1.639,-0.21462 1.47686,-0.47697 -0.16215,-0.26234 -2.31608,-0.52916 -4.78655,-0.59296 -2.47047,-0.0637 -4.63361,-0.32902 -4.807,-0.58945 -0.17337,-0.26043 -1.61834,-0.28903 -3.21102,-0.0635 -1.59268,0.22545 -2.33069,0.44473 -1.64004,0.48729 0.69067,0.0426 1.67464,0.23812 2.18663,0.43458 1.3811,0.52999 -0.0118,1.95715 -1.92059,1.96828 -1.51801,0.008 -3.9939,1.12271 -2.53529,1.14058 0.39817,0.005 0.72395,0.26949 0.72395,0.58802 0,0.31854 -0.50628,0.57916 -1.12506,0.57916 -0.81332,0 -1.06324,-0.32095 -0.90198,-1.15831 0.16672,-0.86576 -0.0976,-1.16859 -1.04679,-1.19901 -1.22393,-0.0392 -1.22795,-0.0588 -0.11148,-0.53846 0.90541,-0.38906 0.58929,-0.52846 -1.44789,-0.63841 -2.36238,-0.12753 -2.25403,-0.17614 1.15832,-0.51989 l 3.76451,-0.37925 -4.92283,-0.18057 c -9.03095,-0.33125 -9.9511,-0.31201 -10.27839,0.21493 -0.17895,0.28811 -0.0245,0.33789 0.34327,0.11064 0.36775,-0.22728 0.66865,-0.13716 0.66865,0.20009 0,0.33734 0.52124,0.61334 1.15831,0.61334 0.63707,0 1.1583,0.2932 1.1583,0.65155 0,0.43531 -0.62472,0.51187 -1.88225,0.23073 -1.03525,-0.23144 -3.96722,-0.49619 -6.51549,-0.58834 -2.54829,-0.0922 -5.21965,-0.19599 -5.93635,-0.23073 -0.7167,-0.0348 -1.3031,-0.29182 -1.3031,-0.57121 0,-0.27942 1.23795,-0.4219 2.75099,-0.31661 l 2.75098,0.19142 -2.60619,-0.50381 c -1.43341,-0.27709 -2.99712,-0.41946 -3.47493,-0.31638 -3.98635,0.85999 -4.31566,0.89046 -3.47494,0.32153 0.62747,-0.42461 -0.26525,-0.59033 -3.21432,-0.59675 -2.24566,-0.005 -4.36839,0.27649 -4.71716,0.62526 -0.39793,0.39793 -4.05454,0.66758 -9.81669,0.72396 -5.74939,0.0562 -9.14706,0.30634 -9.08763,0.66897 0.14813,0.90417 -14.38651,0.77478 -15.33909,-0.13649 -0.42094,-0.40268 -1.3331,-0.71386 -2.02704,-0.69146 -1.21853,0.0394 -1.22207,0.0576 -0.10338,0.5339 0.72202,0.30742 -0.3687,0.39729 -2.89578,0.23852 -2.47667,-0.15556 -3.61987,-0.0647 -2.93812,0.23356 1.50409,0.65803 -0.0574,1.28651 -1.69513,0.68221 -0.63705,-0.2351 -1.41924,-0.22093 -1.73816,0.0316 -0.79457,0.62883 -6.85072,0.8644 -7.76091,0.30188 -1.04323,-0.64475 -1.68221,0.22082 -1.89794,2.57098 -0.11385,1.24036 -0.46705,1.97086 -0.91004,1.88226 -0.39816,-0.0796 -0.72394,0.0941 -0.72394,0.3861 0,0.29199 0.32578,0.66235 0.72394,0.82302 0.39818,0.16063 -0.16655,0.31269 -1.25484,0.33782 -4.062619,0.0939 -1.05908,0.76552 4.69835,1.05062 3.28229,0.1625 6.09808,0.4231 6.25735,0.57899 0.33366,0.32661 23.88781,-0.27116 31.38975,-0.79663 z m 43.32127,-3.64702 c 0,-0.29874 0.52123,-0.5039 1.15832,-0.45591 0.63706,0.048 1.15831,0.29242 1.15831,0.54315 0,0.25077 -0.52125,0.45592 -1.15831,0.45592 -0.63709,0 -1.15832,-0.24442 -1.15832,-0.54316 z m -39.80485,-3.86083 c 0.19244,-0.19246 0.69196,-0.21301 1.11004,-0.0456 0.46201,0.18487 0.32479,0.32211 -0.3499,0.3499 -0.61052,0.0252 -0.95259,-0.11165 -0.76014,-0.3042 z m 3.47492,0 c 0.19245,-0.19246 0.69197,-0.21301 1.11005,-0.0456 0.46201,0.18487 0.32479,0.32211 -0.3499,0.3499 -0.61052,0.0252 -0.95259,-0.11165 -0.76015,-0.3042 z m 7.50489,-0.33784 c 0.12601,-0.37826 0.57502,-0.80299 0.99762,-0.94387 0.43069,-0.14357 0.60256,0.0118 0.39107,0.35435 -0.2075,0.33575 0.0819,0.73024 0.64334,0.87667 0.61722,0.16098 0.37204,0.29278 -0.62034,0.33342 -1.03121,0.0422 -1.55575,-0.18837 -1.41169,-0.62057 z m 47.21323,-0.85412 c 0.39816,-0.16064 1.04971,-0.16064 1.44789,0 0.39816,0.16063 0.0723,0.29211 -0.72396,0.29211 -0.79633,0 -1.12211,-0.13141 -0.72393,-0.29211 z m -126.690219,8.49172 c -1.12283,-0.72563 -1.73746,-0.72563 -1.73746,0 0,0.31854 0.5864,0.57517 1.3031,0.57029 1.05375,-0.007 1.13685,-0.11638 0.43436,-0.57029 z m 7.87943,-0.0985 c 0.28412,-0.4597 0.0992,-0.55495 -0.57506,-0.29621 -0.54963,0.21091 -0.84671,0.14341 -0.66472,-0.15117 0.18102,-0.29288 0.0578,-0.70018 -0.27384,-0.90514 -0.33161,-0.20496 -0.53134,-0.0275 -0.44381,0.39434 0.0931,0.44892 -0.35956,0.76699 -1.09163,0.76699 -0.68793,0 -1.44807,0.19546 -1.6892,0.43437 -0.24114,0.23891 0.63209,0.43436 1.94054,0.43436 1.30842,0 2.5674,-0.3049 2.79772,-0.67758 z m 6.0203,-0.58243 c 0,-0.30019 -0.2679,-0.38024 -0.59533,-0.17787 -0.32744,0.20236 -1.04414,-0.12026 -1.59268,-0.71707 -0.54855,-0.59675 -0.83535,-0.8121 -0.63736,-0.47854 0.198,0.33355 0.29233,1.02081 0.20965,1.52726 -0.11165,0.68337 0.20628,0.85264 1.23268,0.65643 0.76066,-0.14544 1.38304,-0.51 1.38304,-0.81021 z m 108.157239,0.84519 c -0.87598,-0.13277 -2.30938,-0.13277 -3.18536,0 -0.87597,0.13276 -0.15929,0.24127 1.59268,0.24127 1.75195,0 2.46865,-0.10861 1.59268,-0.24127 z M 72.103911,609.58834 c 0,-0.31853 -0.276,-0.57915 -0.61334,-0.57915 -0.33733,0 -0.45226,0.26062 -0.25539,0.57915 0.19687,0.31854 0.47285,0.57915 0.61334,0.57915 0.14053,0 0.25539,-0.26061 0.25539,-0.57915 z m 18.82255,-0.57915 c 0,-0.42471 -0.26994,-0.86218 -0.59984,-0.97216 -0.32992,-0.10996 -0.59984,0.3275 -0.59984,0.97216 0,0.64466 0.26992,1.08212 0.59984,0.97214 0.3299,-0.10996 0.59984,-0.54743 0.59984,-0.97214 z m 105.551029,0.75908 c -0.55744,-0.1456 -1.46961,-0.1456 -2.02705,0 -0.55743,0.1456 -0.10135,0.26485 1.01353,0.26485 1.11487,0 1.57095,-0.11925 1.01352,-0.26485 z m -95.70956,-1.19344 c -0.22971,-0.55745 -0.48007,-2.31662 -0.55637,-3.90931 -0.13344,-2.78696 -0.729029,-5.63412 -2.155079,-10.30315 -0.79955,-2.61778 -2.51626,-2.79696 -2.46452,-0.25724 0.0177,0.87092 -0.17773,1.58348 -0.43438,1.58348 -0.25664,0 -0.46662,-0.78185 -0.46662,-1.73746 0,-1.11378 -0.29484,-1.73747 -0.82136,-1.73747 -0.45175,0 -1.26394,-0.16982 -1.80485,-0.37738 -0.80747,-0.30988 -0.88659,-0.18032 -0.44208,0.72394 0.29778,0.60574 0.61302,2.14381 0.70055,3.41795 0.0875,1.27415 0.36457,2.57724 0.61566,2.89578 0.68533,0.86945 1.0201,4.92282 0.40657,4.92282 -0.29359,0 -0.2321,0.3635 0.13665,0.80777 0.36872,0.44428 0.5977,1.03068 0.50883,1.3031 -0.0888,0.27242 0.35807,1.20384 0.9932,2.06981 0.94503,1.28852 1.61306,1.57778 3.67814,1.59268 2.179639,0.0152 2.466469,-0.11993 2.105709,-0.99532 z m 118.88982,0.179 c 0.17808,-0.1781 -0.50151,-0.32381 -1.5102,-0.32381 -1.0087,0 -1.83399,-0.26061 -1.83399,-0.57915 0,-0.31852 -0.29253,-0.57915 -0.65007,-0.57915 -0.46483,0 -0.45518,0.23482 0.0338,0.82402 0.55327,0.66667 0.42855,0.87467 -0.65304,1.08917 -0.73529,0.14577 -0.0709,0.18135 1.47639,0.0789 1.54732,-0.10236 2.95901,-0.33191 3.1371,-0.51 z m 4.32961,0.42578 c -0.7167,-0.13801 -1.8895,-0.13801 -2.60619,0 -0.7167,0.138 -0.13024,0.251 1.30309,0.251 1.43341,0 2.01981,-0.113 1.3031,-0.251 z m 66.73496,-0.14983 c 0.18665,-0.302 0.6568,-0.43907 1.04476,-0.30458 0.38796,0.13445 1.61756,0.003 2.73244,-0.28966 1.70686,-0.44979 1.47817,-0.49618 -1.44789,-0.29367 -1.91122,0.13226 -5.55989,0.26955 -8.10818,0.30506 -2.68736,0.0375 -4.17237,0.24545 -3.53591,0.49522 1.65113,0.64797 8.92618,0.71641 9.31478,0.0877 z m 155.22628,0.0169 c -0.63706,-0.25328 12.91517,-0.43042 30.11607,-0.39365 17.20092,0.0367 29.58035,0.21731 27.50988,0.40122 -3.12041,0.27719 -2.60328,0.35151 3.0224,0.43436 5.82103,0.0858 6.73944,-0.0237 6.45352,-0.76876 -0.23308,-0.60743 0.0439,-0.86873 0.92108,-0.86873 0.68996,0 1.09339,0.26061 0.89653,0.57915 -0.20799,0.33652 0.32362,0.56209 1.26892,0.53844 1.41296,-0.0353 1.47456,-0.1027 0.46855,-0.51278 -2.16971,-0.8843 1.55342,-1.31303 9.53321,-1.09777 5.65156,0.15236 7.60911,0.0221 7.81714,-0.52057 0.32788,-0.85528 4.36796,-0.98921 4.36796,-0.14476 0,1.06587 3.86331,0.60636 5.45974,-0.64939 1.32063,-1.03881 2.02591,-1.16977 4.56655,-0.84796 4.23,0.53581 5.15921,0.49076 5.63123,-0.27299 0.26353,-0.42638 1.0785,-0.52416 2.24077,-0.2689 1.33468,0.29315 2.47613,0.0627 4.23826,-0.85581 1.88044,-0.98014 2.96103,-1.17462 4.906,-0.88296 1.51748,0.22756 2.49437,0.14864 2.49437,-0.20155 0,-0.87531 2.39838,-1.45848 2.86867,-0.69754 0.28284,0.45765 0.83633,0.48782 1.80995,0.0986 1.22879,-0.49113 1.25904,-0.56729 0.2442,-0.61487 -1.10954,-0.052 -1.11299,-0.0806 -0.0816,-0.68005 0.77163,-0.44839 1.46716,-0.4478 2.45454,0.002 1.32195,0.60233 3.129,0.36171 3.129,-0.41664 0,-0.20481 0.7167,-0.40156 1.59268,-0.43721 0.87597,-0.0356 3.24918,-0.39413 5.27373,-0.79663 2.62866,-0.5226 3.45657,-0.88958 2.89576,-1.28362 -0.55371,-0.38911 -0.31568,-0.47674 0.80742,-0.2972 1.93124,0.30874 2.04655,-5.9e-4 0.28957,-0.77721 -1.11251,-0.49168 -1.02354,-0.5326 0.60794,-0.27963 1.17616,0.18236 1.77546,0.077 1.55851,-0.27413 -0.4371,-0.70717 0.31054,-0.72614 1.40143,-0.0356 0.44931,0.28441 1.23118,0.30641 1.73748,0.0488 0.5063,-0.25755 2.41473,-0.93766 4.24098,-1.51136 2.24352,-0.70479 3.08874,-1.20889 2.60619,-1.55436 -0.44485,-0.31848 -0.036,-0.39552 1.08388,-0.20428 1.0773,0.18396 2.26567,-0.0204 2.96448,-0.50995 0.64153,-0.44932 1.29875,-0.68462 1.4605,-0.52285 0.16182,0.16182 0.45637,-0.12871 0.65469,-0.6455 0.29455,-0.76763 0.0691,-0.87933 -1.23157,-0.61033 -2.17322,0.44946 -20.93201,2.50661 -22.73127,2.4928 -2.21759,-0.0171 -16.8952,1.3102 -18.53296,1.67587 -1.39963,0.31249 -7.23382,0.76659 -24.90369,1.93839 -15.15135,1.00476 -18.21126,1.22239 -20.84958,1.4828 -1.43341,0.14155 -6.25488,0.40007 -10.71438,0.57463 -8.57389,0.3356 -27.74825,1.32032 -33.59099,1.72512 -1.91122,0.13243 -9.99044,0.39953 -17.95383,0.59362 -7.96337,0.19408 -17.21538,0.56903 -20.56,0.83323 -3.34462,0.26421 -13.6391,0.5102 -22.87664,0.54667 -24.92966,0.0985 -38.02547,0.63273 -37.14273,1.51547 0.9288,0.9288 6.29275,1.41172 19.47851,1.75364 5.8929,0.15286 12.92963,0.46131 15.63718,0.68555 4.7042,0.38958 4.79421,0.42257 2.02704,0.74301 l -2.89577,0.33534 3.56607,0.2653 c 1.96134,0.14594 3.44451,0.0699 3.29597,-0.16905 -0.27775,-0.44666 8.25614,-0.7454 13.4084,-0.46938 2.94369,0.1576 5.5847,1.04353 3.76451,1.2627 -1.73391,0.20876 4.44589,0.91613 8.39775,0.96125 2.5481,0.0291 3.6238,-0.12483 2.89577,-0.41423 z m -6.40932,-1.74308 c -0.2973,-0.29051 -1.4527,-0.6354 -2.56758,-0.76641 l -2.02704,-0.23817 2.02704,-0.0838 c 1.9936,-0.0824 4.02994,0.69481 3.41954,1.30519 -0.17127,0.17128 -0.55466,0.0738 -0.85196,-0.21678 z m -20.94369,-0.96071 c 0.19244,-0.19244 0.69197,-0.21301 1.11004,-0.0456 0.46201,0.18488 0.32479,0.32212 -0.3499,0.34991 -0.61052,0.0252 -0.9526,-0.11165 -0.76014,-0.30418 z m 121.03138,-0.61282 c -0.99155,-0.4001 -0.91336,-1.16085 0.11925,-1.16085 0.46381,0 0.7228,0.19493 0.57556,0.43316 -0.14729,0.23824 0.0596,0.56517 0.45985,0.7265 0.40014,0.16131 0.46692,0.29331 0.14847,0.29331 -0.31853,0 -0.90493,-0.13141 -1.30309,-0.29212 z m -119.70234,-0.83625 c 0.38666,-0.62564 2.56836,-0.69639 2.56778,-0.0833 -2.2e-4,0.23891 -0.65006,0.47184 -1.44405,0.51765 -0.79401,0.0458 -1.29969,-0.14966 -1.12373,-0.43436 z m 9.51806,0.10186 c 0,-0.29638 -0.4561,-0.65216 -1.01353,-0.79059 -0.55743,-0.1385 -0.2398,-0.15168 0.70584,-0.0294 2.14337,0.27712 3.40262,1.35889 1.58182,1.35889 -0.70077,0 -1.27413,-0.24249 -1.27413,-0.53886 z m 65.60138,0.18896 c 0.19246,-0.19244 0.69199,-0.21302 1.11005,-0.0456 0.46201,0.18489 0.32479,0.32212 -0.3499,0.3499 -0.61052,0.0252 -0.95259,-0.11165 -0.76015,-0.30417 z m 26.82557,-0.14561 c -0.16841,-0.27252 0.33744,-0.37245 1.12415,-0.22206 0.78669,0.15033 1.43035,0.37334 1.43035,0.49548 0,0.44813 -2.25791,0.20643 -2.5545,-0.27342 z m 9.50436,-0.0836 c 0,-0.31853 0.37556,-0.57915 0.83455,-0.57915 0.459,0 0.99562,0.26062 1.19249,0.57915 0.19687,0.31854 -0.17868,0.57916 -0.83455,0.57916 -0.65587,0 -1.19249,-0.26062 -1.19249,-0.57916 z m -122.20175,-0.57915 c -1.96439,-0.41348 -1.97334,-0.42725 -0.28958,-0.44519 0.95561,-0.0101 2.38902,0.19015 3.18536,0.44519 1.89899,0.60816 -0.007,0.60816 -2.89578,0 z m -16.07832,-0.39792 c 0.55373,-0.14493 1.59621,-0.15017 2.31663,-0.0118 0.72043,0.13851 0.26737,0.25714 -1.00678,0.26356 -1.27414,0.007 -1.86356,-0.10693 -1.30985,-0.25187 z m 43.87777,-0.18125 -1.44789,-0.46368 1.59268,-0.0578 c 0.87597,-0.0317 1.59268,0.2029 1.59268,0.52144 0,0.31853 -0.0652,0.55317 -0.14475,0.52143 -0.0796,-0.0318 -0.79634,-0.26641 -1.59269,-0.52143 z m 113.09212,-0.3499 c 0.19246,-0.19244 0.69198,-0.21302 1.11004,-0.0456 0.46202,0.18488 0.32479,0.32212 -0.3499,0.34991 -0.61052,0.0252 -0.95258,-0.11166 -0.76014,-0.30418 z m -461.393659,3.98171 c -0.58871,-0.58873 -1.07447,0.29763 -0.59145,1.07919 0.36489,0.5904 0.50132,0.59085 0.69749,0.002 0.13412,-0.40238 0.0865,-0.88907 -0.10608,-1.08151 z m 142.846219,1.16165 c -1.03525,-0.12837 -2.72927,-0.12837 -3.76451,0 -1.03523,0.12854 -0.18822,0.23359 1.88227,0.23359 2.07046,0 2.91748,-0.10507 1.88224,-0.23359 z m 11.29353,0.003 c -0.87597,-0.13277 -2.30938,-0.13277 -3.18536,0 -0.87597,0.13276 -0.15929,0.24127 1.59268,0.24127 1.75195,0 2.46866,-0.10861 1.59268,-0.24127 z m 62.11439,-0.084 c 0,-0.27437 -0.65155,-0.3743 -1.44789,-0.22206 -0.79632,0.1522 -1.44788,0.37671 -1.44788,0.49886 0,0.12212 0.65156,0.22205 1.44788,0.22205 0.79634,0 1.44789,-0.22449 1.44789,-0.49885 z M 68.339401,607.84991 c -0.19687,-0.31852 -0.66834,-0.57516 -1.0477,-0.57028 -0.41444,0.005 -0.34303,0.23295 0.17896,0.57028 1.11263,0.71905 1.31312,0.71905 0.86874,0 z m 180.727009,0.0495 c -0.18006,-0.29132 2e-5,-0.66166 0.40017,-0.82299 0.40016,-0.16131 -0.65607,-0.31389 -2.34719,-0.33904 -2.09145,-0.0311 -2.94928,0.15725 -2.68239,0.5891 0.21578,0.34914 1.1548,0.5229 2.08671,0.38613 0.93191,-0.13682 1.82861,-0.0316 1.99264,0.23391 0.16401,0.26543 0.42856,0.48259 0.58783,0.48259 0.15929,0 0.14223,-0.23836 -0.0378,-0.5297 z m 51.22466,-0.37321 c 0,-0.14054 -0.26062,-0.2554 -0.57915,-0.2554 -0.31854,0 -0.57917,0.27601 -0.57917,0.61334 0,0.33734 0.26063,0.45227 0.57917,0.2554 0.31853,-0.19687 0.57915,-0.47287 0.57915,-0.61334 z m 7.3732,0.50157 c -0.56351,-0.14679 -1.34535,-0.13716 -1.73747,0.0214 -0.3921,0.15861 0.0689,0.27879 1.02454,0.26699 0.95561,-0.0118 1.27644,-0.14155 0.71293,-0.28846 z m 222.3956,0 c -0.56349,-0.14679 -1.34535,-0.13716 -1.73745,0.0214 -0.39212,0.15861 0.0689,0.27879 1.02454,0.26699 0.95561,-0.0118 1.27643,-0.14155 0.71291,-0.28846 z M 87.000691,605.35231 c 1.6519,-1.11167 3.29406,-2.11805 3.64925,-2.23646 1.1028,-0.36759 -0.50569,-7.94273 -1.96732,-9.265 -0.6771,-0.61256 -1.83214,-1.68779 -2.56676,-2.38942 l -1.33567,-1.27569 -1.12573,1.36727 c -0.61917,0.75198 -1.12576,1.72931 -1.12576,2.17183 0,0.4425 -0.28132,0.80457 -0.62516,0.80457 -0.38703,0 -0.49928,-0.71702 -0.29467,-1.88227 l 0.33053,-1.88224 -0.8196,2.02704 -0.81958,2.02705 -0.0441,-1.85993 c -0.0392,-1.65378 -0.28479,-1.9202 -2.21589,-2.40357 -1.19452,-0.29901 -3.63524,-0.69813 -5.42383,-0.88694 l -3.25198,-0.34328 -0.36774,2.68291 c -0.20224,1.47559 -0.36772,3.95799 -0.36772,5.51644 0,1.55845 -0.37813,3.73857 -0.84031,4.84472 l -0.84032,2.01116 2.38692,1.21771 c 2.80575,1.43139 6.17033,1.99794 11.09781,1.86874 3.02641,-0.0794 4.01732,-0.39844 6.56762,-2.11464 z m 145.480949,2.28924 c -0.61457,-0.53083 -6.32245,-0.84088 -6.32245,-0.34343 0,0.30352 1.47686,0.55185 3.2819,0.55185 1.80502,0 3.17328,-0.0937 3.04055,-0.20842 z m 5.83981,-0.37073 c -1.14861,-0.74229 -3.64411,-0.74229 -3.18534,0 0.19686,0.31854 1.18957,0.57517 2.206,0.5703 1.40623,-0.007 1.64036,-0.14307 0.97934,-0.5703 z m 2.89578,-0.32376 c 0,-0.14053 -0.26062,-0.25539 -0.57915,-0.25539 -0.31854,0 -0.57916,0.276 -0.57916,0.61334 0,0.33733 0.26062,0.45226 0.57916,0.25539 0.31853,-0.19686 0.57915,-0.47287 0.57915,-0.61334 z m 18.95753,0.50943 c -2.04914,-0.33822 -1.47445,-1.34397 0.76792,-1.34397 1.17834,0 1.70329,0.28684 1.70329,0.93069 0,0.61074 0.31495,0.80984 0.9161,0.57915 0.50387,-0.19334 1.27754,-0.35154 1.7193,-0.35154 0.47599,0 0.66739,-0.35389 0.46983,-0.86874 -0.18336,-0.47778 -0.0449,-0.86872 0.30774,-0.86872 0.35262,0 0.64113,0.39094 0.64113,0.86872 0,0.51745 0.52694,0.86516 1.30309,0.85987 0.7167,-0.005 1.03377,-0.20033 0.70457,-0.43436 -0.32919,-0.23403 -0.58982,-1.1391 -0.57915,-2.01124 0.0152,-1.2993 0.22861,-1.5297 1.17768,-1.27545 0.95059,0.25465 0.99468,0.20646 0.24587,-0.26872 -1.24489,-0.78998 -3.43598,-0.16267 -3.03961,0.87035 0.17131,0.44642 0.21842,0.818 0.10473,0.82574 -1.3373,0.0909 -7.00812,0.64943 -8.4597,0.83318 -1.03526,0.13107 -1.88227,-0.005 -1.88227,-0.3045 0,-0.29851 0.26062,-0.54275 0.57915,-0.54275 0.31856,0 0.57917,-0.39092 0.57917,-0.86872 0,-0.99168 -1.04138,-1.11787 -2.31662,-0.28072 -0.77221,0.50692 -0.77221,0.63366 0,1.14058 0.74372,0.48821 0.72288,0.57156 -0.14476,0.57916 -0.665,0.005 -1.01657,-0.43925 -1.02238,-1.29423 -0.007,-0.95465 -0.1424,-1.09238 -0.50818,-0.51505 -0.27461,0.43343 -0.37054,1.28044 -0.21316,1.88225 0.17693,0.67661 -0.0152,1.09758 -0.50536,1.10307 -0.58611,0.007 -0.61097,0.12364 -0.0958,0.4511 0.38264,0.24323 2.59791,0.47082 4.92283,0.50577 2.32489,0.035 3.50596,-0.0556 2.62461,-0.20092 z m -5.34328,-0.75818 c -0.2029,-0.32832 0.0296,-0.42541 0.54498,-0.22763 1.00333,0.38502 1.1869,0.80014 0.35384,0.80014 -0.29974,0 -0.70422,-0.25764 -0.89882,-0.57251 z m 26.13753,0.43603 c 4.29015,0.12415 5.35574,-0.0135 5.62859,-0.72393 0.18509,-0.48238 1.01165,-0.87705 1.83679,-0.87705 0.86874,0 1.34712,0.24777 1.13646,0.5886 -0.20006,0.32372 -0.55368,0.47123 -0.78576,0.32779 -0.23211,-0.14341 -0.8005,-0.0214 -1.2631,0.27128 -0.63043,0.39882 -0.44221,0.53427 0.75159,0.54092 0.87599,0.005 1.62527,-0.25175 1.66508,-0.57028 0.0399,-0.31854 0.1049,-0.90237 0.14476,-1.29741 0.0399,-0.39505 0.85426,-0.88545 1.80987,-1.08979 1.20165,-0.25697 0.53187,-0.39267 -2.17185,-0.44005 -2.15011,-0.0377 -3.90929,0.16384 -3.90929,0.44784 0,0.69903 -2.58403,1.30438 -3.71516,0.87032 -0.5013,-0.19237 -0.76723,-0.58305 -0.59099,-0.86821 0.17961,-0.29061 -1.98532,-0.51848 -4.92616,-0.51848 -3.58604,0 -5.20075,-0.20621 -5.10178,-0.65155 0.0796,-0.35835 -0.16047,-0.76416 -0.53358,-0.90181 -0.43536,-0.16063 -0.56677,0.17655 -0.36681,0.94114 0.22355,0.8549 0.78316,1.19137 1.98147,1.19137 0.91844,0 1.6699,0.27601 1.6699,0.61334 0,0.33734 -0.24261,0.4634 -0.53913,0.28013 -0.74332,-0.45939 -1.37455,0.70771 -0.96293,1.78041 0.24655,0.64246 0.69157,0.75254 1.644,0.40662 0.71827,-0.26087 3.68737,-0.40539 6.598,-0.3212 z m 2.09219,-0.8419 c 0.55743,-0.1456 1.46961,-0.1456 2.02704,0 0.55745,0.14561 0.10135,0.26486 -1.01351,0.26486 -1.11488,0 -1.57096,-0.11925 -1.01353,-0.26486 z m 33.591,1.17398 c -0.39818,-0.16063 -1.04971,-0.16063 -1.44789,0 -0.39818,0.16064 -0.0725,0.29212 0.72395,0.29212 0.79634,0 1.12212,-0.13141 0.72394,-0.29212 z m 14.47889,0 c -0.39817,-0.16063 -1.04973,-0.16063 -1.44789,0 -0.39816,0.16064 -0.0725,0.29212 0.72394,0.29212 0.79634,0 1.12211,-0.13141 0.72395,-0.29212 z m 50.96564,0 c -0.39816,-0.16063 -1.04971,-0.16063 -1.44789,0 -0.39816,0.16064 -0.0723,0.29212 0.72397,0.29212 0.79632,0 1.1221,-0.13141 0.72392,-0.29212 z m 21.42876,-0.0355 c -1.03525,-0.12854 -2.72928,-0.12854 -3.76451,0 -1.03524,0.12854 -0.18822,0.23359 1.88225,0.23359 2.07048,0 2.9175,-0.10506 1.88226,-0.23359 z m -197.49868,-0.56979 c -0.72042,-0.13851 -1.7629,-0.13328 -2.31663,0.0118 -0.55373,0.14493 0.0356,0.25832 1.30985,0.25188 1.27415,-0.007 1.72719,-0.12499 1.00678,-0.26355 z m 65.01691,-0.16958 c -0.19686,-0.31852 -0.66833,-0.57514 -1.0477,-0.57026 -0.41445,0.005 -0.34302,0.23293 0.17898,0.57026 1.11263,0.71905 1.31311,0.71905 0.86872,0 z m 23.01468,0.16956 c -0.72041,-0.13851 -1.76291,-0.13327 -2.31663,0.0118 -0.55373,0.14493 0.0356,0.2583 1.30986,0.25189 1.27414,-0.007 1.72718,-0.125 1.00677,-0.26356 z m -60.8113,-0.57915 c -0.72043,-0.13851 -1.76291,-0.13328 -2.31662,0.0118 -0.55373,0.14493 0.0358,0.25832 1.30985,0.25188 1.27413,-0.007 1.72719,-0.12499 1.00677,-0.26355 z m 121.77413,-0.16956 c -0.19687,-0.31852 -0.66834,-0.57516 -1.0477,-0.57028 -0.41445,0.005 -0.34301,0.23295 0.17898,0.57028 1.11261,0.71905 1.31311,0.71905 0.86872,0 z m -251.25937,-1.88178 c -0.16064,-0.39818 -0.29212,-0.0725 -0.29212,0.72393 0,0.79634 0.13142,1.12212 0.29212,0.72396 0.16064,-0.39818 0.16064,-1.04973 0,-1.44789 z m 168.15059,1.3031 c 0,-0.31854 -0.45608,-0.57517 -1.01351,-0.57029 -0.86615,0.007 -0.88722,0.0905 -0.14476,0.57029 1.09299,0.70634 1.15831,0.70634 1.15831,0 z m 44.8787,-0.0101 c -0.20008,-0.32372 -0.60638,-0.43867 -0.90291,-0.25539 -0.80331,0.49646 -0.65352,0.844 0.36377,0.844 0.49661,0 0.73922,-0.26487 0.53914,-0.58861 z M 65.031291,600.61021 c 0.0689,-0.95559 0.53968,-2.04433 1.04605,-2.41939 0.72899,-0.53996 0.86824,-1.47547 0.66892,-4.49388 -0.1385,-2.09658 -0.42304,-3.98327 -0.63239,-4.19264 -0.20937,-0.20937 -0.38466,-0.0118 -0.38953,0.4398 -0.005,0.56186 -0.14307,0.61288 -0.43438,0.16182 -0.24218,-0.37489 -4.417409,-1.06262 -9.69197,-1.59645 -5.096562,-0.51579 -10.134662,-1.05347 -11.195774,-1.19486 -1.444273,-0.19242 -1.790849,-0.0823 -1.378617,0.43811 0.302861,0.38236 0.735616,1.71962 0.961656,2.97172 0.312979,1.73371 0.547176,2.07897 0.982178,1.44789 0.432705,-0.62771 0.489915,-0.53658 0.235972,0.3758 -0.471217,1.69305 3.772283,7.81645 6.483252,9.35535 1.287404,0.7308 4.138014,0.46902 6.155561,-0.56529 1.515201,-0.77678 3.918647,0.57384 3.799529,2.13513 -0.15067,1.97502 -0.02635,2.00588 1.65077,0.40977 0.955338,-0.90921 1.664523,-2.24411 1.738773,-3.27294 z m 169.525659,4.34367 c 0.19687,-0.31854 -0.0483,-0.57915 -0.54498,-0.57915 -0.4966,0 -0.9029,-0.38276 -0.9029,-0.85055 0,-0.52094 0.33919,-0.7204 0.87529,-0.51468 0.64462,0.24738 0.77384,0.0715 0.49028,-0.66747 -0.31983,-0.83347 -0.87069,-0.94585 -3.25324,-0.66366 -1.57753,0.18683 -3.22015,0.63177 -3.65027,0.98873 -0.43012,0.35698 -1.09915,0.45306 -1.48672,0.21352 -1.20952,-0.7475 -5.3603,-1.34088 -6.85396,-0.97978 -1.32332,0.31991 -1.34431,0.37717 -0.28959,0.78954 0.62547,0.24455 2.44031,0.50897 4.03299,0.58761 l 2.89577,0.1429 -3.76451,0.3969 -3.76451,0.39689 4.63325,-0.0118 c 2.54827,-0.005 5.41509,0.0691 6.3707,0.16688 1.48267,0.15186 1.35528,0.23744 -0.86873,0.58321 -2.39691,0.37266 -2.27177,0.41216 1.55849,0.49218 2.29058,0.0478 4.32578,-0.17364 4.52264,-0.49218 z m 4.45225,0.18354 c -0.41808,-0.16722 -0.91761,-0.14679 -1.11005,0.0456 -0.19244,0.19244 0.14966,0.32933 0.76014,0.30417 0.67469,-0.0279 0.81192,-0.16502 0.34991,-0.3499 z m 6.79653,-0.89083 c 0.99169,0.0282 1.65268,-0.19207 1.46887,-0.48946 -0.44784,-0.72464 -1.63967,-0.68155 -3.40576,0.12314 -0.80134,0.3651 -1.30227,0.91417 -1.11317,1.22014 0.20219,0.32715 0.52983,0.25531 0.79541,-0.1744 0.24837,-0.40188 1.26296,-0.70761 2.25465,-0.67942 z m 66.79239,0.32374 c -0.39818,-0.16064 -1.04973,-0.16064 -1.44789,0 -0.39818,0.16063 -0.0725,0.29212 0.72393,0.29212 0.79636,0 1.12212,-0.13142 0.72396,-0.29212 z m 19.17676,-0.48517 c -0.18335,-0.47781 -0.43578,-0.86874 -0.56098,-0.86874 -0.12516,0 -0.22761,0.39093 -0.22761,0.86874 0,0.4778 0.25244,0.86872 0.56098,0.86872 0.30854,0 0.41097,-0.39092 0.22761,-0.86872 z m 43.91495,0.47309 c -0.41806,-0.16722 -0.91759,-0.14679 -1.11005,0.0456 -0.19244,0.19244 0.14966,0.32933 0.76015,0.30418 0.67468,-0.0279 0.81191,-0.16503 0.3499,-0.34989 z m -134.91372,-0.59312 c -0.72041,-0.13851 -1.76289,-0.13327 -2.31662,0.0118 -0.55372,0.14493 0.0358,0.25832 1.30985,0.25189 1.27414,-0.007 1.72719,-0.125 1.00677,-0.26356 z m 132.77928,0.0394 c 0.76952,-0.2953 0.8084,-0.46923 0.19216,-0.85987 -0.95012,-0.60228 -4.05613,-0.63452 -7.14321,-0.0742 l -2.31663,0.42051 2.60621,0.35487 c 3.88709,0.52927 5.58997,0.56983 6.66147,0.15861 z m -111.64438,-0.61034 c -0.56351,-0.14678 -1.34536,-0.13715 -1.73745,0.0215 -0.39212,0.15861 0.0689,0.27878 1.02452,0.26699 0.95561,-0.0118 1.27643,-0.14155 0.71293,-0.28845 z m 71.50049,0.005 c -0.41806,-0.16739 -0.91759,-0.14679 -1.11005,0.0456 -0.19244,0.19244 0.14966,0.32933 0.76014,0.30418 0.67469,-0.0279 0.81192,-0.16503 0.34991,-0.34991 z m -90.92737,-0.57915 c -0.41808,-0.16723 -0.91761,-0.14679 -1.11005,0.0456 -0.19244,0.19245 0.14966,0.32933 0.76014,0.30418 0.67469,-0.0279 0.81192,-0.16502 0.34991,-0.3499 z m 95.87537,-0.005 c -0.5635,-0.14678 -1.34536,-0.13716 -1.73746,0.0214 -0.39211,0.15861 0.0689,0.27879 1.02454,0.26699 0.95561,-0.0118 1.27641,-0.14155 0.71292,-0.28846 z m -99.45888,-0.98317 c 0,-0.12449 -0.89389,-0.33058 -1.98642,-0.45811 -1.09254,-0.12753 -1.85902,-0.0258 -1.7033,0.2262 0.28028,0.45349 3.68972,0.66777 3.68972,0.23191 z m 29.06635,-0.16941 c -0.41808,-0.16722 -0.91761,-0.14678 -1.11007,0.0456 -0.19244,0.19244 0.14966,0.32933 0.76016,0.30418 0.67467,-0.0279 0.81192,-0.16503 0.34991,-0.34991 z m -86.26468,-0.59314 c -0.72043,-0.1385 -1.76291,-0.13327 -2.31663,0.0118 -0.55373,0.14493 0.0358,0.25832 1.30985,0.25188 1.27413,-0.007 1.72719,-0.12499 1.00678,-0.26355 z M 66.083111,599.31915 c -0.19246,-0.19244 -0.32933,0.14966 -0.30418,0.76016 0.0279,0.67467 0.16503,0.81191 0.34989,0.3499 0.16739,-0.41807 0.14679,-0.9176 -0.0456,-1.11006 z M 442.1841,599.7075 c 11.62654,-0.2944 27.00311,-0.79847 34.17016,-1.12015 33.17985,-1.48922 39.62114,-1.80632 47.20115,-2.32367 4.4595,-0.30436 10.19312,-0.68678 12.74141,-0.8498 2.54829,-0.163 7.89099,-0.55888 11.87269,-0.8797 3.98168,-0.32078 8.80315,-0.6885 10.71437,-0.81715 3.3433,-0.22501 15.85698,-1.34776 29.82649,-2.67605 3.66317,-0.34832 8.48462,-0.86832 10.71437,-1.15555 4.73603,-0.6101 14.09196,-1.64437 15.34762,-1.69665 1.08209,-0.0451 14.06779,-2.0104 21.42874,-3.2432 3.02608,-0.5068 7.35777,-1.14761 9.62592,-1.42402 2.26819,-0.27639 6.17748,-0.88708 8.68731,-1.35706 2.5099,-0.47 6.34216,-1.04013 8.51614,-1.26697 3.21934,-0.33592 4.21434,-0.69455 5.36268,-1.93299 0.77543,-0.8363 1.68199,-1.52055 2.01454,-1.52055 0.75817,0 1.79411,-1.89424 6.9681,-12.74143 2.27909,-4.77803 5.83824,-12.20569 7.90918,-16.50591 6.9856,-14.50544 9.84089,-20.62573 10.28412,-22.04404 0.24261,-0.77646 0.65606,-1.55091 0.91877,-1.721 0.26271,-0.1701 1.14209,-1.81173 1.95419,-3.64807 l 1.4766,-3.3388 -135.25337,0.12871 c -102.87198,0.098 -135.41604,-0.034 -135.93297,-0.55082 -0.52003,-0.52004 31.30282,-0.67961 135.53772,-0.67961 74.9195,0 136.2173,-0.21719 136.2173,-0.48262 0,-0.9351 -0.77092,-1.23752 -1.53604,-0.60254 -1.09333,0.90741 -679.979229,0.30894 -680.88842,-0.60024 -1.154959,-1.15497 -1.75531,-0.65102 -0.662713,0.55628 l 1.074675,1.1875 93.851758,-0.087 c 153.21673,-0.14206 197.90548,-0.0152 197.54931,0.56121 -0.44725,0.72364 -288.757917,0.75072 -289.629711,0.0272 -0.412063,-0.34199 -1.014964,-0.27393 -1.64327,0.1855 -0.925137,0.67648 -0.8497,1.2746 1.11263,8.8223 1.15778,4.45316 2.844613,10.96345 3.7485,14.46735 0.903904,3.50388 2.332452,8.84658 3.174551,11.87268 0.842116,3.02607 2.526246,9.41127 3.742521,14.1893 3.869763,15.20195 4.698636,17.65877 6.052795,17.94106 5.235813,1.09143 21.32606,2.72862 34.511675,3.51156 2.38902,0.14189 5.60386,0.55162 7.14409,0.9106 1.54024,0.35895 3.80171,0.51836 5.0255,0.35422 1.43279,-0.19217 2.64978,-8.4e-4 3.41787,0.53703 1.04343,0.73085 1.15189,0.72883 0.86602,-0.0169 -0.39749,-1.03584 0.97853,-0.93662 2.30756,0.16638 0.50825,0.42179 1.4467,0.63025 2.08546,0.46319 0.80383,-0.21019 1.18209,-0.008 1.22859,0.6556 0.0574,0.82085 0.10574,0.81102 0.33474,-0.0682 0.22225,-0.85355 0.72556,-0.97956 2.97337,-0.74431 3.09734,0.32414 10.550389,0.86313 16.895139,1.22181 2.38902,0.13496 6.94987,0.49823 10.13522,0.80707 3.18536,0.30884 10.48272,0.84514 16.21634,1.19175 5.73363,0.34661 13.62231,0.87912 17.53039,1.18335 3.90808,0.30425 8.85985,0.55716 11.00394,0.56203 2.1441,0.005 4.2893,0.28384 4.7671,0.61991 1.47677,1.03873 -21.57369,0.20026 -48.06989,-1.74856 -4.61875,-0.33973 -9.28442,-0.68283 -10.36813,-0.76247 -1.75815,-0.12922 -2.10876,0.10472 -3.25492,2.17183 -2.80938,5.0667 -3.79237,4.7275 11.45762,3.95356 7.40243,-0.37566 20.4957,-1.09354 29.09615,-1.59526 26.35662,-1.53755 45.90232,-1.4161 83.39836,0.51815 7.38249,0.38084 53.44505,1.556 80.213,2.04642 29.08418,0.53287 93.96256,0.21921 126.83499,-0.61317 z M 322.73332,517.62359 c -2.78716,-0.0921 -5.06761,-0.41782 -5.06761,-0.72396 0,-0.7741 9.67884,-0.71591 10.15904,0.061 0.52897,0.85587 0.57435,0.84996 -5.09143,0.66287 z m -11.43831,-0.62074 c 0,-0.53496 3.93746,-0.39034 4.49283,0.16503 0.18341,0.18342 -0.75246,0.33347 -2.07967,0.33347 -1.32724,0 -2.41316,-0.2243 -2.41316,-0.49848 z m 24.94046,-0.11571 c 1.20594,-0.76306 66.56608,-0.7112 66.56608,0.0529 0,0.40374 -10.90839,0.57703 -33.69902,0.53531 -20.46567,-0.0375 -33.37231,-0.26841 -32.86706,-0.58811 z m -153.94728,83.04978 c -0.39817,-0.16064 -1.04972,-0.16064 -1.44788,0 -0.39818,0.16064 -0.0725,0.29212 0.72394,0.29212 0.79634,0 1.12211,-0.13142 0.72394,-0.29212 z m 30.07988,-0.0118 c -0.41808,-0.16723 -0.9176,-0.14679 -1.11006,0.0456 -0.19245,0.19244 0.14965,0.32933 0.76014,0.30418 0.67469,-0.0279 0.81193,-0.16503 0.34992,-0.34989 z m -44.85936,-0.58487 c -0.56351,-0.14678 -1.34537,-0.13715 -1.73747,0.0215 -0.3921,0.15861 0.0689,0.27879 1.02454,0.26698 0.95561,-0.0118 1.27643,-0.14155 0.71293,-0.28844 z m -64.35967,-2.91673 c -0.19244,-0.19245 -0.32933,0.14965 -0.30418,0.76014 0.0279,0.67469 0.16503,0.81191 0.34991,0.34992 0.16722,-0.4181 0.14678,-0.91762 -0.0456,-1.11006 z m 595.02167,-93.40089 c 0,-0.31853 -0.27603,-0.57915 -0.61333,-0.57915 -0.33735,0 -0.45226,0.26062 -0.25539,0.57915 0.19685,0.31854 0.47287,0.57916 0.6133,0.57916 0.14054,0 0.25542,-0.26062 0.25542,-0.57916 z m 13.32058,-9.50262 c 0,-1.41002 -0.78599,-1.09138 -1.59268,0.64569 -1.13007,2.43324 -0.88381,3.42478 0.43436,1.74902 0.63707,-0.80988 1.15832,-1.88751 1.15832,-2.39471 z m 8.12728,-20.90303 c 0.78592,-1.07145 0.77364,-1.0987 -0.16385,-0.36345 -0.55744,0.43716 -1.01353,1.067 -1.01353,1.39963 0,0.33262 0.0737,0.49616 0.16385,0.36345 0.0902,-0.13277 0.54621,-0.76256 1.01353,-1.39963 z m -23.26733,-0.0152 c 0.15135,-0.15134 -0.13175,-0.27509 -0.62896,-0.27509 -1.03912,0 -4.31524,-2.90285 -5.80071,-5.13978 -1.41575,-2.13196 -1.26876,-0.78165 0.17224,1.58188 0.65183,1.06926 1.69334,2.07697 2.31441,2.23938 0.62109,0.1625 1.12924,0.55341 1.12924,0.86888 0,0.31547 -0.38258,0.42675 -0.85019,0.24732 -0.9208,-0.35335 -1.67868,0.37618 -1.04699,1.00787 0.39659,0.39661 4.21363,-0.0333 4.71096,-0.53046 z m -23.81864,-5.81341 c 3.90363,-1.45175 6.02264,-2.52415 5.04312,-2.55224 -0.8649,-0.0248 -7.14957,2.48495 -9.2315,3.68656 -1.85659,1.07159 -1.4388,0.95841 4.18838,-1.13432 z m 7.41006,-3.61631 c -0.17832,-0.17832 -0.64563,-3.7e-4 -1.03853,0.39545 -0.5677,0.57199 -0.50119,0.6385 0.3242,0.32421 0.57118,-0.21749 0.8926,-0.54133 0.71433,-0.71966 z m 14.55753,-0.83579 c -0.16063,-0.39817 -0.29212,-0.0725 -0.29212,0.72394 0,0.79634 0.13142,1.12212 0.29212,0.72394 0.16064,-0.39816 0.16064,-1.04971 0,-1.44788 z m -11.96667,0.14475 c 0.4778,-0.30877 0.60812,-0.5614 0.28958,-0.5614 -0.31853,0 -0.97008,0.25263 -1.44789,0.5614 -0.4778,0.30879 -0.60812,0.56144 -0.28958,0.56144 0.31853,0 0.97008,-0.25265 1.44789,-0.56144 z m 3.55323,-1.42522 c 1.07179,-0.46532 1.55782,-0.84701 1.08,-0.84819 -0.83462,-0.002 -4.15016,1.6317 -3.39662,1.67374 0.20231,0.0118 1.24477,-0.36021 2.31662,-0.82555 z m 39.2954,-1.64952 c -0.007,-1.0316 -0.11385,-1.10644 -0.5703,-0.40019 -0.73737,1.14101 -0.73737,2.48277 0,2.02705 0.31854,-0.19687 0.57517,-0.92896 0.5703,-1.62686 z m -31.93109,-1.61514 c 1.09396,-0.38137 1.80558,-1.01875 1.77818,-1.59268 -0.0289,-0.6013 -0.15422,-0.68785 -0.33788,-0.23292 -0.16064,0.39816 -0.59618,0.73222 -0.96777,0.74236 -0.65596,0.0179 -3.23904,1.71904 -2.61031,1.71904 0.17264,0 1.13462,-0.28612 2.13778,-0.6358 z m 30.42347,-2.00047 c 0.1978,-0.51541 0.10068,-0.74788 -0.22764,-0.54498 -0.3149,0.1946 -0.57251,0.59908 -0.57251,0.89882 0,0.83307 0.41515,0.6495 0.80015,-0.35384 z M 189.38284,509.3786 c -41.40959,-0.16688 -92.603419,-0.27929 -113.764049,-0.24962 -36.465933,0.051 -38.528868,-8.4e-4 -39.527346,-0.99954 -0.579406,-0.5794 -1.053477,-1.17016 -1.053477,-1.31279 0,-0.14256 1.368263,-0.33808 3.040569,-0.43436 3.726576,-0.21455 3.967006,-1.17265 0.43436,-1.73092 -5.215392,-0.82421 -6.081121,-1.26825 -6.081121,-3.11905 0,-1.69056 0.01182,-1.69632 3.909305,-1.86704 3.465571,-0.15185 3.909289,-0.0508 3.909289,0.88941 0,0.59822 0.441893,1.09025 1.013528,1.12849 3.634366,0.2432 4.915504,0.17574 8.542539,-0.44978 2.897956,-0.49978 3.723754,-0.81844 2.895777,-1.11736 -0.813671,-0.29374 -0.278318,-0.4837 1.799261,-0.63841 3.957108,-0.2947 4.680495,-0.0951 5.088352,1.40343 0.484679,1.78097 -1.402974,3.18471 -4.907835,3.64966 -5.835167,0.77404 -2.49221,1.0916 9.458385,0.89844 7.878844,-0.12736 12.386494,-0.41733 12.527584,-0.80595 0.38065,-1.04846 4.25754,-5.1075 5.52121,-5.78061 1.36402,-0.72658 1.42459,-0.82905 -2.16305,3.65977 -1.17187,1.46622 -2.13067,2.83448 -2.13067,3.04057 0,0.20609 1.95466,0.37472 4.34367,0.37472 2.50967,0 4.34366,0.24454 4.34366,0.57915 0,0.36783 -5.44167,0.6254 -14.91324,0.70591 l -14.913246,0.12668 15.926776,0.30763 c 17.34179,0.33493 23.16621,0.18754 23.16621,-0.58625 0,-0.51948 -0.66852,-1.29271 -5.43116,-6.28199 -2.54271,-2.66369 -2.69121,-2.95938 -1.48621,-2.95938 0.84824,0 2.36142,1.061 4.1299,2.89578 l 2.79117,2.89578 6.658429,0 c 3.66214,0 6.65844,-0.19611 6.65844,-0.4358 0,-0.23969 -1.62888,-0.82608 -3.61973,-1.30309 -3.24365,-0.77721 -3.61972,-1.01774 -3.61972,-2.31519 0,-1.41735 0.0948,-1.44852 4.4891,-1.4775 2.469,-0.0169 4.72938,-0.2769 5.02304,-0.57915 0.29368,-0.30226 0.61916,-1.33141 0.7233,-2.28702 l 0.18937,-1.73747 5.79155,0 5.79154,0 0.28958,4.92282 0.28959,4.92281 1.94098,0.18588 1.94097,0.18585 -0.20352,-6.26699 -0.20351,-6.267 11.53891,-0.15742 c 12.0064,-0.16368 13.07518,-0.38284 13.07518,-2.68047 0,-1.85589 1.6192,-3.82245 3.14729,-3.82245 1.67682,0 2.3626,0.81916 3.15154,3.76452 l 0.62054,2.3166 8.55779,-0.0919 c 11.97102,-0.12855 11.16399,-0.0284 11.16399,-1.38609 0,-0.80032 -0.56857,-1.38666 -1.74097,-1.79534 -1.76957,-0.61689 -2.81249,-2.68955 -2.00816,-3.99099 0.22771,-0.36843 2.01143,-1.71633 3.96383,-2.9953 l 3.54981,-2.32541 -5.34676,0.28288 c -3.94011,0.20845 -5.61612,0.0784 -6.3707,-0.49414 -0.56317,-0.42735 -1.48005,-0.78529 -2.03748,-0.79541 -0.63114,-0.0118 -1.01353,-0.46833 -1.01353,-1.21092 0,-0.65587 -0.26062,-1.03142 -0.57915,-0.83455 -0.31854,0.19687 -0.57915,1.22281 -0.57915,2.27989 0,2.10173 -1.12817,3.42663 -2.66109,3.12512 -1.89372,-0.37247 -2.23408,-1.87344 -1.31057,-5.77966 0.80347,-3.39853 0.99934,-3.69433 2.56556,-3.87448 0.93262,-0.10725 1.90409,-0.56335 2.15882,-1.01351 0.25472,-0.45017 0.85168,-0.8185 1.32654,-0.8185 0.47489,0 1.62106,-0.56015 2.54709,-1.24479 1.59329,-1.17798 1.76194,-1.1935 3.14153,-0.28958 1.06632,0.69869 2.78288,0.95522 6.39167,0.95522 l 4.93383,0 -0.79281,-1.88225 c -2.07712,-4.93141 -3.24254,-8.39665 -3.24254,-9.64127 0,-1.27769 0.1554,-1.34108 2.40617,-0.98118 3.06443,0.49004 3.38539,0.70749 3.38539,2.29386 0,0.71713 0.65438,2.97368 1.45419,5.01454 0.7998,2.04084 1.37106,3.95996 1.26948,4.26471 -0.2358,0.70739 -2.72367,-4.54587 -2.72367,-5.75113 0,-1.97188 -1.74413,-4.32122 -3.208,-4.32122 l -1.44079,0 0.93398,2.17183 c 0.51372,1.19451 1.13625,2.8386 1.38342,3.65356 0.24719,0.81494 0.87549,2.30563 1.39623,3.31264 0.52075,1.00702 0.90245,2.03426 0.84823,2.28279 -0.0542,0.24852 0.45869,1.62465 1.13978,3.05805 0.68107,1.43341 1.24404,3.0219 1.25104,3.52996 0.007,0.50807 0.53396,1.39547 1.17104,1.97202 0.71879,0.65051 1.1583,0.78146 1.1583,0.34516 0,-0.40965 0.29789,-0.51898 0.71377,-0.26197 0.39256,0.24261 1.17809,0.47534 1.74562,0.51715 0.75296,0.0556 0.49442,-0.41627 -0.95654,-1.7453 -2.16163,-1.97999 -3.0503,-4.87271 -2.43777,-7.93534 0.19799,-0.98993 0.11892,-2.09042 -0.17582,-2.44549 -0.53442,-0.64395 -2.33976,-5.45912 -2.35576,-6.28323 -0.005,-0.23891 0.18704,-0.43356 0.42593,-0.43258 0.23891,8.4e-4 1.08592,2.01023 1.88227,4.46498 1.42214,4.38383 3.1949,7.11633 4.61681,7.11633 0.4601,0 0.56718,-0.36541 0.29698,-1.01351 -0.23239,-0.55744 -1.01417,-2.57726 -1.73727,-4.48846 -2.39782,-6.33751 -2.59136,-6.73236 -3.13543,-6.39611 -0.29712,0.18363 -0.69688,0.0804 -0.88836,-0.22943 -0.19147,-0.30984 -0.73074,-0.41651 -1.19834,-0.23707 -0.51415,0.19731 -0.85017,-0.0169 -0.85017,-0.54079 0,-0.66557 0.50464,-0.802 2.17183,-0.58711 1.1945,0.15405 2.34848,0.4511 2.56439,0.66028 0.21589,0.2092 1.35753,2.98657 2.53699,6.17191 2.62235,7.08227 2.82054,7.36546 4.59024,6.55913 0.94571,-0.43091 2.45198,-0.43522 5.02363,-0.0152 3.10874,0.5087 5.98431,0.58767 7.51063,0.20624 0.19952,-0.0498 -0.30117,-2.0017 -1.11267,-4.33745 -1.53697,-4.424 -1.45214,-6.18415 0.29736,-6.16912 1.65491,0.0135 2.68585,0.93488 2.26754,2.02496 -0.3096,0.80681 -0.54199,0.85864 -1.2427,0.2771 -1.02923,-0.85417 -1.08307,-0.26306 -0.21683,2.38068 1.31112,4.00143 2.49393,6.31235 3.23092,6.31235 0.89287,0 1.0079,-0.93506 0.17812,-1.44789 -0.31854,-0.19687 -0.56895,-0.92896 -0.55649,-1.62685 0.0189,-1.0575 0.15354,-0.96831 0.80796,0.53528 0.50125,1.15163 1.3557,1.94738 2.36229,2.20003 0.86735,0.21769 1.66115,0.31166 1.76399,0.20882 0.10287,-0.10287 -0.31886,-1.31678 -0.93708,-2.69762 -0.61822,-1.38087 -1.12405,-2.94725 -1.12405,-3.48084 0,-0.53362 -0.84701,-1.48103 -1.88225,-2.10535 -1.8052,-1.0887 -1.82659,-1.14317 -0.52248,-1.3309 1.52958,-0.22018 4.1406,1.87802 4.14487,3.33078 0.003,1.10259 2.54302,7.45443 3.27222,8.18363 0.28548,0.2855 5.07328,0.59062 10.63956,0.67808 l 10.12049,0.15895 0.18188,1.57851 0.18189,1.57851 -9.73794,0.15895 c -7.58203,0.12381 -9.70417,0.32443 -9.58535,0.90637 0.084,0.41106 -0.11013,1.23821 -0.43112,1.83812 -0.4847,0.90565 -1.06983,1.04556 -3.44839,0.82462 l -2.86468,-0.2661 -2.46375,3.26323 c -1.35505,1.79476 -3.06455,3.49163 -3.79885,3.77081 -0.73432,0.2792 -1.33533,0.83983 -1.3356,1.24588 -3.7e-4,0.58341 1.79168,0.65245 8.54254,0.32911 4.69867,-0.22504 15.97069,-0.68463 25.04895,-1.02131 9.07825,-0.33668 19.2886,-0.75967 22.68966,-0.94 5.7922,-0.30712 6.16617,-0.26077 5.90617,0.73173 -0.24339,0.92895 -0.89871,1.05385 -5.31502,1.01297 -2.77058,-0.0257 -16.50469,0.41009 -30.52025,0.96831 -14.01556,0.55821 -26.65562,1.04748 -28.08903,1.08726 -1.43341,0.0399 -4.03962,0.15472 -5.79156,0.2553 -1.75194,0.10067 -13.41861,0.36008 -25.92594,0.57656 -20.83041,0.36055 -22.77147,0.31325 -23.10773,-0.56305 -0.33559,-0.87453 -0.41187,-0.87664 -0.88875,-0.0245 -0.45311,0.80963 -2.08854,0.93209 -12.44882,0.93209 l -11.92716,0 0.38574,4.6253 c 0.21214,2.54389 0.54172,5.40519 0.73237,6.35844 0.30086,1.50434 0.13564,1.8134 -1.25152,2.34078 -0.87899,0.33419 -1.43576,0.77002 -1.23726,0.96851 0.19849,0.19849 -0.0912,0.69868 -0.64362,1.11152 -0.82431,0.61597 11.06483,0.73014 66.27409,0.63643 37.00325,-0.0628 67.44605,-0.28167 67.65067,-0.48635 0.20462,-0.20468 0.48085,-1.23175 0.61382,-2.28239 0.13293,-1.05066 0.61479,-2.70752 1.07074,-3.68195 0.45593,-0.97442 1.16622,-3.24186 1.57842,-5.03876 0.51414,-2.24127 0.98547,-3.17647 1.50116,-2.97859 0.4308,0.16536 0.75172,-0.12348 0.75172,-0.67642 0,-0.53067 0.26061,-0.8038 0.57915,-0.60693 0.31854,0.19686 0.61398,1.5805 0.65653,3.07474 l 0.0774,2.71681 0.37817,-2.60621 c 0.20799,-1.43341 0.69203,-3.12744 1.07565,-3.7645 0.55772,-0.92621 0.61309,0.002 0.27634,4.63324 -0.23163,3.18536 -0.42473,6.96371 -0.42911,8.39634 l -0.007,2.60481 4.05408,0.46375 c 2.22975,0.25506 10.69989,0.33409 18.82255,0.17564 8.12265,-0.15845 16.16609,-0.28484 17.87429,-0.28079 1.7082,0.003 4.37214,-0.31718 5.91988,-0.71386 2.29149,-0.58728 2.69073,-0.86983 2.1499,-1.5215 -0.45929,-0.55339 -1.74961,-0.75599 -4.18243,-0.6567 -3.93791,0.16064 -4.7824,-0.74649 -1.20164,-1.29085 1.49536,-0.22734 1.79124,-0.38132 0.83465,-0.43436 -1.64171,-0.091 -3.93612,-1.51743 -3.3629,-2.09064 0.20112,-0.20114 2.15112,-0.0547 4.33334,0.32525 4.69509,0.81762 20.30601,0.36378 21.28868,-0.6189 0.45884,-0.45884 -2.16055,-0.5605 -9.49255,-0.36842 -10.27192,0.2691 -15.82222,-0.022 -15.33859,-0.80456 0.30768,-0.49782 24.97414,-0.20358 25.80155,0.30777 1.12859,0.69751 0.49135,2.08966 -1.23141,2.69023 -1.19993,0.4183 -1.59033,0.812 -1.19611,1.20622 0.39423,0.39423 0.28844,1.03826 -0.32414,1.97318 -0.50017,0.76335 -0.72542,1.5719 -0.50054,1.79678 0.22487,0.22485 8.63829,0.50685 18.69649,0.62666 15.00712,0.17873 18.36687,0.0762 18.72946,-0.57173 0.24302,-0.43424 0.40021,-0.95764 0.3493,-1.16309 -0.051,-0.20546 0.32527,-0.85701 0.83593,-1.44789 0.51067,-0.59087 1.66236,-3.81082 2.5593,-7.15545 1.82865,-6.81885 3.47108,-9.70703 2.96414,-5.21241 -0.16165,1.43342 -0.82607,4.16993 -1.47642,6.08114 -0.65038,1.91122 -1.18891,3.84906 -1.19673,4.30634 -0.007,0.45726 -0.58091,1.43459 -1.27351,2.17183 l -1.25928,1.34043 1.98662,0 c 1.67709,0 2.11417,-0.28817 2.80529,-1.84955 0.60417,-1.36488 0.64121,-1.90868 0.14138,-2.0753 -0.37252,-0.12415 -0.67729,-0.48005 -0.67729,-0.79083 0,-0.3108 0.28854,-0.38675 0.6412,-0.16875 0.43681,0.26996 0.50934,-0.0191 0.22752,-0.90708 -0.28179,-0.88789 -0.20926,-1.17703 0.22755,-0.90708 0.4516,0.27912 0.64119,-1.22669 0.64119,-5.0925 0,-6.8823 0.53463,-8.65588 1.50829,-5.00368 l 0.69462,2.60552 0.11621,-2.6062 c 0.11487,-2.57609 0.12145,-2.58403 0.57054,-0.68646 0.24993,1.05588 0.44217,5.55329 0.4272,9.9943 -0.0152,4.44099 0.10169,8.20346 0.25933,8.36104 0.81732,0.81733 93.49125,1.43051 95.90222,0.63452 0.72134,-0.23815 1.16088,-0.67668 0.97682,-0.97454 -0.1841,-0.29785 0.0726,-0.6979 0.57074,-0.88899 0.49799,-0.19109 0.90544,-0.84082 0.90544,-1.4438 0,-0.60299 0.39092,-1.09635 0.86874,-1.09635 1.02736,0 1.00197,-0.16739 0.32999,2.17565 l -0.53872,1.87843 3.07738,0 c 2.70178,0 3.12001,-0.15911 3.42658,-1.3031 0.54922,-2.04937 0.42323,-5.54244 -0.21411,-5.93634 -0.58934,-0.36423 -0.79344,0.35752 -0.61121,2.16138 0.0557,0.55168 -0.16689,1.46385 -0.49485,2.02704 -0.46956,0.80649 -0.59993,0.43581 -0.6138,-1.74518 -0.0101,-1.72347 0.26113,-2.87611 0.72054,-3.05241 0.54878,-0.2106 0.69065,-1.80296 0.55303,-6.20774 -0.17065,-5.46269 0.35524,-8.23564 1.36953,-7.22135 0.2239,0.2239 0.53482,5.4939 0.69091,11.71113 0.27065,10.77918 0.23303,11.30708 -0.80996,11.36935 -3.8812,0.23173 -236.97938,0.16989 -298.77956,-0.0792 z M 47.489812,507.7118 c 2.548289,-0.26497 4.062222,-0.51643 3.364325,-0.55879 -0.697915,-0.0424 -1.432619,-0.34192 -1.632697,-0.66564 -0.200077,-0.32374 -0.606397,-0.43867 -0.902907,-0.2554 -0.296544,0.18326 -0.539137,-0.40578 -0.539137,-1.30895 0,-1.5662 -0.10709,-1.63196 -2.313398,-1.42154 -1.272371,0.12128 -2.160009,0.4688 -1.972516,0.77215 0.187477,0.30335 0.181058,1.18829 -0.01351,1.96652 -0.257237,1.02486 -0.751274,1.41497 -1.791998,1.41497 -0.790276,0 -1.436858,0.26558 -1.436858,0.5902 0,0.3246 0.586398,0.44574 1.303096,0.26921 0.716698,-0.17653 3.388057,-0.53777 5.936346,-0.80273 z m 65.444548,-0.34848 c 0.31853,-0.10777 -0.54387,-0.21648 -1.91644,-0.24163 -2.85307,-0.0524 -2.83385,-1.20403 0.0201,-1.20403 0.9899,0 1.6029,-0.19547 1.36225,-0.43436 -0.54582,-0.54189 -12.492549,-0.5804 -12.495069,-0.0404 -8.4e-4,0.21675 0.584559,0.50311 1.301259,0.63636 1.09819,0.20419 0.98436,0.32435 -0.72395,0.76423 -1.844949,0.47507 -1.636849,0.54796 2.31663,0.81153 4.11482,0.27431 8.86602,0.13749 10.13522,-0.2918 z m 154.82721,-3.32848 c 0.10607,-2.30877 0.0765,-4.06758 -0.0655,-3.90846 -0.48897,0.54749 -1.0277,8.10789 -0.57768,8.10706 0.24778,-4.7e-4 0.53726,-1.88983 0.64327,-4.1986 z m 57.76564,3.62818 c 0.98644,-0.007 1.18484,-0.34443 1.10974,-1.89015 -0.0868,-1.78757 -0.20556,-1.88225 -2.35953,-1.88225 -2.68901,0 -3.01577,0.32627 -2.67205,2.66815 0.21689,1.4778 0.46468,1.71761 1.49039,1.44233 0.67663,-0.18158 1.7708,-0.33372 2.43145,-0.33808 z m -2.93866,-2.32451 c -0.19687,-0.31855 -0.0819,-0.57917 0.25539,-0.57917 0.33732,0 0.61334,0.26062 0.61334,0.57917 0,0.31853 -0.11503,0.57915 -0.25541,0.57915 -0.14053,0 -0.41645,-0.26062 -0.61332,-0.57915 z m 57.46477,-3.05349 c -0.12786,-1.02814 -0.23051,-0.0449 -0.22794,2.18475 0.002,2.22974 0.10726,3.07094 0.23262,1.86933 0.12534,-1.20162 0.12331,-3.02594 -0.005,-4.05408 z m -115.40855,3.19828 c -0.20317,-1.801 -0.15743,-1.92463 0.26827,-0.72396 0.46077,1.29985 0.51981,1.21104 0.57736,-0.86872 0.0353,-1.27414 0.18752,-3.35911 0.3384,-4.63325 l 0.2743,-2.31662 -0.58525,2.28758 c -0.3219,1.2582 -0.96342,2.70548 -1.42563,3.21623 -1.03431,1.14286 -0.98819,5.21056 0.0591,5.21056 0.51081,0 0.66295,-0.66957 0.49348,-2.17182 z m 110.78066,1.77048 c -0.56349,-0.14679 -1.34536,-0.13716 -1.73746,0.0214 -0.39211,0.15861 0.0689,0.27879 1.02454,0.26698 0.95561,-0.0118 1.27643,-0.14154 0.71292,-0.28843 z m 2.82235,-1.17927 c -0.19244,-0.19244 -0.32933,0.14966 -0.30418,0.76015 0.0279,0.67467 0.16503,0.81191 0.3499,0.3499 0.16723,-0.41808 0.14679,-0.9176 -0.0456,-1.11005 z m -252.28243,0.41141 c 0.89947,-0.29479 0.13159,-0.35215 -2.02705,-0.15134 -1.9112,0.17773 -3.58351,0.41724 -3.71624,0.53227 -0.46718,0.40489 4.31309,0.0878 5.74329,-0.38088 z m 205.58332,-0.54567 c 0.46858,-0.29634 0.70135,-0.68942 0.51727,-0.8735 -0.45624,-0.45624 -2.23795,0.27051 -2.23795,0.91284 0,0.66011 0.63775,0.64553 1.72068,-0.0394 z m -208.3343,-0.40418 c -0.48341,-0.19504 -0.7269,-1.67124 -0.73281,-4.44273 -0.003,-2.28284 -0.22795,-4.49614 -0.49569,-4.91846 -0.58627,-0.92473 -4.6379,-1.54768 -6.6999,-1.03015 -0.93759,0.23531 -1.48288,0.77523 -1.48288,1.46821 0,1.09429 0.82732,1.2642 2.1452,0.44058 0.38352,-0.23969 1.37389,-0.26599 2.2008,-0.0584 2.01191,0.50495 1.67437,2.00338 -0.72109,3.20117 -1.03052,0.51529 -2.26769,1.26391 -2.74929,1.66359 -0.70258,0.58311 -1.05005,0.58194 -1.75835,-0.005 -0.48549,-0.40293 -1.05019,-0.56515 -1.25484,-0.3605 -0.20466,0.20466 -0.0527,0.37212 0.33776,0.37212 0.39042,0 0.53807,0.27794 0.32811,0.61768 -0.68364,1.10614 1.69043,2.23862 4.94663,2.35963 l 3.18535,0.11841 -3.7645,0.37926 c -3.64186,0.36686 -3.58524,0.38098 1.73746,0.43346 3.02609,0.0299 5.1762,-0.0772 4.77804,-0.23788 z m -72.911312,-2.44995 c -0.269484,-0.34213 -1.94451,1.16201 -1.94451,1.74613 0,0.27953 0.477805,0.0522 1.061788,-0.50529 0.583982,-0.55743 0.981198,-1.11582 0.882722,-1.24084 z m -8.206638,0.12128 c -0.418077,-0.16722 -0.917586,-0.14678 -1.110029,0.0456 -0.192459,0.19244 0.149657,0.32933 0.760126,0.3042 0.674689,-0.0279 0.811931,-0.16503 0.349903,-0.34991 z m -2.489997,-0.44137 c -0.548309,-0.5483 -5.147607,-1.33064 -5.147607,-0.87559 0,0.41857 0.914191,0.62608 4.584974,1.04074 0.451268,0.051 0.704452,-0.0233 0.562633,-0.1652 z m 14.073104,-0.13783 c -0.418076,-0.16739 -0.917586,-0.14678 -1.110045,0.0456 -0.192443,0.19244 0.149657,0.32933 0.760142,0.30418 0.674689,-0.0279 0.811914,-0.16503 0.349903,-0.34991 z m 3.21053,-0.58488 c -0.563494,-0.14678 -1.345358,-0.13715 -1.737456,0.0215 -0.392115,0.1586 0.06892,0.27879 1.024542,0.26698 0.955608,-0.0118 1.276408,-0.14155 0.712914,-0.28844 z M 39.40545,500.74573 c -0.209959,-0.33971 -1.08307,-0.60592 -1.940253,-0.59156 l -1.558493,0.0262 1.737473,0.76046 c 1.881471,0.82349 2.358127,0.7707 1.761273,-0.19501 z m 78.74131,-1.78269 c 0.89058,-0.008 0.97258,-0.12871 0.35477,-0.51991 -1.00228,-0.63473 -4.07047,0.58334 -4.81341,1.91095 -0.44387,0.79313 -0.20425,0.75667 1.38167,-0.21023 1.05525,-0.64338 2.4399,-1.17474 3.07697,-1.18081 z m -9.55607,1.16501 c -0.79634,-0.25502 -2.22975,-0.45537 -3.18536,-0.44518 -1.68376,0.0179 -1.67479,0.0317 0.28959,0.44518 2.88927,0.60817 4.79478,0.60817 2.89577,0 z m 272.0037,-2.47243 c -0.15861,-0.39211 -0.27879,0.0689 -0.267,1.02454 0.0118,0.95561 0.14154,1.27643 0.28845,0.71292 0.14678,-0.5635 0.13716,-1.34536 -0.0215,-1.73746 z m -181.81763,-7.95235 c 7.64486,0 8.33882,-0.0862 8.16207,-1.01353 -0.10624,-0.55743 -0.79191,-1.09878 -1.52371,-1.20297 -1.11455,-0.15861 -1.30163,-0.48713 -1.15239,-2.0232 0.14121,-1.45418 0.73283,-2.1958 2.8577,-3.58272 l 2.67959,-1.74895 -4.32227,0.21826 c -2.68924,0.13581 -4.56592,-0.0253 -4.96722,-0.42672 -1.1102,-1.1102 -3.71779,-0.78019 -4.05606,0.51334 -0.42613,1.62957 -3.1871,1.58365 -3.7963,-0.0632 -0.40764,-1.10197 -0.75705,-0.84527 -3.572,2.62422 -1.71609,2.11511 -3.71964,3.99612 -4.45231,4.18 -0.95166,0.23886 -1.33215,0.75354 -1.33215,1.80196 0,1.4519 0.0382,1.46364 3.55989,1.09552 1.95794,-0.20463 7.31976,-0.37206 11.91516,-0.37206 z m -43.97657,-1.81665 c -0.14459,-0.43376 -0.40712,-0.17124 -0.61192,0.61189 -0.2519,0.96335 -0.17653,1.18947 0.25323,0.75969 0.33656,-0.33654 0.49796,-0.95375 0.35869,-1.37158 z m 29.51557,-4.93173 c 2.08479,-1.70834 2.41039,-2.21075 1.6929,-2.61228 -0.9432,-0.52785 -3.86526,0.48928 -3.86526,1.34543 0,0.26741 -0.26979,0.4862 -0.59954,0.4862 -0.32973,0 -1.25745,0.4311 -2.0616,0.95797 -1.10357,0.7231 -1.27608,1.07594 -0.70357,1.43902 1.45878,0.92516 2.97601,0.48225 5.53707,-1.61634 z m 28.79433,0.19053 c -0.31215,-0.89083 1.236,-2.91915 1.9101,-2.50255 0.28664,0.17716 0.52116,-0.0574 0.52116,-0.52116 0,-0.46378 -0.20533,-0.84325 -0.4563,-0.84325 -0.78551,0 -3.30112,2.80409 -2.90895,3.24252 0.20513,0.22934 -0.0831,0.25331 -0.64057,0.0534 -1.19751,-0.4297 -1.2544,-0.19085 -0.31345,1.31585 0.50103,0.80227 0.90292,0.95267 1.41346,0.52897 0.39237,-0.32563 0.60591,-0.89879 0.47455,-1.27367 z m 9.34531,-4.30743 c -0.88262,-0.20586 -0.93932,-0.35778 -0.28957,-0.77568 0.52323,-0.33653 0.17398,-0.39828 -0.99089,-0.1752 -1.36527,0.26144 -1.88926,0.10912 -2.17372,-0.63223 -0.20615,-0.53721 -0.24657,-1.18419 -0.0899,-1.43777 0.15676,-0.25358 -0.23337,-0.5966 -0.86686,-0.76225 -1.36081,-0.35587 -1.44599,0.24035 -0.33863,2.3701 0.68534,1.31808 1.2088,1.57218 3.33013,1.61648 1.38435,0.0289 2.02307,-0.0627 1.41939,-0.20345 z m -23.85933,-2.16574 c -0.52179,-0.79632 -1.1915,-1.44789 -1.48828,-1.44789 -0.63719,0 1.33366,2.85094 1.98924,2.87759 0.24626,0.0101 0.0208,-0.63334 -0.50096,-1.4297 z m 10.78672,-1.1583 c 0.78591,-1.07143 0.77363,-1.0987 -0.16385,-0.36345 -0.55743,0.43716 -1.01353,1.06701 -1.01353,1.39963 0,0.33261 0.0738,0.49616 0.16385,0.36345 0.0902,-0.13277 0.54623,-0.76256 1.01353,-1.39963 z m -34.60732,0.21901 c -0.35735,-0.35735 -0.52792,-0.96714 -0.37904,-1.3551 0.14881,-0.38795 -0.18093,-1.0729 -0.73287,-1.52211 -0.88638,-0.7214 -0.96001,-0.70059 -0.6308,0.17825 0.20501,0.54723 0.13648,1.14093 -0.15202,1.31931 -0.75673,0.46771 -1.8047,-1.76453 -1.3656,-2.90885 0.32746,-0.85331 0.22596,-0.87714 -0.85635,-0.20124 -0.79759,0.49812 -1.02997,0.96466 -0.66312,1.33149 0.31058,0.31058 0.56469,1.03382 0.56469,1.60719 0,0.63224 0.45581,1.07096 1.15831,1.11486 1.88277,0.11773 2.19796,0.19504 2.65446,0.65157 0.23891,0.23889 0.57336,0.43436 0.74326,0.43436 0.16987,0 0.0169,-0.29238 -0.34085,-0.64973 z m 36.793,-0.81348 c -0.17832,-0.17832 -0.50216,0.14307 -0.71965,0.71428 -0.3143,0.82541 -0.24778,0.89194 0.32421,0.32421 0.39581,-0.39286 0.57374,-0.86019 0.39544,-1.03849 z m -32.61043,0.30488 c -0.19687,-0.31851 -0.60317,-0.57915 -0.90291,-0.57915 -0.29973,0 -0.54498,0.26064 -0.54498,0.57915 0,0.31854 0.40632,0.57917 0.90291,0.57917 0.49662,0 0.74185,-0.26063 0.54498,-0.57917 z m -2.31662,-0.57915 c -0.19687,-0.31852 -0.47286,-0.57915 -0.61334,-0.57915 -0.14054,0 -0.2554,0.26063 -0.2554,0.57915 0,0.31854 0.27602,0.57915 0.61334,0.57915 0.33734,0 0.45226,-0.26061 0.2554,-0.57915 z m 4.45226,0.18353 c -0.41808,-0.16723 -0.91761,-0.14679 -1.11005,0.0458 -0.19244,0.19246 0.14966,0.32933 0.76014,0.3042 0.67469,-0.0279 0.81192,-0.16503 0.34991,-0.34991 z m 2.3802,-0.7793 c 0.16898,-0.64621 0.52515,-1.10229 0.79148,-1.01351 0.26634,0.0887 0.54938,-0.0341 0.62903,-0.27297 0.16807,-0.50405 0.23588,-0.50119 -1.44789,-0.0608 -0.76947,0.20122 -1.3031,0.78745 -1.3031,1.43153 0,1.45502 0.94357,1.39533 1.33048,-0.0841 z m 1.5653,0.27202 c 0,-0.14054 -0.26063,-0.2554 -0.57915,-0.2554 -0.31854,0 -0.57915,0.276 -0.57915,0.61334 0,0.33734 0.26061,0.45227 0.57915,0.2554 0.31852,-0.19687 0.57915,-0.47287 0.57915,-0.61334 z m 15.63719,-0.83455 c 0,-0.31854 -0.45608,-0.57517 -1.01353,-0.57029 -0.86615,0.007 -0.8872,0.0905 -0.14476,0.57029 1.09297,0.70634 1.1583,0.70634 1.1583,0 z m 7.81859,0 c -0.19687,-0.31854 -0.79864,-0.56084 -1.33728,-0.53845 -0.79837,0.0333 -0.7653,0.1326 0.17898,0.53845 1.54976,0.66596 1.56989,0.66596 1.1583,0 z m -11.44934,-0.40136 c -0.5635,-0.14678 -1.34536,-0.13715 -1.73746,0.0215 -0.39211,0.15861 0.0689,0.27879 1.02454,0.26698 0.95561,-0.0118 1.27643,-0.14155 0.71292,-0.28845 z m 21.43977,0.002 c -0.55745,-0.1456 -1.46961,-0.1456 -2.02704,0 -0.55745,0.14561 -0.10135,0.26486 1.01351,0.26486 1.11488,0 1.57096,-0.11925 1.01353,-0.26486 z m -44.18533,-2.53656 c -0.18325,-0.29653 -0.64359,-0.51857 -1.02295,-0.49341 -0.4937,0.0328 -0.48296,0.12905 0.0378,0.33904 0.40015,0.16131 0.55535,0.57195 0.34486,0.9125 -0.22808,0.36904 -0.10878,0.44987 0.29543,0.20008 0.37295,-0.23048 0.52814,-0.66169 0.34487,-0.95821 z m 315.66053,38.93581 c -0.10861,-0.10844 -0.20555,-5.19054 -0.2154,-11.29352 -0.021,-12.94517 0.73705,-12.84021 1.32965,0.18411 0.22432,4.93012 0.51471,9.07072 0.64533,9.20132 0.13057,0.13057 5.52265,0.26305 11.98228,0.2943 8.46403,0.0409 12.22675,-0.15321 13.47021,-0.69493 1.168,-0.50887 1.79167,-0.55293 1.93052,-0.13648 0.11283,0.3384 0.85029,0.61528 1.6389,0.61528 0.80838,0 1.27767,-0.25261 1.07587,-0.57915 -0.19687,-0.31854 0.0637,-0.57915 0.57915,-0.57915 0.51539,0 0.77602,0.26061 0.57915,0.57915 -0.63325,1.02463 1.85295,0.6165 3.26599,-0.53613 1.19722,-0.97659 1.24685,-1.16219 0.39899,-1.49248 -0.53255,-0.20746 -1.50987,-0.0873 -2.17184,0.26693 -0.75193,0.40242 -1.20355,0.42806 -1.20355,0.0682 0,-0.34316 -1.77862,-0.52054 -4.40187,-0.439 -3.5675,0.11081 -4.55549,0.34691 -5.21239,1.24529 -0.94024,1.28584 -1.09787,0.18949 -0.211,-1.4676 0.51447,-0.96132 1.27446,-1.12693 5.35717,-1.16747 4.71322,-0.0468 4.73931,-0.0552 2.79431,-0.90349 -2.90388,-1.26642 -1.56876,-2.09067 2.222,-1.37176 3.55679,0.67453 15.49328,0.69686 20.59094,0.0385 1.91121,-0.24684 3.60482,-0.33384 3.7636,-0.19337 0.61673,0.5457 -2.04995,1.89819 -3.74267,1.89819 -1.68981,0 -1.78472,0.1206 -1.78472,2.26875 l 0,2.26878 2.61935,0.2297 c 6.23115,0.54642 25.76303,0.46017 24.91684,-0.10996 -0.58381,-0.3934 -0.63131,-0.58829 -0.14475,-0.59425 0.39817,-0.005 0.72394,-0.40898 0.72394,-0.89798 0,-1.06625 1.67629,-3.74414 2.34372,-3.74414 0.53108,0 0.3546,2.064 -0.31165,3.6447 -0.54239,1.28688 -0.49643,1.32519 2.1668,1.80669 2.41948,0.43742 2.32289,0.62287 2.1777,-4.1813 -0.051,-1.69047 0.15928,-3.38449 0.46745,-3.7645 0.3082,-0.38002 0.70477,-1.21219 0.88125,-1.84924 0.1765,-0.63709 0.17352,0.79632 -0.007,3.18534 -0.51344,6.81039 -0.40863,7.38007 1.24124,6.74695 0.95522,-0.36654 0.95842,-1.31322 0.065,-19.19877 -0.31798,-6.3664 -0.27599,-6.804 0.50021,-5.21242 0.466,0.95562 0.85908,2.97542 0.87344,4.48846 0.0152,1.51305 0.29855,2.751 0.63149,2.751 0.36911,0 0.46803,-0.73466 0.25344,-1.88227 -0.19359,-1.03523 -0.11722,-2.51513 0.16954,-3.28867 0.53101,-1.43201 0.84568,1.45941 1.79185,16.46446 l 0.36515,5.79155 8.18502,0.1603 c 7.38765,0.14459 8.22574,0.06 8.60265,-0.86873 0.43761,-1.0785 0.57552,-2.91793 1.1955,-15.94482 0.20856,-4.38128 0.62861,-8.12012 0.93348,-8.30854 0.34761,-0.21486 0.42985,1.99958 0.2206,5.9389 -0.18354,3.45482 -0.44757,9.08317 -0.5868,12.50743 l -0.25303,6.22591 1.5106,0 c 1.3974,0 1.44281,-0.076 0.60564,-1.01353 -0.71867,-0.80482 -0.91738,-2.62333 -0.96512,-8.8321 -0.0331,-4.30022 0.18111,-8.60046 0.4759,-9.55607 0.38358,-1.24345 0.55015,0.83594 0.58575,7.31333 0.0422,7.71978 0.19235,9.16766 1.01897,9.84563 0.87256,0.71562 0.92468,0.65052 0.52297,-0.65303 -0.24543,-0.79634 -0.41669,-1.83882 -0.38061,-2.31663 0.036,-0.4778 0.18238,-2.78551 0.32519,-5.12825 0.27337,-4.48506 0.82982,-5.66512 3.07381,-6.51828 1.38534,-0.52672 3.36126,0.1027 3.253,1.03623 -0.0937,0.80892 2.2594,3.66044 3.02075,3.66044 0.39644,0 0.89795,0.5864 1.11448,1.3031 0.69175,2.28992 3.27378,4.5853 4.74306,4.21654 0.89415,-0.22443 1.31201,-0.0718 1.31201,0.47955 0,0.94471 -1.40029,2.25314 -1.88863,1.76478 -0.18376,-0.18378 -0.61008,0.18148 -0.94738,0.8117 -0.70332,1.31412 -4.35907,1.90366 -7.51025,1.21114 -1.64433,-0.36138 -1.99451,-0.2525 -2.24289,0.69752 -0.27957,1.06902 -0.33371,1.07398 -1.07365,0.0988 -0.70367,-0.9274 -0.78105,-0.9334 -0.79767,-0.0617 -0.0101,0.53088 -0.31024,1.06252 -0.66689,1.18143 -0.71398,0.23798 5.54327,0.64321 10.38825,0.67273 2.07257,0.0118 3.25612,-0.25587 3.61971,-0.82117 0.46969,-0.73031 0.61467,-0.72654 1.11053,0.0287 0.48823,0.74372 0.57157,0.72288 0.57917,-0.14476 0.005,-0.65615 -0.45064,-1.02733 -1.29424,-1.05272 l -1.3031,-0.0392 1.28931,-0.62231 c 1.4622,-0.70577 3.31561,0.34291 2.83223,1.60253 -0.43777,1.14079 2.07559,1.28906 23.29838,1.37445 15.97532,0.0642 19.83804,-0.0664 19.62208,-0.66376 -0.1478,-0.40908 0.0429,-1.13471 0.42439,-1.6125 0.38126,-0.47782 1.00931,-1.97638 1.39555,-3.33015 0.76796,-2.69146 2.09259,-3.49086 1.43954,-0.86874 -0.34424,1.38212 -0.27955,1.49625 0.48927,0.86323 0.75249,-0.61952 0.86538,-0.53226 0.74913,0.57915 -0.0753,0.71974 -0.17009,1.63439 -0.21075,2.03255 -0.13091,1.28279 -1.23192,0.76905 -1.24107,-0.57915 -0.007,-1.05373 -0.11638,-1.13685 -0.57029,-0.43436 -0.88218,1.36505 -0.68073,2.15496 0.63741,2.49966 0.66917,0.17499 1.04654,0.59334 0.83867,0.92966 -0.23483,0.37995 -0.0152,0.47237 0.57963,0.24405 0.70911,-0.27212 0.90434,-0.0912 0.75244,0.69764 -0.19656,1.02059 -1.97209,1.07214 -42.48186,1.23347 -23.2522,0.0926 -43.48313,0.0221 -44.95766,-0.15658 l -2.68092,-0.32494 -0.58489,-9.07698 -0.58488,-9.07699 0.0804,9.26648 0.0804,9.26648 -45.94599,0 c -25.2703,0 -46.03487,-0.0887 -46.1435,-0.19717 z m 46.82893,-3.27794 c -0.0476,-0.95561 -0.11266,-1.94997 -0.14476,-2.20969 -0.0441,-0.35659 -3.9921,-0.26475 -5.77599,0.13429 -0.11858,0.0265 0.0441,0.37404 0.36155,0.7722 0.31749,0.39818 0.47918,1.32465 0.35926,2.05885 -0.20516,1.25632 -0.0561,1.32448 2.53422,1.1583 2.65511,-0.17035 2.74916,-0.23786 2.66575,-1.91404 z m 3.85096,-0.28959 c 0.7025,-0.45397 0.61937,-0.5631 -0.43436,-0.57028 -0.71671,-0.005 -1.30309,0.25175 -1.30309,0.57028 0,0.72565 0.6146,0.72565 1.73745,0 z m 68.31791,-4.09602 c -0.89399,-1.67039 -1.33194,-1.01084 -0.83404,1.25604 0.33747,1.53657 0.50907,1.70266 0.94831,0.91782 0.3435,-0.61384 0.30242,-1.39517 -0.11418,-2.17386 z m 7.08087,1.96294 c -0.41809,-0.16739 -0.91762,-0.14678 -1.11006,0.0456 -0.19246,0.19244 0.14965,0.32933 0.76012,0.30418 0.67473,-0.0279 0.81193,-0.16503 0.34994,-0.34991 z m -4.49569,-1.84629 c -0.61322,-0.59597 -1.24478,-0.96559 -1.40353,-0.82137 -0.15878,0.14425 0.21678,0.63184 0.83462,1.08359 1.58533,1.1592 1.88787,1.01977 0.56891,-0.26222 z m 3.41053,-1.20419 c -1.01492,-0.61883 -2.14363,-1.68266 -2.50833,-2.36406 -0.36468,-0.68139 -0.79332,-1.10859 -0.9526,-0.94932 -0.55164,0.55165 0.99883,2.68754 2.56979,3.54007 2.32744,1.26305 3.03795,1.08231 0.89114,-0.22669 z m -5.28068,-2.20067 c -0.1679,-0.87597 -0.41688,-1.2583 -0.55351,-0.84962 -0.24636,0.73697 0.19437,2.4423 0.63111,2.4423 0.12516,0 0.0902,-0.7167 -0.0775,-1.59268 z m 4.33706,-1.86085 c -0.79414,-0.94383 -1.56349,-2.05148 -1.7096,-2.4614 -0.14611,-0.40995 -0.42453,-0.60053 -0.61861,-0.42351 -0.34651,0.31607 2.88819,4.60098 3.4733,4.60098 0.16436,0 -0.3509,-0.77223 -1.14509,-1.71607 z m -2.94228,-1.60112 c -0.19246,-0.19246 -0.32936,0.14965 -0.30423,0.76012 0.0279,0.67469 0.16503,0.81193 0.34992,0.34992 0.16723,-0.41809 0.14679,-0.9176 -0.0458,-1.11004 z m -0.97866,-2.1839 c 0.0174,-0.31855 -0.22077,-0.18823 -0.52958,0.28957 -0.30881,0.47781 -0.54708,1.25967 -0.52958,1.73747 0.0336,0.91729 0.99887,-0.93 1.05916,-2.02704 z m 64.18001,16.70518 c 0.39208,-0.15861 1.17395,-0.16824 1.73746,-0.0215 0.56347,0.14678 0.24267,0.27663 -0.71294,0.28843 -0.9556,0.0118 -1.41667,-0.10827 -1.02452,-0.26698 z M 87.163101,506.64389 c 5.7e-4,-0.23891 0.79185,-0.48976 1.75823,-0.55748 1.00573,-0.0704 1.60976,0.11537 1.41257,0.43438 -0.40379,0.65332 -3.17249,0.76084 -3.1708,0.12314 z m 219.168349,-1.1583 c 0.13091,-1.22778 0.47569,-1.59268 1.5049,-1.59268 0.73431,0 1.44369,0.32577 1.57641,0.72394 0.13277,0.39817 -0.14341,0.72395 -0.61371,0.72395 -0.47027,0 -1.00505,0.39093 -1.18841,0.86872 -0.56352,1.46856 -1.45893,0.96182 -1.27919,-0.72393 z m 367.67904,0.95032 c 0.56815,-0.32744 2.58796,-0.62011 4.48846,-0.65038 2.20068,-0.0351 3.45542,-0.29862 3.45542,-0.72587 0,-0.36896 0.77461,-1.69459 1.72135,-2.94584 0.94676,-1.25126 1.72861,-2.65192 1.73748,-3.11261 0.008,-0.46068 0.62589,-1.76378 1.37125,-2.89578 2.46981,-3.75112 3.50812,-5.50391 4.9932,-8.42888 1.90907,-3.76009 3.49706,-6.08112 4.16046,-6.08112 0.2915,0 -0.26321,1.42553 -1.2326,3.16786 -0.9694,1.74232 -2.03596,3.88694 -2.37014,4.76585 -1.16971,3.0766 -0.10152,1.29891 4.56491,-7.59756 2.88273,-5.49568 1.86975,-1.55285 -1.34776,5.24616 -3.88728,8.21425 -7.90025,17.52237 -8.07764,18.73611 -0.10506,0.71883 -1.40909,0.89646 -7.31265,0.99613 -5.15298,0.087 -6.89264,-0.0471 -6.15174,-0.47407 z m 14.57219,-8.24258 c 3.16293,-6.17262 3.72994,-7.52546 2.69649,-6.43373 -0.62984,0.66535 -7.0082,12.88867 -7.0082,13.43034 0,0.97357 1.3509,-1.2185 4.31171,-6.99661 z m -207.78321,3.87061 c -0.20958,-0.20961 -0.15742,-0.66569 0.11605,-1.01353 0.27338,-0.34784 1.06705,-2.45677 1.76375,-4.68653 0.69668,-2.22975 1.51324,-4.50663 1.81455,-5.05975 0.30132,-0.55311 0.55184,-1.7259 0.55672,-2.60619 0.007,-1.24618 0.1331,-1.4082 0.57028,-0.7318 1.12263,1.73713 0.57475,4.63058 -1.76855,9.33997 -0.25784,0.51821 -0.64597,1.88647 -0.86249,3.04057 -0.36341,1.93718 -1.26411,2.64337 -2.19022,1.71726 z m 103.96969,-1.06712 c -0.0118,-0.95561 0.10827,-1.41665 0.26698,-1.02456 0.15878,0.39212 0.16824,1.17398 0.0214,1.73748 -0.14695,0.56351 -0.27666,0.24267 -0.28847,-0.71292 z m 94.22908,0.0988 c -0.55002,-1.20719 -0.55934,-1.73786 -0.0399,-2.25746 0.51963,-0.51959 0.68138,-0.4138 0.68815,0.45009 0.007,0.85444 0.13007,0.93807 0.50676,0.34357 0.33098,-0.5224 0.62543,-0.57941 0.87841,-0.1701 0.2093,0.33864 0.79866,0.45524 1.30976,0.25913 0.63313,-0.24295 0.84262,-0.0965 0.65739,0.45966 -0.14949,0.44892 -0.77143,0.91154 -1.38215,1.02803 -0.61065,0.11655 -1.28786,0.49381 -1.50488,0.83851 -0.23298,0.37011 -0.68901,-0.0196 -1.11366,-0.95143 z m 12.33113,-2.16015 c 0.96448,-1.93003 1.88256,-3.38013 2.04025,-3.22243 0.43653,0.43648 -2.58296,6.7316 -3.22884,6.7316 -0.31071,0 0.22413,-1.57913 1.18859,-3.50917 z m -117.93863,1.04775 c 0.22528,-1.03525 0.76723,-2.39631 1.20433,-3.02464 0.4371,-0.62832 0.79474,-2.11149 0.79474,-3.29596 0,-1.18445 0.21607,-2.28712 0.48017,-2.45034 0.26411,-0.16317 0.8248,-1.73332 1.24602,-3.4891 0.4212,-1.75578 0.98697,-3.05564 1.25728,-2.88858 0.85296,0.52716 0.55723,5.25135 -0.37728,6.02693 -0.47781,0.39654 -0.86744,1.14517 -0.86587,1.66359 0.002,0.86756 -1.19208,4.90204 -2.38005,8.03726 -0.78129,2.06195 -1.83627,1.61249 -1.35934,-0.57916 z m 99.87629,0.56953 c 0,-1.05162 2.2993,-7.6005 5.27751,-15.03133 3.12801,-7.80461 4.72596,-12.42928 4.05279,-11.7292 -0.29796,0.30985 -1.37101,2.77865 -2.38461,5.48621 -4.09915,10.9502 -7.616,19.0958 -8.24878,19.10547 -0.56422,0.008 -0.54812,-0.36123 0.0696,-1.59389 1.37931,-2.75315 2.97106,-6.61256 2.97106,-7.20387 0,-0.36588 0.88467,-2.50903 1.96588,-4.76254 1.08123,-2.25352 2.56243,-6.11708 3.29152,-8.58574 1.12101,-3.79575 1.51779,-4.48846 2.57081,-4.48846 0.78615,0 1.25845,0.37365 1.28103,1.01353 0.0463,1.30534 -2.02363,8.2603 -2.70129,9.07684 -0.28477,0.3432 -1.09541,2.31805 -1.80135,4.38851 -0.70599,2.07049 -1.61549,4.41606 -2.02113,5.21241 -1.17575,2.30789 -3.16462,7.6128 -3.16462,8.4408 0,0.41652 -0.26062,0.91839 -0.57915,1.11526 -0.31854,0.19687 -0.57917,-0.003 -0.57917,-0.444 z m -148.69811,-0.26964 c -1.35375,-0.12195 -2.4615,-0.40218 -2.46164,-0.62276 -1.3e-4,-0.22059 5.21201,-0.40107 11.58255,-0.40107 10.89254,0 13.35403,0.25926 10.28081,1.08285 -1.36382,0.36549 -15.1543,0.32354 -19.40172,-0.0589 z m 97.17171,-1.16862 c 0.0101,-0.2389 0.4024,-0.94212 0.87176,-1.5627 0.81642,-1.07952 0.84771,-1.06072 0.724,0.43436 -0.0711,0.8595 -0.46345,1.56271 -0.87175,1.56271 -0.40831,0 -0.73413,-0.19546 -0.72401,-0.43437 z m -3.39703,-4.01772 c -2.69921,-2.76164 -2.83983,-4.23524 -0.40409,-4.23524 2.77018,0 5.47447,4.41142 3.71303,6.05682 -0.66214,0.61851 -1.22908,0.30642 -3.30894,-1.82158 z m 1.81896,-1.21818 c -0.61437,-0.82288 -1.48456,-1.61864 -1.93368,-1.76837 -0.44921,-0.14982 -0.1076,0.57054 0.75914,1.60059 0.86671,1.03006 1.59645,2.1786 1.62159,2.55234 0.0284,0.41681 0.16638,0.37642 0.35786,-0.10439 0.17166,-0.43118 -0.19056,-1.45723 -0.80491,-2.2801 z m 73.95406,-1.56375 c 0,-0.52836 1.72983,-3.76993 2.01183,-3.76993 0.41807,0 -0.93784,3.45869 -1.48972,3.79975 -0.28715,0.17747 -0.52211,0.16401 -0.52211,-0.0299 z m -73.56951,-1.47592 c -0.46853,-0.29635 -1.69895,-0.54281 -2.7342,-0.54769 -1.60187,-0.007 -1.88224,-0.21734 -1.88224,-1.40848 0,-0.76979 -0.32577,-1.53108 -0.72395,-1.69175 -0.39816,-0.16063 0.0255,-0.31269 0.94113,-0.33782 0.91577,-0.0252 3.26134,-0.72638 5.21239,-1.55828 4.72325,-2.01395 5.50168,-2.32187 17.44706,-6.90149 1.91121,-0.73273 4.64772,-1.87011 6.08112,-2.52752 l 2.60621,-1.19528 -5.93635,-0.0135 c -3.56297,-0.007 -5.93635,-0.24425 -5.93635,-0.59185 0,-0.31854 0.52125,-0.57917 1.15833,-0.57917 0.67484,0 1.1583,-0.3861 1.1583,-0.92504 0,-1.55293 9.27177,-9.49975 11.08358,-9.49975 1.61018,0 1.28921,0.70207 -1.05915,2.31663 -1.15831,0.79634 -3.52358,2.81468 -5.25619,4.48521 l -3.15019,3.03733 5.08469,-0.34714 c 3.30495,-0.22563 5.3825,-0.64491 5.93541,-1.19786 0.58357,-0.58358 0.97352,-0.65209 1.24165,-0.2182 0.59631,0.96481 3.79973,1.72274 4.72041,1.11683 0.65966,-0.43412 0.61309,-0.67154 -0.26293,-1.34147 -1.28497,-0.98272 -1.03838,-2.99778 0.33828,-2.76367 1.19109,0.20258 3.68366,-4.43956 2.57145,-4.78916 -1.31903,-0.41461 -11.15905,-1.0519 -17.12891,-1.10933 l -6.01709,-0.0579 -1.44789,1.89803 c -0.79634,1.04391 -1.29157,2.05433 -1.1005,2.24539 0.19106,0.19106 0.008,1.16128 -0.40357,2.15607 -1.3928,3.35455 -1.62134,4.99403 -0.69625,4.99403 0.46511,0 1.00738,0.26173 1.20504,0.58162 0.21377,0.3459 -0.41786,0.5737 -1.55849,0.56206 -2.30342,-0.0235 -10.78951,0.4248 -16.39681,0.86619 -3.87468,0.30497 -3.98066,0.28037 -2.39522,-0.5558 0.9124,-0.48119 2.99736,-0.87675 4.63323,-0.87902 1.63589,-0.002 4.75198,-0.17199 6.92456,-0.37713 l 3.95013,-0.37304 1.40706,-2.91659 c 1.67063,-3.46311 1.75744,-4.44037 0.39348,-4.42843 -0.85009,0.007 -0.87615,0.0958 -0.16165,0.54767 0.46858,0.29634 0.72922,0.63744 0.57915,0.75801 -0.48481,0.38955 -4.48967,2.16038 -4.88587,2.16038 -0.21116,0 -1.7355,0.60263 -3.38742,1.33918 -4.94957,2.20692 -8.09735,3.07031 -8.35675,2.29218 -0.16807,-0.50437 -0.58292,-0.51288 -1.63484,-0.0336 -0.77531,0.35325 -1.40959,0.80869 -1.40959,1.01209 0,1.09081 -5.35477,1.71955 -19.69129,2.3121 -8.75973,0.36206 -21.26948,0.90819 -27.79945,1.21366 -6.52997,0.30544 -15.25838,0.55454 -19.39645,0.55352 -4.13808,-8.2e-4 -12.34761,0.2525 -18.2434,0.5633 -11.31818,0.59666 -30.42327,1.36513 -58.21034,2.34143 -9.23753,0.32455 -21.22604,0.83807 -26.64114,1.14115 -5.4151,0.30308 -15.70959,0.69328 -22.87663,0.86714 -7.16705,0.17387 -15.37657,0.43837 -18.2434,0.58781 -2.86681,0.14948 -9.51262,0.41929 -14.76845,0.59964 -5.25583,0.18036 -15.02909,0.56396 -21.71833,0.85245 -6.68924,0.28852 -18.28682,0.67315 -25.77241,0.85478 -7.48558,0.18164 -18.3013,0.6027 -24.03493,0.93568 -5.73363,0.333 -15.63719,0.69967 -22.00789,0.81484 -6.37071,0.1152 -11.97404,0.2284 -12.45185,0.25163 -0.4778,0.0231 -1.7809,0.0265 -2.89578,0.007 l -2.02704,-0.0351 2.80702,-2.57532 c 1.64698,-1.51104 3.36591,-2.57531 4.15943,-2.57531 0.83181,0 1.81357,-0.64761 2.55035,-1.68234 l 1.19793,-1.68232 -2.62256,-1.53693 c -1.68553,-0.98778 -3.04055,-1.40424 -3.79247,-1.16558 -1.25825,0.39934 -3.044,-0.68234 -2.52168,-1.52748 0.17457,-0.28244 -0.0888,-0.51353 -0.58552,-0.51353 -1.32433,0 -1.15316,-2.7211 0.21732,-3.45456 0.61613,-0.3297 1.9027,-0.59949 2.85907,-0.59949 1.52888,0 1.76077,-0.2219 1.92034,-1.83765 0.0998,-1.01071 0.5275,-1.95135 0.95042,-2.0903 0.59034,-0.19398 0.70157,0.36016 0.4788,2.38581 -0.2785,2.53268 -0.20482,2.69161 1.83727,3.96338 3.22876,2.0108 3.56439,1.97374 0.82207,-0.0909 -2.65212,-1.99667 -2.73484,-2.93371 -0.25319,-2.86889 1.12829,0.0296 1.29276,0.14932 0.59579,0.43436 -0.79679,0.32582 -0.62594,0.64317 0.9915,1.84154 1.40114,1.03813 1.87327,1.77572 1.66821,2.60621 -0.15726,0.63708 0.28806,0.11588 0.98964,-1.15832 1.57804,-2.86576 1.76122,-4.51982 0.55419,-5.00381 -0.71121,-0.28517 -0.52377,-0.53121 0.81326,-1.06758 l 1.73748,-0.69698 -2.6011,-0.97408 c -1.46724,-0.54945 -2.68407,-1.40506 -2.79149,-1.9628 -0.17382,-0.90264 0.0274,-0.88987 2.31151,0.14662 1.37605,0.62447 2.98838,1.14112 3.58295,1.14812 0.88681,0.0101 1.01057,0.29887 0.68884,1.6054 -0.2157,0.87598 -0.54516,2.36993 -0.73215,3.31993 -0.18699,0.95 -0.84532,2.62702 -1.46297,3.72671 l -1.12304,1.99944 1.64288,5.16938 1.64287,5.16938 7.23944,-0.36085 c 3.98169,-0.19847 14.14586,-0.61263 22.58706,-0.92034 17.75643,-0.64731 41.57529,-1.54711 62.25917,-2.35192 7.96339,-0.30986 22.03687,-0.81408 31.2744,-1.12047 18.14946,-0.60201 40.93402,-1.50198 50.67608,-2.00171 6.23496,-0.31982 16.40038,-0.65523 36.77634,-1.21347 6.37073,-0.17453 13.14684,-0.43252 15.05806,-0.57327 1.9112,-0.14071 10.90259,-0.51868 19.98085,-0.8398 9.07825,-0.32114 23.41235,-0.84234 31.85353,-1.15824 8.44119,-0.3159 20.03877,-0.74708 25.77241,-0.95819 9.0866,-0.33458 10.79649,-0.55216 13.32058,-1.69501 1.59266,-0.72114 5.63228,-2.39804 8.97689,-3.72642 3.34463,-1.3284 6.99331,-2.80658 8.10818,-3.28487 1.11488,-0.47828 2.85298,-1.22452 3.8625,-1.65832 1.00953,-0.4338 2.18562,-1.51969 2.61361,-2.41309 l 0.77815,-1.62437 12.97789,-0.15608 c 8.19934,-0.0986 13.25496,-0.38605 13.73031,-0.78054 0.41382,-0.34344 2.37686,-3.27029 4.36238,-6.50415 1.98546,-3.23386 3.84316,-6.04122 4.12817,-6.2386 0.28494,-0.19739 2.38206,-0.6658 4.66017,-1.04091 2.2781,-0.37512 4.72845,-0.82828 5.44515,-1.00702 0.71672,-0.17873 1.3031,-0.0645 1.3031,0.2536 0,0.59169 -2.1829,1.10057 -7.13605,1.66359 -2.72123,0.30932 -2.85882,0.42102 -5.39797,4.38233 -1.43306,2.23572 -2.83235,4.62004 -3.10954,5.2985 -0.27719,0.67847 -1.03895,2.01543 -1.69286,2.97104 -0.65388,0.95561 -1.19226,2.25871 -1.19631,2.89578 -0.005,0.63705 -0.40136,1.91378 -0.88286,2.83715 -0.48157,0.92336 -0.74915,1.80527 -0.59457,1.95981 0.15455,0.15455 -0.2419,0.94568 -0.88095,1.7581 -0.81459,1.03555 -1.05713,1.95417 -0.81139,3.07306 0.39944,1.81856 -0.37877,2.36514 -6.78644,4.76636 -2.00977,0.75315 -7.90198,3.0958 -13.09376,5.2059 -5.19178,2.11009 -9.62232,3.78405 -9.84564,3.71992 -0.22332,-0.0642 -1.26691,0.192 -2.31905,0.56918 -1.63589,0.58644 -1.82759,0.84541 -1.32349,1.78737 0.32427,0.60586 0.42497,1.26614 0.22378,1.4673 -0.58507,0.58511 -2.48926,0.42184 -2.48926,-0.21344 0,-0.31854 0.44305,-0.57915 0.98456,-0.57915 0.73778,0 0.81886,-0.1657 0.32341,-0.66119 -0.49553,-0.49548 -1.1889,-0.41078 -2.76663,0.33791 -1.95304,0.92675 -2.0289,1.05508 -1.04827,1.77215 1.22549,0.89608 0.86444,1.64832 -0.40565,0.84514 z m -0.56236,-2.87316 c 0.4778,-0.30879 0.60812,-0.56142 0.28958,-0.56142 -0.31854,0 -0.97008,0.25263 -1.44789,0.56142 -0.4778,0.30879 -0.60812,0.56141 -0.28958,0.56141 0.31855,0 0.97008,-0.25262 1.44789,-0.56141 z m -329.53932,-2.3508 c 0,-0.33734 -0.32578,-0.42941 -0.72396,-0.20462 -0.54621,0.30838 -0.56266,0.23369 -0.0671,-0.30423 0.70729,-0.76759 0.37766,-3.10278 -0.37253,-2.63915 -0.24895,0.15388 -0.60726,-0.12314 -0.79626,-0.61574 -0.22423,-0.58435 -0.11047,-0.75142 0.32732,-0.48082 0.45438,0.28083 0.54571,0.0883 0.28295,-0.59645 -0.21341,-0.55611 -0.388,-1.1201 -0.388,-1.25332 0,-0.13327 -0.36519,-0.2422 -0.81152,-0.2422 -0.44635,0 -1.3534,0.91838 -2.01567,2.04084 -0.66228,1.12247 -1.59868,2.19227 -2.08093,2.37731 -0.48223,0.18505 -0.71458,0.59892 -0.51633,0.91968 0.19824,0.32077 8.3e-4,0.8107 -0.43769,1.08875 -0.4977,0.31524 0.78249,0.50888 3.40073,0.51441 2.57472,0.005 4.19887,-0.22837 4.19887,-0.60446 z m 337.43651,-0.88662 1.65887,-0.92078 -2.00891,0.35249 c -1.10498,0.19387 -2.26474,0.60822 -2.57724,0.92079 -0.91889,0.91882 1.0679,0.67959 2.92728,-0.3525 z m 3.68591,-1.39583 c 0.47781,-0.30878 0.60812,-0.56142 0.28959,-0.56142 -0.31854,0 -0.97009,0.25264 -1.44789,0.56142 -0.4778,0.30879 -0.60812,0.56141 -0.28958,0.56141 0.31853,0 0.9701,-0.25262 1.44788,-0.56141 z m 4.06643,-1.52039 c 1.29377,-0.51768 2.2492,-1.04435 2.12319,-1.17041 -0.12601,-0.12601 -1.37487,0.27909 -2.77502,0.90032 -3.10064,1.37563 -2.61456,1.57704 0.65183,0.27009 z m 4.6209,-1.95454 c 0.47781,-0.30878 0.60813,-0.56142 0.28959,-0.56142 -0.31854,0 -0.97009,0.25264 -1.44789,0.56142 -0.4778,0.30879 -0.60812,0.56141 -0.28958,0.56141 0.31853,0 0.97008,-0.25262 1.44788,-0.56141 z m 8.20658,-3.24312 c 3.08017,-1.22654 5.47551,-2.43202 5.32295,-2.67884 -0.37124,-0.60072 -3.11111,-0.49863 -4.55261,0.16964 -0.88049,0.4082 -0.67217,0.46695 0.86874,0.24494 l 2.02704,-0.29201 -1.73748,0.87157 c -0.9556,0.47936 -3.43148,1.66018 -5.50198,2.62405 -4.76847,2.21983 -3.56701,1.90402 3.57334,-0.93935 z m -361.49125,0.0235 c 0,-0.14053 -0.26064,-0.25539 -0.57917,-0.25539 -0.31854,0 -0.57916,0.276 -0.57916,0.61334 0,0.33733 0.26062,0.45225 0.57916,0.25539 0.31853,-0.19686 0.57917,-0.47287 0.57917,-0.61334 z m -1.73748,0.0961 c 0,-0.12517 -0.40448,-0.38283 -0.89882,-0.57254 -0.5154,-0.19776 -0.74786,-0.10067 -0.54496,0.22763 0.34011,0.55032 1.44378,0.81398 1.44378,0.34491 z m -1.73747,-2.52149 c 0,-0.1697 -0.45608,-0.65477 -1.01351,-1.07793 -1.18594,-0.90026 -3.27354,-1.07255 -2.75099,-0.22706 0.19687,0.31854 0.89168,0.57916 1.54404,0.57916 0.79782,0 1.08067,0.27472 0.86404,0.83924 -0.21525,0.56093 -0.0437,0.73244 0.51719,0.5172 0.46157,-0.17714 0.83923,-0.4609 0.83923,-0.63061 z m -3.36633,0.0368 c -0.41808,-0.16723 -0.91761,-0.14679 -1.11005,0.0456 -0.19246,0.19244 0.14966,0.32933 0.76014,0.30418 0.67469,-0.0279 0.81192,-0.16503 0.34991,-0.34989 z m 336.95976,-2.5001 c 0.47778,-0.30878 0.6081,-0.5614 0.28956,-0.5614 -0.31853,0 -0.97008,0.25262 -1.44788,0.5614 -0.47781,0.30879 -0.60812,0.56143 -0.28957,0.56143 0.31852,0 0.97007,-0.25264 1.44789,-0.56143 z m 2.60207,-1.15167 c 0.20295,-0.32831 -0.0296,-0.42539 -0.54498,-0.22763 -1.00333,0.38503 -1.18687,0.80015 -0.35381,0.80015 0.29972,0 0.7042,-0.25765 0.89879,-0.57252 z m 3.4944,-1.63226 c -0.17832,-0.1783 -0.64565,-3.7e-4 -1.03854,0.39545 -0.5677,0.57199 -0.50122,0.63851 0.32421,0.32421 0.57116,-0.21749 0.89259,-0.54133 0.71433,-0.71966 z m 2.59084,-0.67283 c 0,-0.30852 -0.39092,-0.41096 -0.86872,-0.22761 -0.47782,0.18336 -0.86874,0.4358 -0.86874,0.561 0,0.12516 0.39092,0.22759 0.86874,0.22759 0.4778,0 0.86872,-0.25242 0.86872,-0.56098 z m 2.89578,-1.17648 c 0.4778,-0.30879 0.60812,-0.56141 0.28958,-0.56141 -0.31853,0 -0.97008,0.25262 -1.44789,0.56141 -0.4778,0.30878 -0.60812,0.56142 -0.28958,0.56142 0.31853,0 0.9701,-0.25264 1.44789,-0.56142 z m -14.47887,22.84245 c 0,-0.49661 0.26062,-0.74183 0.57915,-0.54497 0.31852,0.19687 0.57915,0.60317 0.57915,0.90291 0,0.29974 -0.26063,0.54498 -0.57915,0.54498 -0.31853,0 -0.57915,-0.40632 -0.57915,-0.90292 z m -8.68733,-1.4137 c 0,-0.31854 0.11486,-0.57916 0.2554,-0.57916 0.14036,0 0.41647,0.26062 0.61334,0.57916 0.19685,0.31853 0.0819,0.57915 -0.25542,0.57915 -0.3373,0 -0.61332,-0.26062 -0.61332,-0.57915 z m 0.84492,-1.776 c -0.20999,-0.33972 -0.24266,-0.75675 -0.0726,-0.92673 0.41483,-0.41485 1.54444,0.31612 1.54444,0.99944 0,0.74015 -0.99987,0.69075 -1.47171,-0.0728 z m -2.00324,-1.37518 c 0,-0.4966 0.26063,-0.9029 0.57917,-0.9029 0.31852,0 0.57915,0.24522 0.57915,0.54496 0,0.29974 -0.26063,0.70606 -0.57915,0.90292 -0.31854,0.19687 -0.57917,-0.0483 -0.57917,-0.54498 z m 81.3076,-3.46631 c -0.19239,-0.50133 -0.14577,-1.3676 0.10372,-1.92505 0.3977,-0.88908 0.4814,-0.85352 0.68138,0.28958 0.12533,0.7167 0.46228,1.3031 0.74869,1.3031 0.28637,0 0.37064,-0.39093 0.18729,-0.86874 -0.18336,-0.4778 -0.0267,-0.86873 0.34807,-0.86873 0.37477,0 0.59809,0.58373 0.49634,1.29718 -0.21835,1.53035 -2.06162,2.08552 -2.56543,0.77266 z m 17.43519,0.2416 c -0.70699,-1.1439 0.27666,-2.78636 1.48025,-2.47162 1.43851,0.37618 1.8097,0.95946 1.35863,2.13496 -0.39277,1.02354 -2.27635,1.24691 -2.83888,0.33666 z m -7.23625,-2.24053 c 0,-0.27952 0.39091,-0.83268 0.86872,-1.22922 0.94297,-0.78261 1.06084,-0.59542 0.51719,0.82136 -0.37211,0.96978 -1.38591,1.26813 -1.38591,0.40786 z m -83.68795,-5.86247 c 0.19687,-0.31853 0.79866,-0.57516 1.33727,-0.57028 0.84401,0.007 0.85929,0.0865 0.11064,0.57028 -1.13422,0.73298 -1.9009,0.73298 -1.44789,0 z m 41.40962,-2.89577 c 0,-0.31854 0.11486,-0.57916 0.25539,-0.57916 0.14054,0 0.41647,0.26062 0.61332,0.57916 0.19687,0.31853 0.0819,0.57915 -0.25539,0.57915 -0.3373,0 -0.61332,-0.26062 -0.61332,-0.57915 z m 45.21481,-2.75099 c 0.0324,-1.74222 0.13919,-1.9427 0.53845,-1.01353 0.69156,1.60942 0.69156,3.18536 0,3.18536 -0.31854,0 -0.56086,-0.97731 -0.53845,-2.17183 z m -481.54761,-1.06422 c -0.46588,-1.21406 -0.44399,-1.3972 0.16688,-1.3972 0.72401,0 1.2756,1.63493 0.67652,2.00519 -0.27124,0.16756 -0.65079,-0.10591 -0.84345,-0.60799 z m 68.46996,-0.37129 c 0.3696,-0.36959 0.91912,-0.36959 1.57956,0 0.85524,0.47862 0.76707,0.56677 -0.56679,0.56677 -1.03003,0 -1.38237,-0.19717 -1.01277,-0.56677 z m -1.92779,-1.02591 c -0.19686,-0.31852 -0.0973,-0.57915 0.22123,-0.57915 0.31854,0 0.74021,0.26063 0.93708,0.57915 0.19687,0.31856 0.0973,0.57917 -0.22121,0.57917 -0.31854,0 -0.74023,-0.26061 -0.9371,-0.57917 z m 416.70219,0.0709 c 0,-0.35754 -0.37455,-0.65008 -0.8323,-0.65008 -0.62949,0 -0.75859,-0.52929 -0.52981,-2.17182 0.49471,-3.55126 0.61952,-3.74794 1.9327,-3.04516 1.43532,0.76817 1.6368,4.68514 0.29815,5.79613 -0.60024,0.49814 -0.86874,0.52005 -0.86874,0.0709 z m 0.39921,-3.98022 c -0.1456,-0.55743 -0.26484,-0.10135 -0.26484,1.01353 0,1.11486 0.11925,1.57096 0.26484,1.01351 0.14577,-0.55743 0.14577,-1.46961 0,-2.02704 z m -419.41802,2.75099 c 0.19687,-0.31854 0.60319,-0.57916 0.90292,-0.57916 0.29972,0 0.54497,0.26062 0.54497,0.57916 0,0.31853 -0.40632,0.57915 -0.90291,0.57915 -0.4966,0 -0.74185,-0.26062 -0.54498,-0.57915 z m -65.34801,-0.3861 c -0.21236,-0.21236 -0.38611,-0.65542 -0.38611,-0.98456 0,-0.36291 0.26976,-0.32871 0.68533,0.0868 0.37693,0.37693 0.55068,0.81998 0.38611,0.98456 -0.16452,0.16452 -0.47298,0.1255 -0.68533,-0.0868 z m 466.26821,-19.68874 c 0.39818,-0.16064 1.04973,-0.16064 1.44789,0 0.39817,0.16064 0.0725,0.29212 -0.72394,0.29212 -0.79634,0 -1.12211,-0.13142 -0.72395,-0.29212 z m 4.77803,-0.79457 c 4.7752,-1.04724 12.41066,-2.44 15.92679,-2.90511 1.9112,-0.25282 5.55987,-0.8658 8.10816,-1.36217 5.01734,-0.97733 10.73604,-1.21747 8.68733,-0.36482 -0.63707,0.26514 -3.37358,0.78876 -6.08114,1.16358 -2.70754,0.37481 -5.57436,0.90958 -6.3707,1.18835 -0.79634,0.27879 -3.14192,0.64626 -5.21239,0.81661 -2.07048,0.17035 -5.45854,0.58136 -7.52902,0.91338 -2.07049,0.332 -5.19791,0.72021 -6.94986,0.86269 l -3.18536,0.25904 2.60619,-0.57155 z m 35.0883,-5.73451 c 1.88221,-0.79245 4.22309,-0.96583 4.41236,-0.32679 0.0949,0.32058 -1.12136,0.63632 -2.7243,0.7072 -2.10604,0.0931 -2.56641,-0.0101 -1.68806,-0.38041 z"
       id="path3099"
       inkscape:connector-curvature="0" />
  </g>
</svg>
